<svg width="369" height="48" viewBox="0 0 369 48" fill="none" xmlns="http://www.w3.org/2000/svg">
<path d="M256 17.3937H259.465L259.614 18.8283C260.679 17.7752 262.078 17.1515 263.554 17.0717C264.266 16.9998 264.983 17.1473 265.613 17.4952C266.243 17.8431 266.759 18.3758 267.093 19.0255C268.253 17.8119 269.829 17.1109 271.484 17.0717C274.276 17.0717 275.622 18.9017 275.622 21.8214V30.679H271.983V21.747C271.983 20.5105 271.484 19.8173 270.363 19.8173C269.836 19.8478 269.321 19.9887 268.85 20.2312C268.378 20.4738 267.96 20.813 267.62 21.2278C267.646 21.5246 267.67 21.7973 267.67 22.0941V30.679H264.006V21.747C264.006 20.5105 263.508 19.8173 262.386 19.8173C261.847 19.8381 261.32 19.985 260.845 20.2467C260.37 20.5084 259.959 20.878 259.644 21.3275V30.679H256.004L256 17.3937Z" fill="#F2F2F2"/>
<path d="M279.037 17.3936H282.702V26.2502C282.702 27.4374 283.126 28.2533 284.421 28.2533C284.985 28.2355 285.538 28.0912 286.042 27.8307C286.546 27.5702 286.989 27.1997 287.338 26.7452V17.3936H291.003V30.679H287.612L287.388 29.1447C286.308 30.2738 284.845 30.93 283.304 30.9758C280.288 30.9758 279.042 29.1688 279.042 26.1757L279.037 17.3936Z" fill="#F2F2F2"/>
<path d="M294.62 12H298.284V30.679H294.62V12Z" fill="#F2F2F2"/>
<path d="M301.949 12H305.614V18.928C306.131 18.3642 306.752 17.9118 307.441 17.5973C308.13 17.2827 308.874 17.1122 309.628 17.0958C312.644 17.0958 313.89 18.9017 313.89 21.8959V30.679H310.23V21.7973C310.23 20.6091 309.756 19.7932 308.485 19.7932C307.924 19.8137 307.374 19.9646 306.877 20.2345C306.381 20.5044 305.95 20.8863 305.618 21.3516V30.679H301.949V12Z" fill="#F2F2F2"/>
<path d="M323.466 17.0717C327.304 17.0717 329.422 19.5708 329.422 23.1323C329.423 23.6712 329.382 24.2092 329.298 24.7411H320.474C320.673 26.9917 321.745 28.1065 323.764 28.1065C325.08 28.084 326.365 27.69 327.478 26.9675L328.999 29.2685C327.373 30.4038 325.451 31.0074 323.485 30.9999C319.546 30.9999 316.754 28.4022 316.754 23.9493C316.717 23.0345 316.865 22.1217 317.189 21.2689C317.514 20.416 318.007 19.6417 318.638 18.995C319.269 18.3484 320.024 17.8435 320.855 17.5124C321.686 17.1813 322.575 17.0312 323.466 17.0717ZM320.548 22.6625H325.96C325.96 20.9845 325.312 19.6935 323.567 19.6935C322.074 19.6935 320.898 20.7328 320.548 22.6625Z" fill="#F2F2F2"/>
<path d="M332.441 17.3936H335.811L336.061 19.447C336.405 18.7112 336.947 18.0919 337.623 17.6622C338.298 17.2326 339.08 17.0105 339.874 17.0223C340.434 17.0134 340.991 17.1053 341.519 17.294L340.997 20.609C340.42 20.4034 339.812 20.303 339.202 20.3123C337.83 20.3123 336.908 21.1512 336.085 22.6876V30.679H332.445L332.441 17.3936Z" fill="#F2F2F2"/>
<path d="M349.446 17.0717C353.285 17.0717 355.403 19.5708 355.403 23.1323C355.404 23.6711 355.362 24.2091 355.279 24.7411H346.454C346.658 26.9917 347.725 28.1065 349.745 28.1065C351.061 28.0839 352.346 27.6899 353.458 26.9675L354.98 29.2685C353.354 30.4035 351.432 31.0071 349.466 30.9999C345.528 30.9999 342.735 28.4022 342.735 23.9493C342.698 23.0346 342.846 22.1219 343.17 21.2691C343.494 20.4164 343.988 19.6421 344.619 18.9954C345.249 18.3488 346.004 17.8439 346.835 17.5127C347.666 17.1815 348.555 17.0313 349.446 17.0717ZM346.528 22.6625H351.94C351.94 20.9845 351.292 19.6935 349.547 19.6935C348.05 19.6935 346.878 20.7328 346.528 22.6625Z" fill="#F2F2F2"/>
<path d="M359.071 27.0168C360.334 27.7603 361.754 28.1764 363.208 28.2292C364.455 28.2292 365.202 27.8338 365.202 26.9707C365.202 24.7191 357.973 26.203 357.973 21.2309C357.973 18.5346 360.441 17.0989 363.283 17.0989C365.006 17.1149 366.706 17.5116 368.267 18.262L366.972 20.7852C365.831 20.2255 364.594 19.9046 363.332 19.8414C362.235 19.8414 361.538 20.2609 361.538 21.0778C361.538 23.2802 368.717 21.7217 368.717 26.741C368.717 29.4866 366.423 30.9716 363.257 30.9716C361.309 30.9732 359.391 30.4804 357.673 29.5369L359.071 27.0168Z" fill="#F2F2F2"/>
<path d="M0.72841 27.8889C0.767498 27.8676 0.800617 27.8369 0.824732 27.7995C0.848848 27.762 0.863194 27.7192 0.866447 27.6748C0.886986 27.585 0.87729 27.4909 0.83885 27.4071C0.91023 27.2362 0.956695 27.0559 0.976862 26.8717C0.984484 26.786 1.01745 26.7046 1.07152 26.6377C1.1256 26.5708 1.19835 26.5215 1.28053 26.4961C1.39096 26.389 1.41857 26.3004 1.36419 26.2284C1.30982 26.1565 1.355 26.1038 1.50223 26.0678C1.5744 25.9286 1.6389 25.7857 1.69546 25.6395C1.75076 25.4977 1.83644 25.3698 1.94644 25.2647C2.27646 24.5177 2.65453 23.7928 3.07828 23.0947C3.53782 22.3268 3.9519 21.5856 4.32054 20.8712C4.49758 20.6661 4.66345 20.4516 4.81744 20.2287C4.96176 20.0207 5.05624 19.7823 5.09352 19.5319H5.20393C5.27699 19.1755 5.52518 19.0416 5.94847 19.1303C6.36988 19.2195 6.78511 19.3357 7.19157 19.4783C7.26579 19.4985 7.33431 19.5357 7.39167 19.587C7.44902 19.6382 7.49363 19.7021 7.52199 19.7736C7.55947 19.9042 7.57807 20.0394 7.57721 20.1752C7.54216 20.19 7.51405 20.2176 7.49853 20.2524C7.48301 20.2872 7.48122 20.3265 7.49355 20.3626C7.5121 20.4437 7.50237 20.5287 7.46596 20.6035C7.21485 20.9809 7.028 21.3972 6.91299 21.8357C6.79845 22.2742 6.61187 22.6906 6.36087 23.0679C6.33038 23.1331 6.28266 23.1886 6.22286 23.2286C6.16383 23.2694 6.11629 23.3247 6.08482 23.3892C5.99388 23.5853 5.92918 23.7926 5.89241 24.0057C5.82467 24.302 5.70303 24.5833 5.53354 24.8356C5.23852 25.4078 4.98085 25.9434 4.76056 26.4426C4.54027 26.9417 4.31943 27.4955 4.09803 28.1039C4.00782 28.5929 3.88796 29.0759 3.73913 29.5503C3.68209 29.7872 3.67494 30.0334 3.71815 30.2731C3.76135 30.5129 3.85398 30.7411 3.99011 30.9432C4.75854 30.756 5.50731 30.4958 6.2262 30.166C6.87034 29.8632 7.54208 29.5328 8.24143 29.1747L9.73299 28.1039L10.1739 27.8354L11.9406 26.5496L13.4313 25.4253C13.6086 25.2989 13.7929 25.1826 13.9835 25.0773C14.1735 24.9709 14.3578 24.8544 14.5356 24.7285C14.9031 24.4429 15.1976 24.2199 15.419 24.0592C15.6404 23.8986 15.9346 23.6931 16.3015 23.4427C16.3662 23.3447 16.452 23.2624 16.5525 23.2018C16.6437 23.1482 16.7633 23.0863 16.9114 23.0144L17.2979 22.7467C17.3494 22.6472 17.4239 22.5614 17.515 22.4962C17.6062 22.4311 17.7116 22.3885 17.8224 22.3719C17.9458 22.3476 18.0601 22.2897 18.1526 22.2045C18.2452 22.1193 18.3124 22.0102 18.3469 21.8892C18.4924 21.9252 18.5669 21.8893 18.5669 21.7822C18.7509 21.8541 18.8179 21.9428 18.761 22.0499C18.7041 22.157 18.7509 22.2465 18.899 22.3176C18.8044 22.3807 18.7356 22.4757 18.7049 22.5852C18.6664 22.6711 18.6383 22.7612 18.6213 22.8538C18.7668 22.9257 18.8597 22.8454 18.8973 22.6129C18.935 22.3803 19.0078 22.2824 19.1174 22.3176C19.1062 22.4172 19.0877 22.5159 19.0621 22.6129C19.0253 22.7735 18.9885 22.8538 18.9517 22.8538C19.1358 22.9257 19.1734 23.0211 19.0621 23.1482C19.0114 23.1891 18.9777 23.2474 18.9677 23.3117C18.9576 23.3761 18.9719 23.4419 19.0078 23.4963C18.9582 23.5484 18.902 23.5937 18.8404 23.6309C18.8036 23.6485 18.766 23.7104 18.7309 23.8183C18.6564 23.8183 18.6472 23.7832 18.7024 23.7104C18.7576 23.6376 18.7116 23.6033 18.5644 23.6033C18.5313 23.6679 18.4945 23.7305 18.454 23.7907C18.4027 23.8828 18.3658 23.982 18.3444 24.0852C18.2699 24.0852 18.2423 24.0592 18.2607 24.0057C18.2764 23.9627 18.2855 23.9176 18.2875 23.8719C18.1035 23.8719 18.0114 23.9254 18.0114 24.0325C17.934 24.0544 17.8633 24.0952 17.8056 24.1513C17.7479 24.2074 17.7051 24.2769 17.681 24.3537C17.6375 24.5101 17.5623 24.6559 17.4601 24.782C17.3489 24.782 17.3121 24.7645 17.3489 24.7285C17.3857 24.6925 17.3489 24.675 17.2385 24.675C17.2753 24.7109 17.2477 24.8088 17.1548 24.9694C17.0638 25.1281 16.962 25.2804 16.8503 25.4253C16.7388 25.5687 16.6551 25.6847 16.5994 25.7733C16.5441 25.8628 16.5525 25.8361 16.6269 25.6897C16.5522 25.6545 16.3866 25.7259 16.13 25.9038C15.9563 26.0176 15.7903 26.1428 15.6331 26.2786L14.9706 26.9219C14.8593 26.9939 14.6669 27.1361 14.3909 27.3502C14.1148 27.5644 13.94 27.7074 13.8664 27.7785L13.7559 27.725C13.7572 27.7401 13.7554 27.7553 13.7507 27.7696C13.7459 27.784 13.7383 27.7973 13.7283 27.8087C13.7091 27.8271 13.7007 27.8706 13.7007 27.9417C13.6639 27.8706 13.6079 27.858 13.5334 27.9157C13.459 27.9734 13.4598 28.032 13.5334 28.1031H13.3661C13.311 28.2381 13.2366 28.3643 13.1453 28.4779C12.9874 28.7015 12.7794 28.8851 12.5379 29.0141V28.7991C12.4635 28.764 12.4275 28.7724 12.4275 28.8259C12.4275 28.8794 12.3907 28.9246 12.3171 28.9597H12.4844C12.4476 29.1028 12.3924 29.1839 12.3171 29.2015C12.2418 29.219 12.1498 29.2458 12.041 29.2851C12.0042 29.2851 12.0134 29.2676 12.0686 29.2316C12.1238 29.1956 12.1146 29.1781 12.041 29.1781C11.9666 29.25 11.8846 29.3387 11.7901 29.4466C11.7023 29.55 11.6 29.6402 11.4864 29.7143C11.4119 29.6072 11.3484 29.5896 11.294 29.6608C11.2428 29.7288 11.1763 29.7838 11.0999 29.8214L10.8239 29.9285C10.7134 30.0004 10.6114 30.0715 10.5202 30.1426C10.3966 30.2273 10.2552 30.2822 10.1069 30.3032C10.071 30.3692 10.0518 30.443 10.0509 30.5182C10.0436 30.5193 10.0361 30.5187 10.029 30.5164C10.022 30.5141 10.0156 30.5102 10.0103 30.505C10.005 30.4998 10.001 30.4935 9.99864 30.4865C9.99625 30.4795 9.99551 30.472 9.9965 30.4647C9.9965 30.4295 9.95886 30.4295 9.88524 30.4647C9.81163 30.5358 9.71792 30.6169 9.60917 30.7056C9.4799 30.8034 9.32848 30.8678 9.16833 30.893C9.02491 31.1394 8.80054 31.3286 8.53339 31.4284C8.25454 31.5355 7.96898 31.6425 7.67675 31.7496C7.27121 32.0181 6.82322 32.2161 6.35168 32.3352C5.94679 32.4066 5.50508 32.4869 5.02658 32.5761C4.5161 32.6656 3.99477 32.6746 3.48149 32.6029C3.11258 32.5309 2.75452 32.4774 2.40484 32.4423C2.12637 32.4266 1.85413 32.3537 1.60511 32.2281C1.35388 32.0564 1.13805 31.838 0.969356 31.5848C0.802047 31.3355 0.66428 31.1214 0.556087 30.9424C0.444827 30.9072 0.388794 30.8537 0.388794 30.7817C0.368744 30.6746 0.30898 30.579 0.221474 30.514C0.221474 30.4789 0.231504 30.4605 0.249072 30.4605C0.266639 30.4605 0.277511 30.4254 0.277511 30.3526C0.203895 30.4254 0.147862 30.4605 0.110218 30.4605C0.071398 30.3906 0.0585096 30.3092 0.0738128 30.2307C0.0891161 30.1522 0.131634 30.0816 0.193877 30.0313C0.323542 29.9243 0.331898 29.7804 0.221474 29.603C0.132137 29.7268 0.0927219 29.8798 0.11106 30.0313C0.0732135 29.9926 0.043834 29.9464 0.0248221 29.8958C0.00581016 29.8451 -0.00243306 29.7909 0.000620268 29.7369C0.000620268 29.6122 0.0750791 29.5495 0.221474 29.5495C0.235341 29.2847 0.310979 29.0269 0.442329 28.7966C0.41229 28.7941 0.382043 28.7975 0.353333 28.8067C0.324624 28.8159 0.298007 28.8307 0.275009 28.8501C0.302604 28.6882 0.379425 28.5386 0.495021 28.4218C0.551224 28.3661 0.595157 28.2991 0.62397 28.2254C0.652783 28.1516 0.665849 28.0726 0.66234 27.9935C0.589561 27.9935 0.561113 28.0295 0.578681 28.1006C0.596248 28.1717 0.588708 28.2077 0.551901 28.2077C0.478285 28.0298 0.551622 27.7975 0.771912 27.5108C0.80872 27.5108 0.827132 27.4757 0.827132 27.4038C0.819521 27.4945 0.780474 27.5797 0.716718 27.6447C0.699626 27.6605 0.686188 27.6799 0.677377 27.7015C0.668566 27.723 0.664594 27.7463 0.66571 27.7695C0.666826 27.7928 0.673002 27.8156 0.683836 27.8362C0.69467 27.8568 0.709882 27.8748 0.72841 27.8889ZM9.89277 15.621C9.81916 15.657 9.80075 15.6837 9.8384 15.7047C9.87604 15.7256 9.85595 15.7682 9.78233 15.8394C9.59859 15.9783 9.45438 16.1629 9.36406 16.3748C9.32455 16.4758 9.24935 16.5589 9.15268 16.6082C9.05601 16.6576 8.9446 16.6697 8.83956 16.6424C8.6549 16.7147 8.49971 16.8466 8.39869 17.0172C8.28432 17.0327 8.16791 17.0141 8.06408 16.9637C8.02727 16.9285 7.97205 16.875 7.89676 16.8031C7.71189 16.8031 7.60063 16.8566 7.56215 16.9637C7.28679 16.8791 7.01899 16.7717 6.76158 16.6424C6.55913 16.5354 6.3291 16.4283 6.07144 16.3212C6.0709 16.0035 6.1174 15.6875 6.20945 15.3835C6.30147 15.0806 6.56917 14.9652 7.01003 15.0354C7.08364 14.9643 7.1397 14.9284 7.17735 14.9284C7.21952 14.9257 7.25893 14.9065 7.28694 14.8748C7.68539 14.9006 8.07698 14.991 8.44638 15.1425C8.83368 15.2983 9.24414 15.3888 9.66104 15.4102C9.59579 15.5482 9.66942 15.6193 9.89027 15.6193L9.89277 15.621ZM11.4395 29.3897C11.5199 29.3861 11.5971 29.3568 11.6596 29.306C11.7332 29.2503 11.7332 29.1876 11.6596 29.1178L11.4395 29.3897ZM17.3455 24.4608C17.2122 24.4877 17.0941 24.5642 17.0151 24.675C16.9972 24.6995 16.9843 24.7274 16.9773 24.757C16.9704 24.7866 16.9695 24.8173 16.9746 24.8473C16.9798 24.8772 16.9909 24.9059 17.0073 24.9314C17.0238 24.957 17.0452 24.9791 17.0703 24.9962C17.0748 24.9341 17.0919 24.8735 17.1207 24.8182C17.1495 24.763 17.1893 24.7142 17.2376 24.675C17.269 24.648 17.2945 24.615 17.3126 24.5779C17.3307 24.5408 17.3411 24.5004 17.343 24.4591L17.3455 24.4608ZM17.8977 24.1931C17.8609 24.158 17.8793 24.1396 17.9537 24.1396L17.8977 24.1931Z" fill="#211915"/>
<path d="M40.4199 27.6204C40.4199 27.4771 40.3558 27.459 40.2275 27.566C40.0674 27.705 39.9194 27.8572 39.785 28.0211C39.6177 28.2186 39.4445 28.4235 39.2605 28.6377C39.1246 28.8116 38.9561 28.9573 38.7644 29.0668C38.6164 28.9957 38.6164 28.8786 38.7644 28.718C38.9125 28.5573 38.9844 28.4419 38.9844 28.37C38.9328 28.3614 38.8798 28.365 38.8298 28.3806C38.7798 28.3962 38.7342 28.4234 38.6966 28.4598C38.659 28.4963 38.6305 28.5411 38.6134 28.5905C38.5962 28.64 38.591 28.6928 38.5979 28.7447C38.5979 28.9957 38.5235 29.1195 38.3779 29.1195C38.3303 29.2166 38.2605 29.3012 38.1742 29.3665C38.0879 29.4317 37.9875 29.4758 37.881 29.4951C37.6414 29.5581 37.4163 29.6672 37.2185 29.8164H37.3021C37.3933 29.8164 37.4209 29.8523 37.3858 29.9234C37.3113 29.8523 37.2745 29.8523 37.2745 29.9234C37.2745 29.9945 37.2377 30.0129 37.1649 29.977V29.8699C37.0905 29.9418 37.0261 29.9234 36.9717 29.8164C36.9173 29.7093 36.9801 29.6917 37.1649 29.7628C37.2007 29.6595 37.2194 29.551 37.2201 29.4416C37.1097 29.3705 37.0261 29.3797 36.9692 29.4683C36.9032 29.5792 36.8472 29.6956 36.8019 29.8164C36.748 29.9552 36.6831 30.0895 36.6078 30.2179C36.5342 30.3434 36.3878 30.3852 36.1669 30.3517C36.5061 30.1282 36.7743 29.8124 36.9399 29.4416C36.5765 29.5981 36.2686 29.8604 36.0565 30.1945C36.0189 30.0874 35.9645 30.079 35.8892 30.1677C35.8248 30.2419 35.7687 30.323 35.7219 30.4095C35.5747 30.4095 35.5011 30.3735 35.5011 30.3015H35.4458C35.4298 30.3149 35.4167 30.3313 35.4072 30.3498C35.3977 30.3684 35.392 30.3887 35.3906 30.4095C35.2924 30.4512 35.1997 30.5048 35.1146 30.5692L34.8937 30.7842C34.9665 30.7842 35.0125 30.7667 35.0318 30.7299C35.051 30.6931 35.0962 30.7123 35.1698 30.7842C35.0962 30.8562 35.0125 30.9448 34.9188 31.0519C34.8863 31.0999 34.8393 31.1362 34.7846 31.1554C34.7299 31.1747 34.6706 31.176 34.6152 31.159C34.5407 31.159 34.5315 31.1414 34.5875 31.1055C34.6436 31.0695 34.6511 30.9984 34.6152 30.8913C34.5251 30.9085 34.4415 30.95 34.3733 31.0114C34.3052 31.0727 34.2552 31.1515 34.2287 31.2393C34.1919 31.3999 34.0803 31.4624 33.8941 31.4267C33.93 31.3196 33.93 31.2485 33.8941 31.2126C33.8699 31.2291 33.8423 31.2401 33.8134 31.2447C33.7845 31.2493 33.7549 31.2475 33.7267 31.2393C33.6368 31.2152 33.5435 31.2062 33.4507 31.2126C33.4496 31.2306 33.4544 31.2485 33.4644 31.2636C33.4743 31.2786 33.4889 31.2901 33.5059 31.2962C33.5419 31.3146 33.5611 31.3589 33.5611 31.43C33.2248 31.6195 32.8426 31.7121 32.4569 31.6977C31.9827 31.6879 31.522 31.5389 31.1318 31.2694C30.5947 31.2374 30.0649 31.1292 29.5582 30.9482C29.0941 30.7851 28.6421 30.5894 28.2055 30.3626C28.2055 30.3275 28.2616 30.3091 28.3729 30.3091C28.375 30.28 28.3712 30.2509 28.3619 30.2233C28.3525 30.1957 28.3378 30.1703 28.3185 30.1485C28.2808 30.1133 28.2265 30.0598 28.1512 29.9878C28.0767 29.9878 28.0408 30.0146 28.0408 30.0715C28.0399 30.0964 28.0443 30.1211 28.0537 30.1442C28.0631 30.1673 28.0772 30.1881 28.0951 30.2053C27.8646 30.0505 27.6905 29.8251 27.599 29.5629C27.515 29.311 27.337 29.1013 27.1021 28.9773C27.0653 28.8351 27.0377 28.7096 27.0185 28.6025C27.0166 28.5792 27.0101 28.5565 26.9993 28.5357C26.9885 28.5149 26.9737 28.4965 26.9557 28.4816C26.9377 28.4666 26.9169 28.4554 26.8945 28.4486C26.8721 28.4418 26.8485 28.4395 26.8252 28.4419C26.6152 27.4564 26.5225 26.4494 26.5492 25.4421C26.5854 24.5497 26.6588 23.4603 26.7692 22.1737C26.4652 22.2877 26.198 22.4824 25.9962 22.7367C25.7946 22.9906 25.5277 23.185 25.2241 23.2988C23.9726 24.5843 22.6751 25.8433 21.3316 27.0758C19.978 28.3199 18.7486 29.6927 17.6609 31.1749C17.4904 31.203 17.3345 31.2879 17.2184 31.4158C17.091 31.5547 16.9422 31.6722 16.7775 31.7638C16.5125 31.8034 16.2448 31.8216 15.9769 31.8182C15.6126 31.8106 15.2508 31.7563 14.9003 31.6567C14.8643 31.6216 14.8643 31.5731 14.9003 31.5229C14.9363 31.4727 14.9363 31.4393 14.9003 31.4393C14.4954 31.297 14.1817 31.1983 13.9617 31.1448C13.7417 31.0912 13.6271 30.8152 13.6271 30.3141C13.6261 30.1411 13.6543 29.9691 13.7107 29.8055C13.7662 29.6413 13.7757 29.4652 13.7383 29.296C13.7383 29.1889 13.7752 29.1287 13.8488 29.1086C13.8809 29.1048 13.9103 29.0888 13.9308 29.0639C13.9514 29.0389 13.9616 29.007 13.9592 28.9748C14.4034 27.1467 15.013 25.3628 15.7803 23.6452C16.5165 22.0195 17.1791 20.3854 17.768 18.743C17.952 18.8861 18.2105 18.8685 18.5409 18.6895C18.7746 18.7791 19.0149 18.8507 19.2595 18.9036C19.5805 18.9854 19.8944 19.0928 20.1981 19.2249C20.2456 19.3096 20.3113 19.3828 20.3905 19.439C20.4825 19.511 20.5645 19.5829 20.6415 19.654C20.6135 20.3674 20.4446 21.0682 20.1446 21.7161C19.8501 22.3413 19.5559 22.9929 19.262 23.6711C19.0769 24.1362 18.8653 24.6722 18.6271 25.2789C18.389 25.8857 18.177 26.4392 17.9913 26.9395C18.0072 27.0618 17.9774 27.1857 17.9077 27.2875C17.8433 27.3558 17.796 27.4383 17.7696 27.5284C18.2481 27.0265 18.7359 26.464 19.2328 25.8411C19.7297 25.2181 20.199 24.6376 20.6407 24.0994C21.1634 23.7726 21.6534 23.396 22.1038 22.9751C22.5668 22.542 23.0608 22.1433 23.582 21.7822C24.0865 21.396 24.6118 21.0377 25.1555 20.7089C25.6661 20.4037 26.155 20.0636 26.6186 19.6908C26.8694 19.693 27.1131 19.6078 27.3079 19.4499C27.507 19.2909 27.7456 19.189 27.9981 19.1554C28.2917 19.1552 28.5793 19.2388 28.8271 19.3964C29.1288 19.5687 29.4729 19.6525 29.8201 19.6381V19.7443C29.8562 19.7314 29.8949 19.7269 29.9331 19.7313C29.9713 19.7357 30.008 19.7487 30.0403 19.7695C30.0726 19.7903 30.0997 19.8182 30.1196 19.8511C30.1394 19.884 30.1514 19.9211 30.1547 19.9594C30.1954 20.1495 30.2699 20.3309 30.3747 20.4947C30.3379 20.816 30.3002 21.2476 30.2643 21.7805C30.2504 22.2287 30.136 22.6681 29.9297 23.0663C30.0409 22.9952 30.0208 23.093 29.8753 23.3607C29.7297 23.6284 29.708 23.8167 29.8193 23.9237C29.6306 25.1125 29.6306 26.3237 29.8193 27.5125C29.877 28.1122 30.1293 28.6766 30.5378 29.1195C31.0152 29.1915 31.4201 29.2364 31.7525 29.2542C32.0572 29.2739 32.3632 29.2559 32.6635 29.2007C32.957 29.141 33.2435 29.051 33.5184 28.9321C33.8816 28.771 34.2322 28.5831 34.5675 28.37L34.7607 28.1826C34.8159 28.129 34.9171 28.1383 35.0644 28.2094C35.3948 28.1567 35.7021 28.0074 35.9478 27.7802C36.0455 27.6776 36.1752 27.6111 36.3155 27.5917C36.4559 27.5722 36.5988 27.6009 36.7207 27.6731C36.7803 27.6272 36.8198 27.5601 36.8312 27.4857C36.8343 27.4199 36.8529 27.3556 36.8855 27.2983C36.9592 27.3343 36.9775 27.3611 36.9416 27.382C36.9056 27.4029 36.9223 27.4272 36.9968 27.4657C37.0447 27.3851 37.0641 27.2909 37.052 27.198C37.1043 27.2331 37.1647 27.254 37.2275 27.2587C37.2902 27.2634 37.3532 27.2517 37.41 27.2247C37.47 27.2034 37.5214 27.1631 37.5564 27.11C37.5914 27.0569 37.6082 26.9938 37.6041 26.9303C37.7375 26.9035 37.8557 26.827 37.9346 26.7161C37.9994 26.6195 38.0736 26.5295 38.1562 26.4476C38.1027 26.4945 38.0562 26.5489 38.0182 26.609C37.9826 26.6957 37.9546 26.7852 37.9346 26.8767C38.229 26.7345 38.3771 26.609 38.3771 26.5011C38.3771 26.3932 38.4683 26.2502 38.6532 26.0728C38.8729 25.9657 39.1029 25.8408 39.3433 25.698C39.5843 25.5541 39.8147 25.3931 40.0326 25.2162C40.2085 25.1148 40.375 24.998 40.5304 24.8673C40.6783 24.7419 40.8462 24.6424 41.0273 24.5729C41.1187 24.4816 41.2026 24.3832 41.2782 24.2784C41.3257 24.2157 41.3913 24.1692 41.4662 24.1453C41.5411 24.1213 41.6215 24.1211 41.6965 24.1446C41.7767 24.0837 41.8723 24.0466 41.9726 24.0375C42.0453 24.0375 42.0905 23.984 42.1106 23.8769C42.1241 23.8059 42.133 23.7341 42.1374 23.6619C42.3962 23.6322 42.6484 23.5599 42.8835 23.4477C43.1569 23.3609 43.3974 23.1928 43.5729 22.9659C43.6097 22.9659 43.6281 22.8948 43.6281 22.7517C43.7017 22.7517 43.7385 22.7701 43.7385 22.8053C43.7385 22.8404 43.7745 22.8588 43.8489 22.8588C43.9226 22.7877 43.9226 22.7517 43.8489 22.7517C43.7753 22.7517 43.7569 22.6974 43.7937 22.5903C43.8665 22.6622 43.9041 22.6739 43.9041 22.6179V22.4305C43.9778 22.3954 44.0146 22.4129 44.0146 22.484C44.0146 22.5551 44.033 22.5736 44.0706 22.5376C44.0706 22.5736 44.0505 22.5903 44.0146 22.5903C43.9786 22.5903 43.9594 22.6262 43.9594 22.6974C44.1058 22.6262 44.2538 22.7434 44.4011 23.0462C44.4697 23.2142 44.4854 23.3992 44.4459 23.5764C44.4064 23.7536 44.3137 23.9145 44.1802 24.0375C44.1426 24.0375 44.1426 24.0467 44.1802 24.0643C44.2179 24.0818 44.1986 24.1094 44.125 24.1479C44.0826 24.3687 43.9642 24.5676 43.7904 24.7101C43.6462 24.8481 43.5169 25.0009 43.4047 25.166L40.4199 27.6204ZM34.8444 30.7809C34.7699 30.7809 34.7239 30.8261 34.7063 30.9147C34.6888 31.0034 34.7339 31.0486 34.8444 31.0486V30.7809ZM35.4517 30.3517V30.4061H35.3965C35.4325 30.4061 35.4425 30.3969 35.4241 30.3785C35.4057 30.3601 35.4149 30.3517 35.4517 30.3517ZM35.5069 30.5659C35.3965 30.6378 35.3781 30.6019 35.4517 30.4596L35.5069 30.5659ZM37.2185 29.813L37.1633 29.8665C37.1706 29.8676 37.1781 29.867 37.1852 29.8647C37.1923 29.8624 37.1987 29.8585 37.204 29.8534C37.2094 29.8482 37.2135 29.8419 37.216 29.8349C37.2185 29.8279 37.2193 29.8204 37.2185 29.813ZM39.7574 26.8667C39.831 26.9027 39.9247 26.8667 40.0335 26.7596L40.1447 26.6525C40.0659 26.6463 39.9869 26.6637 39.918 26.7024C39.849 26.7411 39.7931 26.7995 39.7574 26.87V26.8667ZM41.9667 25.6345C41.9667 25.7416 41.9291 25.7775 41.8555 25.7415C41.7818 25.7056 41.7082 25.7775 41.6346 25.9557C41.9291 25.8871 42.0409 25.7811 41.9701 25.6378L41.9667 25.6345Z" fill="#211915"/>
<path d="M41.4137 30.6194C41.4741 30.3557 41.6214 30.12 41.832 29.9502C42.0514 29.771 42.2463 29.5637 42.4117 29.3337C42.3549 29.4201 42.2902 29.501 42.2185 29.5754C42.1473 29.6597 42.0997 29.7613 42.0804 29.8699C42.3032 29.7815 42.5032 29.644 42.6657 29.4678C42.8282 29.2916 42.949 29.081 43.019 28.8518C43.1646 28.9589 43.2951 28.9238 43.4055 28.7447C43.5066 28.5739 43.6622 28.4419 43.8472 28.37L43.9016 28.3164C43.937 28.3003 43.9665 28.2736 43.9863 28.2401C44.006 28.2066 44.015 28.1678 44.012 28.129C44.0182 28.0216 44.057 27.9186 44.1233 27.8337C44.1409 27.8341 44.1583 27.8292 44.1732 27.8196C44.1881 27.8101 44.1998 27.7964 44.2069 27.7802C44.2245 27.7451 44.2705 27.7266 44.3449 27.7266C44.3717 27.6483 44.4151 27.5766 44.4722 27.5166C44.5292 27.4565 44.5985 27.4095 44.6754 27.3787C44.8095 27.3356 44.9266 27.2513 45.01 27.1377C45.046 27.1377 45.1196 27.0842 45.23 26.9771C45.4791 26.7325 45.7815 26.549 46.1134 26.4409C46.4434 26.3361 46.7328 26.1315 46.9416 25.8553C47.4115 25.6815 47.8569 25.4476 48.2667 25.1593C48.6974 24.8579 49.1604 24.6054 49.647 24.4064C49.8007 23.7206 49.857 23.0166 49.8143 22.315C49.7971 21.6087 49.6276 20.9145 49.3174 20.2797C49.169 20.4231 48.9942 20.5837 48.7929 20.7616C48.5683 20.9628 48.3562 21.1777 48.1579 21.4049L47.4954 21.9905L46.7233 22.6865L45.7286 23.5439C45.4848 23.7826 45.2267 24.0061 44.9556 24.2132C44.754 24.3764 44.5311 24.5115 44.2931 24.6147C44.0861 24.8856 43.8451 25.1288 43.5762 25.3383C43.3531 25.4989 43.1504 25.4543 42.968 25.2045C42.9067 25.1137 42.8326 25.0322 42.748 24.9627C42.7292 24.9543 42.7082 24.9524 42.6882 24.9572C42.6682 24.9621 42.6504 24.9734 42.6376 24.9895C42.5999 25.0255 42.5731 25.043 42.5539 25.043C42.5347 25.043 42.4702 24.9719 42.3606 24.8289C42.2126 24.8289 42.1298 24.874 42.1097 24.9627C42.0896 25.0514 42.0821 25.0464 42.0821 24.9359C42.1206 24.8597 42.1487 24.7787 42.1658 24.695C42.185 24.6063 42.2302 24.5796 42.3038 24.6114C42.522 24.4714 42.7258 24.31 42.912 24.1295C43.0147 24.0036 43.0897 23.8573 43.132 23.7004C43.1857 23.5205 43.2805 23.3555 43.4089 23.2185C43.5542 23.0964 43.723 23.0053 43.9049 22.9508C44.0957 22.8885 44.267 22.7775 44.4018 22.6287C44.4759 22.5574 44.5244 22.4636 44.5399 22.3619C44.5555 22.2598 44.604 22.1655 44.6779 22.0934C44.8251 21.9863 44.9723 21.8881 45.1196 21.7989C45.2396 21.7311 45.3518 21.6503 45.4542 21.558C45.73 21.1863 46.0346 20.837 46.3652 20.5131C46.6362 20.2573 46.8855 19.9795 47.1106 19.6824C47.2169 19.3795 47.3999 19.1092 47.6418 18.8981C47.8837 18.6869 48.1763 18.5421 48.4909 18.4778C48.7161 18.4204 48.951 18.4122 49.1797 18.4538C49.4084 18.4953 49.6254 18.5857 49.816 18.7188C50.2116 18.688 50.607 18.7816 50.947 18.9864C51.225 19.2164 51.4431 19.5103 51.5827 19.8431C51.7153 20.0377 51.8091 20.2561 51.8588 20.4864C51.9313 20.7725 51.9957 21.085 52.052 21.4241C52.1073 21.7638 52.1624 22.0934 52.2193 22.4154C52.2688 22.6804 52.2968 22.949 52.303 23.2185C52.6994 23.181 53.089 23.091 53.4616 22.9508C54.0137 22.7729 54.5934 22.5853 55.2008 22.3878C55.8081 22.1904 56.3786 22.012 56.9124 21.8525C57.2781 21.7252 57.6583 21.6442 58.0442 21.6115C58.081 21.6115 58.1178 21.5764 58.1555 21.5044C58.1914 21.5764 58.2391 21.6032 58.2927 21.5881C58.3553 21.5693 58.4205 21.5602 58.4859 21.5613C58.7435 21.4899 59.0196 21.4275 59.3141 21.3739C59.5971 21.3254 59.8631 21.2057 60.087 21.0259C60.1317 21.0445 60.1804 21.0517 60.2285 21.0469C60.2767 21.0421 60.323 21.0254 60.3631 20.9983C60.4359 20.9448 60.5304 20.8829 60.6392 20.8109V20.9724C60.7119 20.9724 60.7496 20.8829 60.7496 20.7039C61.0799 20.7403 61.4131 20.7403 61.7434 20.7039C62.0005 20.6687 62.2766 20.633 62.5716 20.5968C62.7163 20.6694 62.8791 20.6985 63.04 20.6805C63.1636 20.6719 63.2851 20.6437 63.3998 20.5968L64.1727 20.7574C64.1727 20.9364 64.2455 20.9724 64.3936 20.8645C64.3568 20.9364 64.3467 20.9808 64.3651 20.9983C64.3753 21.0096 64.3831 21.0228 64.388 21.0372C64.3929 21.0516 64.3948 21.0668 64.3936 21.082C64.3936 21.1171 64.4112 21.1347 64.4488 21.1347C64.4488 21.1707 64.4848 21.1882 64.5592 21.1882C64.5665 21.1893 64.574 21.1887 64.5811 21.1864C64.5881 21.1841 64.5945 21.1803 64.5998 21.1751C64.6051 21.1699 64.6091 21.1635 64.6114 21.1565C64.6138 21.1495 64.6146 21.142 64.6136 21.1347C64.6407 21.2247 64.6879 21.3074 64.7516 21.3765C64.7799 21.4092 64.7976 21.4496 64.8027 21.4926C64.8078 21.5355 64.7999 21.579 64.7801 21.6174C64.624 21.6861 64.4532 21.7149 64.2832 21.701C64.1539 21.6822 64.0221 21.6913 63.8967 21.7278C63.8967 21.7997 63.9142 21.8349 63.9511 21.8349C63.9933 21.8381 64.0328 21.8572 64.0615 21.8884C63.8786 21.9954 63.6634 22.0333 63.455 21.9955C63.2341 21.9604 63.0861 22.0674 63.0124 22.3167C62.682 22.3895 62.3775 22.469 62.1015 22.5585C61.7693 22.6588 61.427 22.7216 61.0809 22.7459C60.9938 22.8112 60.9341 22.9066 60.9135 23.0136C60.8374 22.9622 60.7498 22.9305 60.6584 22.9212C60.5671 22.9118 60.4748 22.9252 60.3899 22.96C60.2384 23.0271 60.0814 23.0809 59.9206 23.1206C59.6112 23.1499 59.3108 23.241 59.0372 23.3883C58.7605 23.5384 58.463 23.6466 58.1546 23.7096L53.7929 25.371L52.8543 25.826C52.5501 25.9648 52.2846 26.1763 52.0813 26.4417C52.0539 26.8402 51.9308 27.2261 51.7224 27.5669C51.5277 27.8553 51.4044 28.1859 51.3627 28.5314C51.1787 28.5677 51.0685 28.6391 51.0323 28.7456C50.9852 28.8742 50.9293 28.9994 50.865 29.1203C50.9386 29.1203 50.9662 29.076 50.9486 28.9865C50.9311 28.897 50.9578 28.8886 51.0323 28.9597C50.9578 29.1387 50.865 29.3445 50.7562 29.5762C50.6396 29.8166 50.4696 30.0272 50.2593 30.192C50.4054 30.2282 50.4054 30.2907 50.2593 30.3793C50.1113 30.4689 50.092 30.5667 50.2041 30.6738C50.1055 30.7264 50.013 30.7895 49.9281 30.862C49.8176 30.9515 49.7984 31.0293 49.8728 31.103C49.7984 31.103 49.7624 31.1481 49.7624 31.2368C49.7624 31.3255 49.7072 31.3355 49.5951 31.2636C49.6687 31.3707 49.6687 31.4426 49.5951 31.4777C49.5215 31.5129 49.5206 31.5672 49.5951 31.6384C49.3821 31.8436 49.1881 32.0675 49.0154 32.3076C48.8481 32.5393 48.6749 32.7626 48.4909 32.9768C48.454 33.0119 48.4633 33.022 48.5185 33.0036C48.5737 32.9852 48.582 33.012 48.5461 33.0872C48.0482 33.606 47.5229 34.0977 46.9725 34.5604C46.3929 35.0317 45.7276 35.3864 45.0134 35.6052C45.0493 35.5333 45.0033 35.5157 44.8753 35.5517C44.7473 35.5877 44.6812 35.5868 44.6812 35.5517C44.6812 35.4797 44.718 35.4519 44.7917 35.468C44.8664 35.4853 44.9449 35.4759 45.0134 35.4413C44.9029 35.2623 44.7733 35.2087 44.6269 35.2806C44.5075 35.3443 44.3755 35.3809 44.2404 35.3877C44.2404 35.4948 44.2203 35.5483 44.1843 35.5483V35.4413C44.0355 35.4414 43.8872 35.4594 43.7426 35.4948C43.5574 35.527 43.3669 35.5085 43.1913 35.4413C43.1537 35.4413 43.1353 35.4588 43.1353 35.4948C43.1353 35.5308 43.0993 35.5483 43.0257 35.5483C42.389 35.6035 41.7493 35.4832 41.1761 35.2004C40.702 34.9529 40.2947 34.5944 39.9891 34.1555C39.9154 34.1906 39.8694 34.1823 39.851 34.1287C39.8326 34.0752 39.7875 34.066 39.713 34.102C39.6394 34.03 39.6294 33.9765 39.6846 33.9414C39.7398 33.9062 39.7506 33.8159 39.713 33.6737C39.6394 33.8159 39.5666 33.8694 39.4921 33.8343C39.4177 33.7991 39.3449 33.8343 39.2713 33.9414C39.1609 33.8343 39.1701 33.7623 39.2989 33.7272C39.4277 33.6921 39.4369 33.6201 39.3265 33.5122C39.2903 33.4414 39.2624 33.4414 39.2429 33.5122C39.2253 33.5841 39.2153 33.5482 39.2153 33.406C39.25 33.3026 39.2963 33.2036 39.3533 33.1107C39.4085 33.022 39.5281 32.9768 39.7122 32.9768C39.6871 32.7847 39.7041 32.5895 39.7619 32.4047C39.8196 32.2198 39.9168 32.0497 40.0468 31.906C40.0498 31.9607 40.0404 32.0153 40.0192 32.0658C39.9978 32.1168 39.9884 32.172 39.9916 32.2273C40.0961 32.1771 40.1893 32.106 40.2653 32.0184C40.3412 31.9307 40.3984 31.8285 40.4333 31.7178C40.5495 31.4315 40.6419 31.136 40.7093 30.8344C40.8942 30.9415 41.0222 30.9239 41.0958 30.7809C41.1204 30.7202 41.1662 30.6704 41.2246 30.6408C41.283 30.6111 41.3501 30.6035 41.4137 30.6194ZM41.8554 30.1911C41.8554 30.0129 41.873 29.9234 41.9098 29.9234C41.9098 30.1024 41.8914 30.1911 41.8554 30.1911ZM46.0515 29.2801C46.0529 29.2953 46.0511 29.3106 46.0462 29.325C46.0413 29.3394 46.0334 29.3526 46.0231 29.3638C46.0129 29.375 46.0051 29.3883 46.0004 29.4027C45.9956 29.4171 45.9939 29.4323 45.9954 29.4474C45.6408 29.6835 45.3243 29.9724 45.0569 30.3041C44.7721 30.6515 44.4583 30.9741 44.1191 31.2686C44.1191 31.4116 44.0814 31.4476 44.0078 31.3757C43.971 31.4476 43.961 31.4828 43.981 31.4828C44.0011 31.4828 44.0078 31.5012 44.0078 31.5363C43.9107 31.5614 43.8205 31.6082 43.7441 31.6733C43.6677 31.7384 43.6072 31.82 43.567 31.9119C43.5316 31.9108 43.4968 31.9204 43.467 31.9393C43.4372 31.9583 43.4137 31.9857 43.3996 32.0181C43.2551 32.2648 43.0566 32.4756 42.8191 32.6347C42.6932 32.7265 42.587 32.8426 42.5065 32.976C42.4261 33.1095 42.3731 33.2576 42.3506 33.4118C42.4242 33.447 42.4602 33.4955 42.4602 33.5457C42.4595 33.5707 42.4642 33.5955 42.4738 33.6186C42.4835 33.6417 42.498 33.6624 42.5163 33.6795C42.9571 33.5356 43.3712 33.3851 43.7577 33.2236C44.1442 33.0621 44.5399 32.889 44.9448 32.715C44.9079 32.5722 44.9079 32.4919 44.9448 32.4741C44.9816 32.4557 45.0008 32.4113 45.0008 32.3402C45.7533 31.7148 46.4214 30.9944 46.9884 30.197C47.5882 29.3564 48.1057 28.4599 48.5335 27.52L48.4783 27.4665C48.0764 27.75 47.6894 28.054 47.3189 28.3775C46.9243 28.7157 46.5001 29.0178 46.0515 29.2801ZM45.0025 35.5483C45.1893 35.4798 45.3456 35.347 45.4433 35.1736C45.4108 35.2073 45.3718 35.2341 45.3287 35.2525C45.2856 35.2709 45.2392 35.2805 45.1924 35.2806C45.1029 35.2806 45.0384 35.3693 45.0025 35.5483Z" fill="#211915"/>
<path d="M84.8613 23.0663C84.8628 23.0814 84.861 23.0966 84.8563 23.111C84.8515 23.1254 84.8438 23.1387 84.8337 23.1499C84.8233 23.1611 84.8155 23.1743 84.8108 23.1887C84.806 23.2032 84.8044 23.2185 84.8061 23.2336V23.18L84.6957 23.2871V23.3407L84.8061 23.3942C84.7704 23.4623 84.7424 23.5341 84.7224 23.6084C84.7064 23.7341 84.7158 23.8619 84.7501 23.9839C84.7501 24.0199 84.7317 24.0375 84.6949 24.0375H84.5844C84.5917 24.0363 84.5992 24.0368 84.6063 24.0389C84.6134 24.0411 84.6198 24.0449 84.6252 24.05C84.6306 24.0552 84.6347 24.0615 84.6372 24.0684C84.6397 24.0754 84.6405 24.0828 84.6396 24.0902C84.6302 24.1663 84.65 24.2431 84.6949 24.3052C84.545 24.4018 84.4282 24.5419 84.3602 24.7067C84.3031 24.8615 84.2082 24.9995 84.0842 25.1083C84.0465 25.1083 84.0465 25.0907 84.0842 25.0547C84.0925 25.0485 84.0992 25.0404 84.1039 25.0311C84.1085 25.0218 84.1109 25.0116 84.1109 25.0012C84.1109 24.9908 84.1085 24.9806 84.1039 24.9713C84.0992 24.962 84.0925 24.9539 84.0842 24.9477C83.9587 25.0392 83.8698 25.1723 83.8332 25.3233C83.7832 25.4893 83.7185 25.6505 83.64 25.8051C83.6314 25.8426 83.6148 25.8779 83.5912 25.9083C83.5677 25.9388 83.5379 25.9638 83.5038 25.9816C83.4696 25.9994 83.4321 26.0096 83.3936 26.0115C83.3552 26.0134 83.3168 26.0069 83.2811 25.9925C83.1138 25.9367 83.0301 25.9992 83.0301 26.1799C82.86 26.2866 82.7025 26.4123 82.5608 26.5547C82.5199 26.6055 82.4829 26.6595 82.4504 26.7161C82.3885 26.7912 82.3137 26.8547 82.2296 26.9035C82.1007 26.9933 81.8157 27.1628 81.3746 27.4121C81.1399 27.4796 80.8993 27.5244 80.656 27.546C80.4105 27.575 80.1795 27.6777 79.9935 27.8404C79.9935 27.8764 79.9751 27.894 79.9383 27.894H79.8839C79.819 27.9903 79.745 28.0803 79.663 28.1625L79.4957 28.3231C79.4796 28.3362 79.4663 28.3524 79.4566 28.3709C79.447 28.3893 79.4412 28.4095 79.4397 28.4302C79.2514 28.4048 79.0598 28.4339 78.8875 28.5138C78.6967 28.5615 78.524 28.6638 78.3906 28.8083C78.317 28.7372 78.2233 28.7464 78.1146 28.8351C78.0575 28.8845 78.0126 28.9464 77.9836 29.0161C77.9546 29.0858 77.9421 29.1613 77.9473 29.2366C77.9096 29.0944 77.882 29.0417 77.8636 29.0768C77.8452 29.112 77.7992 29.1295 77.7256 29.1295C77.6765 29.2311 77.6071 29.3215 77.5218 29.3953C77.4365 29.4691 77.337 29.5247 77.2295 29.5587L77.3968 29.3437C77.26 29.3758 77.1294 29.4304 77.0103 29.5052C76.8706 29.5911 76.7227 29.6629 76.5687 29.7193C76.5687 29.7553 76.6423 29.7377 76.7887 29.6658C76.7377 29.7462 76.6602 29.8063 76.5696 29.8356C76.479 29.8649 76.381 29.8617 76.2926 29.8264C76.1822 29.8264 76.0893 29.8983 76.0165 30.0406C76.0165 30.0054 76.0073 29.987 75.9889 29.987C75.9705 29.987 75.9613 29.9694 75.9613 29.9335C75.9234 30.0054 75.7762 30.0857 75.5196 30.1744C75.2611 30.2639 74.9859 30.3417 74.6914 30.4162C74.397 30.4906 74.1201 30.5492 73.8633 30.6036C73.7175 30.6378 73.5701 30.6644 73.4216 30.683C72.6423 30.9951 71.8016 31.1236 70.9646 31.0586C69.9513 31.0235 69.0774 30.9699 68.3429 30.898C67.974 30.8629 67.6737 30.8445 67.4319 30.8445C67.1457 30.8593 66.8689 30.9519 66.6313 31.1122H66.1461C65.6248 31.2607 65.0751 31.2791 64.545 31.1657C64.5082 31.202 64.4898 31.202 64.4898 31.1657V31.1122C64.4404 31.1347 64.3939 31.1627 64.3509 31.1958C64.3094 31.2195 64.2612 31.2289 64.2137 31.2226C64.2862 30.9733 64.2218 30.8662 64.0205 30.9014C63.8192 30.9365 63.7179 30.8827 63.7168 30.7399C63.6064 30.7399 63.5495 30.8302 63.5495 31.0084C63.5127 31.0084 63.4575 30.9465 63.3822 30.821C63.3069 30.6956 63.2525 30.6688 63.2149 30.7374C63.1404 30.7022 63.1605 30.6303 63.2701 30.5241C63.1957 30.4889 63.1605 30.4404 63.1605 30.3894C63.1488 30.315 63.1089 30.2479 63.0493 30.202C63.0295 30.1572 63.0242 30.1073 63.0341 30.0593C63.044 30.0114 63.0686 29.9677 63.1045 29.9343H62.994L62.8836 30.1485C62.8743 30.2243 62.894 30.3008 62.9388 30.3626C62.9584 30.3844 62.9734 30.41 62.9829 30.4377C62.9923 30.4655 62.9961 30.4948 62.994 30.5241C62.994 30.5952 62.9564 30.6077 62.8836 30.55C62.8247 30.5097 62.7688 30.4653 62.7163 30.417C62.3939 30.7889 62.1582 31.2278 62.0262 31.7019C61.8634 32.2305 61.6314 32.7351 61.336 33.2027L60.5087 35.7734C60.4339 36.0595 60.2864 36.5954 60.0661 37.3812C59.8461 38.1659 59.6052 38.9882 59.3492 39.8457C59.0932 40.7031 58.8515 41.5188 58.6306 42.2826C58.4938 42.8003 58.3282 43.31 58.1346 43.8092C58.0609 44.0596 57.9873 44.3009 57.9137 44.5329C57.8401 44.7646 57.7665 45.0239 57.692 45.3092C57.6931 45.4805 57.6749 45.6514 57.6376 45.8186C57.6079 45.9544 57.5708 46.0885 57.5264 46.2202C57.6368 46.53 57.6563 46.865 57.5824 47.1855C57.5088 47.2558 57.4536 47.2734 57.4151 47.2382C57.3922 47.2186 57.3656 47.2039 57.3368 47.1948C57.3081 47.1858 57.2778 47.1826 57.2478 47.1855C57.1752 47.1776 57.1017 47.188 57.0341 47.2159C56.9666 47.2439 56.9071 47.2884 56.8613 47.3453C56.8305 47.3111 56.7896 47.2874 56.7445 47.2778C56.6994 47.2682 56.6525 47.2731 56.6104 47.2918C56.5307 47.325 56.4456 47.3431 56.3594 47.3453L56.305 47.2382C56.2682 47.2382 56.2498 47.2466 56.2498 47.265C56.2498 47.2834 56.2314 47.2918 56.1946 47.2918L56.1394 47.3453C55.954 47.2725 55.785 47.1633 55.6425 47.0241C55.5074 46.8871 55.3343 46.7939 55.1456 46.7564C55.0206 46.6796 54.8722 46.6499 54.7273 46.6727C54.5705 46.6907 54.4118 46.6816 54.258 46.6459C54.1809 46.5653 54.1324 46.4615 54.12 46.3507C54.1094 46.2933 54.117 46.2341 54.1417 46.1813C54.1665 46.1285 54.2071 46.0847 54.258 46.0562C54.2948 45.8052 54.3233 45.6095 54.3417 45.4706C54.3474 45.4042 54.3753 45.3417 54.4208 45.293C54.4663 45.2443 54.5268 45.2123 54.5926 45.2021C54.703 44.9168 54.8051 44.6408 54.8954 44.3722C54.9905 44.0876 55.0372 43.7889 55.0335 43.4888C55.145 42.9166 55.3385 42.113 55.614 41.0779C55.8895 40.0428 56.1932 38.9623 56.525 37.8363C56.8563 36.7114 57.1692 35.6398 57.4636 34.6215C57.7581 33.6031 57.9789 32.8087 58.1262 32.2381C58.4336 31.6694 58.6742 31.067 58.8431 30.4429C59.0282 29.7832 59.2491 29.0958 59.5057 28.3808C59.5158 28.3273 59.5456 28.2796 59.5893 28.247L59.7817 28.0596L60.5003 25.8093C60.72 25.2388 60.959 24.6763 61.2172 24.122C61.4724 23.5736 61.6936 23.0101 61.8798 22.4347L62.4879 20.6662C62.7082 20.0594 62.9196 19.4524 63.122 18.8451C63.325 18.2359 63.6131 17.6586 63.9778 17.1301C64.2524 17.0946 64.5298 17.0859 64.806 17.1042C65.0906 17.1201 65.3705 17.1834 65.6342 17.2916C65.8986 17.3825 66.1166 17.574 66.2406 17.8246C66.3647 18.0752 66.3848 18.3647 66.2967 18.6301C66.2649 18.9743 66.1299 19.3008 65.9094 19.567C65.6953 19.8232 65.5443 20.1261 65.4685 20.4512C65.3642 20.6688 65.3071 20.906 65.3012 21.1472C65.2268 21.4342 65.1264 21.7822 64.9967 22.1921C64.8671 22.602 64.7458 23.0052 64.6387 23.3975C64.7935 23.3215 64.9413 23.2319 65.0804 23.1298C65.1746 23.0458 65.2906 22.9902 65.415 22.9692C65.415 22.8981 65.3958 22.8621 65.3598 22.8621C65.6542 22.6123 65.9579 22.3443 66.2708 22.0582C66.5836 21.7721 66.8873 21.4863 67.1818 21.2008H67.3491C67.319 21.1983 67.2888 21.2017 67.2601 21.2109C67.2314 21.2201 67.2048 21.2348 67.1818 21.2543C67.1441 21.2903 67.1625 21.3447 67.2362 21.4158C67.2687 21.3823 67.3062 21.354 67.3474 21.3321C67.3834 21.3145 67.3834 21.2694 67.3474 21.1974V21.1439C67.3516 21.0523 67.3702 20.9619 67.4026 20.8762C67.4754 21.056 67.5766 21.0636 67.7063 20.903C67.836 20.7424 67.9355 20.662 68.0091 20.662C67.9723 20.5198 68.0828 20.3944 68.3438 20.2873C68.3861 20.3045 68.4327 20.3086 68.4775 20.2991C68.5222 20.2895 68.5631 20.2668 68.5947 20.2337C68.6859 20.1626 68.7135 20.038 68.6784 19.8581C68.718 19.9419 68.7372 20.034 68.7344 20.1266L68.844 19.9117C68.8875 19.8315 68.944 19.7591 69.0113 19.6975C68.9368 19.6975 68.9184 19.6799 68.9553 19.6448C69.1319 19.5773 69.2989 19.487 69.4522 19.3763C69.5994 19.2692 69.7653 19.1443 69.9499 19.0015V19.055C70.0227 18.8409 70.2988 18.6527 70.7773 18.4929C71.1523 18.4029 71.4843 18.1848 71.7158 17.8763C71.8438 17.9055 71.9771 17.901 72.1029 17.8635C72.2286 17.826 72.3425 17.7567 72.4336 17.6622H72.544C72.9772 17.4383 73.4431 17.2844 73.9243 17.2063C74.421 17.1181 74.9314 17.1467 75.415 17.2899C75.415 17.3259 75.451 17.3794 75.5255 17.4505C75.5991 17.3797 75.6635 17.3518 75.7187 17.3669C75.8071 17.4019 75.8913 17.4468 75.9697 17.5007C75.9321 17.5727 75.9145 17.5994 75.9145 17.5844C75.9145 17.5693 75.8952 17.5936 75.8593 17.668C76.5575 17.74 76.9716 18.0347 77.1015 18.5523C77.232 19.1605 77.2414 19.7884 77.1291 20.4002C77.1291 20.5073 77.1651 20.5257 77.2395 20.4537V20.7214C77.2395 20.8285 77.2027 20.8821 77.1291 20.8821C77.1718 21.1007 77.1668 21.3261 77.1144 21.5426C77.062 21.7592 76.9634 21.9619 76.8255 22.1369C76.5688 22.4309 76.4055 22.7946 76.3562 23.1817C76.1594 23.5488 75.8749 23.8614 75.528 24.0919C75.189 24.3159 74.9208 24.6319 74.755 25.0029C74.755 25.0748 74.791 25.0748 74.8654 25.0029C74.7182 25.2538 74.5788 25.5129 74.4472 25.78C74.388 25.9082 74.2999 26.0209 74.1897 26.1092C74.0795 26.1975 73.9503 26.2589 73.8122 26.2886C73.6904 26.5793 73.4896 26.83 73.2325 27.0123C73.0296 27.1321 72.8664 27.309 72.7632 27.5209C72.4235 27.8813 72.0544 28.2128 71.6598 28.5122C71.1802 28.887 70.8486 29.1636 70.6652 29.342C70.8124 29.3069 71.1152 29.245 71.5761 29.1546C72.0371 29.0643 72.5332 28.9765 73.0669 28.887C73.6006 28.7974 74.0883 28.6996 74.53 28.5925C74.8555 28.5267 75.1711 28.4187 75.4686 28.2712C76.1748 28.0055 76.866 27.7013 77.539 27.3603C78.2121 27.0193 78.9033 26.7152 79.6095 26.4493H79.7768C79.8128 26.2711 79.868 26.1816 79.9441 26.1816C80.0202 26.1816 80.0913 26.1104 80.1658 25.9674C80.3609 25.964 80.5515 25.9086 80.7179 25.8068C80.8943 25.7032 81.0787 25.6136 81.2692 25.5391C81.306 25.5751 81.2968 25.611 81.2424 25.6462C81.188 25.6813 81.1588 25.7181 81.1588 25.7533C81.3444 25.6988 81.5211 25.6177 81.6833 25.5123C81.8302 25.4142 81.988 25.3334 82.1534 25.2714H82.2078C82.3182 25.2714 82.355 25.2179 82.3182 25.1099C82.4655 25.0029 82.5299 24.9426 82.5115 24.9226C82.4882 24.903 82.4581 24.8933 82.4278 24.8958C82.4128 24.8971 82.3976 24.8955 82.3833 24.8909C82.3689 24.8863 82.3556 24.8788 82.3442 24.869C82.3258 24.8515 82.4077 24.8071 82.5951 24.7352V24.8422C82.6495 24.7225 82.7364 24.6204 82.8461 24.5478C82.9642 24.461 83.052 24.3393 83.097 24.1998H83.3731C83.3731 24.1287 83.3639 24.0919 83.3463 24.0919C83.3288 24.0919 83.3179 24.1111 83.3179 24.1462C83.2443 24.0743 83.2342 24.0392 83.2903 24.0392C83.3661 24.0291 83.4354 23.9909 83.4844 23.9321C83.6299 23.5389 83.7872 23.3156 83.9528 23.2628C84.2009 23.1628 84.4334 23.0275 84.643 22.8613C84.643 22.9684 84.6614 23.0044 84.6982 22.9684C84.7269 22.9372 84.7663 22.9181 84.8086 22.9149C84.8097 22.9815 84.7904 23.0468 84.7534 23.1022C84.7157 23.1573 84.6964 23.2229 84.6982 23.2896C84.7693 23.1382 84.8245 23.0663 84.8613 23.0663ZM64.9315 30.7265C64.9675 30.6194 64.9315 30.5659 64.821 30.5659C64.7652 30.5867 64.7171 30.6241 64.683 30.673C64.6611 30.7132 64.6328 30.7496 64.5994 30.7809C64.5249 30.8528 64.489 30.8344 64.489 30.7265C64.4153 30.9064 64.3417 30.995 64.2681 30.995C64.2681 31.031 64.2957 31.0486 64.3518 31.0486C64.3773 31.0495 64.4028 31.0452 64.4266 31.036C64.4505 31.0268 64.4723 31.0129 64.4906 30.995C64.5419 30.9796 64.5961 30.9764 64.6488 30.9857C64.7016 30.995 64.7514 31.0165 64.7943 31.0486C64.9223 31.1205 64.9875 31.1021 64.9875 30.995V30.9415C64.9875 30.9775 64.9683 30.9239 64.9323 30.7809C64.9993 30.8291 65.0753 30.8634 65.1557 30.8817C65.2362 30.9001 65.3195 30.9023 65.4008 30.888C65.5555 30.8526 65.7162 30.8526 65.8709 30.888C65.8689 30.8381 65.8845 30.7892 65.9152 30.7498C65.9458 30.7104 65.9894 30.6832 66.0382 30.673C66.1413 30.6417 66.2358 30.587 66.3143 30.5132C66.0488 30.4803 65.7808 30.4711 65.5137 30.4856C65.3039 30.5209 65.1049 30.6033 64.9315 30.7265ZM67.8594 27.9408C67.9035 27.8787 67.9228 27.8023 67.9138 27.7267C68.3492 27.493 68.7649 27.2245 69.1569 26.9236C69.579 26.6023 69.9929 26.263 70.3983 25.9055C70.5353 25.8085 70.6566 25.6912 70.758 25.5575C70.8517 25.4302 70.9356 25.296 71.009 25.1559C71.0241 25.1573 71.0393 25.1555 71.0536 25.1508C71.068 25.146 71.0813 25.1384 71.0926 25.1284C71.1159 25.1088 71.146 25.0992 71.1763 25.1016C71.2511 24.8517 71.3963 24.6287 71.5946 24.4591C71.7832 24.2948 71.9586 24.1157 72.1191 23.9237L72.0647 23.8702C72.1199 23.7515 72.1942 23.6427 72.2847 23.5481C72.3756 23.442 72.4337 23.3118 72.452 23.1733C72.5624 23.1733 72.626 23.1382 72.6453 23.0663C72.6645 22.9943 72.6913 22.9592 72.7289 22.9592C73.0547 22.3244 73.4138 21.7073 73.8047 21.1104C74.2193 20.4235 74.4388 19.6366 74.4396 18.8342C74.3482 18.8274 74.2563 18.8407 74.1705 18.873C74.0847 18.9054 74.007 18.9561 73.9427 19.0216C73.8793 19.086 73.7997 19.1323 73.7124 19.1558C73.6251 19.1794 73.5331 19.1792 73.4458 19.1554C73.3053 19.2084 73.1541 19.2267 73.005 19.209C72.9109 19.3769 72.7638 19.509 72.5867 19.5846C72.4737 19.6115 72.3693 19.6665 72.283 19.7443C72.283 19.7092 72.2278 19.6908 72.1157 19.6908C72.0298 19.7394 71.962 19.8145 71.9225 19.905C71.8667 20.0132 71.7655 20.0132 71.6188 19.905C71.63 20.0105 71.6001 20.1163 71.5351 20.2003C71.4732 20.2567 71.3962 20.2939 71.3135 20.3073C71.2266 20.3246 71.1423 20.3527 71.0625 20.391C71.0247 20.4114 70.9939 20.4428 70.9742 20.481C70.9545 20.5192 70.9468 20.5625 70.9521 20.6051L70.8417 20.4981C70.7681 20.57 70.7496 20.6319 70.7864 20.6855C70.8233 20.739 70.7865 20.7482 70.676 20.7122V20.6587C70.5656 20.6587 70.5087 20.6947 70.5087 20.7658C70.5002 20.7719 70.4934 20.78 70.4886 20.7893C70.4838 20.7986 70.4814 20.8089 70.4814 20.8193C70.4814 20.8298 70.4838 20.84 70.4886 20.8494C70.4934 20.8587 70.5002 20.8667 70.5087 20.8728C70.3507 21.0233 70.2034 21.1846 70.0679 21.3555C69.9529 21.5015 69.7997 21.6127 69.6253 21.6768C69.6238 21.6617 69.6255 21.6464 69.6303 21.632C69.635 21.6176 69.6427 21.6043 69.6529 21.5931C69.6634 21.582 69.6713 21.5688 69.6763 21.5544C69.6812 21.5399 69.6829 21.5246 69.6814 21.5095C69.6069 21.4743 69.5609 21.4827 69.5434 21.5362C69.5258 21.5898 69.4965 21.6199 69.4597 21.6199V21.5663C69.3274 21.6638 69.1895 21.7532 69.0464 21.834C68.9049 21.92 68.7976 22.0525 68.7428 22.2088C68.7787 22.2448 68.8155 22.2356 68.8523 22.182C68.8892 22.1285 68.9084 22.1377 68.9084 22.2088C68.8665 22.4076 68.7597 22.5869 68.6047 22.7183C68.438 22.8395 68.2811 22.9738 68.1354 23.1198C68.1363 23.1124 68.1354 23.105 68.1329 23.098C68.1304 23.091 68.1263 23.0846 68.121 23.0794C68.1157 23.0743 68.1092 23.0704 68.1021 23.0681C68.0951 23.0658 68.0876 23.0652 68.0802 23.0663C68.1486 22.9278 68.2689 22.822 68.4149 22.7718C68.5612 22.7183 68.5822 22.6195 68.4692 22.4773C68.1418 22.7471 67.9258 23.1286 67.8627 23.5481C67.7842 23.541 67.7057 23.561 67.6402 23.6049C67.5747 23.6487 67.5263 23.7137 67.503 23.789C67.4623 23.9309 67.3736 24.0542 67.252 24.1379C67.252 24.0659 67.2437 24.0308 67.2253 24.0308C67.2069 24.0308 67.1977 24.0132 67.1977 23.9773C67.0711 24.3395 66.8523 24.6624 66.5627 24.9142C66.273 25.1663 66.054 25.4895 65.927 25.852V25.6914C65.7762 25.8969 65.6382 26.1114 65.5137 26.3338C65.3464 26.6208 65.1908 26.7278 65.0444 26.6559C65.0458 26.7195 65.0362 26.7829 65.016 26.8433C64.9999 26.8861 64.9909 26.9313 64.9892 26.9771C64.842 26.942 64.7591 26.9771 64.7382 27.0842C64.7173 27.1913 64.673 27.2097 64.6002 27.1377C64.6066 27.1842 64.5968 27.2314 64.5726 27.2716C64.5542 27.29 64.5626 27.3552 64.6002 27.459C64.9162 27.5059 65.2075 27.6565 65.4284 27.8873C65.6586 28.1159 65.9182 28.3129 66.2005 28.4728H66.7535V28.4193C66.7895 28.3482 66.8631 28.3215 66.9735 28.3357C67.066 28.3559 67.1626 28.3465 67.2495 28.3089V28.4745C67.4336 28.4037 67.5995 28.3412 67.7473 28.2871C67.9268 28.2145 68.0943 28.1152 68.2442 27.9927C68.1691 27.9862 68.0934 27.9947 68.0217 28.0177C67.9499 28.0407 67.8833 28.0777 67.8259 28.1265C67.7688 28.1745 67.7006 28.2072 67.6275 28.2218C67.5544 28.2365 67.4788 28.2324 67.4076 28.2102C67.4424 28.1219 67.5055 28.0476 67.5869 27.9989C67.6683 27.9502 67.7635 27.9298 67.8577 27.9408H67.8594ZM64.6571 29.8699C64.68 29.8895 64.7066 29.9044 64.7353 29.9136C64.7641 29.9228 64.7944 29.9261 64.8244 29.9234C64.9348 29.9234 64.9917 29.8883 64.9917 29.8164H64.7407C64.6462 29.813 64.6186 29.8348 64.6554 29.8699H64.6571ZM65.3196 25.7449C65.4312 25.7449 65.4869 25.62 65.4869 25.3701L65.2937 25.5575C65.2351 25.611 65.2435 25.6738 65.318 25.7449H65.3196ZM65.6542 25.2095C65.6967 25.1692 65.7429 25.133 65.7923 25.1016C65.8475 25.0664 65.8375 25.0129 65.7647 24.941C65.7647 24.9769 65.727 25.0129 65.6542 25.048C65.5815 25.0832 65.5748 25.1376 65.6492 25.212L65.6542 25.2095ZM65.9889 23.2804C65.9521 23.2804 65.896 23.3164 65.8216 23.3875C65.9981 23.3875 66.0541 23.3524 65.9788 23.2804H65.9889ZM65.8784 31.1021C65.9521 31.1381 65.9981 31.1021 66.0165 30.995C66.0226 30.917 66.0517 30.8424 66.1001 30.7809H66.0449C66.0449 30.9239 66.0173 30.9683 65.9613 30.9147C65.9052 30.8612 65.8701 30.9239 65.8701 31.1021H65.8784ZM66.9818 30.7265C66.8554 30.6912 66.7218 30.6912 66.5954 30.7265C66.4512 30.7627 66.3031 30.781 66.1545 30.7809C66.3066 30.7906 66.4558 30.8269 66.5954 30.888C66.6302 30.9064 66.6687 30.9169 66.7081 30.9185C66.7475 30.9202 66.7867 30.913 66.823 30.8975C66.8592 30.882 66.8915 30.8586 66.9176 30.8291C66.9436 30.7995 66.9627 30.7644 66.9735 30.7265H66.9818ZM67.8661 21.6199V21.5128C67.5708 21.7638 67.2864 21.9947 67.0095 22.2088C66.7287 22.4285 66.4944 22.7018 66.3201 23.0127L67.8661 21.6199ZM66.7066 23.7631C66.7223 23.7294 66.7455 23.6997 66.7745 23.6765C66.8036 23.6533 66.8376 23.6371 66.8739 23.6293C66.9059 23.6249 66.9351 23.6086 66.9556 23.5836C66.9761 23.5586 66.9864 23.5268 66.9844 23.4946C66.9108 23.5305 66.8279 23.5665 66.7334 23.6016C66.6389 23.6368 66.6238 23.6912 66.6983 23.7631H66.7066ZM67.2579 23.9773C67.4051 23.9421 67.4796 23.7991 67.4796 23.5481C67.3998 23.5481 67.3232 23.6912 67.2495 23.9773H67.2579ZM67.3692 28.3164C67.37 28.3238 67.3691 28.3313 67.3666 28.3383C67.3641 28.3453 67.3601 28.3516 67.3547 28.3568C67.3494 28.362 67.343 28.3658 67.3359 28.3681C67.3288 28.3704 67.3213 28.371 67.314 28.37L67.3692 28.3164ZM67.3692 28.2094H67.4244C67.4085 28.2226 67.3954 28.2389 67.3859 28.2573C67.3764 28.2757 67.3707 28.2958 67.3692 28.3164V28.2094ZM68.4182 28.4235C68.3194 28.3803 68.208 28.3755 68.1058 28.4102C68.0037 28.4448 67.9182 28.5164 67.8661 28.6109C67.8317 28.6959 67.7689 28.7664 67.6883 28.8104C67.6078 28.8543 67.5145 28.8689 67.4244 28.8518C67.5788 28.9539 67.7668 28.9923 67.9489 28.9589C68.1301 28.9164 68.2995 28.8341 68.445 28.718C68.6242 28.5818 68.7905 28.4295 68.9419 28.2629C69.0946 28.0948 69.2714 27.9502 69.4664 27.8337C69.2333 27.8385 69.009 27.9236 68.8314 28.0747C68.6234 28.2358 68.4829 28.3521 68.4098 28.4235H68.4182ZM67.4796 23.0696C67.4796 23.1056 67.5432 23.0696 67.672 22.9625C67.8008 22.8555 67.8284 22.7668 67.7557 22.694C67.6789 22.7243 67.6118 22.775 67.5616 22.8406C67.5115 22.9062 67.4803 22.9842 67.4712 23.0663L67.4796 23.0696ZM68.4726 22.1051C68.138 22.2121 67.9765 22.392 67.9765 22.6405C68.4794 22.0809 69.0336 21.5698 69.632 21.1138C70.2204 20.6676 70.8277 20.1936 71.454 19.6917C70.9141 20.0317 70.3977 20.4076 69.9081 20.8168C69.3872 21.2446 68.9059 21.6729 68.4642 22.1017L68.4726 22.1051ZM68.5286 20.0137C68.5646 20.1208 68.5286 20.1743 68.4182 20.1743L68.5286 20.0137ZM69.4664 20.0137C69.4848 19.9605 69.514 19.9116 69.5521 19.8702C69.5903 19.8287 69.6366 19.7956 69.6881 19.7728C69.789 19.7246 69.8821 19.6614 69.9641 19.5854C69.8747 19.6657 69.7716 19.7291 69.6596 19.7728C69.6045 19.7854 69.555 19.8157 69.5186 19.859C69.4822 19.9024 69.461 19.9564 69.458 20.0129L69.4664 20.0137ZM69.4664 27.6213C69.54 27.6564 69.586 27.6296 69.6044 27.5376C69.6191 27.4761 69.6283 27.4134 69.632 27.3502C69.516 27.3513 69.458 27.4414 69.458 27.6204L69.4664 27.6213ZM69.9641 19.0492C69.9328 19.1138 69.8853 19.1691 69.8261 19.2098C69.7664 19.2499 69.7187 19.3054 69.6881 19.3704C69.7617 19.3704 69.8068 19.3261 69.8261 19.2366C69.8453 19.1471 69.8897 19.1211 69.9641 19.1529V19.0492ZM70.0185 19.5854C70.1657 19.5854 70.2402 19.531 70.2402 19.424C70.1942 19.4231 70.1206 19.4766 70.0101 19.5846L70.0185 19.5854ZM70.1289 18.9998C70.2761 18.929 70.3961 18.8665 70.4887 18.8124C70.5795 18.7603 70.6638 18.6973 70.7396 18.6251C70.6652 18.5899 70.5639 18.6251 70.4351 18.7321C70.3063 18.8392 70.1942 18.9237 70.1206 18.9948L70.1289 18.9998ZM74.6011 17.3928C74.6373 17.393 74.673 17.4005 74.7062 17.4149C74.7395 17.4293 74.7694 17.4502 74.7943 17.4765C74.8501 17.5322 74.9145 17.5044 74.9876 17.3928C74.9415 17.4125 74.8906 17.4179 74.8413 17.4083C74.7921 17.3988 74.7469 17.3747 74.7115 17.3393C74.6296 17.2648 74.5952 17.2807 74.5952 17.3878L74.6011 17.3928ZM74.9357 24.8924C74.9357 24.9644 74.9173 24.9995 74.8805 24.9995L74.9357 24.8924ZM81.8924 26.2853C82.038 26.2853 82.1124 26.1782 82.1124 25.9641C81.9206 26.0678 81.8433 26.1732 81.8807 26.2803L81.8924 26.2853ZM83.9344 24.5177C83.8681 24.5987 83.8191 24.6925 83.7903 24.7932C83.7616 24.8939 83.7536 24.9994 83.7671 25.1033C83.7595 25.0344 83.768 24.9646 83.7919 24.8996C83.8159 24.8345 83.8546 24.776 83.9052 24.7285C83.9863 24.6557 83.9963 24.5846 83.9227 24.5127L83.9344 24.5177ZM84.8178 23.3925C84.8178 23.3574 84.8262 23.339 84.8454 23.339C84.8647 23.339 84.8546 23.3038 84.8178 23.2319V23.3925Z" fill="#211915"/>
<path d="M81.5478 27.8889C81.587 27.8678 81.6203 27.8371 81.6444 27.7997C81.6685 27.7622 81.6828 27.7193 81.6858 27.6748C81.707 27.585 81.6973 27.4907 81.6582 27.4071C81.73 27.2363 81.7765 27.0559 81.7962 26.8717C81.8041 26.7861 81.8371 26.7048 81.8912 26.6379C81.9452 26.5711 82.0178 26.5217 82.0999 26.4961C82.2103 26.389 82.2379 26.3004 82.1835 26.2284C82.1292 26.1565 82.1744 26.1038 82.3216 26.0678C82.3938 25.9286 82.4583 25.7857 82.5148 25.6395C82.5701 25.4977 82.6558 25.3698 82.7658 25.2647C83.0958 24.5177 83.4739 23.7928 83.8976 23.0947C84.3577 22.3268 84.7718 21.5856 85.1399 20.8712C85.3169 20.6661 85.4828 20.4516 85.6368 20.2287C85.7815 20.0209 85.876 19.7824 85.9129 19.5319H86.0233C86.0969 19.1755 86.3451 19.0416 86.7678 19.1303C87.1892 19.2195 87.6045 19.3357 88.0109 19.4783C88.086 19.4978 88.1554 19.5347 88.2135 19.586C88.2717 19.6373 88.3169 19.7016 88.3455 19.7736C88.3833 19.9041 88.4022 20.0393 88.4016 20.1752C88.3665 20.1901 88.3384 20.2176 88.3229 20.2524C88.3074 20.2872 88.3056 20.3265 88.3179 20.3626C88.3369 20.4436 88.3272 20.5288 88.2903 20.6035C88.0394 20.9809 87.8529 21.3973 87.7382 21.8357C87.623 22.2739 87.4364 22.6902 87.1861 23.0679C87.1554 23.1329 87.1077 23.1884 87.0481 23.2286C86.9886 23.2689 86.941 23.3243 86.91 23.3892C86.8188 23.5853 86.7538 23.7926 86.7168 24.0057C86.6494 24.3021 86.5278 24.5835 86.3579 24.8356C86.0629 25.4078 85.8052 25.9434 85.5849 26.4426C85.3647 26.9417 85.1441 27.4955 84.9233 28.104C84.8328 28.5929 84.7127 29.076 84.5635 29.5503C84.5065 29.7872 84.4993 30.0334 84.5425 30.2732C84.5857 30.5129 84.6784 30.7411 84.8145 30.9432C85.5828 30.7557 86.3316 30.4955 87.0506 30.166C87.6942 29.8632 88.3659 29.5328 89.0658 29.1747L90.5565 28.104L90.9974 27.8354L92.765 26.5496L94.2549 25.4253C94.4323 25.299 94.6166 25.1828 94.807 25.0773C94.9972 24.971 95.1815 24.8546 95.3591 24.7285C95.7272 24.4429 96.0217 24.2199 96.2425 24.0592C96.4634 23.8986 96.7576 23.6931 97.1251 23.4427C97.1898 23.3447 97.2755 23.2624 97.376 23.2018C97.4681 23.1482 97.5868 23.0863 97.7349 23.0144L98.1214 22.7467C98.173 22.6472 98.2474 22.5614 98.3386 22.4962C98.4298 22.4311 98.5351 22.3885 98.6459 22.3719C98.7693 22.3476 98.8836 22.2897 98.9762 22.2045C99.0687 22.1193 99.136 22.0102 99.1704 21.8892C99.3168 21.9252 99.3913 21.8893 99.3913 21.7822C99.5745 21.8541 99.6422 21.9428 99.5845 22.0499C99.5268 22.157 99.5745 22.2465 99.7226 22.3176C99.628 22.3806 99.5594 22.4757 99.5293 22.5853C99.4905 22.671 99.4624 22.7612 99.4457 22.8538C99.5923 22.9257 99.6843 22.8454 99.7217 22.6129C99.7577 22.3803 99.8321 22.2824 99.9426 22.3176C99.9309 22.4172 99.9122 22.5159 99.8865 22.6129C99.8497 22.7735 99.8129 22.8538 99.7761 22.8538C99.9601 22.9257 99.9978 23.0211 99.8865 23.1482C99.8358 23.1891 99.8021 23.2474 99.7921 23.3117C99.782 23.3761 99.7963 23.4419 99.8321 23.4963C99.7826 23.5484 99.7263 23.5937 99.6648 23.6309C99.628 23.6485 99.5904 23.7104 99.5544 23.8183C99.48 23.8183 99.4708 23.7832 99.5268 23.7104C99.5829 23.6376 99.5352 23.6033 99.3888 23.6033C99.3557 23.6679 99.3188 23.7305 99.2783 23.7907C99.2264 23.8825 99.1891 23.9819 99.1679 24.0852C99.0935 24.0852 99.0659 24.0592 99.0843 24.0057C99.1004 23.9628 99.1094 23.9176 99.111 23.8719C98.927 23.8719 98.835 23.9254 98.835 24.0325C98.7576 24.0545 98.687 24.0954 98.6293 24.1514C98.5716 24.2075 98.5287 24.277 98.5045 24.3537C98.461 24.5101 98.3859 24.6559 98.2837 24.782C98.1724 24.782 98.1356 24.7645 98.1724 24.7285C98.2092 24.6925 98.1725 24.675 98.0629 24.675C98.0997 24.7109 98.0712 24.8088 97.9792 24.9694C97.8884 25.1281 97.787 25.2804 97.6755 25.4253C97.564 25.5687 97.4803 25.6847 97.4246 25.7733C97.3694 25.8628 97.3777 25.8361 97.4522 25.6897C97.3774 25.6545 97.2118 25.7259 96.9553 25.9038C96.7817 26.0179 96.6157 26.1431 96.4583 26.2786L95.7958 26.9219C95.6843 26.9939 95.491 27.1366 95.2161 27.3502C94.9411 27.5638 94.7663 27.7066 94.6916 27.7785L94.5811 27.725C94.5827 27.7401 94.581 27.7554 94.5763 27.7698C94.5715 27.7842 94.5638 27.7974 94.5536 27.8087C94.5295 27.8486 94.5197 27.8955 94.5259 27.9417C94.4891 27.8706 94.4339 27.858 94.3586 27.9157C94.2833 27.9734 94.2842 28.032 94.3586 28.1031H94.1913C94.1366 28.2383 94.0622 28.3646 93.9705 28.4779C93.8126 28.7015 93.6046 28.8851 93.3631 29.0141V28.7991C93.2887 28.764 93.2527 28.7724 93.2527 28.8259C93.2527 28.8794 93.2159 28.9246 93.1431 28.9597H93.3104C93.2728 29.1028 93.2176 29.1839 93.1431 29.2015C93.0687 29.219 92.9758 29.2458 92.8662 29.2851C92.8294 29.2851 92.8386 29.2676 92.8947 29.2316C92.9507 29.1956 92.9399 29.1781 92.8662 29.1781C92.7926 29.25 92.7098 29.3387 92.6153 29.4466C92.5271 29.5499 92.4245 29.6401 92.3108 29.7143C92.2363 29.6072 92.1727 29.5896 92.1184 29.6608C92.0672 29.7288 92.0007 29.7838 91.9243 29.8214L91.6482 29.9285C91.5378 30.0004 91.4357 30.0715 91.3446 30.1426C91.2212 30.2276 91.0797 30.2826 90.9313 30.3032C90.8954 30.3692 90.8761 30.443 90.8753 30.5182C90.8679 30.5193 90.8605 30.5187 90.8534 30.5164C90.8464 30.5141 90.8399 30.5102 90.8347 30.505C90.8294 30.4998 90.8254 30.4935 90.823 30.4865C90.8206 30.4795 90.8199 30.472 90.8209 30.4647C90.8209 30.4295 90.7832 30.4295 90.7096 30.4647C90.636 30.5358 90.5423 30.6169 90.4336 30.7056C90.3044 30.8036 90.1529 30.868 89.9927 30.893C89.8493 31.1394 89.6249 31.3286 89.3578 31.4284C89.0817 31.5355 88.7956 31.6425 88.502 31.7496C88.0963 32.0178 87.6483 32.2157 87.1769 32.3352C86.7715 32.4066 86.3298 32.4869 85.8518 32.5761C85.341 32.6656 84.8194 32.6746 84.3059 32.6029C83.9378 32.5309 83.5789 32.4774 83.2292 32.4423C82.9508 32.4265 82.6786 32.3536 82.4295 32.2281C82.1783 32.0564 81.9624 31.838 81.7937 31.5848C81.6264 31.3355 81.4887 31.1214 81.3805 30.9424C81.2692 30.9072 81.2132 30.8537 81.2132 30.7817C81.1929 30.6747 81.1332 30.5791 81.0459 30.514C81.0459 30.4789 81.0559 30.4605 81.0743 30.4605C81.0927 30.4605 81.1019 30.4254 81.1019 30.3526C81.0283 30.4254 80.9722 30.4605 80.9346 30.4605C80.8958 30.3906 80.8829 30.3092 80.8982 30.2307C80.9135 30.1522 80.956 30.0816 81.0183 30.0313C81.1479 29.9243 81.1563 29.7804 81.0459 29.603C80.9569 29.727 80.9178 29.8799 80.9363 30.0313C80.8984 29.9926 80.8691 29.9465 80.85 29.8958C80.831 29.8451 80.8228 29.7909 80.8258 29.7369C80.8258 29.6122 80.9003 29.5495 81.0459 29.5495C81.0597 29.2847 81.1354 29.0269 81.2667 28.7966C81.2061 28.7917 81.1459 28.811 81.0994 28.8501C81.1277 28.6884 81.2044 28.5391 81.3194 28.4218C81.3756 28.366 81.4195 28.2991 81.4483 28.2253C81.4771 28.1516 81.4902 28.0726 81.4867 27.9935C81.4131 27.9935 81.3855 28.0295 81.4031 28.1006C81.4206 28.1717 81.4131 28.2077 81.3763 28.2077C81.3027 28.0298 81.3763 27.7975 81.5971 27.5108C81.6331 27.5108 81.6515 27.4757 81.6515 27.4038C81.6439 27.4945 81.6049 27.5797 81.5411 27.6447C81.5237 27.6602 81.5099 27.6792 81.5007 27.7006C81.4915 27.722 81.487 27.7451 81.4876 27.7684C81.4883 27.7916 81.494 27.8145 81.5044 27.8353C81.5148 27.8561 81.5296 27.8744 81.5478 27.8889ZM90.7121 15.621C90.6385 15.657 90.6201 15.6837 90.6578 15.7047C90.6954 15.7256 90.6753 15.7682 90.6017 15.8394C90.4186 15.9789 90.2745 16.1633 90.1834 16.3748C90.1439 16.4758 90.0687 16.5589 89.972 16.6082C89.8754 16.6576 89.764 16.6697 89.6589 16.6424C89.4744 16.7149 89.3193 16.8467 89.2181 17.0172C89.1037 17.0327 88.9873 17.0141 88.8834 16.9637C88.8475 16.9285 88.7914 16.875 88.7161 16.8031C88.5321 16.8031 88.4208 16.8566 88.3815 16.9637C88.106 16.8794 87.8382 16.772 87.5809 16.6424C87.3785 16.5354 87.1476 16.4283 86.8908 16.3212C86.8898 16.0035 86.9364 15.6874 87.0288 15.3835C87.12 15.0806 87.3877 14.9652 87.8294 15.0354C87.9022 14.9643 87.9582 14.9284 87.9967 14.9284C88.0391 14.9258 88.0788 14.9065 88.1071 14.8748C88.5053 14.9007 88.8966 14.9911 89.2657 15.1425C89.6533 15.2984 90.0641 15.3889 90.4812 15.4102C90.4177 15.5482 90.4896 15.6193 90.7121 15.6193V15.621ZM92.2589 29.3897C92.3396 29.3861 92.417 29.3568 92.4798 29.3061C92.5523 29.2503 92.5523 29.1876 92.4798 29.1178L92.2589 29.3897ZM98.1649 24.4608C98.0317 24.4879 97.9137 24.5644 97.8345 24.675C97.8165 24.6995 97.8037 24.7274 97.7967 24.757C97.7897 24.7866 97.7888 24.8173 97.794 24.8473C97.7991 24.8772 97.8102 24.9059 97.8267 24.9314C97.8431 24.957 97.8646 24.9791 97.8897 24.9962C97.8943 24.9341 97.9114 24.8735 97.9402 24.8183C97.969 24.7631 98.0087 24.7143 98.057 24.675C98.0887 24.6482 98.1146 24.6153 98.1332 24.5781C98.1517 24.541 98.1625 24.5005 98.1649 24.4591V24.4608ZM98.7179 24.1931C98.6811 24.158 98.6986 24.1396 98.7731 24.1396L98.7179 24.1931Z" fill="#211915"/>
<path d="M108.379 33.1918H108.407C108.462 33.1918 108.452 33.155 108.379 33.0839C108.306 33.0128 108.167 33.0755 107.961 33.2713L107.543 33.6737C107.468 33.6737 107.432 33.6201 107.432 33.5122C107.315 33.6499 107.162 33.7522 106.99 33.8075C106.895 33.852 106.789 33.8728 106.684 33.8681C106.578 33.8635 106.475 33.8335 106.383 33.7807C106.199 33.9589 106.069 34.0484 105.997 34.0484C105.798 33.9926 105.595 33.9567 105.389 33.9414C105.184 33.9256 104.98 33.8897 104.782 33.8343C104.784 33.8634 104.78 33.8927 104.771 33.9203C104.761 33.9479 104.746 33.9733 104.727 33.9949C104.727 34.03 104.783 34.03 104.894 33.9949C105.005 33.9589 105.041 33.9949 105.005 34.102C104.774 34.1365 104.538 34.1182 104.315 34.0484C104.075 33.9765 103.809 33.9051 103.515 33.8343C103.515 33.7983 103.523 33.7807 103.541 33.7807C103.56 33.7807 103.569 33.7623 103.569 33.7272V33.6737C102.995 33.6397 102.437 33.4688 101.942 33.1752C101.447 32.8817 101.03 32.4741 100.725 31.9863C100.104 30.9276 99.8636 29.6886 100.043 28.4745C100.187 27.2924 100.613 26.1622 101.285 25.1794C101.928 24.2692 102.507 23.4031 103.024 22.5811C102.517 22.5986 102.015 22.6891 101.534 22.8496C100.939 23.0296 100.329 23.155 99.7117 23.2244C99.4886 23.2606 99.3598 23.3052 99.3252 23.3582C99.2941 23.3964 99.2749 23.443 99.27 23.4921C99.27 23.528 99.2508 23.5456 99.214 23.5456C99.0647 23.5202 98.9174 23.4844 98.7731 23.4385C98.6989 23.4748 98.6153 23.4469 98.5221 23.3549C98.4301 23.2662 98.3465 23.2394 98.2712 23.2712C98.0871 23.3432 98.0411 23.3153 98.1331 23.1876C98.178 23.1188 98.1996 23.0374 98.1946 22.9555C98.1896 22.8735 98.1584 22.7953 98.1055 22.7325C97.9696 22.6754 97.8543 22.578 97.7754 22.4534C97.6964 22.3288 97.6575 22.183 97.6638 22.0357C97.6638 21.7144 97.7191 21.5722 97.8312 21.6073C97.7186 21.0467 97.7474 20.4668 97.9148 19.92C98.0759 19.4104 98.3182 18.9302 98.6326 18.4979C98.9388 18.0767 99.2906 17.6907 99.6816 17.3468C100.068 17.0083 100.427 16.6957 100.758 16.409C101.098 16.4108 101.434 16.4743 101.751 16.5964C102.086 16.7219 102.45 16.8733 102.856 17.0515C103.003 17.1594 103.132 17.2573 103.243 17.3468C103.361 17.4509 103.439 17.5929 103.463 17.7484L103.243 18.6058C103.17 18.639 103.112 18.6956 103.075 18.7664C103.043 18.811 103.002 18.8483 102.954 18.876C102.907 18.9036 102.854 18.921 102.799 18.9271C102.789 19.0535 102.751 19.1762 102.689 19.2871C102.628 19.398 102.543 19.4946 102.441 19.5703C102.201 19.7837 101.971 19.9811 101.75 20.1559C101.671 20.1806 101.598 20.2221 101.536 20.2775C101.475 20.333 101.425 20.4011 101.392 20.4772C101.323 20.6401 101.219 20.7861 101.088 20.9055C100.882 21.0303 100.711 21.2056 100.592 21.4149C100.489 21.6187 100.359 21.8078 100.205 21.9771C100.6 22.0145 100.998 22.0145 101.392 21.9771C101.592 21.953 101.787 21.8988 101.971 21.8165C102.118 21.7451 102.284 21.6737 102.469 21.6023C102.774 21.5025 103.088 21.4308 103.407 21.3882C103.719 21.4575 104.043 21.439 104.345 21.3346C104.568 21.5855 104.818 21.8101 105.092 22.0039C105.366 22.2007 105.633 22.406 105.891 22.6196C105.929 22.8952 105.929 23.1746 105.891 23.4502C105.861 23.631 105.795 23.8041 105.698 23.9597C105.598 24.1114 105.487 24.2547 105.363 24.388C105.206 24.5688 105.068 24.765 104.95 24.9736C104.802 25.2246 104.673 25.4568 104.564 25.6704C104.439 25.8986 104.268 26.098 104.062 26.256C104.016 26.5634 103.902 26.8565 103.727 27.1135C103.547 27.3908 103.382 27.677 103.231 27.9709C103.015 28.6616 102.858 29.3693 102.761 30.0866C102.655 30.7021 102.762 31.3355 103.065 31.8818C103.469 31.9883 103.829 32.0775 104.142 32.1495C104.497 32.2209 104.863 32.2209 105.219 32.1495C105.291 32.1127 105.401 32.0591 105.553 31.988C105.657 31.9305 105.77 31.8944 105.888 31.8818V31.8542C105.888 31.8006 105.925 31.7705 105.998 31.7705C106.42 31.7514 106.825 31.6014 107.158 31.3414C107.517 31.0813 107.906 30.8653 108.317 30.6981C108.425 30.6294 108.537 30.5668 108.652 30.5107C108.76 30.4589 108.872 30.4144 108.986 30.3777C109.171 30.3417 109.271 30.294 109.29 30.243C109.309 30.192 109.391 30.1451 109.541 30.1092C109.59 30.022 109.668 29.9554 109.762 29.9218C109.798 29.9136 109.832 29.8973 109.861 29.8741C109.89 29.8509 109.913 29.8214 109.929 29.7879C110.049 29.71 110.161 29.6203 110.264 29.5202C110.373 29.3918 110.504 29.2829 110.65 29.1981C110.871 29.0208 111.156 28.7799 111.506 28.4754C111.808 28.2081 112.13 27.9661 112.472 27.7517C112.656 27.6095 113.07 27.2972 113.715 26.8148C114.344 26.345 114.926 25.8159 115.454 25.2346C115.637 25.0556 115.766 24.9309 115.84 24.859C115.904 24.7937 115.979 24.7394 116.06 24.6984C116.134 24.6632 116.217 24.6147 116.311 24.5645L116.73 24.3236C116.803 24.1454 116.876 23.9672 116.95 23.7882C117.041 23.5848 117.173 23.4023 117.337 23.252C117.616 23.2322 117.894 23.1874 118.165 23.1181C118.569 23.0294 118.791 23.0914 118.828 23.3055C118.828 23.4486 118.791 23.5197 118.717 23.5197C118.769 23.7355 118.757 23.9619 118.683 24.1712C118.609 24.3804 118.475 24.5636 118.299 24.6984C117.975 24.9836 117.688 25.3076 117.443 25.6629C117.374 25.7272 117.326 25.8113 117.306 25.9038C117.291 25.9548 117.266 26.0024 117.233 26.0438C117.2 26.0851 117.159 26.1195 117.112 26.1448C117.03 26.2605 116.938 26.3681 116.836 26.466L116.394 26.8951C116.185 27.0252 116.006 27.1986 115.87 27.4038C115.743 27.5912 115.559 27.7322 115.345 27.8053C115.087 28.0925 114.867 28.3337 114.683 28.5289C114.5 28.7241 114.325 28.9026 114.159 29.0643C113.993 29.226 113.818 29.3782 113.634 29.5202C113.425 29.6795 113.203 29.8227 112.972 29.9485C112.897 30.0205 112.768 30.1359 112.585 30.2965C112.402 30.4572 112.207 30.6311 112.006 30.806C111.804 30.9808 111.619 31.1456 111.453 31.2878C111.344 31.3901 111.223 31.4798 111.095 31.5555C110.395 32.019 109.825 32.3673 109.383 32.6004C108.941 32.8321 108.738 32.9835 108.776 33.0555C108.719 33.0521 108.662 33.0613 108.608 33.0822C108.559 33.1282 108.49 33.1592 108.379 33.1918ZM100.871 18.62C100.766 18.7941 100.612 18.9337 100.429 19.0216C100.226 19.1273 100.055 19.2842 99.9326 19.4766C100.116 19.3344 100.3 19.2006 100.485 19.0751C100.656 18.9653 100.791 18.8068 100.871 18.62Z" fill="#211915"/>
<path d="M140.124 26.5505C140.026 26.5363 139.927 26.5517 139.838 26.5948C139.749 26.638 139.676 26.7067 139.627 26.7923C139.478 26.9891 139.331 27.1765 139.185 27.3544C139.191 27.2975 139.21 27.2427 139.24 27.1938C138.952 27.4017 138.676 27.6251 138.412 27.863C138.153 28.095 137.877 28.3538 137.584 28.6393H137.473V28.5858C137.399 28.6577 137.316 28.7464 137.222 28.8535C137.207 28.8778 137.186 28.8987 137.162 28.9147C137.138 28.9308 137.111 28.9416 137.082 28.9467C137.054 28.9517 137.025 28.9508 136.996 28.9439C136.968 28.9371 136.942 28.9246 136.919 28.907C136.752 28.997 136.608 29.1255 136.501 29.2818C136.461 29.3479 136.409 29.4057 136.348 29.4518C136.286 29.4978 136.216 29.5313 136.142 29.5503C135.957 29.7294 135.807 29.8632 135.7 29.9519L135.204 30.3534C135.204 30.3183 135.166 30.2999 135.093 30.2999C134.897 30.4852 134.644 30.5985 134.375 30.6211C134 30.817 133.64 31.0407 133.298 31.2903C133.023 31.5093 132.684 31.6316 132.332 31.6384C132.091 31.6604 131.852 31.6961 131.615 31.7454C131.451 31.7823 131.282 31.7823 131.118 31.7454C130.739 31.7629 130.365 31.8446 130.013 31.9872C129.667 32.1441 129.276 32.1737 128.91 32.0708C128.875 31.9849 128.822 31.9073 128.755 31.8427C128.689 31.7782 128.609 31.7283 128.522 31.6961C128.353 31.5964 128.178 31.507 127.998 31.4284C127.906 31.3801 127.826 31.3117 127.764 31.2283C127.702 31.1449 127.659 31.0486 127.64 30.9465C127.23 30.6906 126.919 30.3035 126.756 29.8481C126.562 29.3157 126.46 28.7543 126.453 28.1876C126.436 27.5327 126.482 26.8778 126.591 26.2318C126.699 25.563 126.846 24.9013 127.032 24.25C126.487 24.6709 125.988 25.1475 125.542 25.6721C125.063 26.2259 124.585 26.7526 124.106 27.2523C123.942 27.547 123.737 27.8176 123.499 28.0563C123.279 28.2704 123.057 28.467 122.836 28.6419C122.21 29.3574 121.621 29.9825 121.07 30.5174C121.071 30.5324 121.07 30.5476 121.065 30.562C121.06 30.5764 121.053 30.5897 121.043 30.601C121.009 30.6412 120.981 30.686 120.959 30.734C120.665 30.9487 120.334 31.1997 119.966 31.4869C119.612 31.7634 119.233 32.0056 118.834 32.2105C118.455 32.404 118.043 32.5222 117.62 32.5585C117.149 32.5791 116.688 32.4264 116.322 32.1294C116.223 32.1257 116.126 32.1025 116.036 32.0612C115.946 32.0199 115.865 31.9612 115.798 31.8885C115.683 31.7452 115.541 31.6268 115.379 31.5405C115.219 31.4882 115.07 31.4044 114.942 31.2941C114.814 31.1838 114.71 31.0492 114.634 30.898C114.521 30.5329 114.456 30.1547 114.441 29.7729C114.41 29.4489 114.439 29.1221 114.524 28.8083C114.603 28.4558 114.723 28.114 114.883 27.7902C115.064 27.119 115.343 26.4783 115.712 25.8888C116.079 25.2993 116.429 24.7547 116.761 24.255C117.386 23.4335 118.021 22.6745 118.665 21.9779C119.31 21.2814 119.981 20.5937 120.68 19.915C120.923 19.7945 121.154 19.6511 121.37 19.4867C121.615 19.3057 121.884 19.1614 122.171 19.0584C122.275 19.0911 122.385 19.096 122.492 19.0725C122.599 19.049 122.697 18.998 122.778 18.9245C123 18.7639 123.183 18.8091 123.33 19.0584C124.038 19.1128 124.73 19.2944 125.373 19.5946C125.66 19.731 125.916 19.925 126.125 20.1647C126.334 20.4043 126.491 20.6843 126.587 20.9874C126.845 20.8084 127.084 20.6475 127.305 20.5048C127.527 20.3622 127.769 20.2539 128.023 20.1835C128.136 20.1452 128.234 20.0698 128.299 19.9694C128.372 19.8615 128.445 19.8079 128.519 19.8079C128.695 19.7714 128.877 19.7716 129.053 19.8086C129.229 19.8456 129.395 19.9186 129.541 20.0229C129.831 20.2242 130.135 20.4032 130.452 20.5583C130.47 20.5409 130.493 20.5292 130.517 20.5244C130.542 20.5197 130.567 20.5222 130.59 20.5315C130.675 20.548 130.762 20.5387 130.841 20.5048C130.915 20.6118 130.969 20.6921 131.009 20.7457C131.055 20.8215 131.092 20.9027 131.119 20.9874C131.184 21.6945 131.099 22.4073 130.868 23.0788C130.67 23.731 130.402 24.3597 130.067 24.9535C129.92 25.7755 129.717 26.6679 129.459 27.6305C129.204 28.4475 129.185 29.3203 129.405 30.1476C130.533 30.0526 131.63 29.7341 132.634 29.2107C133.498 28.7283 134.373 28.2542 135.257 27.7886C135.591 27.5393 135.895 27.3251 136.168 27.1461C136.464 26.9502 136.733 26.7159 136.968 26.4493C137.01 26.4525 137.05 26.4716 137.079 26.5028V26.5563C137.496 26.4273 137.875 26.1974 138.183 25.8871C138.735 25.441 139.296 24.9767 139.867 24.4943C140.437 24.0118 140.971 23.5922 141.468 23.2353C141.965 22.8789 142.248 22.7534 142.323 22.8605C142.359 22.8954 142.406 22.917 142.456 22.9219C142.506 22.9268 142.557 22.9146 142.599 22.8873C142.64 22.862 142.686 22.8464 142.734 22.8418C142.782 22.8372 142.83 22.8435 142.875 22.8605C142.911 22.9324 142.921 22.986 142.903 23.0211C142.894 23.0392 142.892 23.0601 142.897 23.0799C142.902 23.0996 142.914 23.1167 142.931 23.1282V23.0211C142.967 23.0211 142.967 23.0663 142.931 23.1549C142.895 23.2436 142.857 23.334 142.82 23.4226C142.796 23.4917 142.758 23.5553 142.709 23.61C142.673 23.646 142.673 23.61 142.709 23.503L142.458 23.7439L142.207 23.9856C142.154 24.1078 142.108 24.2329 142.069 24.3604C142.031 24.488 141.985 24.6131 141.931 24.7352C141.854 24.7445 141.776 24.7255 141.711 24.6816C141.656 24.8378 141.548 24.9701 141.407 25.0564C141.256 25.1574 141.148 25.3101 141.103 25.4856C141.03 25.4856 140.956 25.5751 140.882 25.7533L140.124 26.5505ZM125.052 21.9436C124.993 21.5267 124.85 21.1258 124.633 20.7649C124.431 20.4437 124.072 20.408 123.557 20.6579L122.673 21.6224C122.604 21.7254 122.509 21.8085 122.397 21.8633C122.296 21.9108 122.203 21.974 122.121 22.0507C122.035 22.1389 121.961 22.2379 121.9 22.3452C121.817 22.4848 121.724 22.6191 121.624 22.7475L120.851 23.6042C120.421 24.1414 120.024 24.7049 119.664 25.2915C119.278 25.9172 118.938 26.5156 118.644 27.0867C118.574 27.2589 118.481 27.421 118.368 27.5685C118.234 27.7628 118.141 27.9814 118.092 28.2119C118.017 28.1767 117.981 28.1851 117.981 28.2386C117.981 28.2922 117.962 28.3014 117.925 28.2654C117.867 28.6192 117.735 28.9569 117.539 29.2567C117.342 29.5684 117.246 29.9327 117.262 30.3007C117.557 30.1225 117.871 29.9443 118.201 29.7653C118.504 29.6083 118.783 29.4098 119.03 29.1756C120.097 28.1767 121.118 27.1322 122.094 26.0419C123.07 24.9516 124.036 23.8362 124.992 22.6957C125.106 22.6208 125.201 22.5199 125.268 22.4012C125.327 22.2893 125.425 22.2034 125.544 22.1603V22.0532C125.397 21.9617 125.224 21.9222 125.052 21.9411V21.9436Z" fill="#211915"/>
<path d="M152.652 14.0005C155.287 13.9749 157.849 14.8709 159.894 16.5338L157.029 19.9025C155.864 18.8329 154.342 18.2368 152.76 18.231C149.76 18.231 147.841 20.2674 147.841 23.4533C147.841 26.6925 149.706 28.7276 152.76 28.7276C153.556 28.7362 154.346 28.5859 155.084 28.2856C155.822 27.9853 156.492 27.5409 157.056 26.9785L160.084 30.0594C158.015 31.9771 155.283 33.0164 152.463 32.9581C146.625 32.9581 142.598 28.8847 142.598 23.4533C142.598 18.1002 146.788 14.0005 152.652 14.0005Z" fill="#211915"/>
<path d="M160.596 14.3403H165.836V32.6183H160.594L160.596 14.3403Z" fill="#211915"/>
<path d="M167.272 14.3403H172.217L179.298 24.7301V14.3403H184.217V32.6183H179.298L172.192 22.2781V32.6183H167.274L167.272 14.3403Z" fill="#211915"/>
<path d="M185.649 14.3403H199.917V18.6747H190.864V21.4689H198.864V25.2287H190.864V28.2845H200V32.6195H185.65L185.649 14.3403Z" fill="#211915"/>
<path d="M218.2 14.1843C217.626 14.1844 217.065 14.0143 216.588 13.6956C216.111 13.3768 215.739 12.9237 215.519 12.3936C215.299 11.8634 215.242 11.28 215.354 10.7171C215.466 10.1543 215.742 9.63724 216.148 9.23145C216.554 8.82566 217.071 8.54932 217.633 8.43739C218.196 8.32547 218.78 8.38297 219.31 8.60265C219.84 8.82232 220.293 9.19429 220.612 9.6715C220.931 10.1487 221.101 10.7098 221.101 11.2836C221.1 12.0527 220.794 12.79 220.25 13.3337C219.706 13.8775 218.969 14.1834 218.2 14.1843ZM218.2 9.83297C217.913 9.83284 217.632 9.91783 217.394 10.0771C217.155 10.2365 216.969 10.463 216.859 10.728C216.749 10.9931 216.72 11.2848 216.776 11.5662C216.832 11.8477 216.97 12.1062 217.173 12.3092C217.376 12.5121 217.635 12.6503 217.916 12.7064C218.197 12.7624 218.489 12.7337 218.754 12.6239C219.019 12.5141 219.246 12.3282 219.405 12.0896C219.565 11.8511 219.65 11.5706 219.65 11.2836C219.649 10.8992 219.496 10.5307 219.225 10.2589C218.953 9.98709 218.584 9.83415 218.2 9.83363V9.83297Z" fill="#F2F2F2"/>
<path d="M218.2 17.0856C217.052 17.0857 215.93 16.7455 214.976 16.1079C214.022 15.4704 213.278 14.5642 212.838 13.5038C212.399 12.4435 212.284 11.2768 212.508 10.1511C212.732 9.02546 213.285 7.99148 214.096 7.17993C214.908 6.36838 215.942 5.81573 217.067 5.59186C218.193 5.36798 219.36 5.48296 220.42 5.92222C221.48 6.36149 222.387 7.10531 223.024 8.05964C223.662 9.01397 224.002 10.1359 224.002 11.2836H222.551C222.551 10.4229 222.296 9.58136 221.818 8.86558C221.34 8.14981 220.66 7.59191 219.865 7.26244C219.07 6.93297 218.195 6.84674 217.35 7.01464C216.506 7.18254 215.731 7.59702 215.122 8.20569C214.513 8.81436 214.099 9.58987 213.931 10.4341C213.763 11.2784 213.849 12.1535 214.179 12.9487C214.508 13.7439 215.066 14.4236 215.782 14.9018C216.498 15.3799 217.339 15.6351 218.2 15.6349V17.0856Z" fill="#F2F2F2"/>
<path d="M228.354 14.1843C227.78 14.1843 227.219 14.0141 226.742 13.6953C226.265 13.3765 225.893 12.9233 225.673 12.3931C225.454 11.8629 225.396 11.2796 225.508 10.7167C225.62 10.1539 225.897 9.63695 226.303 9.23122C226.708 8.8255 227.225 8.54924 227.788 8.43737C228.351 8.32549 228.934 8.38305 229.465 8.60274C229.995 8.82243 230.448 9.1944 230.766 9.6716C231.085 10.1488 231.255 10.7098 231.255 11.2836C231.254 12.0528 230.948 12.7902 230.404 13.334C229.86 13.8778 229.123 14.1836 228.354 14.1843ZM228.354 9.83298C228.067 9.83298 227.786 9.91808 227.548 10.0775C227.309 10.2369 227.123 10.4634 227.014 10.7285C226.904 10.9936 226.875 11.2853 226.931 11.5667C226.987 11.8481 227.125 12.1065 227.328 12.3094C227.531 12.5123 227.789 12.6504 228.071 12.7064C228.352 12.7624 228.644 12.7337 228.909 12.6239C229.174 12.5141 229.401 12.3281 229.56 12.0896C229.719 11.851 229.804 11.5706 229.804 11.2836C229.804 10.8992 229.651 10.5307 229.379 10.2589C229.107 9.98708 228.738 9.83416 228.354 9.83364V9.83298Z" fill="#F2F2F2"/>
<path d="M228.354 17.0856C227.206 17.0856 226.084 16.7452 225.13 16.1076C224.176 15.47 223.432 14.5637 222.993 13.5034C222.554 12.4431 222.439 11.2763 222.663 10.1507C222.887 9.0251 223.439 7.99117 224.251 7.17969C225.063 6.3682 226.097 5.81563 227.222 5.59181C228.348 5.36799 229.515 5.48299 230.575 5.92228C231.635 6.36156 232.541 7.1054 233.179 8.05971C233.816 9.01403 234.157 10.136 234.156 11.2836C234.155 12.822 233.543 14.297 232.455 15.3847C231.367 16.4725 229.892 17.0842 228.354 17.0856ZM228.354 6.93169C227.493 6.93169 226.652 7.18693 225.936 7.66512C225.22 8.14332 224.663 8.823 224.333 9.61821C224.004 10.4134 223.918 11.2885 224.085 12.1327C224.253 12.9769 224.668 13.7523 225.276 14.3609C225.885 14.9696 226.661 15.384 227.505 15.5519C228.349 15.7199 229.224 15.6337 230.019 15.3043C230.814 14.9749 231.494 14.4171 231.972 13.7014C232.45 12.9858 232.706 12.1444 232.706 11.2836C232.705 10.1298 232.246 9.02356 231.43 8.20768C230.614 7.39179 229.508 6.9329 228.354 6.93169Z" fill="#F2F2F2"/>
<path d="M233.431 33.0421H213.122C212.738 33.0415 212.369 32.8885 212.097 32.6166C211.825 32.3447 211.672 31.976 211.672 31.5914V17.0856C211.672 16.7011 211.825 16.3325 212.097 16.0606C212.369 15.7887 212.738 15.6356 213.122 15.6349H233.431C233.815 15.6356 234.184 15.7887 234.456 16.0606C234.728 16.3325 234.881 16.7011 234.881 17.0856V19.9869H233.431V17.0856H213.122V31.5914H233.425C233.413 31.5868 233.431 31.5392 233.431 31.4557V24.3388H234.881V31.4557C234.895 31.6561 234.867 31.857 234.801 32.0465C234.734 32.236 234.63 32.4101 234.494 32.5583C234.359 32.7064 234.195 32.8257 234.012 32.9088C233.829 32.992 233.631 33.0373 233.431 33.0421Z" fill="#F2F2F2"/>
<path d="M216.749 28.6901H215.298V30.1408H216.749V28.6901Z" fill="#F2F2F2"/>
<path d="M223.276 28.6901H218.199V30.1408H223.276V28.6901Z" fill="#F2F2F2"/>
<path d="M241.409 27.9651C241.248 27.9678 241.087 27.9406 240.936 27.8848L240.852 27.8489L235.431 25.0638H212.395V23.6132H235.781L241.43 26.5158L241.407 17.8112L235.781 20.7119H212.397V19.2619H235.433L240.796 16.4976C240.989 16.409 241.199 16.3623 241.411 16.3606C241.795 16.3611 242.164 16.5141 242.436 16.786C242.708 17.058 242.861 17.4266 242.862 17.8112V26.5145C242.861 26.8994 242.708 27.2683 242.435 27.5403C242.163 27.8123 241.794 27.9651 241.409 27.9651Z" fill="#F2F2F2"/>
<path d="M236.332 19.9869H234.881V24.3388H236.332V19.9869Z" fill="#F2F2F2"/>
<path d="M229.804 35.9434H218.2C217.815 35.943 217.446 35.7901 217.174 35.5181C216.903 35.2461 216.75 34.8773 216.749 34.4927V32.3171H218.2V34.4927H229.804V32.3171H231.255V34.4927C231.255 34.8773 231.102 35.246 230.83 35.5179C230.558 35.7899 230.189 35.9429 229.804 35.9434Z" fill="#F2F2F2"/>
<path d="M209.496 25.7895C209.111 25.7888 208.743 25.6357 208.471 25.3638C208.199 25.0919 208.046 24.7233 208.045 24.3388V19.9869C208.045 19.7478 208.105 19.5125 208.217 19.3018C208.33 19.0912 208.494 18.9116 208.693 18.7792C208.892 18.6468 209.12 18.5655 209.358 18.5427C209.596 18.5199 209.836 18.5562 210.057 18.6485L212.635 19.5438L212.159 20.9142L209.54 20.0006L209.496 24.3362L212.171 23.465L212.62 24.8446L209.945 25.7151C209.801 25.7667 209.649 25.7919 209.496 25.7895Z" fill="#F2F2F2"/>
<path d="M218.755 34.9366L215.808 41.9628L217.145 42.5237L220.092 35.4975L218.755 34.9366Z" fill="#F2F2F2"/>
<path d="M222.381 34.9369L219.434 41.9632L220.771 42.5241L223.718 35.4978L222.381 34.9369Z" fill="#F2F2F2"/>
<path d="M229.316 34.9375L227.979 35.4982L230.926 42.5247L232.263 41.964L229.316 34.9375Z" fill="#F2F2F2"/>
<path d="M225.69 34.9375L224.353 35.4983L227.3 42.5248L228.637 41.964L225.69 34.9375Z" fill="#F2F2F2"/>
<path d="M217.055 33.5979L213.824 35.8922L214.664 37.0749L217.895 34.7806L217.055 33.5979Z" fill="#F2F2F2"/>
<path d="M210.222 41.744C209.765 41.7433 209.321 41.5993 208.951 41.3322C208.581 41.0652 208.305 40.6887 208.16 40.2559C208.016 39.8231 208.011 39.3559 208.147 38.9203C208.283 38.4848 208.552 38.1029 208.917 37.8286L211.818 35.653C212.141 35.4108 212.526 35.2635 212.928 35.2274C213.33 35.1913 213.735 35.2679 214.096 35.4486C214.457 35.6293 214.761 35.907 214.973 36.2506C215.186 36.5941 215.298 36.9901 215.299 37.394C215.298 37.7319 215.219 38.0649 215.067 38.3671C214.916 38.6693 214.697 38.9323 214.427 39.1357L211.526 41.3107C211.15 41.5937 210.692 41.7459 210.222 41.744ZM213.122 36.6664C212.966 36.6664 212.813 36.7173 212.688 36.8113L209.786 38.9875C209.696 39.0547 209.622 39.1421 209.572 39.2429C209.521 39.3437 209.495 39.455 209.496 39.5677C209.496 39.7601 209.572 39.9447 209.709 40.0808C209.845 40.2169 210.029 40.2933 210.222 40.2933C210.378 40.2942 210.531 40.2433 210.656 40.1485L213.558 37.9728C213.679 37.8813 213.769 37.754 213.814 37.6088C213.859 37.4637 213.857 37.308 213.809 37.1638C213.761 37.0195 213.669 36.8941 213.546 36.8051C213.422 36.7161 213.274 36.668 213.122 36.6677V36.6664Z" fill="#F2F2F2"/>
<path d="M235.552 10.3818C235.488 9.86515 235.368 9.35693 235.195 8.86588L236.566 8.38428C236.773 8.97337 236.916 9.58315 236.993 10.203L235.552 10.3818Z" fill="#F2F2F2"/>
<path d="M234.15 6.92322C233.477 6.02173 232.602 5.29049 231.596 4.78813C230.589 4.28577 229.479 4.02624 228.354 4.0304V2.57975C229.704 2.57484 231.036 2.88624 232.244 3.489C233.452 4.09176 234.502 4.96911 235.309 6.05074L234.15 6.92322Z" fill="#F2F2F2"/>
<path d="M240.683 30.8664H239.233V34.4927H240.683V30.8664Z" fill="#F2F2F2"/>
<path d="M240.683 37.394H239.233V41.0203H240.683V37.394Z" fill="#F2F2F2"/>
<path d="M245.035 35.2184H241.409V36.669H245.035V35.2184Z" fill="#F2F2F2"/>
<path d="M238.508 35.2184H234.881V36.669H238.508V35.2184Z" fill="#F2F2F2"/>
<path d="M245.84 8.85606L245.173 9.34806L246.404 11.0159L247.071 10.5239L245.84 8.85606Z" fill="#F2F2F2"/>
<path d="M248.055 11.8571L247.388 12.3491L248.619 14.0169L249.286 13.5249L248.055 11.8571Z" fill="#F2F2F2"/>
<path d="M249.319 9.38041L247.651 10.6108L248.143 11.2777L249.811 10.0473L249.319 9.38041Z" fill="#F2F2F2"/>
<path d="M246.317 11.5943L244.649 12.8247L245.141 13.4916L246.809 12.2612L246.317 11.5943Z" fill="#F2F2F2"/>
<path d="M201.191 4.26987e-06L200.524 0.491997L201.755 2.1598L202.422 1.66781L201.191 4.26987e-06Z" fill="#F2F2F2"/>
<path d="M203.406 3.00103L202.739 3.49303L203.97 5.16084L204.636 4.66884L203.406 3.00103Z" fill="#F2F2F2"/>
<path d="M204.669 0.524368L203.002 1.75475L203.494 2.42165L205.161 1.19128L204.669 0.524368Z" fill="#F2F2F2"/>
<path d="M201.668 2.7392L200 3.96957L200.492 4.63648L202.16 3.4061L201.668 2.7392Z" fill="#F2F2F2"/>
</svg>
