<svg xmlns="http://www.w3.org/2000/svg" viewBox="0 0 28.4 28.4"><title>logo_youtube</title><path d="M14.8,0A14.2,14.2,0,1,0,29,14.2,14.19,14.19,0,0,0,14.8,0Zm8.1,14.8a19.419,19.419,0,0,1-.2,2.4,4.347,4.347,0,0,1-.6,1.5,2.127,2.127,0,0,1-1.6.6c-2.2.2-5.5.2-5.5.2s-4.1,0-5.4-.2a2.7,2.7,0,0,1-1.7-.6,2.9,2.9,0,0,1-.6-1.5,19.419,19.419,0,0,1-.2-2.4V13.7a19.419,19.419,0,0,1,.2-2.4,4.347,4.347,0,0,1,.6-1.5A2.6,2.6,0,0,1,9.5,9c2.2-.1,5.5-.1,5.5-.1h0s3.3,0,5.5.2a2.127,2.127,0,0,1,1.6.6,2.9,2.9,0,0,1,.6,1.5,19.419,19.419,0,0,1,.2,2.4Z" transform="translate(-0.6 0)"/><polygon points="12.8 16.1 12.8 11.9 17 14 12.8 16.1"/></svg>