<svg width="29" height="29" viewBox="0 0 29 29" fill="none" xmlns="http://www.w3.org/2000/svg">
<circle cx="14.8182" cy="14.1818" r="14.1818" fill="black"/>
<path d="M22.7308 11.1581C22.7308 11.1581 22.5769 10.116 22.1046 9.65718C21.5056 9.05487 20.8342 9.05188 20.5264 9.0166C18.3221 8.86365 15.0156 8.86365 15.0156 8.86365H15.0088C15.0088 8.86365 11.7025 8.86365 9.49811 9.0166C9.19019 9.05188 8.51907 9.05487 7.91982 9.65718C7.44759 10.1162 7.2939 11.1581 7.2939 11.1581C7.19582 11.9707 7.14323 12.7878 7.13635 13.6058V14.7532C7.14313 15.5711 7.1956 16.3882 7.29356 17.2008C7.29356 17.2008 7.44725 18.2429 7.91948 18.7017C8.51873 19.304 9.30578 19.2849 9.65633 19.3481C10.9166 19.4641 15.0119 19.5 15.0119 19.5C15.0119 19.5 18.3218 19.4952 20.5261 19.3423C20.8339 19.307 21.5053 19.304 22.1043 18.7017C22.5766 18.2427 22.7305 17.2008 22.7305 17.2008C22.8285 16.3881 22.881 15.571 22.8878 14.753V13.6058C22.8811 12.7878 22.8286 11.9707 22.7308 11.1581ZM13.386 16.1435L13.3853 11.8942L17.6415 14.0262L13.386 16.1435Z" fill="white"/>
</svg>
