<?xml version="1.0" encoding="utf-8"?>
<!-- Generator: Adobe Illustrator 22.1.0, SVG Export Plug-In . SVG Version: 6.00 Build 0)  -->
<svg version="1.0" id="Camada_1" xmlns="http://www.w3.org/2000/svg" xmlns:xlink="http://www.w3.org/1999/xlink" x="0px" y="0px"
	 viewBox="0 0 369.8 48" enable-background="new 0 0 369.8 48" xml:space="preserve">
<g>
	<path fill="#F2F2F2" d="M257,19.3h3.5l0.1,1.4c1.1-1.1,2.5-1.7,3.9-1.8c0.7-0.1,1.4,0.1,2.1,0.4c0.6,0.3,1.1,0.9,1.5,1.5
		c1.2-1.2,2.7-1.9,4.4-2c2.8,0,4.1,1.8,4.1,4.7v8.9H273v-8.9c0-1.2-0.5-1.9-1.6-1.9c-0.5,0-1,0.2-1.5,0.4c-0.5,0.2-0.9,0.6-1.2,1
		c0,0.3,0.1,0.6,0.1,0.9v8.6H265v-8.9c0-1.2-0.5-1.9-1.6-1.9c-0.5,0-1.1,0.2-1.5,0.4s-0.9,0.6-1.2,1.1v9.4H257V19.3z"/>
	<path fill="#F2F2F2" d="M280,19.3h3.7v8.9c0,1.2,0.4,2,1.7,2c0.6,0,1.1-0.2,1.6-0.4s0.9-0.6,1.3-1.1v-9.4h3.7v13.3h-3.4l-0.2-1.5
		c-1.1,1.1-2.5,1.8-4.1,1.8c-3,0-4.3-1.8-4.3-4.8L280,19.3z"/>
	<path fill="#F2F2F2" d="M295.6,13.9h3.7v18.7h-3.7V13.9z"/>
	<path fill="#F2F2F2" d="M302.9,13.9h3.7v6.9c0.5-0.6,1.1-1,1.8-1.3c0.7-0.3,1.4-0.5,2.2-0.5c3,0,4.3,1.8,4.3,4.8v8.8h-3.7v-8.9
		c0-1.2-0.5-2-1.7-2c-0.6,0-1.1,0.2-1.6,0.4c-0.5,0.3-0.9,0.7-1.3,1.1v9.3h-3.7L302.9,13.9L302.9,13.9z"/>
	<path fill="#F2F2F2" d="M324.5,19c3.8,0,6,2.5,6,6.1c0,0.5,0,1.1-0.1,1.6h-8.8c0.2,2.3,1.3,3.4,3.3,3.4c1.3,0,2.6-0.4,3.7-1.1
		l1.5,2.3c-1.6,1.1-3.5,1.7-5.5,1.7c-3.9,0-6.7-2.6-6.7-7.1c0-0.9,0.1-1.8,0.4-2.7c0.3-0.9,0.8-1.6,1.4-2.3c0.6-0.6,1.4-1.2,2.2-1.5
		S323.6,18.9,324.5,19z M321.5,24.6h5.4c0-1.7-0.6-3-2.4-3C323.1,21.6,321.9,22.6,321.5,24.6z"/>
	<path fill="#F2F2F2" d="M333.4,19.3h3.4l0.3,2.1c0.3-0.7,0.9-1.4,1.6-1.8s1.5-0.7,2.3-0.6c0.6,0,1.1,0.1,1.6,0.3l-0.5,3.3
		c-0.6-0.2-1.2-0.3-1.8-0.3c-1.4,0-2.3,0.8-3.1,2.4v8h-3.6L333.4,19.3z"/>
	<path fill="#F2F2F2" d="M350.4,19c3.8,0,6,2.5,6,6.1c0,0.5,0,1.1-0.1,1.6h-8.8c0.2,2.3,1.3,3.4,3.3,3.4c1.3,0,2.6-0.4,3.7-1.1
		l1.5,2.3c-1.6,1.1-3.5,1.7-5.5,1.7c-3.9,0-6.7-2.6-6.7-7.1c0-0.9,0.1-1.8,0.4-2.7c0.3-0.9,0.8-1.6,1.4-2.3c0.6-0.6,1.4-1.2,2.2-1.5
		C348.7,19.1,349.6,18.9,350.4,19z M347.5,24.6h5.4c0-1.7-0.6-3-2.4-3C349,21.6,347.9,22.6,347.5,24.6z"/>
	<path fill="#F2F2F2" d="M360.1,28.9c1.3,0.7,2.7,1.2,4.1,1.2c1.2,0,2-0.4,2-1.3c0-2.3-7.2-0.8-7.2-5.7c0-2.7,2.5-4.1,5.3-4.1
		c1.7,0,3.4,0.4,5,1.2l-1.3,2.5c-1.1-0.6-2.4-0.9-3.6-0.9c-1.1,0-1.8,0.4-1.8,1.2c0,2.2,7.2,0.6,7.2,5.7c0,2.7-2.3,4.2-5.5,4.2
		c-1.9,0-3.9-0.5-5.6-1.4L360.1,28.9z"/>
</g>
<g>
	<path fill="#211915" d="M1.7,27.9C1.8,27.9,1.8,27.8,1.7,27.9c0.1-0.1,0.1-0.2,0.1-0.2c0-0.1,0-0.2,0-0.3C1.9,27.2,2,27.1,2,26.9
		c0-0.1,0-0.2,0.1-0.2c0.1-0.1,0.1-0.1,0.2-0.1c0.1-0.1,0.1-0.2,0.1-0.3c-0.1-0.1,0-0.1,0.1-0.2s0.1-0.3,0.2-0.4
		c0.1-0.1,0.1-0.3,0.3-0.4c0.3-0.7,0.7-1.5,1.1-2.2c0.5-0.8,0.9-1.5,1.2-2.2c0.2-0.2,0.3-0.4,0.5-0.6C6,20,6.1,19.8,6.1,19.5h0.1
		c0.1-0.4,0.3-0.5,0.7-0.4c0.4,0.1,0.8,0.2,1.2,0.3c0.1,0,0.1,0.1,0.2,0.1c0.1,0.1,0.1,0.1,0.1,0.2s0.1,0.3,0.1,0.4
		c0,0-0.1,0-0.1,0.1v0.1c0,0.1,0,0.2,0,0.2C8.2,21,8,21.4,7.9,21.8S7.6,22.7,7.3,23c0,0.1-0.1,0.1-0.1,0.2c-0.1,0-0.1,0.1-0.1,0.2
		C7,23.6,6.9,23.8,6.9,24c-0.1,0.3-0.2,0.6-0.4,0.8c-0.3,0.6-0.6,1.1-0.8,1.6c-0.2,0.5-0.4,1.1-0.7,1.7c-0.1,0.5-0.2,1-0.4,1.4
		c-0.1,0.2-0.1,0.5,0,0.7c0,0.2,0.1,0.5,0.3,0.7c0.8-0.2,1.5-0.4,2.2-0.8c0.6-0.3,1.3-0.6,2-1l1.5-1.1l0.4-0.3l1.8-1.3l1.5-1.1
		c0.2-0.1,0.4-0.2,0.6-0.3c0.2-0.1,0.4-0.2,0.6-0.3c0.4-0.3,0.7-0.5,0.9-0.7s0.5-0.4,0.9-0.6c0.1-0.1,0.2-0.2,0.3-0.2
		c0.1-0.1,0.2-0.1,0.4-0.2l0.4-0.3c0.1-0.1,0.1-0.2,0.2-0.3c0.1-0.1,0.2-0.1,0.3-0.1c0.1,0,0.2-0.1,0.3-0.2c0.1-0.1,0.2-0.2,0.2-0.3
		c0.1,0,0.2,0,0.2-0.1c0.2,0.1,0.3,0.2,0.2,0.3s0,0.2,0.1,0.3c-0.1,0.1-0.2,0.2-0.2,0.3c0,0.1-0.1,0.2-0.1,0.3
		c0.1,0.1,0.2,0,0.3-0.2c0-0.2,0.1-0.3,0.2-0.3c0,0.1,0,0.2-0.1,0.3c0,0.2-0.1,0.2-0.1,0.2c0.2,0.1,0.2,0.2,0.1,0.3
		c-0.1,0-0.1,0.1-0.1,0.2s0,0.1,0,0.2s-0.1,0.1-0.2,0.1c0,0-0.1,0.1-0.1,0.2c-0.1,0-0.1,0,0-0.1s0-0.1-0.1-0.1
		c0,0.1-0.1,0.1-0.1,0.2c-0.1,0.1-0.1,0.2-0.1,0.3c-0.1,0-0.1,0-0.1-0.1V24c-0.2,0-0.3,0.1-0.3,0.2c-0.1,0-0.1,0.1-0.2,0.1
		c-0.1,0.1-0.1,0.1-0.1,0.2c0,0.2-0.1,0.3-0.2,0.4c-0.1,0-0.1,0-0.1-0.1c0,0,0-0.1-0.1-0.1c0,0,0,0.1-0.1,0.3
		c-0.1,0.2-0.2,0.3-0.3,0.5c-0.1,0.1-0.2,0.3-0.3,0.3c-0.1,0.1,0,0.1,0-0.1c-0.1,0-0.2,0-0.5,0.2c-0.2,0.1-0.3,0.2-0.5,0.4L16,26.9
		c-0.1,0.1-0.3,0.2-0.6,0.4c-0.3,0.2-0.5,0.4-0.5,0.4l-0.1-0.1l0,0l0,0v0.1c0-0.1-0.1-0.1-0.2,0c-0.1,0.1-0.1,0.1,0,0.2h-0.2
		c-0.1,0.1-0.1,0.3-0.2,0.4c-0.2,0.2-0.4,0.4-0.6,0.5v-0.2c-0.1,0-0.1,0-0.1,0c0,0.1,0,0.1-0.1,0.1h0.2c0,0.1-0.1,0.2-0.2,0.2
		c-0.1,0-0.2,0-0.3,0.1c0,0,0,0,0-0.1c0.1,0,0-0.1,0-0.1c-0.1,0.1-0.2,0.2-0.3,0.3c-0.1,0.1-0.2,0.2-0.3,0.3
		c-0.1-0.1-0.1-0.1-0.2-0.1c-0.1,0.1-0.1,0.1-0.2,0.2l-0.3,0.1c-0.1,0.1-0.2,0.1-0.3,0.2s-0.3,0.1-0.4,0.2c0,0.1-0.1,0.1-0.1,0.2
		l0,0l0,0l0,0l0,0c0,0,0,0-0.1,0c-0.1,0.1-0.2,0.2-0.3,0.2c-0.1,0.1-0.3,0.2-0.4,0.2c-0.1,0.2-0.4,0.4-0.6,0.5
		c-0.3,0.1-0.6,0.2-0.9,0.3c-0.4,0.3-0.9,0.5-1.3,0.6s-0.8,0.2-1.3,0.2c-0.5,0.1-1,0.1-1.5,0c-0.4-0.1-0.7-0.1-1.1-0.2
		c-0.3,0-0.6-0.1-0.8-0.2c-0.3-0.2-0.5-0.4-0.6-0.6c-0.2-0.2-0.3-0.5-0.4-0.6c-0.1,0-0.2-0.1-0.2-0.2s-0.1-0.2-0.2-0.3V30
		c0,0,0,0,0-0.1C1.2,30,1.2,30,1.1,30c0-0.1-0.1-0.2,0-0.2c0-0.1,0.1-0.1,0.1-0.2c0.1-0.1,0.1-0.3,0-0.4c-0.1,0.1-0.1,0.3-0.1,0.4
		L1,29.5c0-0.1,0-0.1,0-0.2s0.1-0.2,0.2-0.2c0-0.3,0.1-0.5,0.2-0.8H1.3H1.2c0-0.2,0.1-0.3,0.2-0.4s0.1-0.1,0.1-0.2s0-0.2,0-0.2
		c-0.1,0-0.1,0-0.1,0.1s0,0.1,0,0.1c-0.1-0.2,0-0.4,0.2-0.7c0,0,0.1,0,0.1-0.1c0,0.1,0,0.2-0.1,0.2c0,0,0,0,0,0.1c0,0,0,0,0,0.1
		C1.7,27.8,1.7,27.8,1.7,27.9L1.7,27.9z M10.9,15.6C10.8,15.7,10.8,15.7,10.9,15.6c0,0.1,0,0.1-0.1,0.2c-0.2,0.1-0.3,0.3-0.4,0.5
		c0,0.1-0.1,0.2-0.2,0.2c-0.1,0-0.2,0.1-0.3,0c-0.2,0.1-0.3,0.2-0.4,0.4c-0.1,0-0.2,0-0.3-0.1c0,0-0.1-0.1-0.2-0.2
		c-0.2,0-0.3,0.1-0.3,0.2c-0.3-0.1-0.5-0.2-0.8-0.3c-0.2-0.1-0.4-0.2-0.7-0.3c0-0.3,0-0.6,0.1-0.9C7.3,15.1,7.6,15,8,15
		c0.1-0.1,0.1-0.1,0.2-0.1c0,0,0.1,0,0.1-0.1c0.4,0,0.8,0.1,1.2,0.3s0.8,0.2,1.2,0.3C10.6,15.5,10.7,15.6,10.9,15.6L10.9,15.6z
		 M12.4,29.4c0.1,0,0.2,0,0.2-0.1c0.1-0.1,0.1-0.1,0-0.2L12.4,29.4z M18.3,24.5c-0.1,0-0.3,0.1-0.3,0.2v0.1v0.1V25c0,0,0,0,0.1,0.1
		c0-0.1,0-0.1,0.1-0.2c0-0.1,0.1-0.1,0.1-0.1l0.1-0.1C18.3,24.5,18.3,24.5,18.3,24.5L18.3,24.5z M18.9,24.2
		C18.9,24.2,18.9,24.1,18.9,24.2L18.9,24.2z"/>
	<path fill="#211915" d="M41.4,27.6c0-0.1-0.1-0.2-0.2-0.1c-0.2,0.1-0.3,0.3-0.4,0.5c-0.2,0.2-0.3,0.4-0.5,0.6
		c-0.1,0.2-0.3,0.3-0.5,0.4c-0.1-0.1-0.1-0.2,0-0.3c0.1-0.2,0.2-0.3,0.2-0.3c-0.1,0-0.1,0-0.2,0s-0.1,0-0.1,0.1l-0.1,0.1
		c0,0,0,0.1,0,0.2c0,0.3-0.1,0.4-0.2,0.4c0,0.1-0.1,0.2-0.2,0.2c-0.1,0.1-0.2,0.1-0.3,0.1c-0.2,0.1-0.5,0.2-0.7,0.3h0.1
		c0.1,0,0.1,0,0.1,0.1c-0.1-0.1-0.1-0.1-0.1,0s0,0.1-0.1,0.1v-0.1C38.1,30,38.1,30,38,29.8c-0.1-0.1,0-0.1,0.2-0.1
		c0-0.1,0.1-0.2,0.1-0.3c-0.1-0.1-0.2-0.1-0.3,0s-0.1,0.2-0.2,0.3c-0.1,0.1-0.1,0.3-0.2,0.4c-0.1,0.1-0.2,0.2-0.4,0.1
		c0.3-0.2,0.6-0.5,0.8-0.9c-0.4,0.2-0.7,0.4-0.9,0.8c0-0.1-0.1-0.1-0.2,0c-0.1,0.1-0.1,0.2-0.2,0.2c-0.1,0-0.2,0-0.2-0.1h-0.1l0,0
		c0,0,0,0,0,0.1c-0.1,0-0.2,0.1-0.3,0.2l-0.2,0.2c0.1,0,0.1,0,0.1-0.1c0,0,0.1,0,0.1,0.1c-0.1,0.1-0.2,0.2-0.3,0.3l-0.1,0.1
		c-0.1,0-0.1,0-0.2,0c-0.1,0-0.1,0,0-0.1c0.1,0,0.1-0.1,0-0.2c-0.1,0-0.2,0.1-0.2,0.1c-0.1,0.1-0.1,0.1-0.1,0.2
		c0,0.2-0.1,0.2-0.3,0.2c0-0.1,0-0.2,0-0.2h-0.1h-0.1c-0.1,0-0.2,0-0.3,0c0,0,0,0,0,0.1l0,0l0.1,0.1c-0.3,0.2-0.7,0.3-1.1,0.3
		c-0.5,0-0.9-0.2-1.3-0.4c-0.5,0-1.1-0.1-1.6-0.3c-0.5-0.2-0.9-0.4-1.4-0.6c0,0,0.1-0.1,0.2-0.1v-0.1V30c0,0-0.1-0.1-0.2-0.2
		c-0.1,0-0.1,0-0.1,0.1c0,0,0,0,0,0.1c0,0,0,0,0,0.1c-0.2-0.2-0.4-0.4-0.5-0.6c-0.1-0.3-0.3-0.5-0.5-0.6c0-0.1-0.1-0.3-0.1-0.4
		c0,0,0,0,0-0.1s0,0,0-0.1c0,0,0,0-0.1,0c0,0,0,0-0.1,0c-0.2-1-0.3-2-0.3-3c0-0.9,0.1-2,0.2-3.3c-0.3,0.1-0.6,0.3-0.8,0.6
		c-0.2,0.3-0.5,0.4-0.8,0.6c-1.3,1.3-2.5,2.5-3.9,3.8c-1.4,1.2-2.6,2.6-3.7,4.1c-0.2,0-0.3,0.1-0.4,0.2s-0.3,0.3-0.4,0.3
		c-0.3,0-0.5,0.1-0.8,0.1c-0.4,0-0.7-0.1-1.1-0.2v-0.1v-0.1c-0.4-0.1-0.7-0.2-0.9-0.3c-0.2-0.1-0.3-0.3-0.3-0.8c0-0.2,0-0.3,0.1-0.5
		s0.1-0.3,0-0.5c0-0.1,0-0.2,0.1-0.2h0.1v-0.1c0.4-1.8,1.1-3.6,1.8-5.3c0.7-1.6,1.4-3.3,2-4.9c0.2,0.1,0.4,0.1,0.8-0.1
		c0.2,0.1,0.5,0.2,0.7,0.2c0.3,0.1,0.6,0.2,0.9,0.3c0,0.1,0.1,0.2,0.2,0.2c0.1,0.1,0.2,0.1,0.3,0.2c0,0.7-0.2,1.4-0.5,2.1
		c-0.3,0.6-0.6,1.3-0.9,2c-0.2,0.5-0.4,1-0.6,1.6s-0.5,1.2-0.6,1.7c0,0.1,0,0.2-0.1,0.3c-0.1,0.1-0.1,0.2-0.1,0.2
		c0.5-0.5,1-1.1,1.5-1.7s1-1.2,1.4-1.7c0.5-0.3,1-0.7,1.5-1.1s1-0.8,1.5-1.2c0.5-0.4,1-0.7,1.6-1.1c0.5-0.3,1-0.6,1.5-1
		c0.3,0,0.5-0.1,0.7-0.2c0.2-0.2,0.4-0.3,0.7-0.3c0.3,0,0.6,0.1,0.8,0.2c0.3,0.2,0.6,0.3,1,0.2v0.1H31h0.1c0,0,0.1,0,0.1,0.1v0.1
		c0,0.2,0.1,0.4,0.2,0.5c0,0.3-0.1,0.8-0.1,1.3c0,0.4-0.1,0.9-0.3,1.3c0.1-0.1,0.1,0-0.1,0.3c-0.1,0.3-0.2,0.5-0.1,0.6
		c-0.2,1.2-0.2,2.4,0,3.6c0.1,0.6,0.3,1.2,0.7,1.6c0.5,0.1,0.9,0.1,1.2,0.1s0.6,0,0.9-0.1c0.3-0.1,0.6-0.1,0.9-0.3
		c0.4-0.2,0.7-0.3,1-0.6l0.2-0.2c0.1-0.1,0.2,0,0.3,0c0.3-0.1,0.6-0.2,0.9-0.4c0.1-0.1,0.2-0.2,0.4-0.2c0.1,0,0.3,0,0.4,0.1
		c0.1,0,0.1-0.1,0.1-0.2s0-0.1,0.1-0.2c0.1,0,0.1,0.1,0.1,0.1s0,0,0.1,0.1c0-0.1,0.1-0.2,0.1-0.3c0.1,0,0.1,0.1,0.2,0.1
		c0.1,0,0.1,0,0.2,0c0.1,0,0.1-0.1,0.1-0.1c0-0.1,0.1-0.1,0-0.2c0.1,0,0.3-0.1,0.3-0.2c0.1-0.1,0.1-0.2,0.2-0.3
		c-0.1,0-0.1,0.1-0.1,0.2S39,26.6,39,26.7c0.3-0.1,0.4-0.3,0.4-0.4s0.1-0.3,0.3-0.4s0.4-0.2,0.7-0.4c0.2-0.1,0.5-0.3,0.7-0.5
		c0.2-0.1,0.3-0.2,0.5-0.3c0.1-0.1,0.3-0.2,0.5-0.3c0.1-0.1,0.2-0.2,0.3-0.3c0-0.1,0.1-0.1,0.2-0.1c0.1,0,0.2,0,0.2,0
		c0.1-0.1,0.2-0.1,0.3-0.1s0.1-0.1,0.1-0.2s0-0.1,0-0.2c0.3,0,0.5-0.1,0.7-0.2c0.3-0.1,0.5-0.3,0.7-0.5c0,0,0.1-0.1,0.1-0.2
		c0.1,0,0.1,0,0.1,0.1c0,0,0,0.1,0.1,0.1c0.1-0.1,0.1-0.1,0-0.1s-0.1-0.1-0.1-0.2c0.1,0.1,0.1,0.1,0.1,0v-0.2c0.1,0,0.1,0,0.1,0.1
		s0,0.1,0.1,0.1c0,0,0,0.1-0.1,0.1c0,0-0.1,0-0.1,0.1c0.1-0.1,0.3,0,0.4,0.3c0.1,0.2,0.1,0.4,0,0.5c0,0.2-0.1,0.3-0.3,0.5l0,0
		c0,0,0,0-0.1,0.1c0,0.2-0.2,0.4-0.3,0.6c-0.1,0.1-0.3,0.3-0.4,0.5L41.4,27.6z M35.8,30.8c-0.1,0-0.1,0-0.1,0.1s0,0.1,0.1,0.1V30.8z
		 M36.5,30.4L36.5,30.4L36.5,30.4C36.4,30.4,36.4,30.4,36.5,30.4C36.4,30.4,36.4,30.4,36.5,30.4z M36.5,30.6c-0.1,0.1-0.1,0-0.1-0.1
		L36.5,30.6z M38.2,29.8L38.2,29.8C38.2,29.9,38.2,29.9,38.2,29.8C38.2,29.9,38.2,29.9,38.2,29.8L38.2,29.8L38.2,29.8z M40.8,26.9
		c0.1,0,0.2,0,0.3-0.1l0.1-0.1c-0.1,0-0.2,0-0.2,0C40.8,26.7,40.8,26.8,40.8,26.9L40.8,26.9z M43,25.6c0,0.1,0,0.1-0.1,0.1
		s-0.1,0-0.2,0.2C42.9,25.9,43,25.8,43,25.6L43,25.6z"/>
	<path fill="#211915" d="M42.4,30.6c0.1-0.3,0.2-0.5,0.4-0.7s0.4-0.4,0.6-0.6c-0.1,0.1-0.1,0.2-0.2,0.2c-0.1,0.1-0.1,0.2-0.1,0.3
		c0.2-0.1,0.4-0.2,0.6-0.4c0.2-0.2,0.3-0.4,0.4-0.6c0.1,0.1,0.3,0.1,0.4-0.1c0.1-0.2,0.3-0.3,0.4-0.4l0.1-0.1c0,0,0.1,0,0.1-0.1V28
		c0-0.1,0-0.2,0.1-0.3l0,0l0,0l0.1-0.1c0-0.1,0.1-0.2,0.1-0.2c0.1-0.1,0.1-0.1,0.2-0.1c0.1,0,0.3-0.1,0.3-0.2c0,0,0.1-0.1,0.2-0.2
		c0.2-0.2,0.6-0.4,0.9-0.5c0.3-0.1,0.6-0.3,0.8-0.6c0.5-0.2,0.9-0.4,1.3-0.7c0.4-0.3,0.9-0.6,1.4-0.8c0.2-0.7,0.2-1.4,0.2-2.1
		s-0.2-1.4-0.5-2c-0.1,0.1-0.3,0.3-0.5,0.5s-0.4,0.4-0.6,0.6L48.5,22l-0.8,0.7l-1,0.9c-0.2,0.2-0.5,0.5-0.8,0.7
		c-0.2,0.2-0.4,0.3-0.7,0.4c-0.2,0.3-0.4,0.5-0.7,0.7c-0.2,0.2-0.4,0.1-0.6-0.1c-0.1-0.1-0.1-0.2-0.2-0.2c0,0,0,0-0.1,0
		c0,0,0,0-0.1,0l-0.1,0.1c0,0-0.1-0.1-0.2-0.2c-0.1,0-0.2,0-0.3,0.1s0,0.1,0,0s0.1-0.2,0.1-0.2c0-0.1,0.1-0.1,0.1-0.1
		c0.2-0.1,0.4-0.3,0.6-0.5c0.1-0.1,0.2-0.3,0.2-0.4c0.1-0.2,0.1-0.3,0.3-0.5c0.1-0.1,0.3-0.2,0.5-0.3c0.2-0.1,0.4-0.2,0.5-0.3
		c0.1-0.1,0.1-0.2,0.1-0.3c0-0.1,0.1-0.2,0.1-0.3c0.1-0.1,0.3-0.2,0.4-0.3c0.1-0.1,0.2-0.1,0.3-0.2c0.3-0.4,0.6-0.7,0.9-1
		c0.3-0.3,0.5-0.5,0.7-0.8c0.1-0.3,0.3-0.6,0.5-0.8c0.2-0.2,0.5-0.4,0.8-0.4c0.2-0.1,0.5-0.1,0.7,0c0.2,0,0.4,0.1,0.6,0.3
		c0.4,0,0.8,0.1,1.1,0.3c0.3,0.2,0.5,0.5,0.6,0.9c0.1,0.2,0.2,0.4,0.3,0.6c0.1,0.3,0.1,0.6,0.2,0.9c0.1,0.3,0.1,0.7,0.2,1
		c0,0.3,0.1,0.5,0.1,0.8c0.4,0,0.8-0.1,1.2-0.3c0.6-0.2,1.1-0.4,1.7-0.6c0.6-0.2,1.2-0.4,1.7-0.5c0.4-0.1,0.7-0.2,1.1-0.2
		c0,0,0.1,0,0.1-0.1c0,0.1,0.1,0.1,0.1,0.1c0.1,0,0.1,0,0.2,0c0.3-0.1,0.5-0.1,0.8-0.2c0.3,0,0.5-0.2,0.8-0.3h0.1h0.1
		c0.1-0.1,0.2-0.1,0.3-0.2V21c0.1,0,0.1-0.1,0.1-0.3c0.3,0,0.7,0,1,0s0.5-0.1,0.8-0.1c0.1,0.1,0.3,0.1,0.5,0.1c0.1,0,0.2,0,0.4-0.1
		l0.8,0.2c0,0.2,0.1,0.2,0.2,0.1c0,0.1,0,0.1,0,0.1l0,0l0,0c0,0,0,0.1,0.1,0.1c0,0,0,0.1,0.1,0.1l0,0l0,0l0,0l0,0
		c0,0.1,0.1,0.2,0.1,0.2s0,0.1,0.1,0.1v0.1c-0.2,0.1-0.3,0.1-0.5,0.1c-0.1,0-0.3,0-0.4,0c0,0.1,0,0.1,0.1,0.1c0,0,0.1,0,0.1,0.1
		c0.4,0.1,0.2,0.1,0,0.1s-0.4,0.1-0.4,0.3c-0.3,0.1-0.6,0.2-0.9,0.2c-0.3,0.1-0.7,0.2-1,0.2c-0.1,0.1-0.1,0.2-0.2,0.3
		c-0.1-0.1-0.2-0.1-0.3-0.1s-0.2,0-0.3,0c-0.2,0.1-0.3,0.1-0.5,0.2c-0.3,0-0.6,0.1-0.9,0.3c-0.3,0.2-0.6,0.3-0.9,0.3l-4.4,1.7
		l-0.9,0.5c-0.3,0.1-0.6,0.4-0.8,0.6c0,0.4-0.2,0.8-0.4,1.1c-0.2,0.3-0.3,0.6-0.4,1c-0.2,0-0.3,0.1-0.3,0.2s-0.1,0.3-0.2,0.4
		c0.1,0,0.1,0,0.1-0.1s0-0.1,0.1,0c-0.1,0.2-0.2,0.4-0.3,0.6s-0.3,0.5-0.5,0.6c0.1,0,0.1,0.1,0,0.2s-0.2,0.2-0.1,0.3
		c-0.1,0.1-0.2,0.1-0.3,0.2s-0.1,0.2-0.1,0.2c-0.1,0-0.1,0-0.1,0.1s-0.1,0.1-0.2,0c0.1,0.1,0.1,0.2,0,0.2s-0.1,0.1,0,0.2
		c-0.2,0.2-0.4,0.4-0.6,0.7c-0.2,0.2-0.3,0.5-0.5,0.7l0,0c0.1,0,0.1,0,0,0.1c-0.5,0.5-1,1-1.6,1.5s-1.2,0.8-2,1c0-0.1,0-0.1-0.1-0.1
		s-0.2,0-0.2,0c0-0.1,0-0.1,0.1-0.1s0.2,0,0.2,0c-0.1-0.2-0.2-0.2-0.4-0.2c-0.1,0.1-0.3,0.1-0.4,0.1c0,0.1,0,0.2-0.1,0.2v-0.1
		c-0.1,0-0.3,0-0.4,0.1c-0.2,0-0.4,0-0.6-0.1c0,0-0.1,0-0.1,0.1s0,0.1-0.1,0.1c-0.6,0.1-1.3-0.1-1.8-0.3s-0.9-0.6-1.2-1
		c-0.1,0-0.1,0-0.1,0c0-0.1-0.1-0.1-0.1,0c-0.1-0.1-0.1-0.1,0-0.2c0.1,0,0.1-0.1,0-0.3c-0.1,0.1-0.1,0.2-0.2,0.2
		c-0.1,0-0.1,0-0.2,0.1c-0.1-0.1-0.1-0.2,0-0.2s0.1-0.1,0-0.2c0-0.1-0.1-0.1-0.1,0s0,0,0-0.1s0.1-0.2,0.1-0.3
		c0.1-0.1,0.2-0.1,0.4-0.1c0-0.2,0-0.4,0-0.6c0.1-0.2,0.2-0.4,0.3-0.5c0,0.1,0,0.1,0,0.2c0,0.1,0,0.1,0,0.2c0.1-0.1,0.2-0.1,0.3-0.2
		c0.1-0.1,0.1-0.2,0.2-0.3c0.1-0.3,0.2-0.6,0.3-0.9c0.2,0.1,0.3,0.1,0.4-0.1c0-0.1,0.1-0.1,0.1-0.1C42.3,30.6,42.4,30.6,42.4,30.6z
		 M42.9,30.2c0-0.2,0-0.3,0.1-0.3C42.9,30.1,42.9,30.2,42.9,30.2z M47.1,29.3L47.1,29.3C47,29.3,47,29.4,47.1,29.3
		c0,0.1,0,0.1-0.1,0.1l0,0c-0.4,0.2-0.7,0.5-0.9,0.9c-0.3,0.3-0.6,0.7-0.9,1c0,0.1,0,0.2-0.1,0.1c0,0.1,0,0.1,0,0.1s0,0,0,0.1
		c-0.1,0-0.2,0.1-0.3,0.1c-0.1,0.1-0.1,0.1-0.2,0.2h-0.1c0,0-0.1,0-0.1,0.1c-0.1,0.2-0.3,0.5-0.6,0.6c-0.1,0.1-0.2,0.2-0.3,0.3
		s-0.1,0.3-0.2,0.4c0.1,0,0.1,0.1,0.1,0.1s0,0,0,0.1c0,0,0,0,0,0.1c0.4-0.1,0.9-0.3,1.2-0.5c0.4-0.2,0.8-0.3,1.2-0.5
		c0-0.1,0-0.2,0-0.2l0.1-0.1c0.8-0.6,1.4-1.3,2-2.1c0.6-0.8,1.1-1.7,1.5-2.7l-0.1-0.1c-0.4,0.3-0.8,0.6-1.2,0.9
		C47.9,28.7,47.5,29,47.1,29.3z M46,35.5c0.2-0.1,0.3-0.2,0.4-0.4l-0.1,0.1h-0.1C46.1,35.3,46,35.4,46,35.5z"/>
	<path fill="#211915" d="M85.9,23.1L85.9,23.1C85.9,23.1,85.8,23.1,85.9,23.1c0,0.1,0,0.1-0.1,0.1l0,0L85.9,23.1l-0.2,0.1v0.1
		l0.1,0.1c0,0.1-0.1,0.1-0.1,0.2s0,0.3,0,0.4c0,0,0,0.1-0.1,0.1h-0.1l0,0l0,0l0,0l0,0c0,0.1,0,0.2,0.1,0.2c-0.1,0.1-0.3,0.2-0.3,0.4
		c-0.1,0.2-0.2,0.3-0.3,0.4c0,0,0,0,0-0.1l0,0l0,0l0,0l0,0c-0.1,0.1-0.2,0.2-0.3,0.4c0,0.2-0.1,0.3-0.2,0.5V26l-0.1,0.1h-0.1h-0.1
		c-0.2-0.1-0.3,0-0.3,0.2c-0.2,0.1-0.3,0.2-0.5,0.4c0,0.1-0.1,0.1-0.1,0.2c-0.1,0.1-0.1,0.1-0.2,0.2s-0.4,0.3-0.9,0.5
		c-0.2,0.1-0.5,0.1-0.7,0.1S81,27.8,80.8,28c0,0,0,0.1-0.1,0.1h-0.1c-0.1,0.1-0.1,0.2-0.2,0.3l-0.2,0.2l0,0c0,0,0,0,0,0.1
		c-0.2,0-0.4,0-0.6,0.1c-0.2,0-0.4,0.1-0.5,0.3c-0.1-0.1-0.2-0.1-0.3,0c-0.1,0-0.1,0.1-0.1,0.2s0,0.1,0,0.2c0-0.1-0.1-0.2-0.1-0.2
		l-0.1,0.1c0,0.1-0.1,0.2-0.2,0.3c-0.1,0.1-0.2,0.1-0.3,0.2l0.2-0.2c-0.1,0-0.3,0.1-0.4,0.2s-0.3,0.2-0.4,0.2c0,0,0.1,0,0.2-0.1
		c-0.1,0.1-0.1,0.1-0.2,0.2c-0.1,0-0.2,0-0.3,0c-0.1,0-0.2,0.1-0.3,0.2v-0.1c0,0,0,0,0-0.1c0,0.1-0.2,0.2-0.4,0.2
		c-0.3,0.1-0.5,0.2-0.8,0.2c-0.3,0.1-0.6,0.1-0.8,0.2c-0.1,0-0.3,0.1-0.4,0.1c-0.8,0.3-1.6,0.4-2.5,0.4c-1,0-1.9-0.1-2.6-0.2
		c-0.4,0-0.7-0.1-0.9-0.1c-0.3,0-0.6,0.1-0.8,0.3h-0.5c-0.5,0.1-1.1,0.2-1.6,0.1h-0.1v-0.1l-0.1,0.1h-0.1c0.1-0.2,0-0.4-0.2-0.3
		c-0.2,0-0.3,0-0.3-0.2c-0.1,0-0.2,0.1-0.2,0.3c0,0-0.1-0.1-0.2-0.2s-0.1-0.2-0.2-0.1c-0.1,0-0.1-0.1,0.1-0.2
		c-0.1,0-0.1-0.1-0.1-0.1c0-0.1-0.1-0.1-0.1-0.2v-0.1c0,0,0-0.1,0.1-0.1H64l-0.1,0.2c0,0.1,0,0.2,0.1,0.2c0,0,0,0,0,0.1v0.1
		c0,0.1,0,0.1-0.1,0c-0.1,0-0.1-0.1-0.2-0.1c-0.3,0.4-0.6,0.8-0.7,1.3c-0.2,0.5-0.4,1-0.7,1.5l-0.8,2.6c-0.1,0.3-0.2,0.8-0.4,1.6
		s-0.5,1.6-0.7,2.5c-0.3,0.9-0.5,1.7-0.7,2.4c-0.1,0.5-0.3,1-0.5,1.5c-0.1,0.3-0.1,0.5-0.2,0.7c-0.1,0.2-0.1,0.5-0.2,0.8
		c0,0.2,0,0.3-0.1,0.5c0,0.1-0.1,0.3-0.1,0.4c0.1,0.3,0.1,0.6,0.1,1c-0.1,0.1-0.1,0.1-0.2,0.1c0,0,0,0-0.1,0h-0.1
		c-0.1,0-0.1,0-0.2,0c-0.1,0-0.1,0.1-0.2,0.1l-0.1-0.1h-0.1c-0.1,0-0.2,0.1-0.3,0.1l-0.1-0.1h-0.1c0,0,0,0-0.1,0L57,47.7
		c-0.2-0.1-0.4-0.2-0.5-0.3s-0.3-0.2-0.5-0.3C55.9,47,55.7,47,55.6,47c-0.2,0-0.3,0-0.5,0C55,46.9,55,46.8,55,46.7s0-0.1,0-0.2
		c0-0.1,0.1-0.1,0.1-0.1c0-0.3,0.1-0.4,0.1-0.6c0-0.1,0-0.1,0.1-0.2c0,0,0.1-0.1,0.2-0.1c0.1-0.3,0.2-0.6,0.3-0.8
		c0.1-0.3,0.1-0.6,0.1-0.9c0.1-0.6,0.3-1.4,0.6-2.4s0.6-2.1,0.9-3.2c0.3-1.1,0.6-2.2,0.9-3.2c0.3-1,0.5-1.8,0.7-2.4
		c0.3-0.6,0.5-1.2,0.7-1.8c0.2-0.7,0.4-1.3,0.7-2.1c0-0.1,0-0.1,0.1-0.1l0.2-0.2l0.7-2.3c0.2-0.6,0.5-1.1,0.7-1.7
		c0.3-0.5,0.5-1.1,0.7-1.7l0.6-1.8c0.2-0.6,0.4-1.2,0.6-1.8c0.2-0.6,0.5-1.2,0.9-1.7c0.3,0,0.6,0,0.8,0c0.3,0,0.6,0.1,0.8,0.2
		c0.3,0.1,0.5,0.3,0.6,0.5c0.1,0.3,0.1,0.5,0.1,0.8s-0.2,0.7-0.4,0.9c-0.2,0.3-0.4,0.6-0.4,0.9c-0.1,0.2-0.2,0.5-0.2,0.7
		c-0.1,0.3-0.2,0.6-0.3,1c-0.1,0.4-0.3,0.8-0.4,1.2c0.2-0.1,0.3-0.2,0.4-0.3c0.1-0.1,0.2-0.1,0.3-0.2c0-0.1,0-0.1-0.1-0.1
		c0.3-0.2,0.6-0.5,0.9-0.8s0.6-0.6,0.9-0.9h0.2H68h-0.1c0,0,0,0.1,0.1,0.2l0.1-0.1v-0.1v-0.1c0-0.1,0-0.2,0.1-0.3
		c0.1,0.2,0.2,0.2,0.3,0s0.2-0.2,0.3-0.2c0-0.1,0.1-0.3,0.3-0.4h0.1c0,0,0.1,0,0.1-0.1c0.1-0.1,0.1-0.2,0.1-0.4
		c0,0.1,0.1,0.2,0.1,0.3l0.1-0.2c0-0.1,0.1-0.2,0.2-0.2c-0.1,0-0.1,0-0.1-0.1c0.2-0.1,0.3-0.2,0.5-0.3c0.1-0.1,0.3-0.2,0.5-0.4V19
		c0.1-0.2,0.3-0.4,0.8-0.6c0.4-0.1,0.7-0.3,0.9-0.6c0.1,0,0.3,0,0.4,0s0.2-0.1,0.3-0.2h0.1c0.4-0.2,0.9-0.4,1.4-0.5s1-0.1,1.5,0.1
		c0,0,0,0.1,0.1,0.2c0.1-0.1,0.1-0.1,0.2-0.1s0.2,0.1,0.3,0.1c0,0.1-0.1,0.1-0.1,0.1s0,0-0.1,0.1c0.7,0.1,1.1,0.4,1.2,0.9
		c0.1,0.6,0.1,1.2,0,1.8c0,0.1,0,0.1,0.1,0.1v0.3c0,0.1,0,0.2-0.1,0.2c0,0.2,0,0.4,0,0.7c-0.1,0.2-0.2,0.4-0.3,0.6
		c-0.3,0.3-0.4,0.7-0.5,1c-0.2,0.4-0.5,0.7-0.8,0.9c-0.3,0.2-0.6,0.5-0.8,0.9c0,0.1,0,0.1,0.1,0c-0.1,0.3-0.3,0.5-0.4,0.8
		c-0.1,0.1-0.1,0.2-0.3,0.3c-0.1,0.1-0.2,0.1-0.4,0.2c-0.1,0.3-0.3,0.5-0.6,0.7c-0.2,0.1-0.4,0.3-0.5,0.5c-0.3,0.4-0.7,0.7-1.1,1
		c-0.5,0.4-0.8,0.7-1,0.8c0.1,0,0.4-0.1,0.9-0.2s1-0.2,1.5-0.3c0.5-0.1,1-0.2,1.5-0.3c0.3-0.1,0.6-0.2,0.9-0.3
		c0.7-0.3,1.4-0.6,2.1-0.9s1.4-0.6,2.1-0.9h0.2c0-0.2,0.1-0.3,0.2-0.3s0.1-0.1,0.2-0.2c0.2,0,0.4-0.1,0.6-0.2s0.4-0.2,0.6-0.3v0.1
		c-0.1,0-0.1,0.1-0.1,0.1c0.2-0.1,0.4-0.1,0.5-0.2s0.3-0.2,0.5-0.2h0.1c0.1,0,0.1-0.1,0.1-0.2c0.1-0.1,0.2-0.2,0.2-0.2h-0.1l0,0l0,0
		c0,0,0.1-0.1,0.3-0.1v0.1c0.1-0.1,0.1-0.2,0.3-0.3c0.1-0.1,0.2-0.2,0.3-0.3h0.3c0-0.1,0-0.1,0-0.1s0,0,0,0.1
		c-0.1-0.1-0.1-0.1,0-0.1s0.1,0,0.2-0.1c0.1-0.4,0.3-0.6,0.5-0.7s0.5-0.2,0.7-0.4c0,0.1,0,0.1,0.1,0.1l0.1-0.1c0,0.1,0,0.1-0.1,0.2
		c0,0.1-0.1,0.1-0.1,0.2C85.8,23.1,85.8,23.1,85.9,23.1z M65.9,30.7c0-0.1,0-0.2-0.1-0.2s-0.1,0.1-0.1,0.1l-0.1,0.1
		c-0.1,0.1-0.1,0.1-0.1-0.1c-0.1,0.2-0.1,0.3-0.2,0.3c0,0,0,0.1,0.1,0.1h0.1c0,0,0,0,0.1,0s0.1,0,0.2,0s0.1,0,0.1,0.1
		c0.1,0.1,0.2,0.1,0.2-0.1v-0.1C66,31,66,30.9,65.9,30.7c0.1,0.1,0.1,0.1,0.2,0.2c0.1,0,0.2,0,0.2,0c0.2,0,0.3,0,0.5,0v-0.1l0.1-0.1
		c0.1,0,0.2-0.1,0.3-0.2c-0.3,0-0.5,0-0.8,0C66.3,30.5,66.1,30.6,65.9,30.7z M68.9,27.9c0-0.1,0.1-0.1,0.1-0.2
		c0.4-0.2,0.9-0.5,1.2-0.8c0.4-0.3,0.8-0.7,1.2-1c0.1-0.1,0.3-0.2,0.4-0.3c0.1-0.1,0.2-0.3,0.3-0.4l0,0l0,0h0.1
		c0.1-0.2,0.2-0.5,0.4-0.6c0.2-0.2,0.4-0.3,0.5-0.5L73,24c0.1-0.1,0.1-0.2,0.2-0.3c0.1-0.1,0.1-0.2,0.2-0.4c0.1,0,0.2,0,0.2-0.1
		s0-0.1,0.1-0.1c0.3-0.6,0.7-1.3,1.1-1.8c0.4-0.7,0.6-1.5,0.6-2.3c-0.1,0-0.2,0-0.3,0c-0.1,0-0.2,0.1-0.2,0.1
		c-0.1,0.1-0.1,0.1-0.2,0.1s-0.2,0-0.3,0c-0.1,0.1-0.3,0.1-0.4,0.1c-0.1,0.2-0.2,0.3-0.4,0.4c-0.1,0-0.2,0.1-0.3,0.2
		c0,0-0.1-0.1-0.2-0.1s-0.2,0.1-0.2,0.2c-0.1,0.1-0.2,0.1-0.3,0c0,0.1,0,0.2-0.1,0.3c-0.1,0.1-0.1,0.1-0.2,0.1s-0.2,0-0.3,0.1
		l-0.1,0.1v0.1l-0.1-0.1c-0.1,0.1-0.1,0.1-0.1,0.2s0,0.1-0.1,0v-0.1c-0.1,0-0.2,0-0.2,0.1l0,0l0,0l0,0l0,0c-0.2,0.2-0.3,0.3-0.4,0.5
		c-0.1,0.1-0.3,0.3-0.4,0.3l0,0l0,0l0,0l0,0c-0.1,0-0.1,0-0.1,0c0,0.1,0,0.1-0.1,0.1v-0.1c-0.1,0.1-0.3,0.2-0.4,0.3
		c-0.1,0.1-0.2,0.2-0.3,0.4h0.1c0-0.1,0.1,0,0.1,0c0,0.2-0.1,0.4-0.3,0.5c-0.2,0.1-0.3,0.3-0.5,0.4l0,0l0,0l0,0l0,0
		c0.1-0.1,0.2-0.2,0.3-0.3c0.1-0.1,0.2-0.2,0.1-0.3c-0.3,0.3-0.5,0.7-0.6,1.1c-0.1,0-0.2,0-0.2,0.1c-0.1,0-0.1,0.1-0.1,0.2
		s-0.1,0.3-0.3,0.3c0-0.1,0-0.1,0-0.1s0,0,0-0.1c-0.1,0.4-0.3,0.7-0.6,0.9c-0.3,0.3-0.5,0.6-0.6,0.9v-0.2c-0.2,0.2-0.3,0.4-0.4,0.6
		c-0.2,0.3-0.3,0.4-0.5,0.3c0,0.1,0,0.1,0,0.2v0.1c-0.1,0-0.2,0-0.3,0.1c0,0.1-0.1,0.1-0.1,0.1v0.1c0,0,0,0.1,0,0.2
		c0.3,0,0.6,0.2,0.8,0.4c0.2,0.2,0.5,0.4,0.8,0.6H68v-0.1c0-0.1,0.1-0.1,0.2-0.1s0.2,0,0.3,0v0.2c0.2-0.1,0.4-0.1,0.5-0.2
		c0.2-0.1,0.3-0.2,0.5-0.3c-0.1,0-0.2,0-0.2,0c-0.1,0-0.1,0.1-0.2,0.1s-0.1,0.1-0.2,0.1s-0.1,0-0.2,0C68.7,28,68.8,27.9,68.9,27.9
		S68.8,27.9,68.9,27.9L68.9,27.9z M65.7,29.9L65.7,29.9c0.1,0.1,0.1,0.1,0.2,0.1s0.2,0,0.2-0.1H65.7C65.6,29.8,65.6,29.8,65.7,29.9
		L65.7,29.9z M66.3,25.7c0.1,0,0.2-0.1,0.2-0.4l-0.2,0.2C66.2,25.6,66.2,25.7,66.3,25.7L66.3,25.7z M66.7,25.2l0.1-0.1
		c0.1,0,0-0.1,0-0.2c0,0,0,0.1-0.1,0.1C66.6,25.1,66.6,25.1,66.7,25.2L66.7,25.2z M67,23.3c0,0-0.1,0-0.2,0.1
		C67,23.4,67.1,23.4,67,23.3L67,23.3z M66.9,31.1c0.1,0,0.1,0,0.1-0.1s0-0.2,0.1-0.2H67c0,0.1,0,0.2-0.1,0.1
		C66.9,30.9,66.9,30.9,66.9,31.1L66.9,31.1z M68,30.7c-0.1,0-0.3,0-0.4,0s-0.3,0.1-0.4,0.1c0.2,0,0.3,0,0.4,0.1h0.1h0.1
		c0,0,0.1,0,0.1-0.1C67.9,30.8,68,30.8,68,30.7L68,30.7z M68.9,21.6v-0.1c-0.3,0.3-0.6,0.5-0.9,0.7s-0.5,0.5-0.7,0.8L68.9,21.6z
		 M67.7,23.8C67.7,23.7,67.7,23.7,67.7,23.8c0.1-0.1,0.1-0.1,0.2-0.1H68v-0.1c-0.1,0-0.2,0.1-0.3,0.1C67.6,23.6,67.6,23.7,67.7,23.8
		L67.7,23.8z M68.3,24c0.1,0,0.2-0.2,0.2-0.4C68.4,23.5,68.3,23.7,68.3,24L68.3,24z M68.4,28.3L68.4,28.3
		C68.4,28.3,68.4,28.4,68.4,28.3C68.3,28.4,68.3,28.4,68.4,28.3C68.3,28.4,68.3,28.4,68.4,28.3L68.4,28.3z M68.4,28.2L68.4,28.2
		L68.4,28.2c0,0.1,0,0.1,0,0.1V28.2z M69.4,28.4c-0.1,0-0.2,0-0.3,0c-0.1,0-0.2,0.1-0.2,0.2s-0.1,0.2-0.2,0.2s-0.2,0.1-0.3,0
		c0.2,0.1,0.3,0.1,0.5,0.1s0.4-0.1,0.5-0.2c0.2-0.1,0.3-0.3,0.5-0.5s0.3-0.3,0.5-0.4c-0.2,0-0.5,0.1-0.6,0.2
		C69.6,28.2,69.5,28.4,69.4,28.4L69.4,28.4z M68.5,23.1c0,0,0.1,0,0.2-0.1s0.2-0.2,0.1-0.3c-0.1,0-0.1,0.1-0.2,0.1
		C68.5,22.9,68.5,23,68.5,23.1L68.5,23.1z M69.5,22.1c-0.3,0.1-0.5,0.3-0.5,0.5c0.5-0.6,1.1-1.1,1.7-1.5s1.2-0.9,1.8-1.4
		C72,20,71.4,20.4,71,20.8C70.4,21.2,69.9,21.7,69.5,22.1L69.5,22.1z M69.5,20c0,0.1,0,0.2-0.1,0.2L69.5,20z M70.5,20
		c0-0.1,0-0.1,0.1-0.1l0.1-0.1c0.1,0,0.2-0.1,0.3-0.2c-0.1,0.1-0.2,0.1-0.3,0.2c-0.1,0-0.1,0-0.1,0.1C70.5,19.9,70.5,20,70.5,20
		L70.5,20z M70.5,27.6c0.1,0,0.1,0,0.1-0.1s0-0.1,0-0.2C70.5,27.4,70.5,27.4,70.5,27.6L70.5,27.6z M71,19c0,0.1-0.1,0.1-0.1,0.2
		c-0.1,0-0.1,0.1-0.1,0.2c0.1,0,0.1,0,0.1-0.1s0.1-0.1,0.1-0.1V19z M71,19.6c0.1,0,0.2-0.1,0.2-0.2C71.2,19.4,71.1,19.5,71,19.6
		L71,19.6z M71.1,19c0.1-0.1,0.3-0.1,0.4-0.2s0.2-0.1,0.3-0.2c-0.1,0-0.2,0-0.3,0.1C71.3,18.8,71.2,18.9,71.1,19L71.1,19z
		 M75.6,17.4L75.6,17.4c0.1,0,0.2,0,0.2,0.1c0.1,0.1,0.1,0,0.2-0.1h-0.1c0,0-0.1,0-0.1-0.1C75.6,17.3,75.6,17.3,75.6,17.4L75.6,17.4
		z M75.9,24.9c0,0.1,0,0.1-0.1,0.1L75.9,24.9z M82.9,26.3c0.1,0,0.2-0.1,0.2-0.3C82.9,26.1,82.8,26.2,82.9,26.3L82.9,26.3z
		 M84.9,24.5c-0.1,0.1-0.1,0.2-0.1,0.3c0,0.1,0,0.2,0,0.3c0-0.1,0-0.1,0-0.2s0.1-0.1,0.1-0.2C85,24.7,85,24.6,84.9,24.5L84.9,24.5z
		 M85.8,23.4C85.8,23.4,85.8,23.3,85.8,23.4c0-0.1,0-0.1,0-0.2V23.4z"/>
	<path fill="#211915" d="M82.5,27.9C82.6,27.9,82.6,27.8,82.5,27.9c0.1-0.1,0.1-0.2,0.1-0.2c0-0.1,0-0.2,0-0.3
		c0.1-0.2,0.1-0.4,0.1-0.5s0-0.2,0.1-0.2c0.1-0.1,0.1-0.1,0.2-0.1c0.1-0.1,0.1-0.2,0.1-0.3c-0.1-0.1,0-0.1,0.1-0.2s0.1-0.3,0.2-0.4
		s0.1-0.3,0.3-0.4c0.3-0.7,0.7-1.5,1.1-2.2c0.5-0.8,0.9-1.5,1.2-2.2c0.2-0.2,0.3-0.4,0.5-0.6c0.1-0.2,0.2-0.4,0.3-0.7H87
		c0.1-0.4,0.3-0.5,0.7-0.4c0.4,0.1,0.8,0.2,1.2,0.3c0.1,0,0.1,0.1,0.2,0.1c0.1,0.1,0.1,0.1,0.1,0.2s0.1,0.3,0.1,0.4
		c0,0-0.1,0-0.1,0.1v0.1c0,0.1,0,0.2,0,0.2c-0.3,0.4-0.4,0.8-0.6,1.2c-0.1,0.4-0.3,0.9-0.6,1.2c0,0.1-0.1,0.1-0.1,0.2
		c-0.1,0-0.1,0.1-0.1,0.2c-0.1,0.2-0.2,0.4-0.2,0.6c-0.1,0.3-0.2,0.6-0.4,0.8c-0.3,0.6-0.6,1.1-0.8,1.6c-0.2,0.5-0.4,1.1-0.7,1.7
		c-0.1,0.5-0.2,1-0.4,1.4c-0.1,0.2-0.1,0.5,0,0.7c0,0.2,0.1,0.5,0.3,0.7c0.8-0.2,1.5-0.4,2.2-0.8c0.6-0.3,1.3-0.6,2-1l1.5-1.1
		l0.4-0.3l1.8-1.3l1.5-1.1c0.2-0.1,0.4-0.2,0.6-0.3c0.2-0.1,0.4-0.2,0.6-0.3c0.4-0.3,0.7-0.5,0.9-0.7c0.2-0.2,0.5-0.4,0.9-0.6
		c0.1-0.1,0.2-0.2,0.3-0.2c0.1-0.1,0.2-0.1,0.4-0.2l0.4-0.3c0.1-0.1,0.1-0.2,0.2-0.3c0.1-0.1,0.2-0.1,0.3-0.1c0.1,0,0.2-0.1,0.3-0.2
		c0.1-0.1,0.2-0.2,0.2-0.3c0.1,0,0.2,0,0.2-0.1c0.2,0.1,0.3,0.2,0.2,0.3c-0.1,0.1,0,0.2,0.1,0.3c-0.1,0.1-0.2,0.2-0.2,0.3
		c0,0.1-0.1,0.2-0.1,0.3c0.1,0.1,0.2,0,0.3-0.2c0-0.2,0.1-0.3,0.2-0.3c0,0.1,0,0.2-0.1,0.3c0,0.2-0.1,0.2-0.1,0.2
		c0.2,0.1,0.2,0.2,0.1,0.3c-0.1,0-0.1,0.1-0.1,0.2s0,0.1,0,0.2s-0.1,0.1-0.2,0.1c0,0-0.1,0.1-0.1,0.2c-0.1,0-0.1,0,0-0.1
		s0-0.1-0.1-0.1c0,0.1-0.1,0.1-0.1,0.2c-0.1,0.1-0.1,0.2-0.1,0.3c-0.1,0-0.1,0-0.1-0.1V24c-0.2,0-0.3,0.1-0.3,0.2
		c-0.1,0-0.1,0.1-0.2,0.1c-0.1,0.1-0.1,0.1-0.1,0.2c0,0.2-0.1,0.3-0.2,0.4c-0.1,0-0.1,0-0.1-0.1c0,0,0-0.1-0.1-0.1
		c0,0,0,0.1-0.1,0.3c-0.1,0.2-0.2,0.3-0.3,0.5c-0.1,0.1-0.2,0.3-0.3,0.3c-0.1,0.1,0,0.1,0-0.1c-0.1,0-0.2,0-0.5,0.2
		c-0.2,0.1-0.3,0.2-0.5,0.4l-0.7,0.6c-0.1,0.1-0.3,0.2-0.6,0.4c-0.3,0.2-0.4,0.4-0.5,0.4l-0.1-0.1l0,0l0,0v0.1c0-0.1-0.1-0.1-0.2,0
		s-0.1,0.1,0,0.2h-0.2c-0.1,0.1-0.1,0.3-0.2,0.4c-0.2,0.2-0.4,0.4-0.6,0.5v-0.2c-0.1,0-0.1,0-0.1,0c0,0.1,0,0.1-0.1,0.1h0.2
		c0,0.1-0.1,0.2-0.2,0.2s-0.2,0-0.3,0.1c0,0,0,0,0-0.1c0.1,0,0-0.1,0-0.1c-0.1,0.1-0.2,0.2-0.3,0.3c-0.1,0.1-0.2,0.2-0.3,0.3
		c-0.1-0.1-0.1-0.1-0.2-0.1c-0.1,0.1-0.1,0.1-0.2,0.2l-0.3,0.1c-0.1,0.1-0.2,0.1-0.3,0.2c-0.1,0.1-0.3,0.1-0.4,0.2
		c0,0.1-0.1,0.1-0.1,0.2l0,0l0,0l0,0l0,0c0,0,0,0-0.1,0c-0.1,0.1-0.2,0.2-0.3,0.2c-0.1,0.1-0.3,0.2-0.4,0.2
		c-0.1,0.2-0.4,0.4-0.6,0.5c-0.3,0.1-0.6,0.2-0.9,0.3c-0.4,0.3-0.9,0.5-1.3,0.6s-0.8,0.2-1.3,0.2c-0.5,0.1-1,0.1-1.5,0
		c-0.4-0.1-0.7-0.1-1.1-0.2c-0.3,0-0.6-0.1-0.8-0.2c-0.3-0.2-0.5-0.4-0.6-0.6c-0.2-0.2-0.3-0.5-0.4-0.6c-0.1,0-0.2-0.1-0.2-0.2
		s-0.1-0.2-0.2-0.3V30c0,0,0,0,0-0.1C81.7,30,81.7,30,81.6,30c0-0.1-0.1-0.2,0-0.2c0-0.1,0.1-0.1,0.1-0.2c0.1-0.1,0.1-0.3,0-0.4
		c-0.1,0.1-0.1,0.3-0.1,0.4l-0.1-0.1c0-0.1,0-0.1,0-0.2s0.1-0.2,0.2-0.2c0-0.3,0.1-0.5,0.2-0.8c-0.1,0-0.1,0-0.2,0.1
		c0-0.2,0.1-0.3,0.2-0.4s0.1-0.1,0.1-0.2s0-0.2,0-0.2c-0.1,0-0.1,0-0.1,0.1s0,0.1,0,0.1c-0.1-0.2,0-0.4,0.2-0.7c0,0,0.1,0,0.1-0.1
		c0,0.1,0,0.2-0.1,0.2c0,0,0,0,0,0.1s0,0,0,0.1C82.5,27.8,82.5,27.8,82.5,27.9L82.5,27.9z M91.7,15.6C91.6,15.7,91.6,15.7,91.7,15.6
		c0,0.1,0,0.1-0.1,0.2c-0.2,0.1-0.3,0.3-0.4,0.5c0,0.1-0.1,0.2-0.2,0.2s-0.2,0.1-0.3,0c-0.2,0.1-0.3,0.2-0.4,0.4
		c-0.1,0-0.2,0-0.3-0.1c0,0-0.1-0.1-0.2-0.2c-0.2,0-0.3,0.1-0.3,0.2c-0.3-0.1-0.5-0.2-0.8-0.3c-0.2-0.1-0.4-0.2-0.7-0.3
		c0-0.3,0-0.6,0.1-0.9c0.1-0.3,0.4-0.4,0.8-0.3c0.1-0.1,0.1-0.1,0.2-0.1c0,0,0.1,0,0.1-0.1c0.4,0,0.8,0.1,1.2,0.3
		c0.4,0.2,0.8,0.2,1.2,0.3C91.4,15.5,91.5,15.6,91.7,15.6L91.7,15.6z M93.3,29.4c0.1,0,0.2,0,0.2-0.1c0.1-0.1,0.1-0.1,0-0.2
		L93.3,29.4z M99.2,24.5c-0.1,0-0.3,0.1-0.3,0.2v0.1v0.1V25c0,0,0,0,0.1,0.1c0-0.1,0-0.1,0.1-0.2s0.1-0.1,0.1-0.1l0.1-0.1
		C99.2,24.5,99.2,24.5,99.2,24.5L99.2,24.5z M99.7,24.2C99.7,24.2,99.7,24.1,99.7,24.2L99.7,24.2z"/>
	<path fill="#211915" d="M109.4,33.2L109.4,33.2C109.5,33.2,109.5,33.2,109.4,33.2c-0.1-0.2-0.2-0.1-0.4,0.1l-0.4,0.4
		c-0.1,0-0.1-0.1-0.1-0.2c-0.1,0.1-0.3,0.2-0.4,0.3c-0.1,0-0.2,0.1-0.3,0.1c-0.1,0-0.2,0-0.3-0.1c-0.2,0.2-0.3,0.3-0.4,0.3
		c-0.2-0.1-0.4-0.1-0.6-0.1s-0.4-0.1-0.6-0.1V34v0.1c0,0,0.1,0,0.2,0s0.1,0,0.1,0.1c-0.2,0-0.5,0-0.7-0.1s-0.5-0.1-0.8-0.2v-0.1
		c0,0,0,0,0-0.1v-0.1c-0.6,0-1.1-0.2-1.6-0.5s-0.9-0.7-1.2-1.2c-0.6-1.1-0.9-2.3-0.7-3.5c0.1-1.2,0.6-2.3,1.2-3.3
		c0.6-0.9,1.2-1.8,1.7-2.6c-0.5,0-1,0.1-1.5,0.3c-0.6,0.2-1.2,0.3-1.8,0.4c-0.2,0-0.4,0.1-0.4,0.1l-0.1,0.1c0,0,0,0.1-0.1,0.1
		s-0.3-0.1-0.4-0.1s-0.2,0-0.3-0.1c-0.1-0.1-0.2-0.1-0.3-0.1c-0.2,0.1-0.2,0-0.1-0.1c0-0.1,0.1-0.2,0.1-0.2c0-0.1,0-0.2-0.1-0.2
		c-0.1-0.1-0.3-0.2-0.3-0.3c-0.1-0.1-0.1-0.3-0.1-0.4c0-0.3,0.1-0.5,0.2-0.4c-0.1-0.6-0.1-1.1,0.1-1.7c0.2-0.5,0.4-1,0.7-1.4
		c0.3-0.4,0.7-0.8,1-1.2c0.4-0.3,0.7-0.7,1.1-0.9c0.3,0,0.7,0.1,1,0.2s0.7,0.3,1.1,0.5c0.1,0.1,0.3,0.2,0.4,0.3
		c0.1,0.1,0.2,0.2,0.2,0.4l-0.2,0.9c-0.1,0-0.1,0.1-0.2,0.2L104,19c0,0-0.1,0-0.2,0.1c0,0.1,0,0.2-0.1,0.4c-0.1,0.1-0.1,0.2-0.2,0.3
		c-0.2,0.2-0.5,0.4-0.7,0.6c-0.1,0-0.2,0.1-0.2,0.1c-0.1,0.1-0.1,0.1-0.1,0.2c-0.1,0.2-0.2,0.3-0.3,0.4c-0.2,0.1-0.4,0.3-0.5,0.5
		s-0.2,0.4-0.4,0.6c0.4,0,0.8,0,1.2,0c0.2,0,0.4-0.1,0.6-0.2c0.1-0.1,0.3-0.1,0.5-0.2c0.3-0.1,0.6-0.2,0.9-0.2
		c0.3,0.1,0.6,0.1,0.9-0.1c0.2,0.3,0.5,0.5,0.7,0.7c0.3,0.2,0.5,0.4,0.8,0.6c0,0.3,0,0.6,0,0.8c0,0.2-0.1,0.4-0.2,0.5
		c-0.1,0.2-0.2,0.3-0.3,0.4c-0.2,0.2-0.3,0.4-0.4,0.6c-0.1,0.3-0.3,0.5-0.4,0.7s-0.3,0.4-0.5,0.6c0,0.3-0.2,0.6-0.3,0.9
		c-0.2,0.3-0.3,0.6-0.5,0.9c-0.2,0.7-0.4,1.4-0.5,2.1c-0.1,0.6,0,1.2,0.3,1.8c0.4,0.1,0.8,0.2,1.1,0.3c0.4,0.1,0.7,0.1,1.1,0
		c0.1,0,0.2-0.1,0.3-0.2c0.1-0.1,0.2-0.1,0.3-0.1l0,0c0-0.1,0-0.1,0.1-0.1c0.4,0,0.8-0.2,1.2-0.4c0.4-0.3,0.7-0.5,1.2-0.6
		c0.1-0.1,0.2-0.1,0.3-0.2c0.1-0.1,0.2-0.1,0.3-0.1c0.2,0,0.3-0.1,0.3-0.1s0.1-0.1,0.3-0.1c0-0.1,0.1-0.2,0.2-0.2h0.1l0.1-0.1
		c0.1-0.1,0.2-0.2,0.3-0.3c0.1-0.1,0.2-0.2,0.4-0.3c0.2-0.2,0.5-0.4,0.9-0.7c0.3-0.3,0.6-0.5,1-0.7c0.2-0.1,0.6-0.5,1.2-0.9
		c0.6-0.5,1.2-1,1.7-1.6c0.2-0.2,0.3-0.3,0.4-0.4s0.1-0.1,0.2-0.2c0.1,0,0.2-0.1,0.3-0.1l0.4-0.2c0.1-0.2,0.1-0.4,0.2-0.5
		c0.1-0.2,0.2-0.4,0.4-0.5c0.3,0,0.6-0.1,0.8-0.1c0.4-0.1,0.6,0,0.7,0.2c0,0.1,0,0.2-0.1,0.2c0.1,0.2,0,0.4,0,0.7
		c-0.1,0.2-0.2,0.4-0.4,0.5c-0.3,0.3-0.6,0.6-0.9,1c-0.1,0.1-0.1,0.1-0.1,0.2s0,0.1-0.1,0.1l-0.1,0.1c-0.1,0.1-0.2,0.2-0.3,0.3
		l-0.4,0.4c-0.2,0.1-0.4,0.3-0.5,0.5s-0.3,0.3-0.5,0.4c-0.3,0.3-0.5,0.5-0.7,0.7s-0.4,0.4-0.5,0.5c-0.2,0.2-0.3,0.3-0.5,0.5
		s-0.4,0.3-0.7,0.4c-0.1,0.1-0.2,0.2-0.4,0.3c-0.2,0.2-0.4,0.3-0.6,0.5s-0.4,0.3-0.6,0.5c-0.1,0.1-0.2,0.2-0.4,0.3
		c-0.7,0.5-1.3,0.8-1.7,1c-0.4,0.2-0.6,0.4-0.6,0.5c-0.1,0-0.1,0-0.2,0C109.6,33.1,109.5,33.2,109.4,33.2z M101.9,18.6
		c-0.1,0.2-0.3,0.3-0.4,0.4c-0.2,0.1-0.4,0.3-0.5,0.5c0.2-0.1,0.4-0.3,0.6-0.4C101.7,19,101.8,18.8,101.9,18.6z"/>
	<path fill="#211915" d="M141.1,26.6c-0.1,0-0.2,0-0.3,0s-0.2,0.1-0.2,0.2c-0.1,0.2-0.3,0.4-0.4,0.6c0-0.1,0-0.1,0.1-0.2
		c-0.3,0.2-0.6,0.4-0.8,0.7c-0.3,0.2-0.5,0.5-0.8,0.8h-0.1v-0.1c-0.1,0.1-0.2,0.2-0.3,0.3c0,0,0,0-0.1,0.1h-0.1H138h-0.1
		c-0.2,0.1-0.3,0.2-0.4,0.4c0,0.1-0.1,0.1-0.2,0.2c-0.1,0-0.1,0.1-0.2,0.1c-0.2,0.2-0.3,0.3-0.4,0.4l-0.5,0.4c0,0,0-0.1-0.1-0.1
		c-0.2,0.2-0.4,0.3-0.7,0.3c-0.4,0.2-0.7,0.4-1.1,0.7c-0.3,0.2-0.6,0.3-1,0.3c-0.2,0-0.5,0.1-0.7,0.1s-0.3,0-0.5,0
		c-0.4,0-0.8,0.1-1.1,0.2c-0.3,0.2-0.7,0.2-1.1,0.1c0-0.1-0.1-0.2-0.2-0.2c-0.1-0.1-0.1-0.1-0.2-0.1c-0.2-0.1-0.3-0.2-0.5-0.3
		c-0.1,0-0.2-0.1-0.2-0.2s-0.1-0.2-0.1-0.3c-0.4-0.3-0.7-0.6-0.9-1.1c-0.2-0.5-0.3-1.1-0.3-1.7c0-0.7,0-1.3,0.1-2s0.3-1.3,0.4-2
		c-0.5,0.4-1,0.9-1.5,1.4c-0.5,0.6-1,1.1-1.4,1.6c-0.2,0.3-0.4,0.6-0.6,0.8c-0.2,0.2-0.4,0.4-0.7,0.6c-0.6,0.7-1.2,1.3-1.8,1.9l0,0
		l0,0l-0.1,0.1c-0.3,0.2-0.6,0.5-1,0.8s-0.7,0.5-1.1,0.7c-0.4,0.2-0.8,0.3-1.2,0.3c-0.5,0-0.9-0.1-1.3-0.4c-0.1,0-0.2,0-0.3-0.1
		c-0.1,0-0.2-0.1-0.2-0.2c-0.1-0.1-0.3-0.3-0.4-0.3c-0.2-0.1-0.3-0.1-0.4-0.2s-0.2-0.2-0.3-0.4c-0.1-0.4-0.2-0.7-0.2-1.1
		c0-0.3,0-0.7,0.1-1c0.1-0.4,0.2-0.7,0.4-1c0.2-0.7,0.5-1.3,0.8-1.9c0.4-0.6,0.7-1.1,1-1.6c0.6-0.8,1.3-1.6,1.9-2.3
		c0.6-0.7,1.3-1.4,2-2.1c0.2-0.1,0.5-0.3,0.7-0.4c0.2-0.2,0.5-0.3,0.8-0.4c0.1,0,0.2,0,0.3,0c0.1,0,0.2-0.1,0.3-0.1
		c0.2-0.2,0.4-0.1,0.6,0.1c0.7,0.1,1.4,0.2,2,0.5c0.3,0.1,0.5,0.3,0.8,0.6c0.2,0.2,0.4,0.5,0.5,0.8c0.3-0.2,0.5-0.3,0.7-0.5
		c0.2-0.1,0.5-0.3,0.7-0.3c0.1,0,0.2-0.1,0.3-0.2s0.1-0.2,0.2-0.2c0.2,0,0.4,0,0.5,0c0.2,0,0.3,0.1,0.5,0.2c0.3,0.2,0.6,0.4,0.9,0.5
		c0,0,0,0,0.1,0h0.1c0.1,0,0.2,0,0.3,0c0.1,0.1,0.1,0.2,0.2,0.2c0,0.1,0.1,0.2,0.1,0.2c0.1,0.7,0,1.4-0.3,2.1
		c-0.2,0.7-0.5,1.3-0.8,1.9c-0.1,0.8-0.4,1.7-0.6,2.7c-0.3,0.8-0.3,1.7-0.1,2.5c1.1-0.1,2.2-0.4,3.2-0.9c0.9-0.5,1.7-1,2.6-1.4
		c0.3-0.2,0.6-0.5,0.9-0.6c0.3-0.2,0.6-0.4,0.8-0.7c0,0,0.1,0,0.1,0.1v0.1c0.4-0.1,0.8-0.4,1.1-0.7c0.6-0.4,1.1-0.9,1.7-1.4
		c0.6-0.5,1.1-0.9,1.6-1.3s0.8-0.5,0.9-0.4l0.1,0.1c0.1,0,0.1,0,0.1,0h0.1h0.1c0,0.1,0,0.1,0,0.2c0,0,0,0,0,0.1l0,0V23
		c0,0,0,0,0,0.1s-0.1,0.2-0.1,0.3c0,0.1-0.1,0.1-0.1,0.2c0,0,0,0,0-0.1l-0.3,0.2l-0.3,0.2c-0.1,0.1-0.1,0.2-0.1,0.4
		c0,0.1-0.1,0.3-0.1,0.4c-0.1,0-0.2,0-0.2-0.1c-0.1,0.2-0.2,0.3-0.3,0.4c-0.2,0.1-0.3,0.3-0.3,0.4c-0.1,0-0.1,0.1-0.2,0.3
		L141.1,26.6z M126.1,21.9c-0.1-0.4-0.2-0.8-0.4-1.2c-0.2-0.3-0.6-0.4-1.1-0.1l-0.9,1c-0.1,0.1-0.2,0.2-0.3,0.2
		c-0.1,0-0.2,0.1-0.3,0.2c-0.1,0.1-0.2,0.2-0.2,0.3c-0.1,0.1-0.2,0.3-0.3,0.4l-0.8,0.9c-0.4,0.5-0.8,1.1-1.2,1.7
		c-0.4,0.6-0.7,1.2-1,1.8c-0.1,0.2-0.2,0.3-0.3,0.5c-0.1,0.2-0.2,0.4-0.3,0.6c-0.1,0-0.1,0-0.1,0c0,0.1,0,0.1-0.1,0
		c-0.1,0.4-0.2,0.7-0.4,1c-0.2,0.3-0.3,0.7-0.3,1c0.3-0.2,0.6-0.4,0.9-0.5c0.3-0.2,0.6-0.4,0.8-0.6c1.1-1,2.1-2,3.1-3.1
		s1.9-2.2,2.9-3.3c0.1-0.1,0.2-0.2,0.3-0.3c0.1-0.1,0.2-0.2,0.3-0.2v-0.1C126.4,22,126.2,21.9,126.1,21.9L126.1,21.9z"/>
	<path fill="#211915" d="M153.7,14c2.6,0,5.2,0.9,7.2,2.5l-2.9,3.4c-1.2-1.1-2.7-1.7-4.3-1.7c-3,0-4.9,2-4.9,5.2s1.9,5.3,4.9,5.3
		c0.8,0,1.6-0.1,2.3-0.4s1.4-0.7,2-1.3l3,3.1c-2.1,1.9-4.8,3-7.6,2.9c-5.8,0-9.9-4.1-9.9-9.5C143.6,18.1,147.8,14,153.7,14z"/>
	<path fill="#211915" d="M161.6,14.3h5.2v18.3h-5.2V14.3z"/>
	<path fill="#211915" d="M168.3,14.3h4.9l7.1,10.4V14.3h4.9v18.3h-4.9l-7.1-10.3v10.3h-4.9V14.3z"/>
	<path fill="#211915" d="M186.6,14.3h14.3v4.3h-9.1v2.8h8v3.8h-8v3.1h9.1v4.3h-14.4L186.6,14.3z"/>
</g>
<g>
	<path fill="#F2F2F2" d="M223.7,11.3c-0.5,0-0.9-0.2-1.2-0.4c-0.4-0.2-0.6-0.6-0.9-1c-0.2-0.4-0.2-0.9-0.2-1.3
		c0.1-0.5,0.3-0.9,0.6-1.2c0.3-0.3,0.7-0.5,1.2-0.6s0.9-0.1,1.3,0.2c0.4,0.2,0.8,0.5,1,0.9c0.2,0.4,0.4,0.8,0.4,1.2
		c0,0.6-0.2,1.2-0.7,1.6C224.9,11,224.3,11.3,223.7,11.3z M223.7,7.8c-0.2,0-0.5,0.1-0.6,0.2c-0.2,0.2-0.3,0.3-0.4,0.5
		c-0.1,0.2-0.1,0.5-0.1,0.6c0.1,0.2,0.2,0.4,0.3,0.5s0.4,0.2,0.5,0.3c0.2,0.1,0.5,0,0.6-0.1c0.2-0.1,0.4-0.2,0.5-0.4
		s0.2-0.4,0.2-0.6c0-0.3-0.2-0.6-0.3-0.8C224.3,8,224,7.8,223.7,7.8L223.7,7.8z"/>
	<path fill="#F2F2F2" d="M223.7,13.5c-0.9,0-1.8-0.2-2.5-0.8c-0.8-0.5-1.3-1.2-1.6-2c-0.3-0.9-0.5-1.7-0.2-2.6
		c0.2-0.9,0.6-1.7,1.2-2.3s1.4-1.1,2.3-1.2c0.9-0.2,1.8-0.1,2.6,0.2s1.6,0.9,2,1.6c0.5,0.8,0.8,1.6,0.8,2.5h-1.2
		c0-0.7-0.2-1.3-0.5-1.9c-0.4-0.5-0.9-1-1.6-1.2c-0.6-0.2-1.3-0.3-1.9-0.2c-0.6,0.2-1.2,0.5-1.7,0.9c-0.5,0.5-0.8,1.1-0.9,1.7
		s-0.1,1.3,0.2,1.9c0.2,0.6,0.7,1.2,1.2,1.6c0.5,0.4,1.2,0.5,1.9,0.5L223.7,13.5L223.7,13.5z"/>
	<path fill="#F2F2F2" d="M231.6,11.3c-0.5,0-0.9-0.2-1.2-0.4c-0.4-0.2-0.6-0.6-0.9-1c-0.2-0.4-0.2-0.9-0.2-1.3
		c0.1-0.5,0.3-0.9,0.6-1.2c0.3-0.3,0.7-0.5,1.2-0.6s0.9-0.1,1.3,0.2c0.4,0.2,0.8,0.5,1,0.9c0.2,0.4,0.4,0.8,0.4,1.2
		c0,0.6-0.2,1.2-0.7,1.6C232.8,11,232.2,11.3,231.6,11.3z M231.6,7.8c-0.2,0-0.5,0.1-0.6,0.2c-0.2,0.2-0.3,0.3-0.4,0.5
		c-0.1,0.2-0.1,0.5-0.1,0.6s0.2,0.4,0.3,0.5s0.4,0.2,0.5,0.3c0.2,0.1,0.5,0,0.6-0.1c0.2-0.1,0.4-0.2,0.5-0.4s0.2-0.4,0.2-0.6
		c0-0.3-0.2-0.6-0.3-0.8C232.2,8,231.9,7.8,231.6,7.8L231.6,7.8z"/>
	<path fill="#F2F2F2" d="M231.6,13.5c-0.9,0-1.8-0.2-2.5-0.8c-0.8-0.5-1.3-1.2-1.6-2c-0.3-0.9-0.5-1.7-0.2-2.6s0.6-1.7,1.2-2.3
		s1.4-1.1,2.3-1.2c0.9-0.2,1.8-0.1,2.6,0.2s1.6,0.9,2,1.6c0.5,0.8,0.8,1.6,0.8,2.5c0,1.2-0.5,2.3-1.3,3.2
		C234,13.1,232.8,13.5,231.6,13.5z M231.6,5.6c-0.7,0-1.3,0.2-1.9,0.5c-0.5,0.4-1,0.9-1.2,1.6c-0.2,0.6-0.3,1.3-0.2,1.9
		c0.2,0.6,0.5,1.2,0.9,1.7c0.5,0.5,1.1,0.8,1.7,0.9s1.3,0.1,1.9-0.2c0.6-0.2,1.2-0.7,1.6-1.2c0.4-0.5,0.5-1.2,0.5-1.9
		c0-0.9-0.4-1.8-1-2.4C233.3,6,232.5,5.6,231.6,5.6z"/>
	<path fill="#F2F2F2" d="M235.5,25.9h-15.8c-0.3,0-0.6-0.2-0.8-0.3s-0.3-0.5-0.3-0.8V13.5c0-0.3,0.2-0.6,0.3-0.8s0.5-0.3,0.8-0.3
		h15.8c0.3,0,0.6,0.2,0.8,0.3c0.2,0.2,0.3,0.5,0.3,0.8v2.3h-1.1v-2.3h-15.8v11.3h15.8v-0.1v-5.5h1.1v5.5c0,0.2,0,0.3-0.1,0.5
		s-0.2,0.3-0.2,0.4c-0.1,0.1-0.2,0.2-0.4,0.3C235.8,25.9,235.7,25.9,235.5,25.9z"/>
	<path fill="#F2F2F2" d="M222.5,22.6h-1.2v1.2h1.2V22.6z"/>
	<path fill="#F2F2F2" d="M227.7,22.6h-4v1.2h4V22.6z"/>
	<path fill="#F2F2F2" d="M241.8,22c-0.2,0-0.2,0-0.4-0.1h-0.1l-4.2-2.2h-17.9v-1.2h18.2l4.4,2.3V14l-4.4,2.3h-18.2v-1.2h17.9
		l4.2-2.2c0.2-0.1,0.3-0.1,0.5-0.1c0.3,0,0.6,0.2,0.8,0.3c0.2,0.2,0.3,0.5,0.3,0.8v6.8c0,0.3-0.2,0.6-0.3,0.8
		C242.4,21.9,242.1,22,241.8,22z"/>
	<path fill="#F2F2F2" d="M237.8,15.8h-1.2v3.4h1.2V15.8z"/>
	<path fill="#F2F2F2" d="M232.7,28.2h-9c-0.3,0-0.6-0.2-0.8-0.3c-0.2-0.2-0.3-0.5-0.3-0.8v-1.7h1.2v1.7h9v-1.7h1.2v1.7
		c0,0.3-0.2,0.6-0.3,0.8C233.3,28.1,233,28.2,232.7,28.2z"/>
	<path fill="#F2F2F2" d="M216.9,20.3c-0.3,0-0.6-0.2-0.8-0.3c-0.2-0.2-0.3-0.5-0.3-0.8v-3.4c0-0.2,0.1-0.4,0.2-0.5
		c0.1-0.2,0.2-0.3,0.4-0.4c0.2-0.1,0.3-0.2,0.5-0.2s0.4,0,0.5,0.1l2,0.7l-0.4,1.1l-2-0.7v3.3l2.1-0.7l0.3,1.1l-2.1,0.7
		C217.1,20.3,217,20.3,216.9,20.3z"/>
	<path fill="#F2F2F2" d="M224.1,27.4l-2.3,5.5l1,0.5l2.3-5.5L224.1,27.4z"/>
	<path fill="#F2F2F2" d="M227,27.4l-2.3,5.5l1,0.5l2.3-5.5L227,27.4z"/>
	<path fill="#F2F2F2" d="M232.3,27.4l-1,0.5l2.3,5.5l1-0.5L232.3,27.4z"/>
	<path fill="#F2F2F2" d="M229.5,27.4l-1,0.5l2.3,5.5l1-0.5L229.5,27.4z"/>
	<path fill="#F2F2F2" d="M222.8,26.4l-2.5,1.8l0.6,0.9l2.5-1.8L222.8,26.4z"/>
	<path fill="#F2F2F2" d="M217.5,32.7c-0.4,0-0.7-0.1-1-0.3s-0.5-0.5-0.6-0.9c-0.1-0.3-0.1-0.7,0-1s0.3-0.6,0.6-0.9l2.3-1.7
		c0.2-0.2,0.5-0.3,0.9-0.3c0.3,0,0.6,0,0.9,0.2s0.5,0.4,0.7,0.6s0.2,0.5,0.2,0.9c0,0.2-0.1,0.5-0.2,0.8c-0.2,0.2-0.3,0.5-0.5,0.6
		l-2.3,1.7C218.2,32.6,217.8,32.7,217.5,32.7z M219.7,28.8c-0.2,0-0.2,0.1-0.3,0.1l-2.3,1.7c-0.1,0.1-0.2,0.2-0.2,0.2
		c-0.1,0.1-0.1,0.2-0.1,0.2c0,0.2,0.1,0.3,0.2,0.4c0.1,0.1,0.2,0.2,0.4,0.2s0.2,0,0.3-0.1l2.3-1.7c0.1-0.1,0.2-0.2,0.2-0.3
		c0-0.1,0-0.2,0-0.3c0-0.1-0.1-0.2-0.2-0.3C219.9,28.8,219.9,28.8,219.7,28.8L219.7,28.8z"/>
	<path fill="#F2F2F2" d="M237.2,8.3c-0.1-0.4-0.2-0.8-0.3-1.2l1.1-0.4c0.2,0.5,0.3,0.9,0.3,1.4L237.2,8.3z"/>
	<path fill="#F2F2F2" d="M236.1,5.6c-0.5-0.7-1.2-1.2-2-1.6c-0.8-0.4-1.6-0.6-2.5-0.6V2.2c1,0,2.1,0.2,3,0.7s1.8,1.2,2.4,2
		L236.1,5.6z"/>
	<path fill="#F2F2F2" d="M241.2,24.3h-1.1v2.8h1.1V24.3z"/>
	<path fill="#F2F2F2" d="M241.2,29.3h-1.1v2.8h1.1V29.3z"/>
	<path fill="#F2F2F2" d="M244.6,27.6h-2.8v1.2h2.8V27.6z"/>
	<path fill="#F2F2F2" d="M239.5,27.6h-2.8v1.2h2.8V27.6z"/>
	<path fill="#F2F2F2" d="M245.2,7.1l-0.5,0.4l0.9,1.3l0.5-0.4L245.2,7.1z"/>
	<path fill="#F2F2F2" d="M247,9.5l-0.5,0.4l0.9,1.3l0.5-0.4L247,9.5z"/>
	<path fill="#F2F2F2" d="M247.9,7.5l-1.3,0.9L247,9l1.3-0.9L247.9,7.5z"/>
	<path fill="#F2F2F2" d="M245.6,9.2l-1.3,0.9l0.4,0.5l1.3-0.9L245.6,9.2z"/>
	<path fill="#F2F2F2" d="M210.4,0.2l-0.5,0.4l0.9,1.3l0.5-0.4L210.4,0.2z"/>
	<path fill="#F2F2F2" d="M212.2,2.5l-0.5,0.4l0.9,1.3l0.5-0.4L212.2,2.5z"/>
	<path fill="#F2F2F2" d="M213.2,0.6l-1.3,1l0.4,0.5l1.3-0.9L213.2,0.6z"/>
	<path fill="#F2F2F2" d="M210.8,2.3l-1.3,1l0.4,0.5l1.3-0.9L210.8,2.3z"/>
</g>
<text transform="matrix(1 0 0 1 67.3 45.75)" fill="#FFFFFF" font-family="'DINOT-Regular'" font-size="10px" letter-spacing="2">TRIBUNAL DE JUSTIÇA DE MATO GROSSO DO SUL</text>
</svg>
