<svg width="29" height="29" viewBox="0 0 29 29" fill="none" xmlns="http://www.w3.org/2000/svg">
<circle cx="14.7273" cy="14.1818" r="14.1818" fill="black"/>
<path d="M19.9841 8.2728H9.47044C9.38478 8.27279 9.29996 8.28965 9.22082 8.32242C9.14168 8.3552 9.06977 8.40324 9.0092 8.46381C8.94864 8.52438 8.90059 8.59629 8.86782 8.67543C8.83504 8.75457 8.81818 8.83939 8.81819 8.92505V19.4387C8.81819 19.5244 8.83505 19.6092 8.86783 19.6883C8.90061 19.7675 8.94865 19.8394 9.00922 19.9C9.06979 19.9605 9.14169 20.0086 9.22083 20.0413C9.29997 20.0741 9.38478 20.091 9.47044 20.091H15.1306V15.5144H13.5905V13.7308H15.1306V12.4156C15.1306 10.8892 16.063 10.058 17.4247 10.058C17.8844 10.0563 18.3439 10.0796 18.8011 10.128V11.7233L17.8567 11.7237C17.1161 11.7237 16.9727 12.0756 16.9727 12.592V13.7308H18.7389L18.5089 15.5144H16.9725V20.091H19.9841C20.1571 20.091 20.323 20.0223 20.4453 19.8999C20.5677 19.7776 20.6364 19.6117 20.6364 19.4387V8.92505C20.6364 8.83939 20.6195 8.75457 20.5867 8.67544C20.554 8.5963 20.5059 8.52439 20.4453 8.46382C20.3848 8.40326 20.3129 8.35521 20.2337 8.32243C20.1546 8.28966 20.0698 8.27279 19.9841 8.2728Z" fill="white"/>
</svg>
