<svg width="159" height="74" viewBox="0 0 159 74" fill="none" xmlns="http://www.w3.org/2000/svg">
<path d="M66.7031 62.8971H69.5377L69.6596 64.0396C70.5304 63.2009 71.6744 62.7042 72.8817 62.6406C73.4643 62.5834 74.0506 62.7009 74.5663 62.9779C75.0819 63.255 75.5034 63.6792 75.7772 64.1966C76.726 63.2301 78.0144 62.6719 79.3685 62.6406C81.6526 62.6406 82.7534 64.098 82.7534 66.4231V73.477H79.7768V66.3638C79.7768 65.3792 79.3684 64.8271 78.4514 64.8271C78.0206 64.8514 77.5994 64.9636 77.2136 65.1568C76.8278 65.35 76.4857 65.6201 76.2082 65.9504C76.2291 66.1868 76.2491 66.4039 76.2491 66.6403V73.477H73.2517V66.3638C73.2517 65.3792 72.8441 64.8271 71.9263 64.8271C71.4856 64.8437 71.0546 64.9607 70.666 65.1691C70.2774 65.3775 69.9414 65.6719 69.6838 66.0298V73.477H66.7065L66.7031 62.8971Z" fill="#C12A38"/>
<path d="M85.547 62.897H88.5444V69.95C88.5444 70.8954 88.891 71.5452 89.9508 71.5452C90.412 71.531 90.8646 71.4161 91.2767 71.2087C91.6889 71.0012 92.0507 70.7062 92.3369 70.3442V62.897H95.3343V73.4769H92.5607L92.3778 72.2551C91.4943 73.1543 90.2972 73.6768 89.0371 73.7133C86.5701 73.7133 85.5503 72.2743 85.5503 69.8907L85.547 62.897Z" fill="#C12A38"/>
<path d="M98.2933 58.6018H101.29V73.477H98.2933V58.6018Z" fill="#C12A38"/>
<path d="M104.288 58.6018H107.286V64.1189C107.709 63.67 108.217 63.3097 108.78 63.0592C109.344 62.8087 109.952 62.673 110.569 62.6599C113.036 62.6599 114.055 64.098 114.055 66.4825V73.477H111.061V66.404C111.061 65.4577 110.674 64.8079 109.634 64.8079C109.175 64.8243 108.725 64.9444 108.319 65.1594C107.913 65.3743 107.561 65.6785 107.289 66.049V73.477H104.288V58.6018Z" fill="#C12A38"/>
<path d="M121.888 62.6406C125.027 62.6406 126.76 64.6309 126.76 67.4671C126.761 67.8962 126.727 68.3247 126.658 68.7482H119.441C119.604 70.5405 120.48 71.4283 122.132 71.4283C123.208 71.4104 124.26 71.0966 125.17 70.5213L126.413 72.3536C125.084 73.2578 123.512 73.7385 121.904 73.7325C118.681 73.7325 116.398 71.6638 116.398 68.1177C116.368 67.3892 116.489 66.6623 116.754 65.9831C117.019 65.3039 117.423 64.6873 117.939 64.1723C118.455 63.6573 119.073 63.2553 119.752 62.9916C120.432 62.7279 121.159 62.6084 121.888 62.6406ZM119.502 67.0929H123.928C123.928 65.7567 123.398 64.7286 121.97 64.7286C120.749 64.7286 119.787 65.5562 119.502 67.0929Z" fill="#C12A38"/>
<path d="M129.23 62.897H131.986L132.19 64.5323C132.472 63.9463 132.915 63.4531 133.468 63.1109C134.02 62.7688 134.66 62.592 135.31 62.6014C135.767 62.5942 136.223 62.6674 136.655 62.8177L136.227 65.4577C135.756 65.2939 135.259 65.2139 134.759 65.2213C133.638 65.2213 132.883 65.8894 132.21 67.113V73.4769H129.233L129.23 62.897Z" fill="#C12A38"/>
<path d="M143.138 62.6407C146.279 62.6407 148.012 64.6309 148.012 67.4671C148.012 67.8962 147.978 68.3246 147.91 68.7483H140.691C140.858 70.5405 141.731 71.4283 143.383 71.4283C144.46 71.4103 145.51 71.0966 146.421 70.5213L147.665 72.3537C146.335 73.2576 144.763 73.7382 143.155 73.7325C139.934 73.7325 137.65 71.6638 137.65 68.1177C137.619 67.3893 137.74 66.6625 138.005 65.9834C138.271 65.3042 138.674 64.6877 139.19 64.1727C139.706 63.6577 140.324 63.2556 141.003 62.9919C141.683 62.7282 142.41 62.6085 143.138 62.6407ZM140.752 67.093H145.179C145.179 65.7567 144.648 64.7286 143.221 64.7286C141.997 64.7286 141.038 65.5563 140.752 67.093Z" fill="#C12A38"/>
<path d="M151.012 70.5605C152.044 71.1526 153.206 71.484 154.396 71.526C155.415 71.526 156.027 71.2112 156.027 70.5238C156.027 68.7307 150.114 69.9124 150.114 65.9529C150.114 63.8057 152.132 62.6624 154.457 62.6624C155.866 62.6751 157.257 62.991 158.534 63.5886L157.474 65.598C156.541 65.1522 155.529 64.8967 154.497 64.8463C153.6 64.8463 153.029 65.1804 153.029 65.831C153.029 67.5848 158.901 66.3438 158.901 70.3409C158.901 72.5274 157.026 73.71 154.436 73.71C152.842 73.7112 151.273 73.3188 149.868 72.5675L151.012 70.5605Z" fill="#C12A38"/>
<path d="M16.4369 14.2443C16.4759 14.2231 16.509 14.1924 16.533 14.155C16.5571 14.1176 16.5714 14.0749 16.5747 14.0305C16.5952 13.9409 16.5855 13.8469 16.5471 13.7633C16.6184 13.5926 16.6648 13.4126 16.6849 13.2288C16.6925 13.1433 16.7254 13.0619 16.7794 12.9951C16.8334 12.9283 16.906 12.8792 16.9881 12.8538C17.0983 12.7469 17.1259 12.6584 17.0716 12.5865C17.0173 12.5147 17.0624 12.4621 17.2094 12.4262C17.2815 12.2873 17.3459 12.1445 17.4023 11.9986C17.4575 11.8571 17.5431 11.7294 17.6529 11.6244C17.9824 10.8786 18.3598 10.155 18.7829 9.458C19.2417 8.69131 19.6551 7.95136 20.0231 7.23813C20.1998 7.03338 20.3654 6.81926 20.5192 6.59672C20.6633 6.38907 20.7576 6.151 20.7948 5.90102H20.905C20.978 5.54523 21.2257 5.4116 21.6483 5.50013C22.0691 5.58914 22.4836 5.70521 22.8894 5.84757C22.9635 5.86771 23.0319 5.90484 23.0892 5.95602C23.1464 6.00719 23.191 6.071 23.2193 6.14238C23.2567 6.27269 23.2753 6.4077 23.2744 6.54327C23.2394 6.55812 23.2113 6.58566 23.1958 6.62037C23.1803 6.65508 23.1786 6.69438 23.1909 6.73035C23.2094 6.81132 23.1997 6.89618 23.1633 6.97087C22.9126 7.34764 22.7261 7.76333 22.6113 8.20107C22.4969 8.63883 22.3106 9.05454 22.0601 9.43126C22.0296 9.49629 21.982 9.55175 21.9223 9.59163C21.8633 9.63237 21.8159 9.68758 21.7845 9.75197C21.6937 9.94781 21.6291 10.1548 21.5924 10.3675C21.5247 10.6633 21.4033 10.9441 21.2341 11.196C20.9396 11.7672 20.6823 12.302 20.4624 12.8004C20.2425 13.2987 20.022 13.8515 19.8009 14.459C19.7109 14.9471 19.5912 15.4294 19.4426 15.903C19.3857 16.1395 19.3786 16.3852 19.4217 16.6246C19.4648 16.864 19.5573 17.0918 19.6932 17.2935C20.4604 17.1067 21.2079 16.8469 21.9256 16.5177C22.5687 16.2153 23.2393 15.8855 23.9375 15.528L25.4266 14.459L25.8668 14.1909L27.6306 12.9072L29.1189 11.7848C29.2958 11.6585 29.4799 11.5425 29.6701 11.4373C29.8598 11.331 30.0438 11.2148 30.2213 11.0891C30.5882 10.804 30.8822 10.5813 31.1033 10.4209C31.3243 10.2606 31.618 10.0554 31.9843 9.80542C32.0489 9.70759 32.1345 9.62542 32.2349 9.56489C32.3259 9.51144 32.4454 9.44964 32.5932 9.37782L32.979 9.11058C33.0305 9.01125 33.1048 8.92554 33.1959 8.8605C33.2869 8.79546 33.392 8.75291 33.5027 8.7364C33.6259 8.71212 33.74 8.65429 33.8324 8.56926C33.9248 8.48422 33.9919 8.37529 34.0263 8.25451C34.1717 8.29043 34.246 8.25452 34.246 8.14762C34.4297 8.21944 34.4965 8.30798 34.4397 8.41488C34.383 8.52178 34.4297 8.61115 34.5776 8.68214C34.4831 8.74521 34.4144 8.84 34.3838 8.94937C34.3453 9.03506 34.3172 9.12508 34.3003 9.21747C34.4456 9.2893 34.5383 9.20913 34.5759 8.97695C34.6135 8.74477 34.6861 8.64706 34.7955 8.68214C34.7844 8.78162 34.766 8.88016 34.7404 8.97695C34.7037 9.1373 34.6669 9.21747 34.6302 9.21747C34.8139 9.2893 34.8515 9.3845 34.7404 9.51145C34.6898 9.55223 34.6562 9.61042 34.6461 9.67467C34.6361 9.73891 34.6503 9.8046 34.6861 9.85889C34.6367 9.91095 34.5805 9.95615 34.5191 9.99333C34.4823 10.0109 34.4448 10.0727 34.4097 10.1804C34.3354 10.1804 34.3262 10.1453 34.3813 10.0727C34.4364 10 34.3905 9.96578 34.2435 9.96578C34.2105 10.0303 34.1737 10.0927 34.1333 10.1529C34.0821 10.2447 34.0452 10.3439 34.0238 10.4468C33.9495 10.4468 33.9219 10.4209 33.9403 10.3675C33.956 10.3246 33.965 10.2795 33.9671 10.2339C33.7833 10.2339 33.6914 10.2873 33.6914 10.3942C33.6141 10.4161 33.5435 10.4568 33.4859 10.5128C33.4283 10.5688 33.3856 10.6383 33.3616 10.7149C33.3181 10.8711 33.2431 11.0166 33.1411 11.1425C33.03 11.1425 32.9932 11.125 33.03 11.0891C33.0667 11.0532 33.03 11.0356 32.9198 11.0356C32.9565 11.0715 32.9289 11.1693 32.8362 11.3296C32.7453 11.488 32.6437 11.6401 32.5322 11.7848C32.4209 11.9279 32.3374 12.0437 32.2817 12.1322C32.2266 12.2216 32.2349 12.1948 32.3092 12.0487C32.2346 12.0136 32.0693 12.0849 31.8132 12.2625C31.6397 12.3761 31.474 12.5011 31.3171 12.6366L30.6556 13.2789C30.5445 13.3507 30.3524 13.4927 30.0768 13.7065C29.8012 13.9203 29.6267 14.0631 29.5532 14.1341L29.4429 14.0807C29.4442 14.0957 29.4424 14.1109 29.4377 14.1252C29.433 14.1396 29.4254 14.1528 29.4154 14.1642C29.3962 14.1826 29.3878 14.226 29.3878 14.297C29.3511 14.226 29.2951 14.2134 29.2208 14.2711C29.1465 14.3287 29.1473 14.3872 29.2208 14.4581H29.0538C28.9988 14.5929 28.9245 14.7189 28.8333 14.8323C28.6756 15.0556 28.468 15.2389 28.2269 15.3676V15.153C28.1526 15.1179 28.1167 15.1263 28.1167 15.1797C28.1167 15.2332 28.08 15.2783 28.0065 15.3133H28.1735C28.1367 15.4562 28.0816 15.5372 28.0065 15.5547C27.9313 15.5723 27.8394 15.599 27.7308 15.6382C27.6941 15.6382 27.7033 15.6207 27.7584 15.5848C27.8135 15.5489 27.8043 15.5313 27.7308 15.5313C27.6565 15.6032 27.5747 15.6917 27.4803 15.7994C27.3927 15.9027 27.2906 15.9927 27.1771 16.0667C27.1028 15.9598 27.0393 15.9422 26.985 16.0132C26.9339 16.0812 26.8676 16.1361 26.7913 16.1736L26.5157 16.2805C26.4054 16.3523 26.3036 16.4233 26.2125 16.4943C26.0892 16.5788 25.948 16.6337 25.7999 16.6546C25.7641 16.7206 25.7449 16.7942 25.744 16.8693C25.7367 16.8704 25.7292 16.8698 25.7222 16.8675C25.7151 16.8652 25.7088 16.8613 25.7035 16.8561C25.6982 16.8509 25.6942 16.8446 25.6918 16.8376C25.6894 16.8306 25.6887 16.8232 25.6897 16.8158C25.6897 16.7807 25.6521 16.7807 25.5786 16.8158C25.5051 16.8868 25.4116 16.9678 25.303 17.0563C25.1739 17.154 25.0228 17.2183 24.8629 17.2434C24.7197 17.4895 24.4957 17.6784 24.229 17.7779C23.9506 17.8848 23.6655 17.9918 23.3738 18.0987C22.9689 18.3667 22.5216 18.5643 22.0509 18.6833C21.6467 18.7545 21.2057 18.8347 20.728 18.9238C20.2183 19.0131 19.6978 19.0221 19.1854 18.9505C18.8171 18.8787 18.4596 18.8253 18.1105 18.7902C17.8325 18.7746 17.5607 18.7018 17.3121 18.5764C17.0613 18.405 16.8458 18.1869 16.6774 17.9341C16.5104 17.6852 16.3728 17.4714 16.2648 17.2927C16.1538 17.2576 16.0978 17.2042 16.0978 17.1324C16.0778 17.0254 16.0181 16.9299 15.9308 16.8651C15.9308 16.83 15.9408 16.8116 15.9583 16.8116C15.9759 16.8116 15.9867 16.7766 15.9867 16.7039C15.9132 16.7766 15.8573 16.8116 15.8197 16.8116C15.7809 16.7418 15.7681 16.6606 15.7833 16.5822C15.7986 16.5038 15.8411 16.4334 15.9032 16.3832C16.0327 16.2763 16.041 16.1327 15.9308 15.9556C15.8416 16.0792 15.8022 16.2319 15.8205 16.3832C15.7827 16.3445 15.7534 16.2985 15.7344 16.2478C15.7155 16.1972 15.7072 16.1432 15.7103 16.0892C15.7103 15.9648 15.7846 15.9022 15.9308 15.9022C15.9446 15.6378 16.0201 15.3804 16.1513 15.1505C16.1213 15.148 16.0911 15.1514 16.0624 15.1606C16.0337 15.1698 16.0072 15.1845 15.9842 15.204C16.0118 15.0422 16.0885 14.8929 16.2039 14.7764C16.26 14.7207 16.3038 14.6538 16.3326 14.5802C16.3614 14.5066 16.3744 14.4277 16.3709 14.3487C16.2982 14.3487 16.2698 14.3847 16.2874 14.4557C16.3049 14.5266 16.2974 14.5625 16.2606 14.5625C16.1872 14.3849 16.2604 14.153 16.4803 13.8668C16.517 13.8668 16.5354 13.8318 16.5354 13.7599C16.5278 13.8505 16.4888 13.9356 16.4252 14.0005C16.4081 14.0163 16.3947 14.0356 16.3859 14.0572C16.3771 14.0787 16.3732 14.1019 16.3743 14.1251C16.3754 14.1484 16.3815 14.1711 16.3924 14.1917C16.4032 14.2123 16.4184 14.2302 16.4369 14.2443ZM25.5861 1.99662C25.5126 2.03253 25.4943 2.05923 25.5319 2.08011C25.5694 2.10099 25.5494 2.14359 25.4759 2.21458C25.2924 2.35327 25.1485 2.53755 25.0583 2.7491C25.0189 2.85002 24.9438 2.93295 24.8473 2.98221C24.7508 3.03147 24.6395 3.0436 24.5347 3.01634C24.3503 3.08845 24.1954 3.22015 24.0945 3.39049C23.9803 3.40599 23.8641 3.3874 23.7605 3.33704C23.7237 3.30197 23.6686 3.24853 23.5934 3.1767C23.4088 3.1767 23.2978 3.23014 23.2594 3.33704C22.9845 3.25265 22.7171 3.14537 22.4601 3.01634C22.258 2.90944 22.0283 2.80253 21.7711 2.69563C21.7706 2.37846 21.817 2.06299 21.9089 1.75943C22.0008 1.4571 22.268 1.34183 22.7081 1.41199C22.7816 1.341 22.8376 1.30509 22.8752 1.30509C22.9173 1.30245 22.9566 1.28323 22.9846 1.25165C23.3824 1.27736 23.7733 1.3676 24.1421 1.51888C24.5288 1.67443 24.9386 1.76475 25.3548 1.78614C25.2897 1.92394 25.3632 1.99493 25.5836 1.99493L25.5861 1.99662ZM27.1304 15.7426C27.2106 15.739 27.2876 15.7098 27.35 15.6591C27.4235 15.6034 27.4235 15.5408 27.35 15.4712L27.1304 15.7426ZM33.0267 10.8218C32.8936 10.8487 32.7756 10.9251 32.6968 11.0356C32.6788 11.0601 32.666 11.088 32.659 11.1175C32.6521 11.1471 32.6512 11.1778 32.6563 11.2077C32.6615 11.2376 32.6726 11.2662 32.689 11.2917C32.7054 11.3172 32.7268 11.3392 32.7519 11.3563C32.7563 11.2943 32.7735 11.2338 32.8022 11.1787C32.8309 11.1235 32.8706 11.0748 32.9189 11.0356C32.9502 11.0088 32.9757 10.9758 32.9937 10.9387C33.0118 10.9017 33.0222 10.8614 33.0242 10.8202L33.0267 10.8218ZM33.5779 10.5546C33.5411 10.5195 33.5595 10.5011 33.6338 10.5011L33.5779 10.5546Z" fill="#211915"/>
<path d="M56.063 13.9762C56.063 13.8332 55.999 13.8151 55.871 13.922C55.7111 14.0607 55.5633 14.2127 55.4292 14.3763C55.2621 14.5734 55.0892 14.778 54.9055 14.9918C54.7698 15.1654 54.6016 15.311 54.4102 15.4203C54.2624 15.3493 54.2624 15.2323 54.4102 15.072C54.5581 14.9116 54.6299 14.7964 54.6299 14.7246C54.5783 14.716 54.5254 14.7196 54.4755 14.7352C54.4256 14.7508 54.3801 14.7779 54.3426 14.8143C54.305 14.8507 54.2766 14.8954 54.2594 14.9448C54.2423 14.9942 54.2371 15.0469 54.244 15.0987C54.244 15.3493 54.1697 15.4729 54.0244 15.4729C53.9768 15.5698 53.9072 15.6543 53.821 15.7194C53.7348 15.7846 53.6346 15.8286 53.5283 15.8479C53.2891 15.9107 53.0644 16.0196 52.8669 16.1686H52.9504C53.0414 16.1686 53.069 16.2045 53.0339 16.2755C52.9596 16.2045 52.9228 16.2045 52.9228 16.2755C52.9228 16.3464 52.8861 16.3648 52.8134 16.3289V16.222C52.7391 16.2938 52.6748 16.2755 52.6205 16.1686C52.5662 16.0617 52.6288 16.0441 52.8134 16.1151C52.8491 16.0119 52.8677 15.9036 52.8685 15.7944C52.7583 15.7234 52.6748 15.7326 52.618 15.8211C52.5521 15.9317 52.4962 16.048 52.4509 16.1686C52.3972 16.3072 52.3324 16.4412 52.2572 16.5695C52.1837 16.6947 52.0375 16.7365 51.817 16.7031C52.1556 16.4799 52.4234 16.1647 52.5887 15.7944C52.2259 15.9506 51.9186 16.2126 51.7068 16.5461C51.6692 16.4392 51.6149 16.4308 51.5398 16.5193C51.4755 16.5934 51.4195 16.6744 51.3727 16.7607C51.2258 16.7607 51.1523 16.7248 51.1523 16.6529H51.0971C51.0811 16.6662 51.068 16.6827 51.0585 16.7012C51.049 16.7197 51.0434 16.7399 51.042 16.7607C50.9439 16.8023 50.8514 16.8559 50.7664 16.9202L50.5459 17.1348C50.6186 17.1348 50.6645 17.1173 50.6837 17.0806C50.7029 17.0438 50.748 17.063 50.8215 17.1348C50.748 17.2067 50.6645 17.2952 50.571 17.4021C50.5385 17.45 50.4915 17.4862 50.437 17.5054C50.3824 17.5247 50.3231 17.5259 50.2678 17.509C50.1935 17.509 50.1843 17.4915 50.2402 17.4555C50.2962 17.4196 50.3037 17.3487 50.2678 17.2418C50.1779 17.2589 50.0944 17.3003 50.0264 17.3616C49.9584 17.4228 49.9084 17.5015 49.882 17.5892C49.8452 17.7495 49.7339 17.8119 49.5479 17.7762C49.5838 17.6693 49.5838 17.5984 49.5479 17.5625C49.5238 17.579 49.4963 17.5899 49.4674 17.5946C49.4385 17.5992 49.409 17.5973 49.3809 17.5892C49.2911 17.5651 49.198 17.5561 49.1052 17.5625C49.1042 17.5805 49.109 17.5983 49.1189 17.6134C49.1289 17.6284 49.1434 17.6399 49.1604 17.646C49.1963 17.6643 49.2155 17.7086 49.2155 17.7796C48.8797 17.9687 48.4982 18.0612 48.1131 18.0468C47.6397 18.037 47.1797 17.8883 46.7902 17.6192C46.254 17.5872 45.7251 17.4793 45.2192 17.2985C44.7559 17.1357 44.3046 16.9403 43.8688 16.7139C43.8688 16.6788 43.9247 16.6605 44.0358 16.6605C44.0379 16.6315 44.0342 16.6023 44.0248 16.5748C44.0155 16.5473 44.0008 16.5219 43.9815 16.5001C43.9439 16.465 43.8896 16.4116 43.8145 16.3398C43.7401 16.3398 43.7042 16.3665 43.7042 16.4233C43.7034 16.4481 43.7078 16.4728 43.7172 16.4959C43.7265 16.5189 43.7406 16.5397 43.7585 16.5569C43.5284 16.4023 43.3546 16.1773 43.2633 15.9155C43.1793 15.664 43.0016 15.4546 42.7672 15.3309C42.7304 15.1889 42.7029 15.0636 42.6836 14.9567C42.6818 14.9334 42.6752 14.9108 42.6645 14.89C42.6537 14.8693 42.6389 14.8509 42.6209 14.836C42.603 14.821 42.5822 14.8098 42.5598 14.803C42.5375 14.7962 42.514 14.794 42.4907 14.7964C42.281 13.8124 42.1885 12.8071 42.2151 11.8015C42.2513 10.9106 42.3245 9.82294 42.4348 8.53845C42.1313 8.65233 41.8646 8.84663 41.6631 9.10052C41.4618 9.35408 41.1953 9.54809 40.8922 9.66176C39.6428 10.9451 38.3474 12.2021 37.0062 13.4326C35.6548 14.6746 34.4274 16.0451 33.3415 17.5249C33.1713 17.5529 33.0156 17.6377 32.8997 17.7654C32.7725 17.9041 32.6239 18.0214 32.4595 18.1128C32.195 18.1524 31.9277 18.1705 31.6603 18.1671C31.2966 18.1595 30.9353 18.1053 30.5854 18.0059C30.5495 17.9708 30.5495 17.9224 30.5854 17.8723C30.6213 17.8222 30.6213 17.7888 30.5854 17.7888C30.1812 17.6468 29.868 17.5482 29.6483 17.4948C29.4287 17.4413 29.3143 17.1658 29.3143 16.6655C29.3133 16.4927 29.3415 16.321 29.3978 16.1577C29.4531 15.9938 29.4627 15.818 29.4254 15.6491C29.4254 15.5422 29.4621 15.482 29.5356 15.462C29.5677 15.4582 29.597 15.4422 29.6176 15.4173C29.6381 15.3924 29.6482 15.3606 29.6458 15.3284C30.0893 13.5033 30.6979 11.7224 31.464 10.0075C32.199 8.38451 32.8604 6.75316 33.4484 5.11344C33.6321 5.25626 33.8902 5.23872 34.2201 5.06C34.4534 5.14946 34.6932 5.22092 34.9375 5.27379C35.2579 5.35541 35.5713 5.46266 35.8745 5.59449C35.9219 5.67911 35.9875 5.75214 36.0666 5.8083C36.1585 5.88013 36.2403 5.95194 36.3172 6.02293C36.2892 6.73517 36.1206 7.43483 35.8211 8.08162C35.5271 8.70577 35.2334 9.35637 34.94 10.0334C34.7551 10.4978 34.5438 11.0328 34.3061 11.6386C34.0684 12.2444 33.8568 12.797 33.6714 13.2964C33.6872 13.4186 33.6574 13.5422 33.5878 13.6438C33.5236 13.712 33.4764 13.7945 33.45 13.8844C33.9277 13.3833 34.4147 12.8218 34.9108 12.1998C35.4068 11.5779 35.8754 10.9983 36.3163 10.461C36.8382 10.1347 37.3274 9.75882 37.777 9.33855C38.2393 8.90615 38.7325 8.50811 39.2528 8.14761C39.7565 7.76206 40.2809 7.40436 40.8237 7.07609C41.3335 6.77144 41.8216 6.43182 42.2844 6.05969C42.5348 6.06184 42.7781 5.97681 42.9726 5.81916C43.1713 5.66039 43.4095 5.55874 43.6616 5.52517C43.9548 5.52498 44.2419 5.60844 44.4893 5.76572C44.7905 5.93781 45.134 6.02146 45.4806 6.00708V6.11313C45.5167 6.10021 45.5554 6.09576 45.5935 6.10011C45.6316 6.10446 45.6682 6.1175 45.7005 6.13824C45.7328 6.15898 45.7598 6.18686 45.7796 6.21972C45.7994 6.25258 45.8115 6.28956 45.8147 6.32779C45.8554 6.51766 45.9298 6.69869 46.0344 6.86228C45.9976 7.18299 45.96 7.61392 45.9241 8.14592C45.9102 8.59342 45.7961 9.03211 45.59 9.42959C45.7011 9.3586 45.6811 9.45631 45.5357 9.72356C45.3904 9.99082 45.3687 10.1787 45.4798 10.2856C45.2915 11.4725 45.2915 12.6816 45.4798 13.8685C45.5375 14.4673 45.7894 15.0307 46.1972 15.4729C46.6738 15.5447 47.078 15.5895 47.4099 15.6073C47.7141 15.627 48.0196 15.6091 48.3194 15.5539C48.6124 15.4944 48.8985 15.4045 49.1729 15.2858C49.5354 15.1249 49.8855 14.9373 50.2202 14.7246L50.4131 14.5375C50.4682 14.484 50.5693 14.4932 50.7163 14.5642C51.0461 14.5116 51.353 14.3625 51.5982 14.1358C51.6958 14.0333 51.8252 13.9669 51.9654 13.9475C52.1056 13.9281 52.2482 13.9568 52.3699 14.0289C52.4293 13.983 52.4688 13.916 52.4802 13.8418C52.4833 13.776 52.5019 13.7119 52.5345 13.6547C52.608 13.6906 52.6263 13.7173 52.5904 13.7382C52.5545 13.7591 52.5712 13.7833 52.6455 13.8217C52.6933 13.7413 52.7127 13.6472 52.7007 13.5545C52.7528 13.5895 52.8132 13.6104 52.8758 13.6151C52.9385 13.6198 53.0013 13.6081 53.0581 13.5812C53.118 13.5599 53.1693 13.5197 53.2042 13.4667C53.2392 13.4136 53.2559 13.3506 53.2519 13.2872C53.385 13.2605 53.503 13.1841 53.5818 13.0734C53.6465 12.977 53.7206 12.8871 53.8031 12.8053C53.7496 12.8522 53.7032 12.9064 53.6653 12.9665C53.6298 13.053 53.6018 13.1424 53.5818 13.2338C53.8757 13.0918 54.0236 12.9665 54.0236 12.8588C54.0236 12.751 54.1146 12.6082 54.2992 12.4312C54.5185 12.3243 54.7482 12.1996 54.9882 12.057C55.2288 11.9133 55.4588 11.7526 55.6764 11.576C55.8519 11.4747 56.0182 11.3582 56.1733 11.2277C56.3209 11.1025 56.4886 11.0031 56.6694 10.9337C56.7606 10.8426 56.8444 10.7443 56.9199 10.6398C56.9673 10.5772 57.0328 10.5307 57.1076 10.5068C57.1823 10.4829 57.2626 10.4827 57.3375 10.5061C57.4175 10.4453 57.513 10.4083 57.6131 10.3992C57.6858 10.3992 57.7309 10.3458 57.7509 10.2389C57.7644 10.168 57.7733 10.0963 57.7776 10.0242C58.0361 9.99463 58.2878 9.92237 58.5226 9.81042C58.7955 9.72369 59.0356 9.5559 59.2108 9.32938C59.2475 9.32938 59.2659 9.25838 59.2659 9.11556C59.3394 9.11556 59.3761 9.13393 59.3761 9.16901C59.3761 9.20409 59.4121 9.22246 59.4864 9.22246C59.5599 9.15147 59.5599 9.11556 59.4864 9.11556C59.4129 9.11556 59.3945 9.06128 59.4313 8.95438C59.5039 9.02621 59.5415 9.03789 59.5415 8.98193V8.79486C59.615 8.75978 59.6518 8.77731 59.6518 8.8483C59.6518 8.91929 59.6701 8.93769 59.7077 8.90177C59.7077 8.93769 59.6877 8.95438 59.6518 8.95438C59.6158 8.95438 59.5966 8.99029 59.5966 9.06127C59.7428 8.99029 59.8906 9.1072 60.0376 9.40953C60.1062 9.5773 60.1218 9.76201 60.0824 9.9389C60.043 10.1158 59.9504 10.2764 59.8171 10.3992C59.7795 10.3992 59.7795 10.4084 59.8171 10.4259C59.8547 10.4435 59.8355 10.471 59.762 10.5095C59.7197 10.7298 59.6015 10.9284 59.4279 11.0707C59.284 11.2085 59.1549 11.3611 59.0429 11.5259L56.063 13.9762ZM50.4966 17.1315C50.4223 17.1315 50.3764 17.1766 50.3588 17.2651C50.3413 17.3537 50.3864 17.3988 50.4966 17.3988V17.1315ZM51.103 16.7031V16.7573H51.0479C51.0838 16.7573 51.0938 16.7482 51.0754 16.7298C51.057 16.7114 51.0662 16.7031 51.103 16.7031ZM51.1581 16.9169C51.0479 16.9887 51.0295 16.9528 51.103 16.8108L51.1581 16.9169ZM52.8669 16.1652L52.8117 16.2187C52.8191 16.2197 52.8266 16.2191 52.8336 16.2168C52.8407 16.2146 52.8471 16.2107 52.8524 16.2055C52.8578 16.2004 52.8618 16.194 52.8643 16.187C52.8668 16.1801 52.8677 16.1726 52.8669 16.1652ZM55.4016 13.2238C55.4751 13.2597 55.5686 13.2238 55.6772 13.1169L55.7883 13.0099C55.7096 13.0037 55.6308 13.0211 55.5619 13.0597C55.4931 13.0984 55.4373 13.1567 55.4016 13.2271V13.2238ZM57.6073 11.9936C57.6073 12.1005 57.5697 12.1364 57.4962 12.1005C57.4227 12.0645 57.3492 12.1364 57.2757 12.3143C57.5697 12.2458 57.6813 12.14 57.6106 11.9969L57.6073 11.9936Z" fill="#211915"/>
<path d="M57.0552 16.9703C57.1155 16.707 57.2625 16.4717 57.4728 16.3021C57.6919 16.1233 57.8864 15.9163 58.0515 15.6866C57.9949 15.7729 57.9303 15.8537 57.8586 15.928C57.7876 16.0121 57.74 16.1135 57.7208 16.222C57.9432 16.1337 58.1429 15.9965 58.3052 15.8205C58.4674 15.6446 58.5879 15.4344 58.6579 15.2056C58.8032 15.3125 58.9335 15.2774 59.0437 15.0987C59.1447 14.9281 59.2999 14.7963 59.4847 14.7245L59.539 14.6711C59.5743 14.6549 59.6038 14.6283 59.6235 14.5949C59.6433 14.5614 59.6522 14.5227 59.6492 14.484C59.6554 14.3767 59.6942 14.2739 59.7603 14.1892C59.7779 14.1895 59.7953 14.1846 59.8102 14.1751C59.825 14.1656 59.8367 14.1519 59.8438 14.1357C59.8613 14.1006 59.9073 14.0823 59.9816 14.0823C60.0084 14.004 60.0517 13.9325 60.1086 13.8725C60.1655 13.8126 60.2348 13.7656 60.3115 13.7348C60.4454 13.6918 60.5623 13.6076 60.6456 13.4943C60.6815 13.4943 60.755 13.4408 60.8652 13.3339C61.1139 13.0897 61.4158 12.9065 61.7472 12.7986C62.0766 12.694 62.3655 12.4897 62.574 12.214C63.0431 12.0405 63.4878 11.8069 63.8969 11.5191C64.3269 11.2182 64.7891 10.9661 65.2749 10.7675C65.4284 10.0828 65.4846 9.37992 65.4419 8.67956C65.4248 7.97442 65.2556 7.28131 64.9458 6.64761C64.7977 6.7907 64.6232 6.95104 64.4222 7.12865C64.198 7.32958 63.9863 7.54407 63.7883 7.77091L63.1268 8.35551L62.356 9.05037L61.363 9.90641C61.1196 10.1446 60.8619 10.3678 60.5913 10.5746C60.39 10.7376 60.1675 10.8724 59.9298 10.9754C59.7232 11.2459 59.4826 11.4887 59.2141 11.6979C58.9914 11.8582 58.789 11.8137 58.6069 11.5642C58.5458 11.4736 58.4718 11.3923 58.3873 11.3229C58.3685 11.3145 58.3475 11.3126 58.3276 11.3174C58.3076 11.3222 58.2899 11.3336 58.277 11.3496C58.2395 11.3855 58.2127 11.4031 58.1935 11.4031C58.1743 11.4031 58.11 11.3321 58.0006 11.1892C57.8528 11.1892 57.7701 11.2343 57.75 11.3229C57.73 11.4114 57.7225 11.4064 57.7225 11.2961C57.7609 11.22 57.789 11.1391 57.806 11.0556C57.8252 10.9671 57.8703 10.9404 57.9438 10.9721C58.1617 10.8324 58.3651 10.6712 58.551 10.491C58.6535 10.3653 58.7284 10.2193 58.7706 10.0626C58.8242 9.88299 58.9189 9.71831 59.0471 9.58155C59.1922 9.4596 59.3607 9.36865 59.5423 9.31429C59.7328 9.25207 59.9038 9.14123 60.0384 8.99274C60.1123 8.92147 60.1608 8.82785 60.1762 8.72632C60.1918 8.62438 60.2402 8.53029 60.314 8.45825C60.461 8.35135 60.608 8.25334 60.755 8.16425C60.8748 8.09653 60.9868 8.01588 61.0891 7.92373C61.3644 7.55269 61.6685 7.20391 61.9985 6.88061C62.2691 6.62521 62.518 6.34781 62.7427 6.05128C62.8488 5.74879 63.0315 5.47899 63.2731 5.26821C63.5146 5.05743 63.8066 4.91287 64.1207 4.84864C64.3455 4.7913 64.5801 4.78312 64.8084 4.82463C65.0367 4.86613 65.2533 4.95638 65.4436 5.08919C65.8386 5.05852 66.2334 5.15193 66.5727 5.35642C66.8503 5.58602 67.0681 5.87948 67.2075 6.21165C67.3399 6.40597 67.4334 6.62404 67.4831 6.85388C67.5555 7.1395 67.6198 7.45158 67.676 7.7901C67.7311 8.12918 67.7862 8.45823 67.843 8.77977C67.8925 9.04433 67.9204 9.31248 67.9266 9.58155C68.3223 9.5441 68.7112 9.45422 69.0833 9.31429C69.6345 9.13668 70.2132 8.94932 70.8196 8.75222C71.4259 8.55512 71.9955 8.37696 72.5283 8.21773C72.8935 8.09069 73.2731 8.00986 73.6583 7.97718C73.6951 7.97718 73.7318 7.94211 73.7694 7.87028C73.8053 7.94211 73.8529 7.96884 73.9064 7.9538C73.9689 7.935 74.034 7.92597 74.0993 7.92707C74.3565 7.8558 74.6321 7.79344 74.9261 7.73999C75.2087 7.69156 75.4742 7.57201 75.6978 7.39257C75.7424 7.41113 75.791 7.41831 75.8391 7.4135C75.8872 7.40869 75.9333 7.39202 75.9734 7.365C76.0461 7.31155 76.1404 7.24974 76.249 7.17792V7.33913C76.3217 7.33913 76.3593 7.24975 76.3593 7.07103C76.689 7.10738 77.0217 7.10738 77.3514 7.07103C77.6081 7.03595 77.8837 7.00032 78.1782 6.96413C78.3228 7.03666 78.4852 7.06568 78.6459 7.04766C78.7693 7.03913 78.8906 7.01093 79.0051 6.96413L79.7767 7.12447C79.7767 7.3032 79.8494 7.33913 79.9972 7.23139C79.9605 7.30322 79.9505 7.34746 79.9688 7.365C79.979 7.37624 79.9868 7.38945 79.9917 7.40381C79.9966 7.41818 79.9985 7.4334 79.9972 7.44852C79.9972 7.4836 80.0148 7.50115 80.0524 7.50115C80.0524 7.53706 80.0883 7.5546 80.1626 7.5546C80.1699 7.5557 80.1774 7.55507 80.1844 7.55279C80.1914 7.55051 80.1979 7.54663 80.2031 7.54145C80.2084 7.53626 80.2124 7.52991 80.2147 7.52292C80.2171 7.51592 80.2179 7.50848 80.2169 7.50115C80.2439 7.59101 80.2911 7.67355 80.3547 7.74252C80.3829 7.7752 80.4006 7.81557 80.4057 7.85843C80.4108 7.9013 80.4029 7.94469 80.3831 7.98304C80.2272 8.05167 80.0567 8.08037 79.887 8.06656C79.758 8.04778 79.6264 8.05688 79.5012 8.09327C79.5012 8.1651 79.5187 8.20016 79.5554 8.20016C79.5976 8.20338 79.637 8.2225 79.6657 8.25364C79.4831 8.3604 79.2683 8.39831 79.0602 8.36053C78.8397 8.32545 78.6919 8.43236 78.6184 8.68124C78.2885 8.7539 77.9845 8.83324 77.7089 8.9226C77.3773 9.02272 77.0355 9.08546 76.69 9.10968C76.603 9.17493 76.5435 9.27018 76.5229 9.37691C76.4469 9.32567 76.3594 9.294 76.2682 9.28468C76.177 9.27535 76.0849 9.28867 76.0001 9.32347C75.8489 9.39046 75.6922 9.44413 75.5316 9.48383C75.2227 9.51307 74.9228 9.60395 74.6497 9.75109C74.3734 9.90085 74.0765 10.0089 73.7686 10.0718L69.414 11.7304L68.4769 12.1848C68.1732 12.3233 67.9082 12.5344 67.7052 12.7994C67.6778 13.1972 67.5549 13.5826 67.3469 13.9228C67.1525 14.2107 67.0294 14.5407 66.9878 14.8857C66.8041 14.9219 66.6941 14.9932 66.658 15.0995C66.611 15.2279 66.5551 15.3529 66.4909 15.4737C66.5644 15.4737 66.592 15.4294 66.5744 15.34C66.5569 15.2507 66.5836 15.2423 66.658 15.3133C66.5836 15.492 66.4909 15.6975 66.3823 15.9288C66.2659 16.1688 66.0962 16.379 65.8862 16.5435C66.0321 16.5797 66.0321 16.6421 65.8862 16.7306C65.7384 16.8199 65.7192 16.9177 65.8311 17.0246C65.7327 17.077 65.6403 17.1401 65.5555 17.2125C65.4453 17.3018 65.4261 17.3795 65.5004 17.453C65.4261 17.453 65.3902 17.4981 65.3902 17.5866C65.3902 17.6752 65.335 17.6852 65.2231 17.6134C65.2966 17.7203 65.2966 17.7921 65.2231 17.8272C65.1496 17.8622 65.1488 17.9165 65.2231 17.9875C65.0105 18.1924 64.8168 18.416 64.6444 18.6556C64.4773 18.887 64.3044 19.11 64.1207 19.3238C64.0839 19.3588 64.0931 19.3689 64.1483 19.3505C64.2034 19.3321 64.2117 19.3589 64.1758 19.434C63.6787 19.9519 63.1543 20.4428 62.6049 20.9047C62.0262 21.3752 61.362 21.7294 60.6489 21.9479C60.6848 21.876 60.6389 21.8585 60.5111 21.8944C60.3833 21.9303 60.3173 21.9295 60.3173 21.8944C60.3173 21.8226 60.3541 21.7947 60.4276 21.8109C60.5022 21.8281 60.5805 21.8187 60.6489 21.7842C60.5387 21.6055 60.4092 21.552 60.2631 21.6238C60.1439 21.6874 60.0121 21.7239 59.8772 21.7307C59.8772 21.8376 59.8572 21.8911 59.8213 21.8911V21.7842C59.6727 21.7843 59.5246 21.8022 59.3803 21.8376C59.1954 21.8698 59.0052 21.8513 58.8299 21.7842C58.7923 21.7842 58.774 21.8017 58.774 21.8376C58.774 21.8735 58.738 21.8911 58.6645 21.8911C58.0288 21.9462 57.3902 21.826 56.818 21.5437C56.3446 21.2966 55.938 20.9387 55.6329 20.5005C55.5594 20.5356 55.5134 20.5273 55.4951 20.4738C55.4767 20.4204 55.4316 20.4112 55.3573 20.4471C55.2838 20.3752 55.2738 20.3218 55.3289 20.2867C55.384 20.2516 55.3949 20.1614 55.3573 20.0195C55.2838 20.1614 55.2111 20.2149 55.1368 20.1798C55.0625 20.1448 54.9898 20.1798 54.9163 20.2867C54.8061 20.1798 54.8153 20.108 54.9439 20.0729C55.0725 20.0378 55.0817 19.966 54.9714 19.8583C54.9352 19.7876 54.9074 19.7876 54.8879 19.8583C54.8704 19.9301 54.8604 19.8942 54.8604 19.7522C54.8951 19.6491 54.9413 19.5502 54.9982 19.4574C55.0533 19.3689 55.1727 19.3238 55.3565 19.3238C55.3315 19.132 55.3484 18.9371 55.4061 18.7526C55.4638 18.568 55.5608 18.3982 55.6905 18.2548C55.6936 18.3093 55.6841 18.3639 55.663 18.4143C55.6416 18.4652 55.6322 18.5203 55.6354 18.5755C55.7398 18.5254 55.8328 18.4544 55.9086 18.3669C55.9845 18.2794 56.0416 18.1773 56.0764 18.0669C56.1924 17.781 56.2846 17.486 56.352 17.1849C56.5365 17.2918 56.6643 17.2743 56.7378 17.1314C56.7624 17.0709 56.8081 17.0212 56.8664 16.9916C56.9247 16.962 56.9917 16.9544 57.0552 16.9703ZM57.4962 16.5427C57.4962 16.3648 57.5137 16.2754 57.5504 16.2754C57.5504 16.4541 57.5321 16.5427 57.4962 16.5427ZM61.6854 15.6332C61.6867 15.6483 61.6849 15.6635 61.68 15.6779C61.6751 15.6923 61.6673 15.7055 61.657 15.7167C61.6468 15.7279 61.6391 15.7411 61.6343 15.7555C61.6296 15.7699 61.6279 15.7851 61.6294 15.8002C61.2753 16.0359 60.9593 16.3243 60.6923 16.6554C60.408 17.0023 60.0948 17.3244 59.7561 17.6184C59.7561 17.7612 59.7185 17.7971 59.645 17.7253C59.6083 17.7971 59.5983 17.8322 59.6183 17.8322C59.6384 17.8322 59.645 17.8505 59.645 17.8856C59.5481 17.9107 59.458 17.9574 59.3818 18.0224C59.3055 18.0874 59.245 18.1688 59.2049 18.2606C59.1696 18.2595 59.1349 18.2691 59.1051 18.288C59.0753 18.3069 59.0519 18.3343 59.0379 18.3667C58.8935 18.6129 58.6954 18.8233 58.4583 18.9822C58.3326 19.0739 58.2265 19.1898 58.1462 19.323C58.0659 19.4562 58.013 19.6041 57.9906 19.7581C58.0641 19.7931 58.1 19.8416 58.1 19.8917C58.0993 19.9167 58.1039 19.9415 58.1136 19.9645C58.1232 19.9876 58.1377 20.0083 58.1559 20.0253C58.5961 19.8817 59.0095 19.7313 59.3953 19.5702C59.7812 19.409 60.1762 19.2361 60.5804 19.0624C60.5437 18.9198 60.5437 18.8397 60.5804 18.8218C60.6172 18.8035 60.6364 18.7592 60.6364 18.6882C61.3876 18.0639 62.0547 17.3446 62.6207 16.5485C63.2196 15.7093 63.7362 14.8143 64.1633 13.876L64.1082 13.8225C63.7069 14.1055 63.3205 14.4091 62.9506 14.732C62.5567 15.0697 62.1332 15.3713 61.6854 15.6332ZM60.6381 21.8911C60.8246 21.8227 60.9807 21.69 61.0782 21.5169C61.0457 21.5506 61.0068 21.5774 60.9637 21.5958C60.9207 21.6141 60.8744 21.6237 60.8276 21.6238C60.7383 21.6238 60.674 21.7123 60.6381 21.8911Z" fill="#211915"/>
<path d="M100.431 9.42965C100.433 9.44472 100.431 9.45993 100.426 9.4743C100.422 9.48868 100.414 9.50191 100.404 9.51317C100.393 9.52428 100.386 9.5375 100.381 9.55191C100.376 9.56633 100.374 9.58158 100.376 9.59667V9.54322L100.266 9.65014V9.70359L100.376 9.75703C100.341 9.82501 100.313 9.89672 100.293 9.97085C100.277 10.0964 100.286 10.2239 100.32 10.3458C100.32 10.3817 100.302 10.3993 100.265 10.3993H100.155C100.162 10.3981 100.17 10.3985 100.177 10.4007C100.184 10.4029 100.19 10.4067 100.196 10.4118C100.201 10.4169 100.205 10.4232 100.208 10.4302C100.21 10.4371 100.211 10.4446 100.21 10.4519C100.201 10.5278 100.22 10.6045 100.265 10.6665C100.115 10.763 99.9989 10.9028 99.931 11.0674C99.874 11.2219 99.7792 11.3597 99.6554 11.4683C99.6178 11.4683 99.6178 11.4507 99.6554 11.4148C99.6637 11.4086 99.6704 11.4006 99.6751 11.3913C99.6797 11.382 99.6821 11.3718 99.6821 11.3614C99.6821 11.351 99.6797 11.3408 99.6751 11.3315C99.6704 11.3222 99.6637 11.3142 99.6554 11.3079C99.5302 11.3994 99.4414 11.5322 99.4049 11.6829C99.355 11.8487 99.2904 12.0097 99.2119 12.164C99.2034 12.2014 99.1868 12.2366 99.1633 12.267C99.1398 12.2974 99.11 12.3224 99.0759 12.3402C99.0419 12.358 99.0044 12.3682 98.966 12.37C98.9276 12.3719 98.8893 12.3654 98.8536 12.3511C98.6866 12.2954 98.6031 12.3577 98.6031 12.5381C98.4332 12.6447 98.276 12.7702 98.1346 12.9123C98.0937 12.963 98.0568 13.017 98.0243 13.0735C97.9625 13.1485 97.8879 13.2118 97.8039 13.2606C97.6752 13.3502 97.3907 13.5195 96.9503 13.7684C96.716 13.8357 96.4757 13.8804 96.2329 13.902C95.9878 13.931 95.7572 14.0334 95.5714 14.196C95.5714 14.2319 95.5531 14.2494 95.5163 14.2494H95.462C95.3973 14.3456 95.3234 14.4354 95.2415 14.5175L95.0745 14.6778C95.0584 14.6909 95.0451 14.7071 95.0355 14.7255C95.0259 14.7439 95.0201 14.764 95.0186 14.7847C94.8306 14.7594 94.6393 14.7884 94.4673 14.8683C94.2769 14.9158 94.1044 15.018 93.9713 15.1622C93.8978 15.0912 93.8042 15.1004 93.6957 15.189C93.6386 15.2383 93.5939 15.3001 93.5649 15.3697C93.5359 15.4393 93.5235 15.5147 93.5286 15.5899C93.491 15.4479 93.4635 15.3953 93.4451 15.4303C93.4267 15.4654 93.3808 15.4829 93.3073 15.4829C93.2582 15.5843 93.189 15.6746 93.1038 15.7482C93.0187 15.8219 92.9194 15.8774 92.812 15.9114L92.9791 15.6967C92.8425 15.7288 92.7121 15.7833 92.5932 15.8579C92.4538 15.9438 92.306 16.0154 92.1523 16.0717C92.1523 16.1077 92.2257 16.0901 92.3719 16.0183C92.321 16.0986 92.2437 16.1586 92.1532 16.1878C92.0628 16.2171 91.9649 16.2139 91.8767 16.1786C91.7664 16.1786 91.6737 16.2505 91.6011 16.3924C91.6011 16.3574 91.5919 16.339 91.5735 16.339C91.5551 16.339 91.5459 16.3214 91.5459 16.2855C91.5081 16.3574 91.3611 16.4375 91.1049 16.5261C90.8469 16.6154 90.5721 16.6931 90.2781 16.7674C89.9842 16.8418 89.7077 16.9002 89.4513 16.9545C89.3059 16.9887 89.1586 17.0152 89.0104 17.0339C88.2323 17.3454 87.3931 17.4737 86.5575 17.4088C85.5458 17.3738 84.6733 17.3203 83.9401 17.2485C83.5718 17.2134 83.2719 17.195 83.0306 17.195C82.7448 17.2099 82.4685 17.3023 82.2313 17.4623H81.7469C81.2265 17.6106 80.6776 17.6289 80.1484 17.5157C80.1116 17.5519 80.0933 17.5519 80.0933 17.5157V17.4623C80.044 17.4848 79.9975 17.5128 79.9546 17.5458C79.9131 17.5695 79.865 17.5789 79.8177 17.5725C79.8901 17.3237 79.8258 17.2168 79.6248 17.2518C79.4238 17.2869 79.3227 17.2332 79.3216 17.0906C79.2113 17.0906 79.1545 17.1808 79.1545 17.3587C79.1178 17.3587 79.0627 17.2969 78.9875 17.1716C78.9124 17.0464 78.8581 17.0196 78.8205 17.0881C78.7462 17.053 78.7662 16.9812 78.8756 16.8752C78.8013 16.8401 78.7662 16.7917 78.7662 16.7407C78.7545 16.6664 78.7147 16.5995 78.6551 16.5536C78.6354 16.5089 78.6302 16.4591 78.64 16.4112C78.6499 16.3633 78.6745 16.3197 78.7102 16.2864H78.6L78.4898 16.5002C78.4804 16.5759 78.5001 16.6522 78.5449 16.714C78.5644 16.7358 78.5794 16.7613 78.5888 16.789C78.5983 16.8166 78.6021 16.846 78.6 16.8752C78.6 16.9462 78.5624 16.9587 78.4898 16.901C78.431 16.8608 78.3752 16.8165 78.3227 16.7683C78.0008 17.1395 77.7655 17.5777 77.6337 18.0511C77.4713 18.5788 77.2396 19.0826 76.9447 19.5494L76.1187 22.1159C76.0441 22.4015 75.8968 22.9365 75.6769 23.721C75.4573 24.5044 75.2167 25.3254 74.9612 26.1814C74.7056 27.0375 74.4642 27.8518 74.2438 28.6143C74.1071 29.1312 73.9418 29.64 73.7485 30.1385C73.675 30.3885 73.6015 30.6293 73.528 30.8609C73.4545 31.0922 73.381 31.3511 73.3067 31.6359C73.3078 31.807 73.2896 31.9776 73.2524 32.1445C73.2228 32.2801 73.1857 32.4139 73.1414 32.5454C73.2516 32.8548 73.271 33.1892 73.1973 33.5092C73.1238 33.5794 73.0687 33.5969 73.0303 33.5618C73.0074 33.5423 72.9808 33.5275 72.9521 33.5185C72.9234 33.5094 72.8932 33.5063 72.8632 33.5092C72.7907 33.5012 72.7173 33.5117 72.6499 33.5396C72.5824 33.5674 72.5231 33.6119 72.4774 33.6687C72.4466 33.6345 72.4058 33.6109 72.3608 33.6013C72.3158 33.5917 72.2689 33.5966 72.2268 33.6153C72.1473 33.6484 72.0624 33.6666 71.9763 33.6687L71.922 33.5618C71.8852 33.5618 71.8669 33.5702 71.8669 33.5885C71.8669 33.6069 71.8485 33.6153 71.8118 33.6153L71.7566 33.6687C71.5715 33.596 71.4028 33.487 71.2605 33.348C71.1257 33.2113 70.9528 33.1182 70.7645 33.0808C70.6397 33.0041 70.4916 32.9744 70.3469 32.9972C70.1903 33.0152 70.0318 33.0061 69.8783 32.9705C69.8014 32.89 69.7529 32.7864 69.7405 32.6757C69.7299 32.6184 69.7376 32.5593 69.7623 32.5066C69.787 32.4539 69.8276 32.4102 69.8783 32.3817C69.9151 32.1312 69.9435 31.9357 69.9619 31.7971C69.9676 31.7308 69.9954 31.6684 70.0408 31.6198C70.0863 31.5712 70.1467 31.5392 70.2124 31.529C70.3226 31.2442 70.4245 30.9686 70.5147 30.7005C70.6096 30.4163 70.6562 30.1182 70.6525 29.8186C70.7639 29.2473 70.9571 28.445 71.2321 27.4117C71.5072 26.3783 71.8104 25.2995 72.1416 24.1754C72.4724 23.0524 72.7847 21.9825 73.0787 20.9658C73.3727 19.9491 73.5932 19.156 73.7401 18.5864C74.0471 18.0186 74.2873 17.4172 74.4559 16.7942C74.6407 16.1355 74.8612 15.4493 75.1174 14.7355C75.1275 14.682 75.1573 14.6344 75.2009 14.6018L75.3929 14.4148L76.1104 12.1682C76.3297 11.5986 76.5683 11.0371 76.8261 10.4836C77.0808 9.93617 77.3017 9.37361 77.4875 8.79909L78.0947 7.03354C78.3147 6.42776 78.5257 5.82173 78.7278 5.2154C78.9304 4.60728 79.2181 4.03086 79.5821 3.50329C79.8562 3.46777 80.1332 3.45909 80.409 3.4774C80.6931 3.49324 80.9725 3.55647 81.2358 3.66447C81.4998 3.75519 81.7174 3.94642 81.8412 4.19662C81.9651 4.44682 81.9852 4.73579 81.8972 5.00075C81.8655 5.34437 81.7307 5.6704 81.5106 5.93613C81.2968 6.19191 81.1461 6.49427 81.0704 6.81891C80.9662 7.03611 80.9093 7.27294 80.9034 7.51377C80.8291 7.80023 80.7288 8.14766 80.5994 8.55689C80.4699 8.96612 80.3488 9.36868 80.2419 9.76037C80.3965 9.68442 80.5441 9.59498 80.6829 9.49311C80.7769 9.40923 80.8927 9.35366 81.017 9.33277C81.017 9.26178 80.9978 9.22585 80.9618 9.22585C81.2558 8.97642 81.559 8.70888 81.8713 8.42326C82.1837 8.13763 82.4869 7.85229 82.7809 7.56722H82.9479C82.9179 7.5647 82.8877 7.56814 82.859 7.57731C82.8304 7.58648 82.8038 7.60121 82.7809 7.62066C82.7433 7.65657 82.7616 7.71088 82.8351 7.78187C82.8676 7.74842 82.9051 7.72023 82.9462 7.69835C82.9821 7.68081 82.9821 7.6357 82.9462 7.56388V7.51043C82.9504 7.41899 82.969 7.32879 83.0013 7.24317C83.074 7.42273 83.175 7.43026 83.3045 7.26991C83.4339 7.10955 83.5333 7.02938 83.6068 7.02938C83.5701 6.8874 83.6803 6.76213 83.9409 6.65523C83.9832 6.67244 84.0297 6.67653 84.0744 6.667C84.1191 6.65747 84.1598 6.63474 84.1914 6.60176C84.2825 6.53077 84.31 6.40635 84.275 6.22679C84.3146 6.31046 84.3337 6.40233 84.3309 6.49486L84.4403 6.28023C84.4838 6.2002 84.5402 6.12794 84.6073 6.06642C84.533 6.06642 84.5147 6.04889 84.5514 6.01382C84.7277 5.94639 84.8945 5.85626 85.0475 5.74571C85.1945 5.63881 85.3601 5.5141 85.5444 5.37156V5.42501C85.6171 5.2112 85.8927 5.02329 86.3704 4.86378C86.7449 4.77391 87.0762 4.55624 87.3074 4.24826C87.4352 4.27733 87.5683 4.27292 87.6938 4.23546C87.8194 4.19801 87.9331 4.12879 88.024 4.03447H88.1343C88.5667 3.81097 89.0318 3.65734 89.5123 3.57929C90.0081 3.49123 90.5177 3.51983 91.0006 3.66282C91.0006 3.69873 91.0365 3.75217 91.1108 3.82316C91.1843 3.75245 91.2486 3.7246 91.3037 3.73963C91.392 3.77463 91.4761 3.81946 91.5543 3.87326C91.5167 3.94509 91.4992 3.97182 91.4992 3.95679C91.4992 3.94175 91.4799 3.96598 91.444 4.04031C92.1411 4.11213 92.5545 4.4064 92.6843 4.92309C92.8146 5.53027 92.8239 6.15716 92.7118 6.76796C92.7118 6.87486 92.7477 6.89323 92.8221 6.82141V7.08867C92.8221 7.19557 92.7853 7.24903 92.7118 7.24903C92.7545 7.46736 92.7494 7.69231 92.6971 7.90852C92.6448 8.12473 92.5464 8.3271 92.4087 8.50178C92.1524 8.79531 91.9893 9.15841 91.9401 9.5449C91.7437 9.91135 91.4596 10.2235 91.1133 10.4535C90.7749 10.6772 90.5072 10.9927 90.3416 11.3631C90.3416 11.4349 90.3775 11.4349 90.4519 11.3631C90.3049 11.6136 90.1657 11.8722 90.0343 12.1389C89.9752 12.2669 89.8872 12.3795 89.7772 12.4676C89.6672 12.5557 89.5382 12.617 89.4004 12.6467C89.2787 12.9369 89.0783 13.1871 88.8216 13.3691C88.619 13.4888 88.4561 13.6653 88.3531 13.8769C88.0139 14.2367 87.6454 14.5678 87.2515 14.8666C86.7727 15.2408 86.4417 15.5169 86.2585 15.6951C86.4055 15.66 86.7078 15.5982 87.168 15.508C87.6282 15.4178 88.1234 15.3301 88.6563 15.2408C89.1891 15.1514 89.676 15.0537 90.117 14.9468C90.4419 14.8811 90.757 14.7733 91.054 14.626C91.7591 14.3607 92.4491 14.0571 93.121 13.7166C93.7931 13.3761 94.4831 13.0725 95.1881 12.8071H95.3551C95.391 12.6292 95.4462 12.5398 95.5222 12.5398C95.5982 12.5398 95.6692 12.4688 95.7435 12.326C95.9382 12.3226 96.1285 12.2673 96.2947 12.1657C96.4708 12.0622 96.6548 11.9728 96.8451 11.8984C96.8818 11.9343 96.8726 11.9702 96.8183 12.0053C96.764 12.0404 96.7348 12.0771 96.7348 12.1122C96.9201 12.0579 97.0965 11.9769 97.2585 11.8717C97.4052 11.7737 97.5627 11.693 97.7278 11.6311H97.7821C97.8924 11.6311 97.9291 11.5777 97.8924 11.47C98.0394 11.3631 98.1037 11.3029 98.0853 11.2829C98.0621 11.2633 98.0321 11.2537 98.0018 11.2561C97.9868 11.2575 97.9717 11.2558 97.9573 11.2513C97.943 11.2467 97.9297 11.2392 97.9183 11.2294C97.8999 11.2119 97.9817 11.1676 98.1688 11.0958V11.2027C98.2231 11.0831 98.3099 10.9812 98.4194 10.9087C98.5373 10.8221 98.625 10.7006 98.6699 10.5613H98.9455C98.9455 10.4903 98.9363 10.4535 98.9188 10.4535C98.9013 10.4535 98.8904 10.4728 98.8904 10.5078C98.8169 10.436 98.8069 10.4009 98.8628 10.4009C98.9385 10.3909 99.0077 10.3528 99.0566 10.2941C99.2019 9.90152 99.3589 9.67852 99.5243 9.6259C99.772 9.52598 100.004 9.39099 100.213 9.22504C100.213 9.33194 100.232 9.36784 100.268 9.33193C100.297 9.30079 100.336 9.28169 100.379 9.27848C100.38 9.34499 100.361 9.41025 100.324 9.46556C100.286 9.52056 100.267 9.58603 100.268 9.65264C100.339 9.50147 100.395 9.42965 100.431 9.42965ZM80.5342 17.0773C80.5702 16.9704 80.5342 16.9169 80.424 16.9169C80.3682 16.9377 80.3202 16.975 80.2862 17.0238C80.2643 17.064 80.2361 17.1003 80.2027 17.1316C80.1284 17.2034 80.0925 17.185 80.0925 17.0773C80.019 17.2568 79.9455 17.3454 79.872 17.3454C79.872 17.3813 79.8995 17.3988 79.9555 17.3988C79.981 17.3997 80.0064 17.3954 80.0302 17.3862C80.0541 17.3771 80.0758 17.3632 80.0941 17.3454C80.1453 17.3299 80.1994 17.3267 80.2521 17.336C80.3047 17.3453 80.3545 17.3668 80.3973 17.3988C80.5251 17.4706 80.5902 17.4523 80.5902 17.3454V17.2919C80.5902 17.3278 80.571 17.2744 80.5351 17.1316C80.602 17.1796 80.6778 17.2139 80.7581 17.2323C80.8384 17.2506 80.9216 17.2527 81.0028 17.2385C81.1572 17.2031 81.3177 17.2031 81.4721 17.2385C81.4701 17.1887 81.4857 17.1398 81.5163 17.1005C81.5469 17.0612 81.5904 17.0341 81.6392 17.0238C81.7421 16.9926 81.8364 16.938 81.9148 16.8643C81.6497 16.8315 81.3822 16.8222 81.1155 16.8367C80.9061 16.872 80.7074 16.9542 80.5342 17.0773ZM83.4573 14.2962C83.5013 14.2341 83.5207 14.1579 83.5116 14.0824C83.9463 13.8491 84.3614 13.581 84.7527 13.2806C85.1742 12.9599 85.5873 12.6211 85.9921 12.2642C86.1288 12.1674 86.2499 12.0502 86.3512 11.9168C86.4448 11.7897 86.5285 11.6557 86.6017 11.5159C86.6168 11.5172 86.632 11.5155 86.6463 11.5107C86.6607 11.506 86.6739 11.4984 86.6852 11.4883C86.7085 11.4689 86.7385 11.4592 86.7688 11.4616C86.8435 11.2121 86.9884 10.9895 87.1864 10.8202C87.3747 10.6561 87.5498 10.4774 87.71 10.2857L87.6557 10.2322C87.7108 10.1138 87.7851 10.0051 87.8754 9.9107C87.9661 9.80476 88.0241 9.67479 88.0424 9.53654C88.1526 9.53654 88.2161 9.50147 88.2353 9.42965C88.2545 9.35782 88.2812 9.32275 88.3188 9.32275C88.6441 8.68902 89.0026 8.0729 89.3929 7.47702C89.8068 6.79122 90.026 6.00558 90.0268 5.20454C89.9354 5.19778 89.8438 5.211 89.7581 5.24331C89.6724 5.27562 89.5948 5.32624 89.5307 5.39162C89.4673 5.45592 89.3879 5.50217 89.3007 5.52566C89.2135 5.54914 89.1217 5.54899 89.0346 5.52522C88.8943 5.57809 88.7433 5.59644 88.5945 5.5787C88.5005 5.74638 88.3537 5.87822 88.1769 5.95367C88.064 5.9806 87.9598 6.03546 87.8737 6.11319C87.8737 6.07811 87.8186 6.05974 87.7067 6.05974C87.6209 6.10821 87.5532 6.18325 87.5137 6.27356C87.4581 6.38157 87.357 6.38157 87.2106 6.27356C87.2218 6.37892 87.1919 6.48454 87.127 6.56837C87.0652 6.62473 86.9883 6.66187 86.9057 6.67526C86.8191 6.69249 86.7349 6.72055 86.6552 6.75878C86.6174 6.77916 86.5867 6.81047 86.567 6.84863C86.5473 6.88678 86.5396 6.92997 86.5449 6.97257L86.4347 6.86568C86.3612 6.9375 86.3428 6.9993 86.3796 7.05275C86.4163 7.1062 86.3796 7.1154 86.2693 7.07949V7.02604C86.1591 7.02604 86.1023 7.06195 86.1023 7.13294C86.0939 7.13905 86.087 7.14709 86.0822 7.15639C86.0775 7.16568 86.075 7.17595 86.075 7.18638C86.075 7.19682 86.0775 7.20709 86.0822 7.21638C86.087 7.22567 86.0939 7.23371 86.1023 7.23983C85.9446 7.39004 85.7975 7.55105 85.6622 7.72172C85.5474 7.86744 85.3945 7.97847 85.2204 8.04243C85.2189 8.02735 85.2206 8.01213 85.2253 7.99775C85.2301 7.98336 85.2378 7.97013 85.2479 7.9589C85.2584 7.94784 85.2663 7.93465 85.2712 7.92024C85.2761 7.90583 85.2779 7.89055 85.2763 7.87541C85.202 7.84033 85.1561 7.84867 85.1385 7.90212C85.121 7.95557 85.0918 7.98564 85.055 7.98564V7.93219C84.923 8.02949 84.7852 8.11874 84.6424 8.19945C84.5011 8.28531 84.394 8.41755 84.3393 8.57361C84.3752 8.60952 84.4119 8.60032 84.4487 8.54687C84.4854 8.49342 84.5046 8.50262 84.5046 8.57361C84.4628 8.7721 84.3562 8.95102 84.2015 9.08221C84.035 9.2033 83.8783 9.33735 83.7329 9.4831C83.7338 9.47572 83.7329 9.46826 83.7304 9.46128C83.7279 9.45429 83.7239 9.44797 83.7185 9.4428C83.7132 9.43764 83.7068 9.43376 83.6997 9.43148C83.6926 9.4292 83.6852 9.42858 83.6778 9.42965C83.7461 9.29145 83.8661 9.1858 84.0119 9.13568C84.158 9.08223 84.1789 8.98366 84.0662 8.84168C83.7393 9.11105 83.5236 9.49182 83.4607 9.9107C83.3823 9.90355 83.3039 9.92357 83.2385 9.96735C83.1731 10.0111 83.1248 10.076 83.1016 10.1512C83.0609 10.2928 82.9723 10.4159 82.851 10.4995C82.851 10.4277 82.8427 10.3926 82.8243 10.3926C82.8059 10.3926 82.7967 10.375 82.7967 10.3391C82.6703 10.7008 82.4519 11.0232 82.1628 11.2745C81.8736 11.5262 81.6549 11.8489 81.5281 12.2107V12.0504C81.3776 12.2556 81.2398 12.4698 81.1155 12.6918C80.9485 12.9783 80.7932 13.0852 80.647 13.0133C80.6484 13.0769 80.6388 13.1402 80.6186 13.2004C80.6026 13.2432 80.5936 13.2884 80.5919 13.334C80.4449 13.299 80.3622 13.3341 80.3413 13.441C80.3204 13.5479 80.2762 13.5662 80.2035 13.4944C80.2099 13.5408 80.2002 13.588 80.1759 13.628C80.1576 13.6464 80.1659 13.7116 80.2035 13.8151C80.519 13.8619 80.8098 14.0124 81.0303 14.2427C81.2601 14.471 81.5194 14.6676 81.8012 14.8273H82.3533V14.7739C82.3892 14.7029 82.4627 14.6762 82.5729 14.6904C82.6653 14.7106 82.7617 14.7012 82.8485 14.6636V14.829C83.0322 14.7583 83.1979 14.6959 83.3454 14.6419C83.5246 14.5694 83.6918 14.4703 83.8415 14.348C83.7665 14.3415 83.691 14.35 83.6193 14.3729C83.5477 14.3958 83.4812 14.4328 83.4239 14.4816C83.3669 14.5294 83.2988 14.5621 83.2258 14.5767C83.1528 14.5913 83.0774 14.5873 83.0063 14.5651C83.0411 14.477 83.104 14.4028 83.1853 14.3542C83.2665 14.3055 83.3616 14.2851 83.4557 14.2962H83.4573ZM80.2603 16.2221C80.2832 16.2417 80.3097 16.2565 80.3384 16.2657C80.3671 16.2749 80.3974 16.2782 80.4274 16.2755C80.5376 16.2755 80.5944 16.2404 80.5944 16.1686H80.3438C80.2495 16.1653 80.2219 16.187 80.2586 16.2221H80.2603ZM80.9218 12.1039C81.0331 12.1039 81.0888 11.9791 81.0888 11.7297L80.8959 11.9168C80.8374 11.9702 80.8458 12.0329 80.9201 12.1039H80.9218ZM81.2558 11.5693C81.2982 11.5291 81.3443 11.493 81.3936 11.4616C81.4487 11.4265 81.4387 11.3731 81.3661 11.3013C81.3661 11.3372 81.3285 11.3731 81.2558 11.4082C81.1832 11.4432 81.1765 11.4975 81.2508 11.5719L81.2558 11.5693ZM81.5899 9.64344C81.5532 9.64344 81.4972 9.67937 81.4229 9.75036C81.5991 9.75036 81.655 9.71526 81.5799 9.64344H81.5899ZM81.4796 17.4523C81.5531 17.4882 81.5991 17.4523 81.6175 17.3454C81.6236 17.2674 81.6526 17.193 81.701 17.1316H81.6459C81.6459 17.2744 81.6183 17.3186 81.5623 17.2652C81.5064 17.2117 81.4713 17.2744 81.4713 17.4523H81.4796ZM82.5812 17.0773C82.455 17.042 82.3216 17.042 82.1954 17.0773C82.0515 17.1134 81.9037 17.1316 81.7553 17.1316C81.9071 17.1413 82.056 17.1775 82.1954 17.2385C82.2302 17.2569 82.2686 17.2673 82.3079 17.269C82.3472 17.2706 82.3864 17.2635 82.4226 17.248C82.4588 17.2326 82.4911 17.2092 82.5171 17.1796C82.5431 17.1501 82.5622 17.1151 82.5729 17.0773H82.5812ZM83.464 7.98564V7.87875C83.1692 8.1293 82.8853 8.3598 82.6088 8.57361C82.3285 8.79294 82.0946 9.06574 81.9206 9.3762L83.464 7.98564ZM82.3065 10.1253C82.3221 10.0917 82.3453 10.0621 82.3743 10.0389C82.4032 10.0157 82.4372 9.99954 82.4735 9.99172C82.5055 9.98735 82.5346 9.97106 82.555 9.94612C82.5755 9.92119 82.5857 9.88944 82.5838 9.85725C82.5103 9.89316 82.4276 9.92907 82.3332 9.96414C82.2388 9.99922 82.2238 10.0535 82.2981 10.1253H82.3065ZM82.8569 10.3391C83.0038 10.3041 83.0782 10.1612 83.0782 9.9107C82.9985 9.9107 82.922 10.0535 82.8485 10.3391H82.8569ZM82.9679 14.6712C82.9688 14.6785 82.9679 14.686 82.9654 14.693C82.9629 14.7 82.9589 14.7063 82.9535 14.7115C82.9482 14.7166 82.9418 14.7205 82.9347 14.7228C82.9276 14.7251 82.9201 14.7257 82.9128 14.7246L82.9679 14.6712ZM82.9679 14.5643H83.0231C83.0072 14.5775 82.9941 14.5937 82.9846 14.6121C82.9751 14.6305 82.9695 14.6506 82.9679 14.6712V14.5643ZM84.0152 14.7781C83.9166 14.7349 83.8053 14.7301 83.7034 14.7648C83.6014 14.7994 83.516 14.8708 83.464 14.9651C83.4297 15.05 83.367 15.1204 83.2866 15.1643C83.2062 15.2082 83.113 15.2228 83.0231 15.2057C83.1773 15.3076 83.3649 15.3459 83.5467 15.3126C83.7276 15.2701 83.8967 15.1879 84.0419 15.072C84.2209 14.9361 84.387 14.784 84.538 14.6177C84.6905 14.4499 84.867 14.3055 85.0617 14.1893C84.829 14.194 84.605 14.279 84.4278 14.4298C84.2201 14.5907 84.0798 14.7068 84.0069 14.7781H84.0152ZM83.0782 9.43299C83.0782 9.4689 83.1416 9.433 83.2703 9.32609C83.3989 9.21919 83.4264 9.13065 83.3538 9.05799C83.2771 9.08822 83.2101 9.13882 83.1601 9.20432C83.11 9.26981 83.0788 9.34772 83.0698 9.42965L83.0782 9.43299ZM84.0695 8.47003C83.7354 8.57693 83.5742 8.7565 83.5742 9.00455C84.0763 8.4459 84.6296 7.9356 85.227 7.48035C85.8144 7.03493 86.4208 6.56169 87.046 6.06058C86.5071 6.40011 85.9914 6.77538 85.5027 7.18389C84.9826 7.61094 84.5021 8.03853 84.0612 8.46669L84.0695 8.47003ZM84.1255 6.38211C84.1614 6.48901 84.1255 6.54247 84.0152 6.54247L84.1255 6.38211ZM85.0617 6.38211C85.0801 6.32896 85.1092 6.28018 85.1473 6.23879C85.1854 6.19741 85.2316 6.16432 85.283 6.14158C85.3838 6.09348 85.4767 6.0304 85.5586 5.95451C85.4694 6.03464 85.3664 6.09802 85.2546 6.14158C85.1996 6.15422 85.1501 6.18445 85.1138 6.2277C85.0775 6.27096 85.0563 6.32489 85.0533 6.38129L85.0617 6.38211ZM85.0617 13.9771C85.1352 14.0122 85.1811 13.9855 85.1995 13.8936C85.2141 13.8322 85.2233 13.7696 85.227 13.7065C85.1112 13.7077 85.0533 13.7976 85.0533 13.9763L85.0617 13.9771ZM85.5586 5.41917C85.5274 5.48368 85.4799 5.53894 85.4208 5.57951C85.3612 5.61954 85.3136 5.67497 85.283 5.73988C85.3565 5.73988 85.4016 5.69561 85.4208 5.60625C85.44 5.51689 85.4843 5.49099 85.5586 5.52273V5.41917ZM85.6129 5.95451C85.7599 5.95451 85.8342 5.90023 85.8342 5.79332C85.7883 5.79249 85.7148 5.84593 85.6045 5.95367L85.6129 5.95451ZM85.7231 5.3699C85.8701 5.29919 85.9898 5.23684 86.0823 5.18283C86.173 5.13073 86.2571 5.06792 86.3328 4.99575C86.2585 4.96067 86.1574 4.99574 86.0288 5.10264C85.9002 5.20955 85.7883 5.29389 85.7148 5.36488L85.7231 5.3699ZM90.1879 3.76553C90.2241 3.76573 90.2598 3.77325 90.2929 3.7876C90.3261 3.80195 90.356 3.82285 90.3809 3.84905C90.4366 3.90473 90.5009 3.87689 90.5738 3.76553C90.5278 3.78516 90.4769 3.79055 90.4278 3.78103C90.3787 3.7715 90.3336 3.74749 90.2982 3.71208C90.2164 3.63775 90.1821 3.65363 90.1821 3.76053L90.1879 3.76553ZM90.522 11.2528C90.522 11.3246 90.5036 11.3597 90.4669 11.3597L90.522 11.2528ZM97.4673 12.6434C97.6126 12.6434 97.6869 12.5365 97.6869 12.3227C97.4954 12.4262 97.4183 12.5315 97.4556 12.6384L97.4673 12.6434ZM99.5059 10.8787C99.4397 10.9596 99.3908 11.0532 99.362 11.1537C99.3333 11.2543 99.3254 11.3596 99.3389 11.4633C99.3312 11.3945 99.3397 11.3249 99.3636 11.2599C99.3876 11.195 99.4263 11.1365 99.4767 11.0891C99.5577 11.0165 99.5677 10.9455 99.4942 10.8737L99.5059 10.8787ZM100.388 9.75535C100.388 9.72027 100.396 9.7019 100.415 9.7019C100.435 9.7019 100.425 9.66683 100.388 9.59501V9.75535Z" fill="#211915"/>
<path d="M97.1232 14.2443C97.1624 14.2233 97.1955 14.1926 97.2196 14.1552C97.2437 14.1178 97.258 14.0749 97.261 14.0305C97.2821 13.9409 97.2724 13.8467 97.2334 13.7633C97.3051 13.5928 97.3515 13.4127 97.3712 13.2288C97.3791 13.1433 97.412 13.0621 97.466 12.9954C97.52 12.9286 97.5925 12.8794 97.6744 12.8538C97.7847 12.7469 97.8122 12.6584 97.7579 12.5865C97.7036 12.5147 97.7487 12.4621 97.8957 12.4262C97.9678 12.2873 98.0322 12.1445 98.0886 11.9986C98.1438 11.8571 98.2294 11.7294 98.3392 11.6244C98.6687 10.8786 99.0461 10.155 99.4692 9.458C99.9285 8.69131 100.342 7.95136 100.709 7.23813C100.886 7.03338 101.052 6.81926 101.206 6.59672C101.35 6.38925 101.444 6.15111 101.481 5.90102H101.591C101.665 5.54523 101.913 5.4116 102.335 5.50013C102.755 5.58914 103.17 5.70521 103.576 5.84757C103.651 5.86701 103.72 5.90383 103.778 5.95505C103.836 6.00627 103.881 6.07045 103.91 6.14238C103.947 6.27265 103.966 6.40766 103.966 6.54327C103.931 6.55812 103.903 6.58566 103.887 6.62037C103.872 6.65508 103.87 6.69438 103.882 6.73035C103.901 6.8113 103.891 6.8963 103.855 6.97087C103.604 7.34765 103.418 7.76335 103.303 8.20107C103.188 8.63857 103.002 9.05417 102.752 9.43126C102.722 9.49613 102.674 9.55153 102.614 9.59163C102.555 9.63191 102.508 9.68724 102.477 9.75197C102.386 9.94775 102.321 10.1547 102.284 10.3675C102.216 10.6634 102.095 10.9443 101.925 11.196C101.631 11.7672 101.374 12.302 101.154 12.8004C100.934 13.2987 100.714 13.8515 100.493 14.459C100.403 14.9472 100.283 15.4294 100.134 15.903C100.077 16.1395 100.07 16.3852 100.113 16.6246C100.156 16.864 100.249 17.0918 100.385 17.2935C101.152 17.1064 101.899 16.8466 102.617 16.5177C103.259 16.2153 103.93 15.8855 104.629 15.528L106.117 14.459L106.557 14.1909L108.322 12.9072L109.809 11.7848C109.986 11.6587 110.17 11.5427 110.361 11.4373C110.55 11.3312 110.734 11.215 110.912 11.0891C111.279 10.804 111.573 10.5813 111.794 10.4209C112.014 10.2606 112.308 10.0554 112.675 9.80542C112.739 9.70759 112.825 9.62542 112.925 9.56489C113.017 9.51144 113.136 9.44964 113.284 9.37781L113.67 9.11058C113.721 9.01125 113.795 8.92554 113.886 8.8605C113.977 8.79546 114.083 8.75291 114.193 8.7364C114.316 8.71212 114.43 8.65429 114.523 8.56926C114.615 8.48422 114.682 8.37529 114.717 8.25451C114.863 8.29042 114.937 8.25452 114.937 8.14762C115.12 8.21944 115.188 8.30798 115.13 8.41488C115.073 8.52178 115.12 8.61115 115.268 8.68214C115.174 8.74508 115.105 8.83996 115.075 8.94937C115.036 9.03497 115.008 9.12502 114.992 9.21747C115.138 9.2893 115.23 9.20913 115.267 8.97695C115.303 8.74477 115.377 8.64706 115.488 8.68214C115.476 8.78161 115.457 8.88013 115.432 8.97695C115.395 9.1373 115.358 9.21747 115.321 9.21747C115.505 9.2893 115.543 9.3845 115.432 9.51144C115.381 9.55223 115.347 9.61042 115.337 9.67467C115.327 9.73891 115.342 9.8046 115.377 9.85889C115.328 9.91093 115.272 9.95614 115.21 9.99333C115.174 10.0109 115.136 10.0727 115.1 10.1804C115.026 10.1804 115.017 10.1453 115.073 10.0727C115.129 10 115.081 9.96578 114.935 9.96578C114.902 10.0303 114.865 10.0927 114.825 10.1529C114.773 10.2445 114.735 10.3437 114.714 10.4468C114.64 10.4468 114.612 10.4209 114.631 10.3675C114.647 10.3247 114.656 10.2796 114.658 10.2339C114.474 10.2339 114.382 10.2873 114.382 10.3942C114.305 10.4162 114.234 10.457 114.177 10.513C114.119 10.569 114.076 10.6384 114.052 10.7149C114.009 10.8711 113.934 11.0166 113.832 11.1425C113.72 11.1425 113.684 11.125 113.72 11.0891C113.757 11.0532 113.72 11.0356 113.611 11.0356C113.648 11.0715 113.619 11.1693 113.528 11.3296C113.437 11.488 113.336 11.6401 113.224 11.7848C113.113 11.9279 113.03 12.0437 112.974 12.1322C112.919 12.2216 112.927 12.1948 113.001 12.0487C112.927 12.0136 112.761 12.0849 112.505 12.2625C112.332 12.3763 112.166 12.5013 112.009 12.6366L111.348 13.2789C111.236 13.3507 111.043 13.4933 110.769 13.7065C110.495 13.9197 110.32 14.0623 110.245 14.1341L110.135 14.0807C110.137 14.0957 110.135 14.111 110.13 14.1254C110.125 14.1398 110.118 14.153 110.108 14.1642C110.084 14.204 110.074 14.2509 110.08 14.297C110.043 14.226 109.988 14.2134 109.913 14.2711C109.838 14.3287 109.839 14.3872 109.913 14.4581H109.746C109.691 14.5931 109.617 14.7192 109.525 14.8323C109.368 15.0556 109.16 15.2389 108.919 15.3676V15.153C108.845 15.1179 108.809 15.1263 108.809 15.1797C108.809 15.2332 108.772 15.2783 108.699 15.3133H108.866C108.829 15.4562 108.774 15.5372 108.699 15.5547C108.625 15.5723 108.532 15.599 108.423 15.6382C108.386 15.6382 108.395 15.6207 108.451 15.5848C108.507 15.5489 108.497 15.5313 108.423 15.5313C108.35 15.6032 108.267 15.6917 108.172 15.7994C108.084 15.9026 107.982 15.9926 107.868 16.0667C107.794 15.9598 107.731 15.9422 107.676 16.0132C107.625 16.0812 107.559 16.1361 107.483 16.1736L107.207 16.2805C107.097 16.3523 106.995 16.4233 106.904 16.4943C106.781 16.5791 106.639 16.634 106.491 16.6546C106.455 16.7206 106.436 16.7942 106.435 16.8693C106.428 16.8704 106.421 16.8698 106.413 16.8675C106.406 16.8652 106.4 16.8613 106.395 16.8561C106.39 16.8509 106.386 16.8446 106.383 16.8376C106.381 16.8306 106.38 16.8231 106.381 16.8158C106.381 16.7807 106.343 16.7807 106.27 16.8158C106.196 16.8868 106.103 16.9678 105.994 17.0563C105.865 17.1542 105.714 17.2185 105.554 17.2434C105.411 17.4895 105.187 17.6784 104.92 17.7779C104.645 17.8848 104.359 17.9917 104.066 18.0986C103.661 18.3664 103.214 18.564 102.743 18.6833C102.338 18.7545 101.897 18.8347 101.42 18.9238C100.91 19.0131 100.389 19.0221 99.8767 18.9505C99.5093 18.8787 99.151 18.8252 98.8019 18.7902C98.5239 18.7745 98.2521 18.7017 98.0035 18.5764C97.7526 18.405 97.5371 18.1869 97.3687 17.9341C97.2017 17.6852 97.0642 17.4714 96.9562 17.2927C96.8451 17.2576 96.7891 17.2042 96.7891 17.1324C96.7689 17.0255 96.7093 16.9301 96.6221 16.8651C96.6221 16.83 96.6321 16.8116 96.6505 16.8116C96.6689 16.8116 96.678 16.7766 96.678 16.7039C96.6045 16.7766 96.5486 16.8116 96.511 16.8116C96.4723 16.7418 96.4594 16.6606 96.4746 16.5822C96.4899 16.5038 96.5324 16.4334 96.5945 16.3832C96.724 16.2763 96.7323 16.1327 96.6221 15.9556C96.5333 16.0794 96.4942 16.232 96.5127 16.3832C96.4749 16.3445 96.4456 16.2985 96.4266 16.2478C96.4076 16.1972 96.3994 16.1432 96.4024 16.0892C96.4024 15.9648 96.4768 15.9022 96.6221 15.9022C96.6359 15.6378 96.7115 15.3804 96.8426 15.1505C96.782 15.1456 96.722 15.1648 96.6755 15.204C96.7038 15.0425 96.7804 14.8934 96.8952 14.7764C96.9513 14.7206 96.9951 14.6538 97.0239 14.5802C97.0526 14.5065 97.0657 14.4277 97.0622 14.3487C96.9887 14.3487 96.9612 14.3847 96.9787 14.4556C96.9963 14.5266 96.9887 14.5625 96.952 14.5625C96.8785 14.3849 96.952 14.153 97.1725 13.8668C97.2084 13.8668 97.2268 13.8318 97.2268 13.7599C97.2192 13.8505 97.1802 13.9356 97.1165 14.0005C97.0992 14.0159 97.0854 14.035 97.0762 14.0563C97.067 14.0776 97.0625 14.1007 97.0632 14.124C97.0638 14.1472 97.0695 14.17 97.0799 14.1908C97.0902 14.2116 97.105 14.2299 97.1232 14.2443ZM106.272 1.99662C106.199 2.03253 106.181 2.05923 106.218 2.08011C106.256 2.10099 106.236 2.14359 106.162 2.21458C105.979 2.35387 105.836 2.53798 105.745 2.7491C105.705 2.85002 105.63 2.93295 105.534 2.98221C105.437 3.03147 105.326 3.0436 105.221 3.01634C105.037 3.08867 104.882 3.22032 104.781 3.39049C104.667 3.40599 104.55 3.3874 104.447 3.33704C104.411 3.30197 104.355 3.24853 104.28 3.1767C104.096 3.1767 103.985 3.23014 103.946 3.33704C103.671 3.25295 103.403 3.14566 103.146 3.01634C102.944 2.90944 102.714 2.80253 102.457 2.69563C102.456 2.37844 102.503 2.0629 102.595 1.75943C102.686 1.4571 102.954 1.34183 103.394 1.41199C103.467 1.341 103.523 1.30509 103.561 1.30509C103.604 1.30248 103.643 1.28328 103.672 1.25165C104.069 1.27745 104.46 1.36769 104.828 1.51888C105.215 1.67452 105.625 1.76484 106.042 1.78614C105.978 1.92394 106.05 1.99493 106.272 1.99493V1.99662ZM107.817 15.7426C107.897 15.739 107.974 15.7098 108.037 15.6591C108.11 15.6034 108.11 15.5408 108.037 15.4712L107.817 15.7426ZM113.713 10.8218C113.58 10.8489 113.462 10.9253 113.383 11.0356C113.365 11.0601 113.352 11.088 113.345 11.1175C113.338 11.1471 113.337 11.1778 113.343 11.2077C113.348 11.2376 113.359 11.2662 113.375 11.2917C113.392 11.3172 113.413 11.3392 113.438 11.3563C113.443 11.2943 113.46 11.2339 113.489 11.1787C113.517 11.1236 113.557 11.0749 113.605 11.0356C113.637 11.0089 113.663 10.976 113.681 10.939C113.7 10.9019 113.711 10.8615 113.713 10.8202V10.8218ZM114.265 10.5546C114.228 10.5195 114.246 10.5011 114.32 10.5011L114.265 10.5546Z" fill="#211915"/>
<path d="M123.91 19.5385H123.938C123.993 19.5385 123.983 19.5017 123.91 19.4307C123.838 19.3597 123.698 19.4224 123.493 19.6178L123.075 20.0195C123.001 20.0195 122.965 19.9661 122.965 19.8583C122.848 19.9958 122.696 20.0979 122.524 20.1531C122.428 20.1975 122.323 20.2183 122.218 20.2137C122.112 20.209 122.009 20.1791 121.918 20.1264C121.734 20.3043 121.604 20.3937 121.532 20.3937C121.334 20.3379 121.131 20.3021 120.925 20.2868C120.72 20.271 120.517 20.2352 120.319 20.1799C120.321 20.209 120.318 20.2382 120.308 20.2657C120.299 20.2933 120.284 20.3186 120.264 20.3402C120.264 20.3753 120.32 20.3753 120.431 20.3402C120.541 20.3043 120.578 20.3402 120.541 20.4471C120.311 20.4816 120.076 20.4633 119.853 20.3937C119.614 20.3218 119.347 20.2506 119.054 20.1799C119.054 20.144 119.062 20.1264 119.081 20.1264C119.099 20.1264 119.108 20.108 119.108 20.073V20.0195C118.535 19.9856 117.978 19.815 117.484 19.5219C116.99 19.2289 116.573 18.8219 116.269 18.335C115.649 17.278 115.409 16.041 115.588 14.829C115.731 13.6487 116.157 12.5204 116.828 11.5392C117.47 10.6306 118.048 9.76588 118.564 8.94519C118.058 8.96272 117.557 9.05302 117.076 9.21329C116.482 9.39297 115.874 9.51821 115.257 9.58744C115.034 9.62363 114.906 9.66818 114.871 9.72107C114.84 9.75923 114.821 9.80571 114.816 9.8547C114.816 9.89061 114.797 9.90815 114.76 9.90815C114.611 9.88277 114.464 9.84706 114.32 9.80125C114.246 9.83744 114.163 9.8096 114.07 9.71773C113.978 9.6292 113.894 9.60247 113.819 9.63421C113.635 9.70603 113.589 9.67819 113.681 9.55069C113.726 9.48204 113.748 9.40081 113.743 9.31898C113.738 9.23716 113.706 9.15908 113.654 9.09635C113.518 9.03933 113.403 8.9421 113.324 8.81772C113.245 8.69334 113.206 8.5478 113.213 8.40067C113.213 8.07997 113.268 7.93797 113.38 7.97305C113.267 7.41331 113.296 6.8344 113.463 6.28852C113.624 5.77973 113.866 5.30029 114.18 4.86875C114.486 4.44827 114.837 4.06286 115.227 3.71955C115.613 3.38159 115.971 3.06951 116.302 2.78333C116.641 2.78506 116.977 2.84845 117.293 2.9704C117.627 3.09568 117.991 3.24685 118.397 3.42474C118.543 3.53248 118.672 3.63019 118.782 3.71955C118.9 3.82342 118.978 3.96526 119.002 4.12044L118.782 4.97648C118.71 5.0096 118.651 5.06609 118.615 5.13682C118.583 5.18131 118.542 5.21857 118.495 5.24619C118.447 5.27381 118.394 5.29118 118.34 5.29719C118.329 5.42344 118.292 5.54597 118.23 5.65669C118.168 5.7674 118.084 5.86376 117.982 5.93942C117.743 6.15239 117.513 6.3495 117.293 6.52405C117.213 6.5487 117.141 6.5901 117.079 6.64544C117.017 6.70078 116.968 6.76877 116.935 6.84475C116.865 7.0074 116.762 7.15321 116.631 7.27235C116.425 7.39696 116.255 7.57203 116.136 7.78098C116.033 7.98441 115.903 8.17316 115.75 8.34221C116.144 8.37957 116.541 8.37957 116.935 8.34221C117.135 8.31812 117.33 8.26405 117.513 8.18184C117.66 8.11057 117.826 8.03932 118.01 7.96805C118.315 7.86842 118.628 7.79684 118.946 7.75424C119.257 7.82348 119.582 7.80498 119.883 7.70079C120.105 7.9513 120.355 8.1755 120.628 8.36894C120.903 8.56549 121.169 8.77037 121.427 8.98362C121.464 9.25879 121.464 9.53776 121.427 9.81293C121.396 9.99342 121.331 10.1662 121.234 10.3216C121.134 10.473 121.023 10.616 120.9 10.7492C120.743 10.9297 120.605 11.1255 120.487 11.3338C120.339 11.5843 120.21 11.8162 120.101 12.0295C119.977 12.2572 119.806 12.4564 119.6 12.6141C119.555 12.9209 119.44 13.2135 119.266 13.4701C119.087 13.747 118.921 14.0327 118.771 14.3262C118.555 15.0157 118.398 15.7223 118.301 16.4383C118.195 17.0528 118.302 17.6852 118.605 18.2306C119.009 18.3369 119.367 18.426 119.68 18.4979C120.035 18.5691 120.4 18.5691 120.755 18.4979C120.828 18.4611 120.937 18.4077 121.089 18.3367C121.192 18.2793 121.306 18.2432 121.423 18.2306V18.203C121.423 18.1496 121.46 18.1195 121.533 18.1195C121.954 18.1005 122.359 17.9507 122.691 17.6911C123.05 17.4314 123.438 17.2158 123.849 17.0488C123.956 16.9802 124.068 16.9178 124.183 16.8617C124.291 16.81 124.402 16.7656 124.517 16.729C124.7 16.693 124.801 16.6455 124.82 16.5945C124.839 16.5436 124.92 16.4968 125.07 16.4609C125.119 16.3739 125.197 16.3074 125.291 16.2738C125.327 16.2656 125.361 16.2493 125.39 16.2262C125.419 16.203 125.442 16.1736 125.458 16.1402C125.578 16.0624 125.69 15.9728 125.792 15.8729C125.901 15.7447 126.031 15.636 126.177 15.5514C126.398 15.3743 126.682 15.1338 127.032 14.8298C127.333 14.563 127.656 14.3213 127.996 14.1074C128.18 13.9654 128.593 13.6536 129.237 13.172C129.865 12.7029 130.447 12.1747 130.973 11.5944C131.156 11.4156 131.285 11.2912 131.359 11.2194C131.423 11.1542 131.497 11.1 131.579 11.059C131.652 11.0239 131.735 10.9755 131.829 10.9254L132.247 10.6848C132.321 10.507 132.393 10.3291 132.467 10.1504C132.558 9.94731 132.689 9.76506 132.853 9.61499C133.132 9.59527 133.409 9.55054 133.68 9.48136C134.084 9.39283 134.305 9.45466 134.342 9.66846C134.342 9.81128 134.305 9.88225 134.231 9.88225C134.283 10.0978 134.272 10.3237 134.197 10.5327C134.123 10.7416 133.99 10.9245 133.814 11.059C133.491 11.3438 133.204 11.6672 132.959 12.022C132.89 12.0861 132.842 12.1701 132.822 12.2625C132.808 12.3134 132.783 12.3609 132.75 12.4022C132.716 12.4435 132.675 12.4778 132.629 12.503C132.547 12.6186 132.455 12.726 132.353 12.8237L131.912 13.2522C131.703 13.382 131.525 13.5551 131.388 13.7599C131.262 13.9471 131.078 14.0878 130.865 14.1608C130.608 14.4476 130.387 14.6884 130.204 14.8832C130.021 15.0781 129.846 15.2563 129.681 15.4177C129.515 15.5791 129.34 15.7311 129.157 15.8729C128.948 16.032 128.726 16.1749 128.495 16.3005C128.421 16.3723 128.293 16.4876 128.11 16.648C127.927 16.8083 127.732 16.982 127.531 17.1566C127.33 17.3311 127.145 17.4957 126.979 17.6376C126.87 17.7397 126.75 17.8293 126.621 17.9049C125.923 18.3676 125.354 18.7153 124.913 18.948C124.472 19.1793 124.269 19.3305 124.306 19.4023C124.249 19.399 124.192 19.4081 124.139 19.4291C124.09 19.475 124.021 19.5059 123.91 19.5385ZM116.415 4.99068C116.31 5.16447 116.156 5.3038 115.973 5.39157C115.771 5.49709 115.6 5.65373 115.478 5.84588C115.661 5.7039 115.845 5.57029 116.029 5.44501C116.2 5.33538 116.334 5.17717 116.415 4.99068Z" fill="#211915"/>
<path d="M155.603 12.908C155.505 12.8938 155.406 12.9093 155.317 12.9523C155.229 12.9954 155.155 13.064 155.106 13.1494C154.958 13.346 154.811 13.533 154.665 13.7106C154.672 13.6538 154.691 13.5991 154.721 13.5503C154.433 13.7579 154.157 13.9809 153.894 14.2184C153.635 14.45 153.36 14.7084 153.067 14.9934H152.957V14.94C152.882 15.0118 152.8 15.1004 152.706 15.2073C152.691 15.2316 152.67 15.2524 152.646 15.2684C152.622 15.2844 152.595 15.2953 152.566 15.3003C152.538 15.3053 152.509 15.3044 152.481 15.2976C152.452 15.2907 152.426 15.2782 152.403 15.2607C152.236 15.3505 152.093 15.4788 151.985 15.6349C151.946 15.7009 151.894 15.7585 151.833 15.8045C151.771 15.8505 151.702 15.884 151.627 15.903C151.443 16.0817 151.293 16.2153 151.186 16.3038L150.691 16.7047C150.691 16.6696 150.653 16.6513 150.58 16.6513C150.384 16.8363 150.132 16.9494 149.863 16.972C149.489 17.1675 149.13 17.3908 148.788 17.6401C148.514 17.8587 148.175 17.9808 147.824 17.9875C147.583 18.0095 147.344 18.0452 147.108 18.0944C146.945 18.1313 146.775 18.1313 146.612 18.0944C146.233 18.1119 145.86 18.1935 145.509 18.3358C145.163 18.4925 144.773 18.522 144.407 18.4193C144.372 18.3336 144.32 18.256 144.253 18.1916C144.187 18.1272 144.107 18.0773 144.02 18.0452C143.851 17.9456 143.677 17.8564 143.497 17.7779C143.405 17.7297 143.325 17.6614 143.263 17.5782C143.201 17.4949 143.159 17.3987 143.139 17.2968C142.73 17.0413 142.419 16.6548 142.257 16.2003C142.063 15.6687 141.961 15.1082 141.954 14.5425C141.938 13.8887 141.984 13.2348 142.092 12.5898C142.2 11.9222 142.347 11.2615 142.533 10.6113C141.989 11.0316 141.49 11.5074 141.045 12.0311C140.567 12.584 140.089 13.1099 139.612 13.6087C139.447 13.903 139.243 14.173 139.005 14.4113C138.786 14.6251 138.564 14.8214 138.344 14.996C137.719 15.7103 137.131 16.3344 136.58 16.8684C136.581 16.8834 136.58 16.8986 136.575 16.9129C136.571 16.9273 136.563 16.9406 136.553 16.9519C136.519 16.992 136.491 17.0367 136.47 17.0847C136.176 17.2991 135.845 17.5496 135.478 17.8364C135.125 18.1123 134.746 18.3542 134.348 18.5588C133.97 18.752 133.558 18.8699 133.136 18.9062C132.666 18.9267 132.205 18.7743 131.84 18.4778C131.742 18.4741 131.644 18.451 131.555 18.4097C131.465 18.3684 131.384 18.3098 131.317 18.2372C131.203 18.0942 131.061 17.976 130.899 17.8898C130.739 17.8376 130.59 17.754 130.463 17.6438C130.335 17.5337 130.23 17.3993 130.155 17.2484C130.042 16.8839 129.977 16.5063 129.962 16.1251C129.932 15.8017 129.96 15.4755 130.046 15.1621C130.124 14.8102 130.244 14.469 130.404 14.1458C130.584 13.4757 130.863 12.8359 131.231 12.2474C131.598 11.6589 131.947 11.1152 132.278 10.6163C132.903 9.79619 133.537 9.03843 134.18 8.34301C134.823 7.6476 135.493 6.96109 136.191 6.28349C136.433 6.16314 136.664 6.01996 136.88 5.85589C137.124 5.67522 137.393 5.53114 137.679 5.42826C137.783 5.46094 137.894 5.4658 138 5.44235C138.106 5.41891 138.205 5.368 138.285 5.29466C138.507 5.1343 138.69 5.17938 138.837 5.42826C139.543 5.48255 140.234 5.66392 140.876 5.96362C141.163 6.09977 141.418 6.29349 141.627 6.53273C141.836 6.77196 141.993 7.05156 142.089 7.35416C142.345 7.17543 142.584 7.0148 142.805 6.87227C143.027 6.7299 143.268 6.62178 143.522 6.55156C143.635 6.51329 143.732 6.43799 143.797 6.33777C143.87 6.23004 143.944 6.17659 144.017 6.17659C144.193 6.1401 144.374 6.14032 144.55 6.17726C144.725 6.21419 144.892 6.28704 145.038 6.39122C145.327 6.59221 145.631 6.77088 145.947 6.92572C145.965 6.90839 145.988 6.89666 146.012 6.89192C146.037 6.88717 146.062 6.88963 146.085 6.899C146.169 6.91546 146.257 6.90614 146.336 6.87227C146.409 6.97917 146.463 7.05934 146.503 7.11279C146.549 7.18849 146.586 7.26954 146.613 7.35416C146.678 8.06002 146.593 8.77166 146.362 9.44208C146.165 10.0932 145.897 10.7208 145.563 11.3137C145.415 12.1344 145.213 13.0252 144.956 13.9862C144.701 14.8019 144.682 15.6733 144.902 16.4993C146.028 16.4044 147.123 16.0864 148.125 15.5639C148.988 15.0823 149.861 14.609 150.744 14.1441C151.078 13.8952 151.381 13.6814 151.653 13.5027C151.949 13.3071 152.218 13.0732 152.452 12.807C152.494 12.8102 152.534 12.8293 152.563 12.8604V12.9139C152.979 12.785 153.358 12.5556 153.665 12.2458C154.216 11.8003 154.777 11.3368 155.346 10.8552C155.916 10.3736 156.449 9.9546 156.945 9.59826C157.441 9.24248 157.724 9.11721 157.798 9.22411C157.834 9.25897 157.881 9.28058 157.931 9.28543C157.981 9.29028 158.032 9.2781 158.074 9.25084C158.115 9.22562 158.161 9.21008 158.209 9.20545C158.256 9.20082 158.305 9.2072 158.349 9.22411C158.385 9.29593 158.395 9.34937 158.378 9.38445C158.369 9.40257 158.366 9.42344 158.371 9.44312C158.377 9.4628 158.389 9.47995 158.405 9.49137V9.38445C158.441 9.38445 158.441 9.42955 158.405 9.51808C158.369 9.60661 158.331 9.69681 158.294 9.78534C158.27 9.85428 158.233 9.91783 158.184 9.97242C158.147 10.0083 158.147 9.97242 158.184 9.86552L157.934 10.106L157.683 10.3474C157.63 10.4694 157.584 10.5943 157.545 10.7216C157.507 10.8489 157.461 10.9738 157.407 11.0957C157.33 11.105 157.252 11.086 157.188 11.0423C157.132 11.1982 157.025 11.3303 156.884 11.4164C156.734 11.5172 156.626 11.6697 156.581 11.8449C156.507 11.8449 156.434 11.9342 156.36 12.1121L155.603 12.908ZM140.555 8.30876C140.496 7.89248 140.354 7.49229 140.138 7.13201C139.936 6.8113 139.577 6.77568 139.063 7.02512L138.181 7.98805C138.112 8.09093 138.017 8.17385 137.905 8.22857C137.804 8.27597 137.711 8.33914 137.63 8.41568C137.544 8.50371 137.47 8.60252 137.409 8.70965C137.326 8.84902 137.234 8.98316 137.134 9.11135L136.362 9.96658C135.932 10.5029 135.536 11.0655 135.177 11.6511C134.792 12.2758 134.452 12.8732 134.158 13.4434C134.088 13.6153 133.995 13.7771 133.882 13.9244C133.749 14.1184 133.656 14.3366 133.607 14.5667C133.532 14.5316 133.497 14.5399 133.497 14.5934C133.497 14.6468 133.477 14.656 133.441 14.6201C133.382 14.9733 133.251 15.3105 133.055 15.6098C132.859 15.921 132.763 16.2847 132.779 16.6521C133.073 16.4742 133.386 16.2963 133.716 16.1176C134.018 15.9608 134.297 15.7626 134.544 15.5288C135.609 14.5316 136.629 13.4888 137.603 12.4003C138.577 11.3118 139.542 10.1982 140.496 9.05959C140.61 8.98487 140.704 8.88408 140.772 8.76559C140.83 8.65386 140.929 8.56808 141.047 8.52507V8.41817C140.9 8.32681 140.727 8.2874 140.555 8.30626V8.30876Z" fill="#211915"/>
<path d="M94.2971 27.2421C97.8989 27.207 101.4 28.4315 104.195 30.7038L100.279 35.3073C98.687 33.8456 96.6064 33.031 94.4449 33.0231C90.3459 33.0231 87.7234 35.8059 87.7234 40.1596C87.7234 44.586 90.2715 47.3671 94.4449 47.3671C95.5332 47.3788 96.613 47.1734 97.6211 46.763C98.6292 46.3526 99.5454 45.7454 100.316 44.9768L104.454 49.1869C101.627 51.8076 97.8927 53.2278 94.039 53.1481C86.0614 53.1481 80.5585 47.5817 80.5585 40.1596C80.5585 32.8444 86.2836 27.2421 94.2971 27.2421Z" fill="#211915"/>
<path d="M105.153 27.7064H112.314V52.6837H105.15L105.153 27.7064Z" fill="#211915"/>
<path d="M114.276 27.7064H121.034L130.71 41.9042V27.7064H137.432V52.6837H130.71L121 38.5535V52.6837H114.278L114.276 27.7064Z" fill="#211915"/>
<path d="M139.389 27.7064H158.887V33.6294H146.516V37.4478H157.447V42.5857H146.516V46.7615H159V52.6854H139.39L139.389 27.7064Z" fill="#211915"/>
<path d="M23.2927 37.0168C22.5583 37.017 21.8402 36.7994 21.2295 36.3914C20.6187 35.9835 20.1427 35.4036 19.8615 34.725C19.5804 34.0465 19.5068 33.2998 19.65 32.5795C19.7933 31.8591 20.1469 31.1974 20.6663 30.6781C21.1856 30.1587 21.8473 29.8051 22.5677 29.6618C23.288 29.5186 24.0347 29.5922 24.7132 29.8733C25.3918 30.1545 25.9717 30.6305 26.3796 31.2413C26.7876 31.852 27.0052 32.5701 27.005 33.3045C27.0039 34.2888 26.6125 35.2324 25.9165 35.9283C25.2206 36.6243 24.2769 37.0157 23.2927 37.0168ZM23.2927 31.4479C22.9255 31.4478 22.5664 31.5565 22.261 31.7604C21.9556 31.9643 21.7175 32.2542 21.5769 32.5935C21.4362 32.9327 21.3993 33.306 21.4709 33.6662C21.5424 34.0264 21.7192 34.3573 21.9788 34.617C22.2384 34.8767 22.5692 35.0537 22.9294 35.1254C23.2895 35.1971 23.6629 35.1603 24.0022 35.0198C24.3415 34.8793 24.6315 34.6414 24.8355 34.3361C25.0396 34.0307 25.1484 33.6718 25.1484 33.3045C25.1478 32.8126 24.9521 32.3409 24.6042 31.993C24.2563 31.6452 23.7847 31.4494 23.2927 31.4488V31.4479Z" fill="#C12A38"/>
<path d="M23.2927 40.73C21.8238 40.7302 20.3879 40.2947 19.1665 39.4788C17.9452 38.6628 16.9932 37.503 16.431 36.146C15.8688 34.789 15.7217 33.2957 16.0082 31.8551C16.2947 30.4145 17.002 29.0911 18.0407 28.0525C19.0793 27.0139 20.4026 26.3066 21.8433 26.02C23.2839 25.7335 24.7772 25.8807 26.1342 26.4428C27.4912 27.005 28.651 27.957 29.467 29.1784C30.2829 30.3997 30.7183 31.8357 30.7182 33.3045H28.8616C28.8618 32.2029 28.5352 31.1259 27.9233 30.2098C27.3113 29.2938 26.4415 28.5798 25.4237 28.1581C24.4059 27.7364 23.286 27.6261 22.2055 27.841C21.125 28.0558 20.1324 28.5863 19.3535 29.3653C18.5745 30.1443 18.044 31.1368 17.8291 32.2173C17.6142 33.2978 17.7246 34.4178 18.1462 35.4355C18.5679 36.4533 19.2819 37.3231 20.198 37.9351C21.1141 38.547 22.191 38.8736 23.2927 38.8734V40.73Z" fill="#C12A38"/>
<path d="M36.288 37.0168C35.5535 37.0168 34.8356 36.799 34.2249 36.391C33.6143 35.9829 33.1384 35.403 32.8574 34.7244C32.5764 34.0459 32.5029 33.2993 32.6462 32.579C32.7895 31.8587 33.1433 31.197 33.6627 30.6778C34.182 30.1585 34.8437 29.8049 35.5641 29.6618C36.2844 29.5186 37.031 29.5922 37.7095 29.8734C38.388 30.1546 38.9678 30.6306 39.3757 31.2414C39.7837 31.8521 40.0013 32.5701 40.0011 33.3045C40 34.2889 39.6084 35.2326 38.9123 35.9286C38.2161 36.6246 37.2723 37.0159 36.288 37.0168ZM36.288 31.4479C35.9208 31.4479 35.5618 31.5568 35.2565 31.7608C34.9512 31.9648 34.7132 32.2548 34.5727 32.594C34.4322 32.9333 34.3954 33.3066 34.467 33.6667C34.5387 34.0268 34.7155 34.3577 34.9752 34.6173C35.2348 34.877 35.5656 35.0538 35.9258 35.1254C36.2859 35.197 36.6592 35.1603 36.9984 35.0198C37.3377 34.8792 37.6276 34.6413 37.8316 34.336C38.0357 34.0306 38.1445 33.6717 38.1445 33.3045C38.1436 32.8125 37.9477 32.3408 37.5997 31.993C37.2517 31.6451 36.78 31.4494 36.288 31.4488V31.4479Z" fill="#C12A38"/>
<path d="M36.288 40.73C34.8191 40.73 33.3833 40.2944 32.162 39.4784C30.9407 38.6623 29.9889 37.5024 29.4268 36.1454C28.8648 34.7884 28.7178 33.2952 29.0044 31.8546C29.291 30.414 29.9984 29.0907 31.0371 28.0522C32.0757 27.0136 33.399 26.3064 34.8397 26.02C36.2803 25.7335 37.7735 25.8807 39.1304 26.4429C40.4874 27.0051 41.6472 27.9571 42.4631 29.1785C43.279 30.3998 43.7144 31.8357 43.7143 33.3045C43.7123 35.2734 42.9292 37.1611 41.5369 38.5532C40.1446 39.9454 38.2568 40.7282 36.288 40.73ZM36.288 27.7348C35.1864 27.7348 34.1095 28.0615 33.1936 28.6735C32.2776 29.2855 31.5638 30.1553 31.1422 31.1731C30.7206 32.1908 30.6103 33.3107 30.8252 34.3911C31.0401 35.4716 31.5706 36.464 32.3496 37.2429C33.1285 38.0219 34.1209 38.5523 35.2014 38.7672C36.2818 38.9821 37.4017 38.8718 38.4194 38.4503C39.4371 38.0287 40.307 37.3148 40.919 36.3989C41.531 35.483 41.8577 34.4061 41.8577 33.3045C41.8561 31.8278 41.2688 30.412 40.2246 29.3678C39.1804 28.3236 37.7647 27.7363 36.288 27.7348Z" fill="#C12A38"/>
<path d="M42.7855 61.1516H16.7943C16.3021 61.1509 15.8303 60.9551 15.4822 60.6071C15.1342 60.259 14.9384 59.7872 14.9377 59.295V40.73C14.9386 40.2379 15.1345 39.7662 15.4825 39.4182C15.8304 39.0702 16.3022 38.8744 16.7943 38.8735H42.7855C43.2777 38.8744 43.7494 39.0702 44.0974 39.4182C44.4454 39.7662 44.6412 40.2379 44.6421 40.73V44.4432H42.7855V40.73H16.7943V59.295H42.778C42.763 59.2891 42.7855 59.2282 42.7855 59.1213V50.0129H44.6421V59.1213C44.659 59.3777 44.6238 59.6349 44.5387 59.8774C44.4535 60.1199 44.3203 60.3427 44.1468 60.5324C43.9734 60.722 43.7634 60.8747 43.5295 60.9811C43.2955 61.0875 43.0425 61.1455 42.7855 61.1516Z" fill="#C12A38"/>
<path d="M21.4353 55.5819H19.5787V57.4385H21.4353V55.5819Z" fill="#C12A38"/>
<path d="M29.7895 55.5819H23.2919V57.4385H29.7895V55.5819Z" fill="#C12A38"/>
<path d="M52.9963 54.6539C52.7899 54.6574 52.5845 54.6226 52.3908 54.5512L52.2839 54.5052L45.3453 50.9408H15.8639V49.0842H45.793L53.023 52.799L52.9938 41.6587L45.793 45.371H15.8664V43.5153H45.3478L52.2121 39.9775C52.4589 39.8641 52.7271 39.8043 52.9988 39.8021C53.491 39.8028 53.9628 39.9986 54.3109 40.3466C54.6589 40.6947 54.8547 41.1665 54.8554 41.6587V52.7973C54.8547 53.29 54.6585 53.7622 54.31 54.1103C53.9614 54.4584 53.4889 54.6539 52.9963 54.6539Z" fill="#C12A38"/>
<path d="M46.4987 44.4432H44.6421V50.0129H46.4987V44.4432Z" fill="#C12A38"/>
<path d="M38.1445 64.8647H23.2927C22.8004 64.8643 22.3285 64.6685 21.9804 64.3204C21.6323 63.9724 21.4366 63.5004 21.4361 63.0081V60.2237H23.2927V63.0081H38.1445V60.2237H40.0011V63.0081C40.0004 63.5003 39.8046 63.9722 39.4565 64.3202C39.1085 64.6682 38.6367 64.8641 38.1445 64.8647Z" fill="#C12A38"/>
<path d="M12.1532 51.8695C11.6611 51.8686 11.1894 51.6727 10.8414 51.3247C10.4934 50.9767 10.2975 50.505 10.2966 50.0129V44.4432C10.2968 44.1372 10.3724 43.8361 10.517 43.5664C10.6615 43.2968 10.8704 43.067 11.125 42.8975C11.3797 42.7281 11.6723 42.6241 11.9768 42.5949C12.2814 42.5657 12.5884 42.6122 12.8706 42.7302L16.1712 43.8761L15.5616 45.6299L12.21 44.4607L12.1532 50.0095L15.5774 48.8946L16.152 50.6602L12.7278 51.7743C12.5436 51.8403 12.3489 51.8725 12.1532 51.8695Z" fill="#C12A38"/>
<path d="M24.0034 63.5762L20.2315 72.5686L21.9428 73.2864L25.7147 64.2941L24.0034 63.5762Z" fill="#C12A38"/>
<path d="M28.6439 63.5767L24.872 72.5691L26.5833 73.2869L30.3552 64.2945L28.6439 63.5767Z" fill="#C12A38"/>
<path d="M37.5199 63.5774L35.8085 64.295L39.5797 73.2877L41.2911 72.5701L37.5199 63.5774Z" fill="#C12A38"/>
<path d="M32.8792 63.5774L31.1678 64.295L34.9389 73.2877L36.6503 72.5701L32.8792 63.5774Z" fill="#C12A38"/>
<path d="M21.8271 61.8629L17.6925 64.7992L18.7675 66.3129L22.9021 63.3766L21.8271 61.8629Z" fill="#C12A38"/>
<path d="M13.082 72.2884C12.4981 72.2876 11.9293 72.1032 11.4559 71.7615C10.9825 71.4197 10.6284 70.9379 10.4438 70.384C10.2591 69.83 10.2532 69.2321 10.4269 68.6747C10.6006 68.1172 10.9451 67.6285 11.4116 67.2774L15.1248 64.493C15.5386 64.1831 16.0305 63.9945 16.5454 63.9483C17.0603 63.9021 17.5779 64.0002 18.0403 64.2314C18.5026 64.4627 18.8915 64.8181 19.1634 65.2578C19.4352 65.6976 19.5793 66.2043 19.5796 66.7212C19.5784 67.1536 19.4772 67.5799 19.2838 67.9666C19.0903 68.3534 18.8099 68.6901 18.4646 68.9503L14.7515 71.7339C14.2705 72.0962 13.6841 72.2909 13.082 72.2884ZM16.7943 65.79C16.5937 65.7901 16.3986 65.8551 16.2381 65.9754L12.5249 68.7607C12.409 68.8466 12.315 68.9586 12.2504 69.0875C12.1859 69.2165 12.1526 69.3589 12.1533 69.5032C12.1533 69.7495 12.2511 69.9857 12.4253 70.1599C12.5994 70.334 12.8356 70.4319 13.082 70.4319C13.2825 70.433 13.4778 70.3679 13.6374 70.2465L17.3513 67.462C17.5067 67.3449 17.6214 67.182 17.6792 66.9962C17.7369 66.8104 17.7349 66.6111 17.6733 66.4266C17.6118 66.242 17.4938 66.0814 17.3361 65.9675C17.1784 65.8536 16.9888 65.7921 16.7943 65.7917V65.79Z" fill="#C12A38"/>
<path d="M45.5006 32.1504C45.4183 31.4892 45.2652 30.8388 45.0438 30.2103L46.7977 29.5939C47.0632 30.3479 47.2466 31.1283 47.3447 31.9216L45.5006 32.1504Z" fill="#C12A38"/>
<path d="M43.7067 27.724C42.8452 26.5702 41.7255 25.6344 40.4371 24.9914C39.1488 24.3485 37.7277 24.0164 36.2879 24.0217V22.1651C38.0156 22.1588 39.7207 22.5574 41.2666 23.3288C42.8125 24.1002 44.1562 25.2231 45.1899 26.6074L43.7067 27.724Z" fill="#C12A38"/>
<path d="M52.0676 58.3671H50.211V63.0081H52.0676V58.3671Z" fill="#C12A38"/>
<path d="M52.0676 66.7213H50.211V71.3623H52.0676V66.7213Z" fill="#C12A38"/>
<path d="M57.6373 63.9369H52.9963V65.7935H57.6373V63.9369Z" fill="#C12A38"/>
<path d="M49.2832 63.9369H44.6421V65.7935H49.2832V63.9369Z" fill="#C12A38"/>
<path d="M58.6677 30.1977L57.8141 30.8274L59.3888 32.9619L60.2424 32.3322L58.6677 30.1977Z" fill="#C12A38"/>
<path d="M61.5023 34.0384L60.6488 34.6681L62.2234 36.8026L63.077 36.173L61.5023 34.0384Z" fill="#C12A38"/>
<path d="M63.1192 30.8688L60.9847 32.4434L61.6144 33.2969L63.7489 31.7223L63.1192 30.8688Z" fill="#C12A38"/>
<path d="M59.2778 33.7022L57.1433 35.2769L57.7729 36.1304L59.9074 34.5557L59.2778 33.7022Z" fill="#C12A38"/>
<path d="M150.185 -2.66684e-05L149.331 0.629639L150.906 2.76414L151.76 2.13448L150.185 -2.66684e-05Z" fill="#C12A38"/>
<path d="M153.019 3.84163L152.166 4.47131L153.74 6.60582L154.594 5.97614L153.019 3.84163Z" fill="#C12A38"/>
<path d="M154.636 0.671912L152.502 2.24658L153.131 3.10011L155.266 1.52544L154.636 0.671912Z" fill="#C12A38"/>
<path d="M150.794 3.50584L148.66 5.08051L149.289 5.93403L151.424 4.35936L150.794 3.50584Z" fill="#C12A38"/>
<path d="M1.52456 18.8634L0.671036 19.4931L2.24571 21.6276L3.09923 20.9979L1.52456 18.8634Z" fill="#C12A38"/>
<path d="M4.35916 22.7042L3.50562 23.3339L5.08029 25.4684L5.93383 24.8387L4.35916 22.7042Z" fill="#C12A38"/>
<path d="M5.97613 19.5345L3.84163 21.1092L4.47129 21.9627L6.6058 20.388L5.97613 19.5345Z" fill="#C12A38"/>
<path d="M2.1345 22.3691L0 23.9438L0.629665 24.7973L2.76417 23.2226L2.1345 22.3691Z" fill="#C12A38"/>
</svg>
