<svg width="591" height="274" viewBox="0 0 591 274" fill="none" xmlns="http://www.w3.org/2000/svg">
<path d="M247.584 233.457H258.105L258.558 237.698C261.79 234.585 266.036 232.741 270.517 232.505C272.68 232.293 274.856 232.729 276.77 233.757C278.684 234.786 280.248 236.36 281.265 238.28C284.786 234.693 289.569 232.621 294.594 232.505C303.073 232.505 307.158 237.915 307.158 246.545V272.727H296.11V246.325C296.11 242.67 294.594 240.621 291.191 240.621C289.592 240.711 288.028 241.127 286.596 241.845C285.164 242.562 283.894 243.564 282.864 244.79C282.942 245.668 283.016 246.474 283.016 247.351V272.727H271.891V246.325C271.891 242.67 270.378 240.621 266.971 240.621C265.335 240.683 263.735 241.117 262.293 241.89C260.851 242.664 259.604 243.756 258.648 245.085V272.727H247.596L247.584 233.457Z" fill="#C12A38"/>
<path d="M317.527 233.457H328.653V259.636C328.653 263.145 329.939 265.557 333.873 265.557C335.585 265.504 337.265 265.078 338.795 264.308C340.324 263.538 341.667 262.442 342.73 261.099V233.457H353.855V272.727H343.56L342.882 268.192C339.602 271.529 335.159 273.469 330.482 273.604C321.325 273.604 317.54 268.263 317.54 259.416L317.527 233.457Z" fill="#C12A38"/>
<path d="M364.838 217.514H375.961V272.727H364.838V217.514Z" fill="#C12A38"/>
<path d="M387.089 217.514H398.215V237.992C399.785 236.326 401.671 234.989 403.763 234.059C405.855 233.129 408.112 232.625 410.401 232.577C419.558 232.577 423.343 237.915 423.343 246.765V272.727H412.23V246.474C412.23 242.962 410.791 240.55 406.932 240.55C405.227 240.61 403.559 241.056 402.051 241.854C400.544 242.652 399.236 243.781 398.227 245.156V272.727H387.089V217.514Z" fill="#C12A38"/>
<path d="M452.414 232.505C464.067 232.505 470.499 239.892 470.499 250.42C470.502 252.013 470.376 253.603 470.121 255.175H443.331C443.936 261.827 447.191 265.123 453.319 265.123C457.316 265.056 461.218 263.892 464.597 261.756L469.213 268.557C464.277 271.913 458.442 273.697 452.473 273.675C440.514 273.675 432.038 265.997 432.038 252.835C431.925 250.131 432.375 247.433 433.359 244.912C434.344 242.391 435.841 240.102 437.757 238.191C439.673 236.279 441.965 234.787 444.488 233.808C447.011 232.829 449.71 232.386 452.414 232.505ZM443.558 249.031H459.987C459.987 244.071 458.019 240.255 452.721 240.255C448.189 240.255 444.618 243.327 443.558 249.031Z" fill="#C12A38"/>
<path d="M479.665 233.457H489.895L490.655 239.526C491.699 237.351 493.345 235.521 495.396 234.251C497.448 232.981 499.82 232.325 502.233 232.359C503.932 232.333 505.622 232.605 507.227 233.162L505.64 242.961C503.888 242.353 502.044 242.057 500.19 242.084C496.027 242.084 493.228 244.564 490.729 249.105V272.727H479.678L479.665 233.457Z" fill="#C12A38"/>
<path d="M531.291 232.505C542.947 232.505 549.379 239.893 549.379 250.42C549.381 252.013 549.254 253.603 549.001 255.175H522.208C522.828 261.828 526.068 265.123 532.2 265.123C536.195 265.056 540.096 263.891 543.474 261.756L548.093 268.557C543.157 271.913 537.322 273.697 531.353 273.675C519.397 273.675 510.919 265.997 510.919 252.835C510.805 250.131 511.255 247.433 512.239 244.913C513.223 242.392 514.721 240.103 516.636 238.192C518.552 236.28 520.844 234.788 523.366 233.809C525.889 232.83 528.588 232.386 531.291 232.505ZM522.435 249.031H538.864C538.864 244.071 536.896 240.255 531.598 240.255C527.054 240.255 523.495 243.327 522.435 249.031Z" fill="#C12A38"/>
<path d="M560.515 261.902C564.348 264.099 568.659 265.329 573.075 265.485C576.86 265.485 579.13 264.317 579.13 261.765C579.13 255.11 557.182 259.496 557.182 244.799C557.182 236.829 564.675 232.586 573.302 232.586C578.534 232.633 583.696 233.805 588.435 236.024L584.502 243.482C581.04 241.827 577.283 240.879 573.45 240.692C570.121 240.692 568.004 241.932 568.004 244.347C568.004 250.857 589.799 246.25 589.799 261.086C589.799 269.202 582.837 273.591 573.224 273.591C567.31 273.596 561.486 272.139 556.271 269.351L560.515 261.902Z" fill="#C12A38"/>
<path d="M61.0092 52.8711C61.1541 52.7922 61.2768 52.6782 61.3661 52.5395C61.4555 52.4009 61.5087 52.2421 61.5207 52.0776C61.5968 51.7447 61.5609 51.3959 61.4185 51.0856C61.683 50.4521 61.8551 49.7841 61.9299 49.1017C61.9581 48.7842 62.0803 48.4822 62.2807 48.2344C62.4811 47.9865 62.7506 47.8039 63.0552 47.7098C63.4644 47.313 63.5667 46.9844 63.3652 46.7178C63.1637 46.4512 63.3311 46.2559 63.8767 46.1226C64.1441 45.607 64.3831 45.0771 64.5927 44.5354C64.7977 44.0102 65.1151 43.5362 65.5228 43.1467C66.7457 40.3785 68.1467 37.6925 69.7169 35.1055C71.4198 32.2598 72.9542 29.5133 74.3203 26.866C74.9763 26.106 75.591 25.3112 76.1616 24.4852C76.6964 23.7145 77.0465 22.8308 77.1846 21.903H77.5938C77.8645 20.5824 78.7842 20.0864 80.3528 20.415C81.9144 20.7454 83.453 21.1762 84.9592 21.7046C85.2343 21.7793 85.4882 21.9172 85.7007 22.1071C85.9132 22.297 86.0786 22.5339 86.1836 22.7988C86.3225 23.2825 86.3915 23.7836 86.3883 24.2868C86.2584 24.3419 86.1542 24.4442 86.0967 24.573C86.0392 24.7018 86.0326 24.8477 86.0783 24.9812C86.147 25.2818 86.1109 25.5968 85.976 25.874C85.0455 27.2724 84.3531 28.8153 83.9269 30.4401C83.5025 32.065 82.8111 33.608 81.881 35.0063C81.768 35.2476 81.5912 35.4535 81.3695 35.6015C81.1508 35.7527 80.9746 35.9577 80.858 36.1966C80.521 36.9236 80.2813 37.6917 80.145 38.4813C79.894 39.5792 79.4433 40.6216 78.8152 41.5564C77.722 43.6768 76.7671 45.6618 75.9508 47.5114C75.1345 49.361 74.3162 51.4132 73.4957 53.6678C73.1615 55.4797 72.7173 57.2696 72.1658 59.0276C71.9544 59.9054 71.9279 60.8175 72.088 61.7061C72.2481 62.5946 72.5914 63.4401 73.0958 64.1889C75.9433 63.4952 78.718 62.531 81.3819 61.3091C83.7689 60.187 86.2581 58.9625 88.8496 57.6357L94.3767 53.6678L96.0104 52.6727L102.557 47.9082L108.081 43.7419C108.738 43.2732 109.421 42.8426 110.127 42.4523C110.832 42.0578 111.515 41.6263 112.173 41.1597C113.535 40.1016 114.626 39.2749 115.447 38.6797C116.267 38.0845 117.357 37.3229 118.717 36.395C118.957 36.0319 119.275 35.7269 119.647 35.5023C119.985 35.3039 120.428 35.0745 120.977 34.8079L122.409 33.816C122.6 33.4473 122.876 33.1292 123.214 32.8878C123.552 32.6463 123.942 32.4884 124.353 32.4271C124.81 32.337 125.234 32.1224 125.577 31.8067C125.92 31.4911 126.169 31.0868 126.297 30.6385C126.836 30.7718 127.112 30.6385 127.112 30.2417C127.794 30.5083 128.042 30.8369 127.831 31.2337C127.62 31.6305 127.794 31.9622 128.343 32.2257C127.992 32.4598 127.737 32.8117 127.623 33.2176C127.48 33.5357 127.376 33.8698 127.313 34.2128C127.853 34.4793 128.197 34.1818 128.336 33.32C128.476 32.4582 128.746 32.0955 129.152 32.2257C129.11 32.595 129.042 32.9607 128.947 33.32C128.811 33.9152 128.674 34.2128 128.538 34.2128C129.22 34.4793 129.359 34.8327 128.947 35.3039C128.759 35.4553 128.634 35.6713 128.597 35.9097C128.56 36.1482 128.613 36.392 128.746 36.5935C128.562 36.7867 128.354 36.9545 128.126 37.0925C127.989 37.1576 127.85 37.387 127.72 37.7869C127.444 37.7869 127.41 37.6567 127.614 37.387C127.819 37.1173 127.648 36.9903 127.103 36.9903C126.98 37.2297 126.844 37.4615 126.693 37.6846C126.504 38.0257 126.367 38.3936 126.287 38.7758C126.011 38.7758 125.909 38.6797 125.977 38.4813C126.036 38.322 126.069 38.1547 126.077 37.9853C125.395 37.9853 125.054 38.1837 125.054 38.5805C124.767 38.6616 124.504 38.8129 124.291 39.0207C124.077 39.2285 123.918 39.4864 123.829 39.7709C123.668 40.3504 123.389 40.8906 123.011 41.358C122.598 41.358 122.462 41.293 122.598 41.1597C122.735 41.0264 122.598 40.9613 122.189 40.9613C122.326 41.0946 122.223 41.4572 121.879 42.0524C121.542 42.6405 121.165 43.205 120.751 43.7419C120.338 44.273 120.028 44.7028 119.821 45.0314C119.616 45.3631 119.647 45.2639 119.923 44.7214C119.646 44.5912 119.032 44.8558 118.082 45.515C117.438 45.9368 116.823 46.4007 116.24 46.9038L113.785 49.2877C113.373 49.5543 112.66 50.0812 111.637 50.8748C110.614 51.6684 109.966 52.1985 109.693 52.4619L109.284 52.2636C109.289 52.3195 109.282 52.3757 109.265 52.429C109.247 52.4823 109.219 52.5315 109.182 52.5736C109.111 52.6418 109.08 52.803 109.08 53.0665C108.943 52.803 108.736 52.7564 108.46 52.9703C108.184 53.1842 108.187 53.4012 108.46 53.6647H107.84C107.636 54.1648 107.36 54.6326 107.021 55.0535C106.436 55.8821 105.666 56.5625 104.771 57.0405V56.2439C104.495 56.1137 104.362 56.1447 104.362 56.3431C104.362 56.5415 104.225 56.7088 103.952 56.839H104.572C104.436 57.3691 104.231 57.6698 103.952 57.7349C103.673 57.8 103.332 57.8992 102.929 58.0449C102.793 58.0449 102.827 57.9798 103.032 57.8465C103.236 57.7132 103.202 57.6481 102.929 57.6481C102.654 57.9147 102.35 58.2433 101.999 58.6431C101.674 59.0265 101.295 59.3607 100.874 59.6351C100.598 59.2384 100.363 59.1733 100.161 59.4368C99.9715 59.6889 99.7252 59.8927 99.442 60.0319L98.4191 60.4288C98.0099 60.6954 97.6317 60.9588 97.2938 61.2223C96.836 61.536 96.3119 61.7397 95.7624 61.8175C95.6292 62.0622 95.558 62.3356 95.5547 62.6142C95.5276 62.6183 95.4999 62.616 95.4738 62.6075C95.4477 62.5991 95.424 62.5846 95.4044 62.5653C95.3849 62.5461 95.3701 62.5226 95.3612 62.4967C95.3523 62.4707 95.3496 62.443 95.3532 62.4158C95.3532 62.2856 95.2137 62.2856 94.941 62.4158C94.6682 62.6793 94.3209 62.9799 93.9179 63.3085C93.4389 63.6711 92.8778 63.9096 92.2843 64.0029C91.7529 64.9162 90.9215 65.6173 89.9315 65.9869C88.8982 66.3837 87.84 66.7805 86.7571 67.1773C85.2544 68.1722 83.5943 68.9058 81.8469 69.3472C80.3465 69.6117 78.7097 69.9094 76.9366 70.24C75.0449 70.5716 73.1131 70.605 71.2111 70.3392C69.844 70.0726 68.5172 69.8742 67.2214 69.744C66.1895 69.6861 65.1807 69.4159 64.2579 68.9504C63.327 68.3143 62.5272 67.5049 61.9021 66.5665C61.2821 65.6428 60.7716 64.8493 60.3706 64.1859C59.9584 64.0557 59.7507 63.8572 59.7507 63.5906C59.6764 63.1937 59.455 62.8394 59.1307 62.5986C59.1307 62.4684 59.1679 62.4003 59.233 62.4003C59.2981 62.4003 59.3383 62.2701 59.3383 62.0004C59.0656 62.2701 58.8579 62.4003 58.7184 62.4003C58.5746 62.1411 58.5268 61.8396 58.5835 61.5487C58.6402 61.2577 58.7978 60.9961 59.0284 60.81C59.5089 60.4132 59.5399 59.8801 59.1307 59.2229C58.7996 59.6817 58.6536 60.2483 58.7215 60.81C58.5813 60.6665 58.4724 60.4954 58.402 60.3076C58.3315 60.1197 58.301 59.9192 58.3123 59.7189C58.3123 59.257 58.5882 59.0245 59.1307 59.0245C59.1821 58.0434 59.4624 57.088 59.9491 56.2346C59.8378 56.2253 59.7257 56.238 59.6193 56.272C59.5129 56.3061 59.4143 56.3607 59.3291 56.433C59.4313 55.8327 59.716 55.2786 60.1444 54.8458C60.3526 54.6391 60.5154 54.3911 60.6222 54.1178C60.729 53.8444 60.7774 53.5517 60.7644 53.2586C60.4947 53.2586 60.3893 53.392 60.4544 53.6554C60.5195 53.9189 60.4915 54.0522 60.3551 54.0522C60.0823 53.393 60.3541 52.5322 61.1704 51.47C61.3068 51.47 61.375 51.3398 61.375 51.0732C61.3468 51.4094 61.2021 51.7251 60.9659 51.966C60.9025 52.0246 60.8528 52.0964 60.8201 52.1763C60.7874 52.2563 60.7727 52.3424 60.7769 52.4286C60.781 52.5149 60.8039 52.5992 60.844 52.6757C60.8842 52.7521 60.9406 52.8188 61.0092 52.8711ZM94.9689 7.41087C94.6961 7.54417 94.6279 7.64329 94.7674 7.72079C94.9069 7.79829 94.8324 7.95642 94.5596 8.21991C93.8787 8.73467 93.3444 9.41868 93.0097 10.2039C92.8632 10.5785 92.5846 10.8863 92.2263 11.0691C91.8681 11.252 91.4553 11.297 91.0661 11.1958C90.3818 11.4635 89.8067 11.9523 89.4324 12.5846C89.0085 12.6421 88.5772 12.5731 88.1924 12.3862C88.056 12.256 87.8514 12.0576 87.5724 11.791C86.8873 11.791 86.4751 11.9894 86.3325 12.3862C85.3121 12.0729 84.3197 11.6747 83.3658 11.1958C82.6157 10.799 81.7632 10.4022 80.8085 10.0054C80.8065 8.82819 80.9788 7.65724 81.3199 6.53051C81.6609 5.40834 82.6528 4.9805 84.2865 5.24089C84.5593 4.9774 84.767 4.84413 84.9065 4.84413C85.0628 4.8343 85.2088 4.76298 85.3126 4.64575C86.7891 4.74119 88.2402 5.07615 89.6091 5.63765C91.0443 6.215 92.5653 6.55023 94.1102 6.62965C93.8684 7.14114 94.1412 7.40463 94.9596 7.40463L94.9689 7.41087ZM100.701 58.4324C100.999 58.4191 101.284 58.3104 101.516 58.1224C101.789 57.9157 101.789 57.6833 101.516 57.425L100.701 58.4324ZM122.586 40.1677C122.092 40.2673 121.654 40.551 121.362 40.9613C121.295 41.0522 121.247 41.1555 121.222 41.2652C121.196 41.3749 121.192 41.4888 121.211 41.5998C121.231 41.7109 121.272 41.8169 121.333 41.9117C121.394 42.0065 121.473 42.0882 121.566 42.1517C121.583 41.9214 121.646 41.6969 121.753 41.4922C121.859 41.2875 122.007 41.1068 122.186 40.9613C122.302 40.8615 122.397 40.7391 122.464 40.6016C122.531 40.4641 122.569 40.3144 122.577 40.1615L122.586 40.1677ZM124.632 39.1757C124.496 39.0455 124.564 38.9773 124.84 38.9773L124.632 39.1757Z" fill="white"/>
<path d="M208.091 51.8761C208.091 51.345 207.853 51.2778 207.378 51.6746C206.785 52.1894 206.236 52.7536 205.738 53.361C205.118 54.0925 204.476 54.852 203.794 55.6456C203.291 56.2901 202.666 56.8302 201.956 57.2359C201.407 56.9724 201.407 56.5383 201.956 55.9431C202.505 55.3479 202.771 54.9202 202.771 54.6536C202.58 54.6218 202.384 54.6353 202.199 54.6931C202.013 54.751 201.844 54.8515 201.705 54.9866C201.566 55.1217 201.46 55.2876 201.396 55.471C201.333 55.6543 201.313 55.85 201.339 56.0424C201.339 56.9723 201.063 57.4311 200.524 57.4311C200.347 57.7911 200.089 58.1045 199.769 58.3463C199.449 58.588 199.077 58.7513 198.683 58.823C197.795 59.0563 196.961 59.4606 196.228 60.0134H196.537C196.875 60.0134 196.978 60.1466 196.847 60.4101C196.572 60.1466 196.435 60.1466 196.435 60.4101C196.435 60.6736 196.299 60.7418 196.029 60.6085V60.2118C195.753 60.4783 195.515 60.4102 195.313 60.0134C195.112 59.6166 195.344 59.5515 196.029 59.815C196.162 59.432 196.231 59.0299 196.234 58.6246C195.825 58.3611 195.515 58.3952 195.304 58.7238C195.059 59.1344 194.852 59.566 194.684 60.0134C194.484 60.5278 194.244 61.0254 193.965 61.5014C193.692 61.9664 193.149 62.1213 192.331 61.9973C193.588 61.169 194.581 59.9989 195.195 58.6246C193.848 59.2044 192.708 60.1767 191.922 61.4145C191.782 61.0177 191.581 60.9867 191.302 61.3153C191.063 61.5904 190.855 61.8908 190.682 62.2112C190.136 62.2112 189.863 62.0779 189.863 61.8113H189.659C189.599 61.8606 189.551 61.9215 189.515 61.9903C189.48 62.059 189.459 62.1341 189.454 62.2112C189.09 62.3657 188.747 62.5646 188.431 62.8033L187.613 63.5999C187.882 63.5999 188.053 63.5349 188.124 63.3985C188.196 63.2621 188.363 63.3333 188.636 63.5999C188.363 63.8665 188.053 64.1951 187.706 64.5919C187.585 64.7697 187.411 64.9041 187.208 64.9755C187.006 65.0469 186.786 65.0516 186.581 64.9888C186.305 64.9888 186.271 64.9236 186.478 64.7903C186.686 64.657 186.714 64.3936 186.581 63.9968C186.247 64.0604 185.937 64.2143 185.684 64.4416C185.432 64.6689 185.247 64.961 185.148 65.2863C185.012 65.8815 184.599 66.1129 183.908 65.9807C184.042 65.5839 184.042 65.3204 183.908 65.1872C183.819 65.2485 183.717 65.2891 183.61 65.3063C183.502 65.3234 183.393 65.3166 183.288 65.2863C182.955 65.197 182.61 65.1635 182.265 65.1872C182.261 65.254 182.279 65.3203 182.316 65.3762C182.353 65.432 182.407 65.4744 182.47 65.4971C182.603 65.5653 182.675 65.7296 182.675 65.9931C181.428 66.695 180.012 67.0384 178.583 66.9851C176.826 66.9485 175.118 66.3966 173.673 65.3979C171.682 65.2791 169.719 64.8783 167.842 64.2076C166.122 63.603 164.447 62.8779 162.829 62.0376C162.829 61.9074 163.037 61.8392 163.449 61.8392C163.457 61.7316 163.443 61.6234 163.408 61.5212C163.374 61.419 163.319 61.3248 163.248 61.244C163.108 61.1138 162.906 60.9154 162.627 60.6488C162.352 60.6488 162.218 60.748 162.218 60.9588C162.215 61.051 162.232 61.1428 162.266 61.2282C162.301 61.3137 162.353 61.3909 162.42 61.4548C161.566 60.881 160.921 60.0456 160.582 59.0741C160.27 58.1407 159.61 57.3635 158.74 56.9042C158.604 56.3772 158.501 55.9122 158.43 55.5154C158.423 55.429 158.399 55.3447 158.359 55.2678C158.319 55.1908 158.264 55.1226 158.197 55.0671C158.131 55.0117 158.054 54.9701 157.971 54.9449C157.888 54.9197 157.8 54.9112 157.714 54.9202C156.936 51.2681 156.592 47.5367 156.691 43.8039C156.825 40.4973 157.097 36.4601 157.506 31.6925C156.38 32.1152 155.39 32.8363 154.642 33.7787C153.895 34.7199 152.906 35.44 151.781 35.8619C147.143 40.6254 142.335 45.2908 137.357 49.858C132.341 54.4681 127.785 59.5552 123.754 65.0476C123.123 65.1518 122.545 65.4664 122.115 65.9404C121.643 66.4551 121.091 66.8905 120.481 67.23C119.499 67.3768 118.507 67.4442 117.514 67.4315C116.164 67.4033 114.824 67.2021 113.525 66.8331C113.391 66.7029 113.391 66.5232 113.525 66.3372C113.658 66.1512 113.658 66.0272 113.525 66.0272C112.024 65.5002 110.862 65.1344 110.047 64.936C109.231 64.7376 108.807 63.7147 108.807 61.8578C108.803 61.2166 108.908 60.5793 109.117 59.9731C109.322 59.3648 109.357 58.712 109.219 58.0852C109.219 57.6884 109.355 57.4652 109.628 57.3908C109.747 57.3768 109.856 57.3174 109.932 57.225C110.009 57.1326 110.046 57.0143 110.037 56.8948C111.684 50.1207 113.942 43.5102 116.786 37.1452C119.514 31.1211 121.969 25.0659 124.151 18.9798C124.833 19.5098 125.791 19.4448 127.016 18.7814C127.882 19.1134 128.772 19.3787 129.678 19.5749C130.868 19.8779 132.031 20.2759 133.157 20.7653C133.333 21.0793 133.576 21.3504 133.87 21.5589C134.211 21.8255 134.514 22.092 134.8 22.3555C134.696 24.9991 134.07 27.5961 132.958 29.9968C131.867 32.3135 130.777 34.7283 129.688 37.2413C129.002 38.9649 128.217 40.9509 127.335 43.1994C126.453 45.4479 125.667 47.499 124.979 49.3528C125.038 49.8061 124.927 50.2651 124.669 50.6423C124.431 50.8954 124.255 51.2013 124.157 51.535C125.931 49.6751 127.738 47.5909 129.579 45.2825C131.421 42.9741 133.16 40.8228 134.796 38.8285C136.733 37.6174 138.549 36.2221 140.218 34.6622C141.934 33.0573 143.765 31.5798 145.696 30.2417C147.565 28.8107 149.512 27.483 151.527 26.2646C153.419 25.1338 155.23 23.8732 156.948 22.4919C157.878 22.5 158.781 22.1843 159.503 21.5992C160.24 21.0099 161.124 20.6326 162.06 20.508C163.148 20.5073 164.214 20.8171 165.132 21.4008C166.25 22.0396 167.525 22.3501 168.812 22.2967V22.6903C168.946 22.6423 169.089 22.6258 169.231 22.642C169.372 22.6581 169.508 22.7065 169.628 22.7835C169.748 22.8605 169.848 22.964 169.922 23.086C169.995 23.2079 170.04 23.3452 170.052 23.4871C170.203 24.1918 170.479 24.8638 170.867 25.471C170.731 26.6613 170.591 28.2609 170.458 30.2355C170.406 31.8965 169.983 33.5248 169.218 35.0001C169.63 34.7366 169.556 35.0993 169.016 36.0913C168.477 37.0832 168.396 37.7807 168.809 38.1775C168.11 42.5828 168.11 47.0709 168.809 51.4762C169.023 53.6986 169.958 55.7899 171.472 57.4311C173.241 57.6977 174.741 57.8641 175.973 57.9302C177.102 58.0033 178.236 57.9367 179.348 57.7319C180.436 57.5109 181.498 57.1774 182.517 56.7367C183.862 56.1397 185.162 55.4434 186.404 54.6536L187.12 53.9592C187.325 53.7608 187.7 53.795 188.245 54.0585C189.469 53.8633 190.609 53.3099 191.519 52.4682C191.881 52.0879 192.361 51.8415 192.882 51.7695C193.402 51.6974 193.931 51.8038 194.383 52.0713C194.604 51.901 194.75 51.6524 194.792 51.377C194.804 51.1329 194.873 50.8949 194.994 50.6826C195.267 50.8159 195.335 50.9151 195.201 50.9926C195.068 51.0701 195.13 51.16 195.406 51.3026C195.583 51.0042 195.655 50.6549 195.611 50.3106C195.804 50.4407 196.028 50.5183 196.261 50.5357C196.493 50.5531 196.727 50.5097 196.937 50.4098C197.16 50.3308 197.35 50.1815 197.48 49.9846C197.609 49.7877 197.672 49.5539 197.657 49.3186C198.151 49.2195 198.589 48.9358 198.881 48.5251C199.121 48.167 199.396 47.8336 199.702 47.53C199.504 47.7038 199.332 47.9053 199.191 48.1282C199.059 48.4493 198.955 48.7812 198.881 49.1202C199.972 48.5932 200.521 48.1282 200.521 47.7284C200.521 47.3285 200.859 46.7984 201.544 46.1412C202.358 45.7444 203.211 45.2815 204.101 44.7525C204.994 44.2191 205.848 43.6225 206.656 42.9669C207.307 42.5911 207.924 42.1585 208.5 41.6742C209.048 41.2095 209.671 40.8407 210.341 40.5831C210.68 40.2449 210.991 39.88 211.271 39.4919C211.447 39.2596 211.69 39.0873 211.968 38.9985C212.245 38.9097 212.543 38.9088 212.821 38.9959C213.118 38.7703 213.473 38.6328 213.844 38.5992C214.114 38.5992 214.281 38.4007 214.356 38.0039C214.406 37.7408 214.439 37.4747 214.455 37.2073C215.414 37.0974 216.349 36.8292 217.22 36.4137C218.233 36.0917 219.124 35.469 219.774 34.6282C219.911 34.6282 219.979 34.3646 219.979 33.8345C220.252 33.8345 220.388 33.9027 220.388 34.0329C220.388 34.1631 220.522 34.2313 220.797 34.2313C221.07 33.9678 221.07 33.8345 220.797 33.8345C220.525 33.8345 220.456 33.6331 220.593 33.2363C220.863 33.5029 221.002 33.5462 221.002 33.3385V32.6442C221.275 32.514 221.411 32.579 221.411 32.8425C221.411 33.106 221.479 33.1743 221.619 33.041C221.619 33.1743 221.545 33.2363 221.411 33.2363C221.278 33.2363 221.207 33.3695 221.207 33.633C221.749 33.3695 222.298 33.8035 222.843 34.9257C223.098 35.5484 223.156 36.234 223.01 36.8906C222.863 37.5471 222.52 38.1434 222.025 38.5992C221.886 38.5992 221.886 38.6332 222.025 38.6983C222.165 38.7634 222.093 38.8657 221.82 39.0083C221.663 39.8263 221.225 40.5634 220.58 41.0915C220.046 41.6029 219.567 42.1692 219.151 42.781L208.091 51.8761ZM187.43 63.5875C187.154 63.5875 186.984 63.7549 186.918 64.0835C186.853 64.4121 187.021 64.5795 187.43 64.5795V63.5875ZM189.681 61.9973V62.1988H189.476C189.609 62.1988 189.646 62.1647 189.578 62.0965C189.51 62.0283 189.544 61.9973 189.681 61.9973ZM189.885 62.7909C189.476 63.0575 189.408 62.9241 189.681 62.3972L189.885 62.7909ZM196.228 60.001L196.023 60.1994C196.05 60.2033 196.078 60.201 196.104 60.1925C196.13 60.1841 196.154 60.1697 196.174 60.1505C196.194 60.1314 196.209 60.1079 196.218 60.082C196.227 60.056 196.231 60.0283 196.228 60.001ZM205.636 49.0831C205.909 49.2164 206.256 49.0831 206.659 48.6863L207.071 48.2894C206.779 48.2664 206.486 48.3308 206.231 48.4743C205.975 48.6178 205.768 48.834 205.636 49.0954V49.0831ZM213.823 44.5169C213.823 44.9137 213.683 45.047 213.41 44.9137C213.138 44.7804 212.865 45.047 212.592 45.7073C213.683 45.4531 214.098 45.0604 213.835 44.5293L213.823 44.5169Z" fill="white"/>
<path d="M211.773 62.9892C211.997 62.0121 212.543 61.1386 213.323 60.5093C214.137 59.8453 214.859 59.0772 215.472 58.2247C215.261 58.5449 215.022 58.8449 214.756 59.1206C214.492 59.4329 214.315 59.8093 214.244 60.2117C215.07 59.884 215.811 59.3748 216.413 58.7217C217.015 58.0687 217.463 57.2885 217.722 56.4391C218.262 56.8359 218.745 56.7057 219.154 56.0423C219.529 55.4092 220.105 54.9202 220.791 54.6536L220.993 54.4552C221.124 54.3953 221.233 54.2965 221.306 54.1723C221.38 54.0481 221.413 53.9045 221.402 53.7608C221.425 53.3626 221.569 52.9809 221.814 52.6665C221.88 52.6678 221.944 52.6495 221.999 52.6142C222.054 52.5789 222.098 52.5281 222.124 52.4682C222.189 52.338 222.36 52.2697 222.636 52.2697C222.735 51.9793 222.896 51.7138 223.107 51.4912C223.318 51.2687 223.575 51.0944 223.86 50.9802C224.357 50.8205 224.791 50.5081 225.1 50.0874C225.233 50.0874 225.506 49.889 225.915 49.4922C226.838 48.5858 227.959 47.9056 229.189 47.5052C230.412 47.1168 231.484 46.3586 232.258 45.3352C233.999 44.6913 235.65 43.8244 237.168 42.756C238.764 41.6392 240.48 40.7035 242.283 39.9661C242.852 37.4248 243.061 34.8159 242.903 32.2163C242.839 29.5991 242.211 27.0264 241.061 24.6743C240.512 25.2054 239.864 25.8006 239.118 26.4598C238.286 27.2056 237.5 28.0017 236.765 28.8437L234.31 31.0136L231.449 33.5927L227.763 36.7701C226.859 37.6544 225.903 38.4826 224.899 39.2501C224.151 39.8551 223.325 40.3556 222.443 40.738C221.676 41.7418 220.783 42.6431 219.787 43.4195C218.96 44.0147 218.209 43.8493 217.533 42.9235C217.306 42.587 217.031 42.2853 216.718 42.0276C216.648 41.9965 216.57 41.9893 216.496 42.0073C216.422 42.0252 216.356 42.0673 216.309 42.1268C216.169 42.2601 216.07 42.3252 215.999 42.3252C215.927 42.3252 215.689 42.0617 215.283 41.5316C214.734 41.5316 214.427 41.699 214.353 42.0276C214.278 42.3562 214.25 42.3376 214.25 41.9284C214.393 41.6459 214.497 41.3457 214.56 41.0356C214.632 40.707 214.799 40.6078 215.072 40.7256C215.881 40.207 216.636 39.6089 217.325 38.9401C217.706 38.4733 217.984 37.9314 218.141 37.3498C218.34 36.6832 218.691 36.0719 219.167 35.5643C219.705 35.1117 220.331 34.7741 221.005 34.5723C221.712 34.3413 222.347 33.93 222.846 33.3788C223.121 33.1143 223.301 32.7668 223.358 32.3899C223.416 32.0115 223.595 31.6623 223.869 31.3949C224.415 30.9981 224.96 30.6343 225.506 30.3037C225.951 30.0523 226.367 29.7529 226.746 29.4109C227.768 28.0337 228.897 26.7391 230.122 25.5391C231.126 24.5912 232.05 23.5615 232.884 22.4609C233.278 21.3381 233.956 20.3367 234.853 19.5543C235.749 18.772 236.833 18.2354 237.999 17.997C238.833 17.7842 239.704 17.7538 240.551 17.9079C241.399 18.0619 242.203 18.3969 242.909 18.8899C244.375 18.776 245.84 19.1227 247.1 19.8818C248.13 20.734 248.939 21.8232 249.456 23.0561C249.947 23.7774 250.295 24.5868 250.479 25.4399C250.748 26.5001 250.986 27.6584 251.195 28.9149C251.4 30.1735 251.604 31.3948 251.815 32.5883C251.999 33.5703 252.102 34.5656 252.125 35.5643C253.594 35.4253 255.038 35.0917 256.418 34.5723C258.464 33.9131 260.613 33.2176 262.863 32.486C265.114 31.7545 267.228 31.0932 269.206 30.5022C270.561 30.0306 271.97 29.7306 273.4 29.6093C273.536 29.6093 273.673 29.4791 273.812 29.2125C273.945 29.4791 274.122 29.5783 274.32 29.5225C274.553 29.4527 274.794 29.4192 275.037 29.4233C275.991 29.1588 277.014 28.9273 278.106 28.7289C279.154 28.5492 280.14 28.1054 280.97 27.4394C281.135 27.5083 281.316 27.5349 281.494 27.5171C281.673 27.4992 281.844 27.4374 281.993 27.3371C282.262 27.1387 282.613 26.9093 283.016 26.6427V27.241C283.285 27.241 283.425 26.9093 283.425 26.2459C284.649 26.3809 285.884 26.3809 287.108 26.2459C288.06 26.1157 289.083 25.9835 290.177 25.8492C290.713 26.1184 291.316 26.2261 291.912 26.1592C292.37 26.1275 292.821 26.0228 293.246 25.8492L296.11 26.4443C296.11 27.1077 296.379 27.241 296.928 26.8412C296.792 27.1077 296.755 27.272 296.823 27.3371C296.861 27.3788 296.889 27.4278 296.908 27.4811C296.926 27.5344 296.933 27.5909 296.928 27.6471C296.928 27.7773 296.993 27.8424 297.133 27.8424C297.133 27.9757 297.266 28.0408 297.542 28.0408C297.569 28.0449 297.597 28.0426 297.623 28.0341C297.649 28.0256 297.673 28.0112 297.692 27.992C297.712 27.9727 297.727 27.9492 297.736 27.9232C297.744 27.8972 297.747 27.8696 297.743 27.8424C297.844 28.176 298.019 28.4823 298.255 28.7383C298.36 28.8596 298.425 29.0094 298.444 29.1685C298.463 29.3276 298.434 29.4887 298.36 29.6311C297.782 29.8858 297.149 29.9923 296.519 29.9411C296.04 29.8714 295.552 29.9051 295.087 30.0402C295.087 30.3068 295.152 30.437 295.288 30.437C295.445 30.4489 295.591 30.5199 295.698 30.6354C295.02 31.0317 294.223 31.1724 293.45 31.0322C292.632 30.902 292.083 31.2988 291.81 32.2226C290.586 32.4923 289.457 32.7868 288.434 33.1185C287.204 33.4901 285.935 33.723 284.653 33.8128C284.33 34.055 284.109 34.4086 284.033 34.8047C283.75 34.6145 283.426 34.497 283.087 34.4624C282.749 34.4278 282.407 34.4772 282.092 34.6064C281.531 34.855 280.949 35.0542 280.353 35.2016C279.206 35.3101 278.093 35.6475 277.079 36.1936C276.054 36.7495 274.952 37.1505 273.809 37.3839L257.646 43.5404L254.168 45.2268C253.041 45.7411 252.057 46.5245 251.304 47.5083C251.202 48.9848 250.746 50.415 249.974 51.6777C249.252 52.7464 248.795 53.9715 248.641 55.2518C247.959 55.3862 247.551 55.6507 247.416 56.0454C247.242 56.5221 247.035 56.9861 246.796 57.4342C247.069 57.4342 247.171 57.2699 247.106 56.9382C247.041 56.6065 247.14 56.5755 247.416 56.839C247.14 57.5023 246.796 58.2649 246.393 59.1236C245.961 60.0142 245.331 60.7946 244.552 61.4052C245.093 61.5395 245.093 61.771 244.552 62.0996C244.003 62.4313 243.932 62.7939 244.347 63.1907C243.982 63.3855 243.639 63.6194 243.324 63.8882C242.915 64.2199 242.844 64.5082 243.12 64.781C242.844 64.781 242.711 64.9484 242.711 65.277C242.711 65.6056 242.506 65.6428 242.091 65.3762C242.363 65.773 242.363 66.0396 242.091 66.1698C241.818 66.2999 241.815 66.5015 242.091 66.765C241.302 67.5254 240.583 68.3554 239.942 69.2449C239.322 70.1036 238.681 70.9312 237.999 71.7248C237.862 71.855 237.896 71.8922 238.101 71.824C238.306 71.7558 238.337 71.855 238.203 72.134C236.358 74.0563 234.412 75.8785 232.372 77.5929C230.224 79.3393 227.759 80.6539 225.112 81.4647C225.246 81.1981 225.075 81.133 224.601 81.2663C224.127 81.3996 223.882 81.3965 223.882 81.2663C223.882 80.9997 224.018 80.8964 224.291 80.9563C224.568 81.0204 224.859 80.9853 225.112 80.8572C224.703 80.1938 224.223 79.9954 223.68 80.2619C223.238 80.4979 222.749 80.6334 222.248 80.6588C222.248 81.0556 222.174 81.2539 222.04 81.2539V80.8572C221.489 80.8576 220.939 80.9242 220.404 81.0556C219.717 81.1749 219.011 81.1063 218.361 80.8572C218.221 80.8572 218.153 80.9223 218.153 81.0556C218.153 81.1889 218.02 81.2539 217.747 81.2539C215.387 81.4584 213.017 81.0124 210.893 79.9644C209.136 79.0474 207.627 77.719 206.494 76.0926C206.221 76.2227 206.051 76.1918 205.983 75.9934C205.915 75.795 205.747 75.7609 205.471 75.8942C205.199 75.6276 205.161 75.4292 205.366 75.299C205.571 75.1688 205.611 74.834 205.471 74.307C205.199 74.834 204.929 75.0325 204.653 74.9023C204.377 74.7721 204.107 74.9022 203.835 75.299C203.425 74.9022 203.459 74.6356 203.937 74.5054C204.414 74.3752 204.448 74.1087 204.039 73.7088C203.905 73.4463 203.801 73.4463 203.729 73.7088C203.664 73.9754 203.627 73.842 203.627 73.315C203.756 72.9322 203.927 72.5652 204.138 72.2208C204.343 71.8922 204.786 71.7248 205.468 71.7248C205.375 71.0131 205.438 70.2897 205.652 69.6047C205.866 68.9196 206.227 68.2892 206.708 67.7569C206.719 67.9595 206.685 68.162 206.606 68.349C206.527 68.5381 206.492 68.7427 206.504 68.9473C206.891 68.7613 207.236 68.4979 207.518 68.1731C207.799 67.8484 208.011 67.4694 208.14 67.0595C208.571 65.9985 208.913 64.9035 209.163 63.786C209.848 64.1828 210.323 64.1176 210.595 63.5875C210.687 63.3626 210.856 63.1782 211.073 63.0683C211.289 62.9584 211.538 62.9303 211.773 62.9892ZM213.41 61.4021C213.41 60.7418 213.475 60.4101 213.612 60.4101C213.612 61.0735 213.544 61.4021 213.41 61.4021ZM228.959 58.0263C228.964 58.0825 228.958 58.139 228.94 58.1924C228.921 58.2458 228.892 58.2948 228.854 58.3362C228.816 58.3779 228.788 58.427 228.77 58.4804C228.752 58.5338 228.746 58.5903 228.752 58.6462C227.437 59.521 226.265 60.5915 225.274 61.8206C224.218 63.108 223.056 64.3036 221.799 65.3948C221.799 65.9249 221.659 66.0581 221.386 65.7915C221.25 66.0581 221.213 66.1884 221.287 66.1884C221.361 66.1884 221.386 66.2566 221.386 66.3868C221.026 66.4797 220.692 66.6534 220.409 66.8945C220.126 67.1356 219.902 67.438 219.753 67.7786C219.622 67.7747 219.493 67.8101 219.382 67.8802C219.272 67.9504 219.185 68.0521 219.133 68.1723C218.597 69.0863 217.861 69.8674 216.981 70.4569C216.515 70.7973 216.121 71.2274 215.823 71.7219C215.525 72.2164 215.329 72.7654 215.245 73.3368C215.518 73.467 215.651 73.6468 215.651 73.8328C215.649 73.9255 215.666 74.0176 215.702 74.1031C215.738 74.1886 215.791 74.2655 215.859 74.3287C217.493 73.7955 219.027 73.2376 220.459 72.6393C221.892 72.041 223.358 71.3993 224.858 70.7545C224.722 70.2255 224.722 69.9279 224.858 69.8618C224.995 69.7936 225.066 69.6293 225.066 69.3658C227.854 67.0483 230.33 64.3786 232.431 61.4238C234.654 58.3088 236.571 54.9869 238.157 51.5041L237.952 51.3057C236.463 52.3561 235.029 53.4828 233.656 54.6815C232.194 55.9348 230.622 57.0543 228.959 58.0263ZM225.072 81.2539C225.765 81.0001 226.344 80.5077 226.706 79.8652C226.585 79.9901 226.441 80.0896 226.281 80.1578C226.121 80.2259 225.949 80.2613 225.776 80.2619C225.444 80.2619 225.205 80.5906 225.072 81.2539Z" fill="white"/>
<path d="M372.774 35.0004C372.779 35.0563 372.773 35.1127 372.755 35.1661C372.738 35.2195 372.709 35.2686 372.672 35.3104C372.633 35.3516 372.604 35.4007 372.586 35.4542C372.569 35.5077 372.563 35.5643 372.569 35.6203V35.4219L372.16 35.8188V36.0171L372.569 36.2155C372.437 36.4678 372.333 36.734 372.259 37.0091C372.2 37.4753 372.234 37.9485 372.362 38.4009C372.362 38.5342 372.293 38.5994 372.157 38.5994H371.748C371.775 38.5949 371.803 38.5966 371.829 38.6047C371.855 38.6128 371.879 38.6269 371.899 38.6458C371.919 38.6648 371.934 38.6881 371.943 38.714C371.953 38.7398 371.956 38.7674 371.952 38.7947C371.918 39.0765 371.991 39.3611 372.157 39.5913C371.602 39.9492 371.169 40.4685 370.917 41.0793C370.705 41.6528 370.354 42.1643 369.894 42.5673C369.755 42.5673 369.755 42.5021 369.894 42.3688C369.925 42.3457 369.95 42.3158 369.967 42.2814C369.984 42.247 369.993 42.2089 369.993 42.1704C369.993 42.1319 369.984 42.094 369.967 42.0596C369.95 42.0251 369.925 41.9952 369.894 41.9721C369.429 42.3114 369.1 42.8046 368.964 43.3639C368.779 43.9792 368.539 44.5767 368.248 45.1495C368.216 45.2885 368.155 45.419 368.067 45.5319C367.98 45.6449 367.87 45.7375 367.743 45.8035C367.617 45.8695 367.478 45.9073 367.335 45.9143C367.193 45.9213 367.05 45.8972 366.918 45.8438C366.298 45.6372 365.988 45.8686 365.988 46.5382C365.358 46.9336 364.774 47.3995 364.249 47.927C364.097 48.1154 363.96 48.3155 363.84 48.5253C363.611 48.8036 363.333 49.0388 363.022 49.2197C362.544 49.5524 361.488 50.1807 359.853 51.1045C358.984 51.3544 358.092 51.5205 357.191 51.6005C356.281 51.708 355.425 52.0884 354.735 52.6916C354.735 52.8249 354.667 52.89 354.531 52.89H354.329C354.089 53.247 353.815 53.5803 353.511 53.8851L352.891 54.4802C352.831 54.5287 352.782 54.5889 352.746 54.6571C352.71 54.7254 352.689 54.8002 352.683 54.877C351.986 54.783 351.276 54.8906 350.637 55.187C349.93 55.3635 349.29 55.7427 348.796 56.2781C348.523 56.0147 348.176 56.0488 347.773 56.3774C347.561 56.5604 347.395 56.7901 347.288 57.0483C347.18 57.3065 347.134 57.5863 347.153 57.8654C347.014 57.3384 346.911 57.1431 346.843 57.2733C346.775 57.4035 346.604 57.4685 346.332 57.4685C346.149 57.8447 345.892 58.1798 345.576 58.4532C345.26 58.7267 344.892 58.9327 344.493 59.0588L345.113 58.2621C344.606 58.3812 344.122 58.5833 343.681 58.8604C343.163 59.179 342.615 59.4449 342.044 59.654C342.044 59.7873 342.317 59.7222 342.86 59.4556C342.671 59.7537 342.384 59.9762 342.048 60.0849C341.712 60.1936 341.349 60.1815 341.021 60.0508C340.612 60.0508 340.268 60.3174 339.998 60.8444C339.998 60.7142 339.964 60.646 339.896 60.646C339.828 60.646 339.794 60.5808 339.794 60.4475C339.653 60.7141 339.108 61.0118 338.157 61.3404C337.199 61.6721 336.179 61.9604 335.088 62.2363C333.997 62.5122 332.971 62.7292 332.019 62.9307C331.479 63.0577 330.933 63.156 330.382 63.2251C327.495 64.3816 324.379 64.8577 321.278 64.6169C317.523 64.4867 314.285 64.2884 311.563 64.0218C310.196 63.8916 309.083 63.8234 308.187 63.8234C307.126 63.8785 306.101 64.2214 305.22 64.8154H303.423C301.491 65.3658 299.453 65.4339 297.489 65.0138C297.353 65.1481 297.285 65.1481 297.285 65.0138V64.8154C297.102 64.8987 296.929 65.0027 296.77 65.1253C296.616 65.2132 296.437 65.2481 296.262 65.2246C296.53 64.3008 296.292 63.904 295.546 64.0342C294.8 64.1644 294.424 63.965 294.42 63.4359C294.011 63.4359 293.8 63.7707 293.8 64.4309C293.664 64.4309 293.459 64.2016 293.18 63.7366C292.901 63.2716 292.7 63.1724 292.56 63.4266C292.285 63.2964 292.359 63.0298 292.765 62.6362C292.489 62.506 292.359 62.3261 292.359 62.137C292.315 61.8614 292.168 61.6129 291.947 61.4427C291.874 61.2765 291.854 61.0918 291.891 60.914C291.927 60.7363 292.018 60.5743 292.151 60.4507H291.742L291.333 61.2443C291.298 61.5252 291.371 61.8087 291.537 62.0378C291.61 62.1187 291.665 62.2133 291.701 62.3161C291.736 62.4189 291.75 62.5278 291.742 62.6362C291.742 62.8997 291.603 62.9461 291.333 62.7322C291.115 62.5829 290.907 62.4182 290.713 62.2393C289.518 63.6173 288.645 65.2438 288.155 67.0008C287.552 68.9594 286.692 70.8295 285.598 72.5621L282.532 82.0881C282.255 83.1483 281.709 85.1343 280.892 88.0462C280.077 90.9539 279.184 94.001 278.236 97.1785C277.287 100.356 276.391 103.378 275.573 106.209C275.066 108.127 274.452 110.016 273.735 111.866C273.462 112.794 273.189 113.688 272.916 114.547C272.643 115.406 272.371 116.367 272.095 117.424C272.099 118.059 272.031 118.692 271.893 119.312C271.783 119.815 271.646 120.312 271.481 120.8C271.89 121.948 271.962 123.189 271.689 124.377C271.416 124.638 271.211 124.703 271.069 124.572C270.984 124.5 270.885 124.445 270.779 124.412C270.672 124.378 270.56 124.366 270.449 124.377C270.179 124.348 269.907 124.386 269.657 124.49C269.406 124.593 269.186 124.758 269.017 124.969C268.902 124.842 268.751 124.755 268.584 124.719C268.417 124.683 268.243 124.701 268.087 124.771C267.792 124.894 267.476 124.961 267.157 124.969L266.955 124.572C266.819 124.572 266.751 124.603 266.751 124.672C266.751 124.74 266.682 124.771 266.546 124.771L266.341 124.969C265.654 124.699 265.028 124.295 264.5 123.779C263.999 123.271 263.358 122.926 262.659 122.787C262.195 122.502 261.646 122.392 261.109 122.477C260.528 122.543 259.939 122.51 259.37 122.378C259.084 122.079 258.904 121.694 258.858 121.283C258.819 121.071 258.847 120.852 258.939 120.656C259.03 120.46 259.181 120.298 259.37 120.192C259.506 119.262 259.611 118.537 259.68 118.022C259.701 117.776 259.804 117.545 259.973 117.364C260.141 117.184 260.366 117.065 260.61 117.027C261.019 115.97 261.397 114.947 261.732 113.952C262.084 112.897 262.257 111.791 262.243 110.679C262.657 108.558 263.374 105.58 264.395 101.745C265.415 97.9091 266.541 93.905 267.77 89.7325C268.998 85.5642 270.157 81.5931 271.248 77.8195C272.34 74.0459 273.158 71.102 273.704 68.9878C274.843 66.8803 275.734 64.648 276.36 62.3354C277.046 59.8906 277.865 57.3435 278.815 54.6941C278.853 54.4958 278.964 54.3188 279.125 54.1981L279.838 53.5038L282.501 45.165C283.315 43.0508 284.201 40.9667 285.158 38.9124C286.103 36.8804 286.923 34.7923 287.613 32.6599L289.867 26.1066C290.683 23.8582 291.466 21.6087 292.216 19.3582C292.969 17.101 294.036 14.9615 295.387 13.0033C296.405 12.8715 297.433 12.8393 298.456 12.9072C299.511 12.966 300.548 13.2007 301.525 13.6016C302.505 13.9383 303.313 14.6481 303.773 15.5768C304.232 16.5055 304.307 17.578 303.98 18.5615C303.863 19.8369 303.362 21.0471 302.545 22.0334C301.752 22.9827 301.192 24.105 300.912 25.31C300.525 26.1162 300.313 26.9952 300.292 27.8891C300.016 28.9524 299.644 30.2419 299.163 31.7609C298.683 33.2799 298.233 34.7741 297.836 36.2279C298.41 35.946 298.958 35.614 299.473 35.2359C299.822 34.9246 300.252 34.7183 300.713 34.6408C300.713 34.3773 300.642 34.2439 300.509 34.2439C301.6 33.3181 302.725 32.3251 303.884 31.2649C305.044 30.2047 306.169 29.1456 307.26 28.0875H307.88C307.769 28.0782 307.657 28.0909 307.55 28.125C307.444 28.159 307.345 28.2137 307.26 28.2859C307.121 28.4192 307.189 28.6208 307.462 28.8842C307.582 28.7601 307.721 28.6555 307.874 28.5742C308.007 28.5091 308.007 28.3417 307.874 28.0751V27.8767C307.889 27.5374 307.958 27.2025 308.079 26.8847C308.348 27.5512 308.723 27.5792 309.204 26.984C309.684 26.3888 310.053 26.0912 310.326 26.0912C310.19 25.5642 310.599 25.0993 311.566 24.7025C311.723 24.7664 311.896 24.7815 312.061 24.7462C312.227 24.7108 312.379 24.6264 312.496 24.504C312.834 24.2405 312.936 23.7787 312.806 23.1122C312.953 23.4228 313.024 23.7638 313.014 24.1072L313.42 23.3106C313.581 23.0135 313.79 22.7453 314.04 22.517C313.764 22.517 313.696 22.4519 313.832 22.3217C314.486 22.0715 315.105 21.7369 315.673 21.3266C316.219 20.9298 316.834 20.4669 317.518 19.9378V20.1362C317.788 19.3426 318.811 18.6452 320.584 18.0531C321.974 17.7195 323.204 16.9116 324.062 15.7684C324.536 15.8763 325.03 15.86 325.496 15.7209C325.962 15.5819 326.384 15.325 326.721 14.9749H327.131C328.736 14.1454 330.462 13.5751 332.246 13.2854C334.086 12.9585 335.977 13.0647 337.77 13.5954C337.77 13.7287 337.903 13.9271 338.179 14.1906C338.452 13.9281 338.69 13.8248 338.895 13.8806C339.222 14.0105 339.534 14.1769 339.825 14.3766C339.685 14.6432 339.62 14.7424 339.62 14.6866C339.62 14.6308 339.549 14.7207 339.416 14.9966C342.003 15.2632 343.538 16.3554 344.019 18.2732C344.503 20.5269 344.537 22.8538 344.121 25.1209C344.121 25.5177 344.255 25.5859 344.53 25.3193V26.3113C344.53 26.7081 344.394 26.9065 344.121 26.9065C344.28 27.7169 344.261 28.5518 344.067 29.3543C343.873 30.1568 343.507 30.908 342.996 31.5564C342.045 32.6458 341.44 33.9936 341.257 35.4282C340.528 36.7883 339.474 37.9469 338.188 38.8008C336.932 39.6309 335.938 40.802 335.324 42.1767C335.324 42.4433 335.457 42.4433 335.733 42.1767C335.187 43.1067 334.671 44.0666 334.183 45.0565C333.964 45.5316 333.637 45.9492 333.229 46.2764C332.82 46.6035 332.342 46.8311 331.83 46.9412C331.379 48.0182 330.634 48.9472 329.682 49.6227C328.93 50.0668 328.325 50.7221 327.943 51.5074C326.684 52.8428 325.316 54.0716 323.854 55.1809C322.077 56.5696 320.848 57.5946 320.168 58.2559C320.714 58.1257 321.836 57.8963 323.544 57.5615C325.252 57.2267 327.09 56.9013 329.068 56.5696C331.046 56.2379 332.853 55.8752 334.49 55.4784C335.696 55.2346 336.865 54.8345 337.968 54.288C340.585 53.3031 343.146 52.1762 345.64 50.9122C348.135 49.6486 350.696 48.5217 353.313 47.5364H353.933C354.066 46.8762 354.27 46.5445 354.553 46.5445C354.835 46.5445 355.098 46.2809 355.374 45.7508C356.097 45.7384 356.803 45.5329 357.42 45.1557C358.074 44.7716 358.757 44.4399 359.463 44.1637C359.599 44.297 359.565 44.4303 359.364 44.5605C359.162 44.6907 359.054 44.8271 359.054 44.9573C359.741 44.7556 360.396 44.4549 360.997 44.0646C361.542 43.701 362.126 43.4014 362.739 43.1717H362.941C363.35 43.1717 363.487 42.9733 363.35 42.5734C363.896 42.1766 364.134 41.9535 364.066 41.8791C363.98 41.8064 363.869 41.7708 363.756 41.7798C363.701 41.7848 363.644 41.7787 363.591 41.7617C363.538 41.7446 363.489 41.7171 363.446 41.6807C363.378 41.6156 363.682 41.4513 364.376 41.1847V41.5814C364.578 41.1376 364.9 40.7595 365.306 40.4903C365.744 40.1688 366.069 39.7177 366.236 39.2008H367.259C367.259 38.9373 367.225 38.8008 367.16 38.8008C367.095 38.8008 367.055 38.8721 367.055 39.0023C366.782 38.7357 366.744 38.6055 366.952 38.6055C367.233 38.5683 367.49 38.4267 367.671 38.2088C368.211 36.7518 368.794 35.9241 369.407 35.7288C370.327 35.3579 371.188 34.8569 371.965 34.2409C371.965 34.6377 372.033 34.771 372.169 34.6377C372.276 34.5221 372.422 34.4512 372.579 34.4393C372.582 34.6861 372.511 34.9284 372.374 35.1337C372.234 35.3378 372.163 35.5808 372.169 35.828C372.433 35.2669 372.637 35.0004 372.774 35.0004ZM298.921 63.3863C299.055 62.9895 298.921 62.7911 298.512 62.7911C298.305 62.8682 298.127 63.0066 298.001 63.1879C297.919 63.3369 297.815 63.4719 297.691 63.5878C297.415 63.8544 297.282 63.7861 297.282 63.3863C297.009 64.0527 296.736 64.3814 296.463 64.3814C296.463 64.5147 296.566 64.5798 296.773 64.5798C296.868 64.583 296.962 64.5672 297.051 64.5331C297.139 64.499 297.22 64.4474 297.288 64.3814C297.478 64.3241 297.679 64.3122 297.874 64.3467C298.069 64.3811 298.254 64.4609 298.413 64.5798C298.887 64.8463 299.129 64.7782 299.129 64.3814V64.183C299.129 64.3163 299.058 64.1178 298.925 63.5878C299.173 63.7663 299.454 63.8934 299.752 63.9615C300.051 64.0297 300.359 64.0375 300.66 63.9846C301.234 63.8535 301.829 63.8535 302.403 63.9846C302.395 63.7999 302.453 63.6185 302.567 63.4726C302.68 63.3268 302.842 63.2259 303.023 63.1879C303.405 63.0721 303.755 62.8695 304.046 62.5959C303.062 62.474 302.069 62.4397 301.079 62.4935C300.302 62.6244 299.564 62.9296 298.921 63.3863ZM309.771 53.0636C309.934 52.8332 310.006 52.5503 309.973 52.27C311.586 51.4042 313.127 50.409 314.579 49.2941C316.144 48.1037 317.677 46.8461 319.179 45.5214C319.687 45.1622 320.136 44.7273 320.512 44.2319C320.86 43.7603 321.171 43.2628 321.442 42.7439C321.498 42.7489 321.555 42.7424 321.608 42.7248C321.661 42.7072 321.71 42.6789 321.752 42.6416C321.839 42.5693 321.95 42.5337 322.062 42.5424C322.34 41.6164 322.878 40.79 323.612 40.1618C324.311 39.5527 324.961 38.8892 325.556 38.1778L325.354 37.9794C325.559 37.5396 325.834 37.1364 326.17 36.7859C326.506 36.3927 326.722 35.9103 326.79 35.3971C327.199 35.3971 327.435 35.267 327.506 35.0004C327.577 34.7338 327.676 34.6036 327.816 34.6036C329.023 32.2513 330.354 29.9645 331.802 27.7527C333.339 25.2072 334.152 22.2911 334.155 19.3179C333.816 19.2928 333.476 19.3419 333.158 19.4618C332.84 19.5817 332.552 19.7696 332.314 20.0123C332.078 20.251 331.784 20.4226 331.46 20.5098C331.137 20.597 330.796 20.5964 330.472 20.5082C329.952 20.7044 329.391 20.7725 328.839 20.7067C328.49 21.3291 327.945 21.8184 327.289 22.0984C326.87 22.1984 326.483 22.4021 326.163 22.6906C326.163 22.5604 325.959 22.4922 325.543 22.4922C325.225 22.6721 324.974 22.9506 324.827 23.2858C324.621 23.6867 324.246 23.6867 323.702 23.2858C323.744 23.6769 323.633 24.0689 323.392 24.3801C323.163 24.5893 322.877 24.7271 322.571 24.7768C322.249 24.8407 321.937 24.9449 321.641 25.0868C321.501 25.1625 321.386 25.2787 321.313 25.4203C321.24 25.5619 321.212 25.7222 321.232 25.8804L320.822 25.4836C320.55 25.7502 320.481 25.9796 320.618 26.178C320.754 26.3764 320.618 26.4105 320.209 26.2772V26.0788C319.799 26.0788 319.589 26.2121 319.589 26.4756C319.557 26.4983 319.532 26.5281 319.514 26.5626C319.496 26.5971 319.487 26.6352 319.487 26.674C319.487 26.7127 319.496 26.7508 319.514 26.7853C319.532 26.8198 319.557 26.8496 319.589 26.8723C319.003 27.4299 318.457 28.0275 317.955 28.661C317.529 29.2019 316.961 29.614 316.315 29.8514C316.31 29.7954 316.316 29.7389 316.333 29.6855C316.351 29.6321 316.38 29.583 316.417 29.5414C316.456 29.5003 316.486 29.4513 316.504 29.3978C316.522 29.3444 316.528 29.2876 316.523 29.2314C316.247 29.1012 316.076 29.1322 316.011 29.3306C315.946 29.529 315.838 29.6406 315.701 29.6406V29.4422C315.211 29.8033 314.7 30.1346 314.17 30.4342C313.645 30.7529 313.248 31.2437 313.045 31.823C313.178 31.9563 313.314 31.9221 313.451 31.7237C313.587 31.5253 313.658 31.5595 313.658 31.823C313.503 32.5597 313.107 33.2238 312.533 33.7107C311.915 34.1602 311.334 34.6578 310.794 35.1987C310.797 35.1714 310.794 35.1437 310.785 35.1178C310.776 35.0918 310.76 35.0683 310.741 35.0492C310.721 35.03 310.697 35.0156 310.671 35.0072C310.645 34.9987 310.617 34.9964 310.59 35.0004C310.843 34.4874 311.288 34.0953 311.829 33.9092C312.372 33.7108 312.449 33.345 312.031 32.818C310.818 33.8178 310.017 35.2311 309.784 36.7859C309.493 36.7594 309.202 36.8337 308.959 36.9962C308.716 37.1587 308.537 37.3996 308.451 37.6786C308.3 38.2042 307.971 38.6611 307.521 38.9714C307.521 38.7048 307.49 38.5745 307.421 38.5745C307.353 38.5745 307.319 38.5094 307.319 38.3761C306.85 39.7184 306.039 40.915 304.966 41.848C303.893 42.7824 303.081 43.9799 302.61 45.323V44.7279C302.052 45.4895 301.54 46.2846 301.079 47.1087C300.459 48.1719 299.882 48.5687 299.34 48.3021C299.345 48.5379 299.309 48.7728 299.234 48.9964C299.175 49.1554 299.142 49.3229 299.135 49.4924C298.59 49.3622 298.283 49.4925 298.205 49.8893C298.128 50.2861 297.964 50.3543 297.694 50.0877C297.718 50.2598 297.681 50.4349 297.592 50.5837C297.523 50.6519 297.554 50.8937 297.694 51.2781C298.865 51.4518 299.944 52.0102 300.763 52.8652C301.616 53.7125 302.578 54.4422 303.624 55.0351H305.673V54.8367C305.806 54.5732 306.079 54.4741 306.488 54.5268C306.831 54.6018 307.189 54.5671 307.511 54.4275V55.0413C308.193 54.7789 308.808 54.5474 309.356 54.3469C310.021 54.0777 310.642 53.7099 311.197 53.2558C310.919 53.2318 310.638 53.2633 310.372 53.3484C310.106 53.4336 309.86 53.5707 309.647 53.7518C309.436 53.9294 309.183 54.0508 308.912 54.1049C308.641 54.1591 308.361 54.1442 308.097 54.0617C308.226 53.7347 308.46 53.4594 308.761 53.2789C309.063 53.0983 309.416 53.0227 309.765 53.0636H309.771ZM297.905 60.212C297.99 60.2848 298.088 60.3399 298.195 60.3739C298.301 60.408 298.413 60.4204 298.525 60.4104C298.934 60.4104 299.145 60.2802 299.145 60.0136H298.215C297.864 60.0012 297.762 60.0818 297.898 60.212H297.905ZM300.36 44.9263C300.773 44.9263 300.98 44.4634 300.98 43.5375L300.264 44.2319C300.047 44.4303 300.078 44.6628 300.354 44.9263H300.36ZM301.6 42.9423C301.757 42.7929 301.928 42.659 302.111 42.5424C302.316 42.4122 302.279 42.2139 302.009 41.9473C302.009 42.0806 301.869 42.2138 301.6 42.344C301.33 42.4742 301.305 42.6758 301.581 42.9517L301.6 42.9423ZM302.84 35.7939C302.703 35.7939 302.496 35.9272 302.22 36.1907C302.874 36.1907 303.081 36.0605 302.802 35.7939H302.84ZM302.431 64.7781C302.703 64.9114 302.874 64.7782 302.942 64.3814C302.965 64.092 303.073 63.8159 303.252 63.5878H303.047C303.047 64.1178 302.945 64.2822 302.737 64.0838C302.53 63.8854 302.4 64.1179 302.4 64.7781H302.431ZM306.519 63.3863C306.051 63.2555 305.556 63.2555 305.087 63.3863C304.553 63.5204 304.004 63.588 303.454 63.5878C304.017 63.6239 304.57 63.7582 305.087 63.9846C305.216 64.053 305.359 64.0916 305.505 64.0978C305.651 64.1039 305.796 64.0774 305.931 64.02C306.065 63.9626 306.185 63.8759 306.281 63.7663C306.378 63.6566 306.449 63.5268 306.488 63.3863H306.519ZM309.796 29.6406V29.2438C308.702 30.1738 307.648 31.0294 306.622 31.823C305.581 32.6371 304.713 33.6496 304.067 34.802L309.796 29.6406ZM305.499 37.5826C305.557 37.4576 305.643 37.3477 305.751 37.2616C305.859 37.1756 305.985 37.1156 306.119 37.0866C306.238 37.0704 306.346 37.0099 306.422 36.9174C306.498 36.8248 306.536 36.707 306.529 36.5875C306.256 36.7208 305.949 36.8541 305.599 36.9843C305.248 37.1145 305.193 37.316 305.468 37.5826H305.499ZM307.542 38.3761C308.088 38.2459 308.364 37.7159 308.364 36.7859C308.068 36.7859 307.784 37.316 307.511 38.3761H307.542ZM307.955 54.4554C307.958 54.4828 307.954 54.5105 307.945 54.5364C307.936 54.5624 307.921 54.5858 307.901 54.605C307.881 54.6242 307.857 54.6385 307.831 54.647C307.805 54.6555 307.777 54.6578 307.75 54.6538L307.955 54.4554ZM307.955 54.0587H308.159C308.1 54.1077 308.052 54.168 308.016 54.2362C307.981 54.3043 307.96 54.379 307.955 54.4554V54.0587ZM311.842 54.8522C311.476 54.692 311.063 54.6744 310.684 54.8028C310.306 54.9313 309.989 55.1966 309.796 55.5466C309.669 55.8618 309.436 56.123 309.137 56.2858C308.839 56.4486 308.493 56.5029 308.159 56.4393C308.732 56.8176 309.428 56.9599 310.103 56.8362C310.774 56.6786 311.402 56.3736 311.941 55.9433C312.605 55.4388 313.222 54.8744 313.782 54.2571C314.348 53.6341 315.003 53.0983 315.726 52.6668C314.862 52.6843 314.031 52.9997 313.373 53.5596C312.602 54.1568 312.082 54.5877 311.811 54.8522H311.842ZM308.364 35.0128C308.364 35.1461 308.599 35.0128 309.077 34.616C309.554 34.2192 309.656 33.8906 309.387 33.6209C309.102 33.7331 308.854 33.9209 308.668 34.164C308.482 34.4071 308.366 34.6963 308.333 35.0004L308.364 35.0128ZM312.043 31.4385C310.803 31.8353 310.205 32.5018 310.205 33.4225C312.069 31.349 314.122 29.4548 316.34 27.7651C318.52 26.1118 320.771 24.3553 323.091 22.4953C321.091 23.7555 319.177 25.1484 317.363 26.6647C315.433 28.2498 313.649 29.8369 312.012 31.4261L312.043 31.4385ZM312.251 23.6887C312.384 24.0855 312.251 24.2839 311.842 24.2839L312.251 23.6887ZM315.726 23.6887C315.794 23.4914 315.902 23.3104 316.044 23.1568C316.185 23.0032 316.357 22.8803 316.548 22.7959C316.922 22.6174 317.266 22.3833 317.571 22.1016C317.239 22.399 316.857 22.6342 316.442 22.7959C316.238 22.8429 316.054 22.9551 315.92 23.1156C315.785 23.2761 315.706 23.4763 315.695 23.6857L315.726 23.6887ZM315.726 51.8794C315.999 52.0096 316.169 51.9104 316.238 51.5694C316.292 51.3414 316.326 51.109 316.34 50.875C315.91 50.8792 315.695 51.2129 315.695 51.8763L315.726 51.8794ZM317.571 20.1145C317.455 20.354 317.278 20.5591 317.059 20.7097C316.838 20.8583 316.661 21.064 316.548 21.3049C316.82 21.3049 316.988 21.1406 317.059 20.8089C317.13 20.4772 317.295 20.3811 317.571 20.4989V20.1145ZM317.772 22.1016C318.318 22.1016 318.594 21.9001 318.594 21.5033C318.423 21.5002 318.15 21.6986 317.741 22.0984L317.772 22.1016ZM318.181 19.9317C318.727 19.6692 319.171 19.4378 319.514 19.2373C319.851 19.0439 320.163 18.8108 320.444 18.5429C320.168 18.4127 319.793 18.5429 319.316 18.9397C318.838 19.3365 318.423 19.6496 318.15 19.913L318.181 19.9317ZM334.753 13.9767C334.887 13.9774 335.02 14.0053 335.143 14.0586C335.266 14.1119 335.377 14.1894 335.469 14.2867C335.676 14.4933 335.915 14.39 336.186 13.9767C336.015 14.0495 335.826 14.0696 335.644 14.0342C335.461 13.9988 335.294 13.9097 335.163 13.7783C334.859 13.5024 334.732 13.5613 334.732 13.9581L334.753 13.9767ZM335.993 41.7674C335.993 42.034 335.925 42.1643 335.789 42.1643L335.993 41.7674ZM361.772 46.9288C362.312 46.9288 362.588 46.532 362.588 45.7384C361.877 46.1228 361.59 46.5135 361.729 46.9103L361.772 46.9288ZM369.339 40.3787C369.093 40.6791 368.912 41.0266 368.805 41.3997C368.699 41.7729 368.669 42.1638 368.719 42.5487C368.691 42.2934 368.722 42.035 368.811 41.7939C368.9 41.5529 369.044 41.3358 369.231 41.1599C369.531 40.8902 369.569 40.6267 369.296 40.3601L369.339 40.3787ZM372.613 36.2093C372.613 36.0791 372.644 36.0109 372.715 36.0109C372.786 36.0109 372.749 35.8807 372.613 35.6141V36.2093Z" fill="white"/>
<path d="M360.495 52.8711C360.641 52.7929 360.764 52.6791 360.853 52.5403C360.943 52.4015 360.995 52.2423 361.007 52.0776C361.085 51.7448 361.049 51.3953 360.904 51.0856C361.17 50.4526 361.343 49.7843 361.416 49.1017C361.445 48.7845 361.567 48.4829 361.768 48.2352C361.968 47.9875 362.237 47.8047 362.541 47.7098C362.95 47.313 363.053 46.9844 362.851 46.7178C362.65 46.4512 362.817 46.2559 363.363 46.1226C363.63 45.607 363.869 45.0771 364.079 44.5354C364.284 44.0102 364.601 43.5362 365.009 43.1467C366.232 40.3785 367.633 37.6925 369.203 35.1055C370.908 32.2598 372.442 29.5133 373.806 26.866C374.462 26.106 375.077 25.3112 375.648 24.4852C376.184 23.7152 376.534 22.8312 376.671 21.903H377.08C377.352 20.5824 378.272 20.0864 379.839 20.415C381.4 20.7454 382.939 21.1762 384.445 21.7046C384.723 21.7768 384.98 21.9134 385.196 22.1035C385.411 22.2936 385.579 22.5319 385.685 22.7988C385.825 23.2824 385.895 23.7835 385.893 24.2868C385.763 24.3419 385.659 24.4442 385.601 24.573C385.544 24.7018 385.537 24.8477 385.583 24.9812C385.653 25.2817 385.617 25.5972 385.481 25.874C384.551 27.2725 383.859 28.8154 383.435 30.4401C383.007 32.064 382.316 33.6066 381.389 35.0063C381.275 35.247 381.098 35.4527 380.877 35.6015C380.657 35.751 380.48 35.9564 380.366 36.1966C380.027 36.9234 379.787 37.6915 379.65 38.4813C379.4 39.5796 378.949 40.6223 378.32 41.5564C377.226 43.6768 376.272 45.6618 375.455 47.5114C374.639 49.361 373.822 51.4132 373.003 53.6678C372.668 55.4798 372.223 57.2697 371.67 59.0276C371.459 59.9054 371.432 60.8175 371.593 61.7061C371.753 62.5946 372.096 63.4401 372.6 64.1889C375.448 63.4943 378.222 62.53 380.886 61.3091C383.271 60.187 385.761 58.9625 388.354 57.6357L393.878 53.6678L395.512 52.6727L402.062 47.9082L407.583 43.7419C408.24 43.2739 408.923 42.8433 409.629 42.4523C410.334 42.0585 411.016 41.627 411.675 41.1597C413.039 40.1016 414.13 39.2749 414.948 38.6797C415.767 38.0845 416.857 37.3229 418.219 36.395C418.458 36.0319 418.776 35.7269 419.149 35.5023C419.49 35.3039 419.93 35.0745 420.479 34.8079L421.911 33.816C422.102 33.4473 422.378 33.1292 422.715 32.8878C423.053 32.6463 423.444 32.4884 423.854 32.4271C424.312 32.337 424.735 32.1224 425.078 31.8067C425.421 31.4911 425.67 31.0868 425.798 30.6385C426.34 30.7718 426.616 30.6385 426.616 30.2417C427.295 30.5083 427.546 30.8369 427.332 31.2337C427.119 31.6305 427.295 31.9622 427.844 32.2257C427.494 32.4594 427.239 32.8115 427.128 33.2176C426.984 33.5353 426.88 33.8696 426.818 34.2128C427.361 34.4793 427.702 34.1818 427.841 33.32C427.974 32.4582 428.25 32.0955 428.659 32.2257C428.616 32.595 428.547 32.9606 428.452 33.32C428.315 33.9152 428.179 34.2128 428.042 34.2128C428.724 34.4793 428.864 34.8327 428.452 35.3039C428.264 35.4553 428.139 35.6713 428.102 35.9097C428.064 36.1482 428.117 36.392 428.25 36.5935C428.067 36.7867 427.858 36.9545 427.63 37.0925C427.494 37.1576 427.354 37.387 427.221 37.7869C426.945 37.7869 426.911 37.6567 427.119 37.387C427.326 37.1173 427.15 36.9903 426.607 36.9903C426.485 37.2297 426.348 37.4615 426.198 37.6846C426.005 38.0247 425.867 38.3929 425.789 38.7758C425.513 38.7758 425.41 38.6797 425.479 38.4813C425.538 38.3224 425.572 38.1549 425.578 37.9853C424.896 37.9853 424.555 38.1837 424.555 38.5805C424.268 38.6621 424.006 38.8136 423.793 39.0214C423.579 39.2291 423.42 39.4867 423.33 39.7709C423.169 40.3504 422.891 40.8906 422.512 41.358C422.1 41.358 421.963 41.293 422.1 41.1597C422.236 41.0264 422.1 40.9613 421.694 40.9613C421.83 41.0946 421.725 41.4572 421.384 42.0524C421.047 42.6404 420.671 43.2049 420.258 43.7419C419.845 44.273 419.535 44.7028 419.329 45.0314C419.124 45.3631 419.155 45.2639 419.431 44.7214C419.154 44.5912 418.54 44.8558 417.589 45.515C416.946 45.9376 416.331 46.4015 415.748 46.9038L413.293 49.2877C412.88 49.5543 412.164 50.0833 411.145 50.8748C410.126 51.6663 409.478 52.1954 409.201 52.4619L408.792 52.2636C408.798 52.3195 408.791 52.3761 408.774 52.4295C408.756 52.4829 408.727 52.532 408.69 52.5736C408.6 52.7215 408.564 52.8953 408.587 53.0665C408.451 52.803 408.246 52.7564 407.967 52.9703C407.688 53.1842 407.691 53.4012 407.967 53.6647H407.347C407.145 54.1655 406.869 54.6335 406.529 55.0535C405.944 55.8821 405.173 56.5625 404.278 57.0405V56.2439C404.002 56.1137 403.869 56.1447 403.869 56.3431C403.869 56.5415 403.733 56.7088 403.463 56.839H404.083C403.944 57.3691 403.739 57.6698 403.463 57.7349C403.187 57.8 402.843 57.8992 402.437 58.0449C402.301 58.0449 402.335 57.9798 402.542 57.8465C402.75 57.7132 402.71 57.6481 402.437 57.6481C402.164 57.9147 401.857 58.2433 401.507 58.6431C401.18 59.026 400.8 59.3601 400.379 59.6351C400.103 59.2384 399.867 59.1733 399.666 59.4368C399.476 59.6889 399.23 59.8927 398.947 60.0319L397.924 60.4288C397.514 60.6954 397.136 60.9588 396.798 61.2223C396.341 61.5371 395.817 61.7409 395.267 61.8175C395.134 62.0622 395.062 62.3356 395.059 62.6142C395.032 62.6183 395.004 62.616 394.978 62.6075C394.952 62.5991 394.928 62.5846 394.909 62.5653C394.889 62.5461 394.874 62.5226 394.866 62.4967C394.857 62.4707 394.854 62.443 394.858 62.4158C394.858 62.2856 394.718 62.2856 394.445 62.4158C394.173 62.6793 393.825 62.9799 393.422 63.3085C392.944 63.6716 392.382 63.9102 391.789 64.0029C391.257 64.9162 390.426 65.6173 389.436 65.9869C388.413 66.3837 387.353 66.7805 386.265 67.1773C384.761 68.1711 383.101 68.9046 381.355 69.3472C379.852 69.6117 378.215 69.9094 376.444 70.24C374.552 70.5715 372.619 70.605 370.716 70.3392C369.352 70.0726 368.022 69.8742 366.726 69.744C365.694 69.6857 364.685 69.4155 363.762 68.9504C362.831 68.3143 362.032 67.5049 361.406 66.5665C360.786 65.6428 360.276 64.8493 359.875 64.1859C359.463 64.0557 359.255 63.8572 359.255 63.5906C359.18 63.1939 358.959 62.8398 358.635 62.5986C358.635 62.4684 358.672 62.4003 358.741 62.4003C358.809 62.4003 358.843 62.2701 358.843 62.0004C358.57 62.2701 358.362 62.4003 358.223 62.4003C358.079 62.1411 358.031 61.8396 358.088 61.5487C358.145 61.2577 358.302 60.9961 358.533 60.81C359.013 60.4132 359.044 59.8801 358.635 59.2229C358.306 59.6822 358.161 60.2487 358.229 60.81C358.089 60.6665 357.98 60.4954 357.91 60.3076C357.839 60.1197 357.809 59.9192 357.82 59.7189C357.82 59.257 358.096 59.0245 358.635 59.0245C358.687 58.0434 358.967 57.088 359.454 56.2346C359.229 56.2164 359.006 56.2877 358.834 56.433C358.939 55.8336 359.223 55.2802 359.649 54.8458C359.857 54.639 360.02 54.391 360.126 54.1177C360.233 53.8444 360.282 53.5517 360.269 53.2586C359.996 53.2586 359.894 53.392 359.959 53.6554C360.024 53.9189 359.996 54.0522 359.86 54.0522C359.587 53.393 359.86 52.5322 360.678 51.47C360.811 51.47 360.88 51.3398 360.88 51.0732C360.851 51.4094 360.707 51.7251 360.47 51.966C360.406 52.0233 360.355 52.0941 360.321 52.1732C360.286 52.2524 360.27 52.3381 360.272 52.4243C360.275 52.5105 360.296 52.5952 360.334 52.6723C360.373 52.7495 360.428 52.8173 360.495 52.8711ZM394.455 7.41087C394.182 7.54417 394.114 7.64329 394.253 7.72079C394.393 7.79829 394.318 7.95642 394.046 8.21991C393.367 8.73691 392.833 9.42029 392.496 10.2039C392.349 10.5785 392.07 10.8863 391.712 11.0691C391.354 11.252 390.941 11.297 390.552 11.1958C389.868 11.4643 389.293 11.9529 388.918 12.5846C388.494 12.6421 388.063 12.5731 387.678 12.3862C387.545 12.256 387.337 12.0576 387.058 11.791C386.376 11.791 385.964 11.9894 385.818 12.3862C384.798 12.0741 383.805 11.6758 382.852 11.1958C382.102 10.799 381.246 10.4022 380.294 10.0054C380.291 8.82808 380.463 7.65691 380.806 6.53051C381.144 5.40834 382.136 4.9805 383.772 5.24089C384.042 4.9774 384.25 4.84413 384.392 4.84413C384.55 4.83444 384.697 4.76316 384.802 4.64575C386.277 4.74152 387.727 5.07648 389.095 5.63765C390.531 6.21533 392.053 6.55057 393.599 6.62965C393.364 7.14114 393.63 7.40463 394.455 7.40463V7.41087ZM400.186 58.4324C400.485 58.4191 400.772 58.3104 401.005 58.1224C401.274 57.9157 401.274 57.6833 401.005 57.425L400.186 58.4324ZM422.072 40.1677C421.578 40.2682 421.141 40.5517 420.847 40.9613C420.781 41.0522 420.733 41.1555 420.707 41.2652C420.682 41.3749 420.678 41.4888 420.697 41.5998C420.716 41.7109 420.758 41.8169 420.819 41.9117C420.88 42.0065 420.959 42.0882 421.052 42.1517C421.069 41.9215 421.133 41.6972 421.239 41.4925C421.346 41.2878 421.493 41.1071 421.672 40.9613C421.79 40.8621 421.886 40.7401 421.954 40.6025C422.023 40.465 422.063 40.315 422.072 40.1615V40.1677ZM424.121 39.1757C423.985 39.0455 424.05 38.9773 424.326 38.9773L424.121 39.1757Z" fill="white"/>
<path d="M459.922 72.5217H460.024C460.229 72.5217 460.192 72.3853 459.922 72.1218C459.652 71.8583 459.134 72.0908 458.372 72.8162L456.822 74.3072C456.546 74.3072 456.413 74.1088 456.413 73.709C455.98 74.2191 455.413 74.5981 454.776 74.8032C454.42 74.968 454.03 75.0451 453.639 75.0278C453.247 75.0105 452.865 74.8994 452.525 74.704C451.844 75.3643 451.363 75.696 451.093 75.696C450.358 75.4889 449.604 75.356 448.843 75.2992C448.081 75.2408 447.328 75.1079 446.592 74.9025C446.6 75.0104 446.586 75.1188 446.551 75.2211C446.516 75.3234 446.46 75.4175 446.388 75.4976C446.388 75.6278 446.594 75.6278 447.008 75.4976C447.417 75.3643 447.553 75.4976 447.417 75.8944C446.561 76.0223 445.688 75.9545 444.863 75.696C443.974 75.4294 442.985 75.1649 441.896 74.9025C441.896 74.7692 441.927 74.704 441.995 74.704C442.063 74.704 442.097 74.6358 442.097 74.5056V74.3072C439.969 74.1813 437.902 73.548 436.069 72.4603C434.235 71.3726 432.688 69.862 431.558 68.0547C429.258 64.1313 428.366 59.5402 429.031 55.0412C429.564 50.6606 431.143 46.4725 433.635 42.8307C436.015 39.458 438.163 36.2485 440.076 33.2023C438.198 33.2674 436.338 33.6025 434.555 34.1974C432.352 34.8643 430.092 35.3292 427.804 35.5862C426.977 35.7205 426.5 35.8858 426.371 36.0822C426.256 36.2238 426.185 36.3963 426.167 36.5782C426.167 36.7114 426.096 36.7765 425.959 36.7765C425.406 36.6823 424.86 36.5498 424.326 36.3798C424.051 36.5141 423.741 36.4108 423.396 36.0698C423.055 35.7412 422.745 35.642 422.466 35.7598C421.784 36.0263 421.613 35.923 421.954 35.4497C422.12 35.1949 422.2 34.8934 422.182 34.5897C422.163 34.286 422.048 33.9962 421.852 33.7634C421.348 33.5517 420.921 33.1908 420.628 32.7292C420.336 32.2675 420.191 31.7273 420.215 31.1812C420.215 29.9908 420.42 29.4638 420.835 29.594C420.418 27.5164 420.524 25.3676 421.145 23.3414C421.742 21.453 422.64 19.6734 423.805 18.0716C424.939 16.5109 426.243 15.0804 427.692 13.8061C429.124 12.5517 430.454 11.3934 431.682 10.3311C432.94 10.3376 434.187 10.5729 435.361 11.0255C436.601 11.4905 437.95 12.0516 439.456 12.7119C439.999 13.1118 440.479 13.4744 440.888 13.8061C441.326 14.1917 441.614 14.7181 441.704 15.2941L440.888 18.4715C440.621 18.5944 440.402 18.8041 440.268 19.0667C440.149 19.2318 439.996 19.3701 439.82 19.4726C439.644 19.5751 439.448 19.6396 439.245 19.6619C439.206 20.1305 439.067 20.5853 438.838 20.9963C438.609 21.4072 438.296 21.7648 437.919 22.0457C437.029 22.8362 436.177 23.5678 435.358 24.2157C435.065 24.3072 434.794 24.4608 434.565 24.6662C434.336 24.8717 434.154 25.124 434.031 25.406C433.773 26.0097 433.388 26.551 432.903 26.9932C432.14 27.4557 431.507 28.1055 431.065 28.8811C430.682 29.6361 430.201 30.3367 429.633 30.9642C431.096 31.1029 432.568 31.1029 434.031 30.9642C434.772 30.8748 435.496 30.6741 436.177 30.369C436.722 30.1044 437.337 29.84 438.021 29.5754C439.153 29.2056 440.316 28.9399 441.496 28.7818C442.651 29.0388 443.855 28.9702 444.974 28.5834C445.798 29.5133 446.726 30.3454 447.739 31.0634C448.758 31.7929 449.746 32.5534 450.703 33.3449C450.842 34.3663 450.842 35.4018 450.703 36.4231C450.589 37.0931 450.346 37.7344 449.987 38.311C449.618 38.8732 449.203 39.404 448.747 39.8981C448.165 40.5682 447.652 41.2952 447.215 42.0681C446.666 42.9981 446.188 43.8588 445.783 44.6504C445.322 45.4957 444.688 46.2348 443.923 46.8202C443.754 47.9592 443.33 49.0453 442.683 49.9976C442.017 51.0252 441.404 52.0857 440.845 53.1751C440.044 55.7344 439.461 58.357 439.103 61.0148C438.709 63.2957 439.106 65.6428 440.228 67.6672C441.728 68.0619 443.059 68.3926 444.221 68.6592C445.538 68.9238 446.894 68.9238 448.21 68.6592C448.48 68.5228 448.886 68.3244 449.45 68.0609C449.833 67.8479 450.255 67.714 450.69 67.6672V67.5649C450.69 67.3665 450.827 67.2549 451.1 67.2549C452.662 67.1842 454.164 66.6283 455.396 65.6647C456.728 64.701 458.17 63.9006 459.693 63.2808C460.092 63.0262 460.506 62.7944 460.932 62.5864C461.334 62.3944 461.748 62.2297 462.172 62.0935C462.854 61.9602 463.226 61.7836 463.298 61.5945C463.369 61.4054 463.67 61.2318 464.228 61.0985C464.407 60.7755 464.698 60.5288 465.046 60.4041C465.18 60.3738 465.306 60.3133 465.413 60.2274C465.521 60.1415 465.607 60.0324 465.666 59.9081C466.111 59.6193 466.527 59.287 466.906 58.9161C467.311 58.4403 467.795 58.0367 468.335 57.7226C469.157 57.0655 470.21 56.1727 471.509 55.0444C472.626 54.054 473.823 53.1571 475.087 52.3629C475.769 51.8359 477.304 50.6786 479.693 48.891C482.024 47.1501 484.182 45.1892 486.138 43.0353C486.817 42.3719 487.294 41.91 487.57 41.6434C487.807 41.4016 488.083 41.2004 488.385 41.0482C488.658 40.918 488.965 40.7382 489.315 40.5522L490.865 39.6594C491.138 38.9992 491.408 38.3389 491.684 37.6755C492.02 36.9219 492.507 36.2455 493.116 35.6884C494.152 35.6152 495.179 35.4492 496.185 35.1924C497.682 34.8638 498.503 35.0933 498.64 35.8869C498.64 36.417 498.503 36.6804 498.231 36.6804C498.424 37.4803 498.38 38.3191 498.105 39.0946C497.829 39.87 497.335 40.5488 496.681 41.0482C495.481 42.1053 494.416 43.3057 493.51 44.6224C493.252 44.8607 493.075 45.1724 493.001 45.5152C492.946 45.7043 492.855 45.8805 492.731 46.0338C492.608 46.1871 492.455 46.3142 492.282 46.408C491.98 46.8368 491.638 47.2355 491.259 47.5983L489.622 49.1886C488.847 49.6705 488.184 50.3132 487.679 51.0734C487.21 51.7679 486.528 52.2904 485.735 52.5613C484.78 53.6257 483.963 54.5194 483.283 55.2427C482.603 55.9661 481.955 56.6273 481.339 57.2266C480.724 57.8257 480.075 58.3898 479.396 58.9161C478.618 59.5065 477.798 60.0371 476.94 60.5033C476.665 60.7699 476.187 61.1977 475.508 61.7929C474.829 62.3881 474.107 63.0328 473.36 63.6807C472.613 64.3286 471.928 64.9393 471.311 65.4663C470.907 65.8451 470.462 66.1778 469.984 66.4583C467.393 68.1756 465.279 69.4662 463.642 70.3301C462.005 71.1887 461.252 71.7498 461.391 72.0164C461.18 72.0042 460.968 72.0379 460.771 72.1156C460.588 72.2861 460.331 72.4008 459.922 72.5217ZM432.1 18.5242C431.71 19.1693 431.14 19.6864 430.46 20.0122C429.711 20.4039 429.077 20.9853 428.622 21.6985C429.302 21.1715 429.984 20.6756 430.668 20.2106C431.303 19.8037 431.801 19.2164 432.1 18.5242Z" fill="white"/>
<path d="M577.555 47.9114C577.193 47.8587 576.824 47.916 576.496 48.0757C576.168 48.2355 575.895 48.4904 575.713 48.8073C575.164 49.5368 574.618 50.2312 574.077 50.8904C574.101 50.6795 574.171 50.4764 574.281 50.2952C573.214 51.0658 572.19 51.8937 571.212 52.7752C570.253 53.6349 569.23 54.5937 568.143 55.6518H567.734V55.4535C567.458 55.7201 567.151 56.0487 566.804 56.4455C566.746 56.5357 566.67 56.613 566.581 56.6724C566.491 56.7318 566.391 56.7721 566.285 56.7908C566.179 56.8094 566.071 56.8059 565.967 56.7806C565.862 56.7554 565.764 56.7088 565.679 56.6438C565.06 56.9773 564.528 57.4533 564.129 58.0326C563.984 58.2777 563.791 58.4917 563.563 58.6625C563.335 58.8332 563.075 58.9573 562.799 59.0277C562.114 59.6911 561.559 60.187 561.162 60.5156L559.324 62.0036C559.324 61.8734 559.185 61.8052 558.912 61.8052C558.186 62.4921 557.248 62.9118 556.252 62.9956C554.862 63.7214 553.529 64.5504 552.263 65.4755C551.243 66.2868 549.985 66.74 548.682 66.7651C547.79 66.8467 546.903 66.9791 546.025 67.1619C545.419 67.2987 544.79 67.2987 544.184 67.1619C542.778 67.2266 541.394 67.5295 540.089 68.0578C538.805 68.6392 537.357 68.749 536 68.3678C535.87 68.0494 535.676 67.7616 535.429 67.5225C535.182 67.2834 534.887 67.0984 534.565 66.979C533.938 66.6095 533.289 66.2782 532.621 65.987C532.28 65.8082 531.984 65.5547 531.754 65.2456C531.525 64.9365 531.368 64.5796 531.295 64.2014C529.775 63.2529 528.622 61.8185 528.021 60.1312C527.301 58.1584 526.921 56.0779 526.896 53.978C526.834 51.5513 527.005 49.1242 527.407 46.7303C527.807 44.2522 528.354 41.8 529.044 39.3866C527.025 40.9465 525.173 42.7126 523.52 44.6564C521.747 46.7086 519.974 48.6605 518.201 50.5122C517.591 51.6043 516.834 52.6068 515.95 53.4912C515.135 54.2848 514.313 55.0133 513.495 55.6612C511.174 58.3127 508.992 60.6293 506.948 62.6111C506.953 62.6669 506.948 62.7232 506.93 62.7765C506.913 62.8298 506.886 62.879 506.849 62.9212C506.723 63.07 506.618 63.2359 506.539 63.414C505.448 64.2097 504.221 65.1397 502.859 66.204C501.548 67.2284 500.142 68.1262 498.662 68.8854C497.26 69.6025 495.733 70.0404 494.164 70.1749C492.421 70.2511 490.71 69.6853 489.356 68.5847C488.989 68.571 488.629 68.4852 488.295 68.332C487.962 68.1788 487.662 67.9613 487.412 67.6919C486.989 67.1611 486.461 66.7223 485.862 66.4024C485.267 66.2085 484.716 65.8981 484.242 65.4894C483.768 65.0807 483.38 64.5818 483.1 64.0217C482.682 62.6689 482.441 61.2673 482.384 59.8523C482.271 58.6519 482.376 57.4409 482.694 56.278C482.984 54.9717 483.431 53.7051 484.024 52.5055C484.694 50.0183 485.728 47.6438 487.093 45.4593C488.455 43.2749 489.751 41.2569 490.98 39.4052C493.299 36.3611 495.652 33.5484 498.039 30.9673C500.426 28.3861 502.914 25.8379 505.503 23.3228C506.404 22.8761 507.261 22.3447 508.061 21.7357C508.967 21.0651 509.967 20.5303 511.027 20.1485C511.413 20.2698 511.824 20.2878 512.219 20.2008C512.614 20.1138 512.979 19.9248 513.278 19.6526C514.099 19.0574 514.778 19.2247 515.324 20.1485C517.946 20.35 520.511 21.0232 522.894 22.1356C523.958 22.6409 524.907 23.36 525.681 24.248C526.456 25.1359 527.039 26.1737 527.395 27.2969C528.348 26.6335 529.234 26.0373 530.055 25.5082C530.876 24.9798 531.773 24.5785 532.714 24.3179C533.135 24.1758 533.495 23.8963 533.737 23.5243C534.007 23.1245 534.28 22.9261 534.553 22.9261C535.205 22.7906 535.878 22.7914 536.53 22.9285C537.182 23.0656 537.798 23.336 538.341 23.7227C539.414 24.4687 540.543 25.1319 541.717 25.7066C541.783 25.6423 541.867 25.5988 541.958 25.5812C542.048 25.5636 542.142 25.5727 542.228 25.6075C542.541 25.6686 542.865 25.634 543.158 25.5082C543.431 25.905 543.632 26.2026 543.778 26.401C543.95 26.682 544.088 26.9828 544.187 27.2969C544.429 29.9168 544.112 32.5583 543.257 35.0467C542.525 37.4636 541.53 39.7931 540.291 41.9936C539.743 45.0398 538.992 48.3464 538.037 51.9134C537.09 54.9411 537.02 58.1752 537.835 61.241C542.015 60.8888 546.082 59.7086 549.801 57.7691C553.004 55.9815 556.244 54.2248 559.519 52.4992C560.759 51.5755 561.885 50.7819 562.895 50.1185C563.994 49.3925 564.991 48.5243 565.862 47.5363C566.018 47.5482 566.165 47.6191 566.271 47.7347V47.9331C567.818 47.4548 569.223 46.6031 570.363 45.4532C572.409 43.7999 574.489 42.0794 576.603 40.2918C578.717 38.5042 580.695 36.949 582.536 35.6264C584.378 34.3058 585.429 33.8409 585.704 34.2376C585.839 34.367 586.013 34.4472 586.199 34.4653C586.384 34.4833 586.571 34.4381 586.727 34.3369C586.879 34.2433 587.05 34.1856 587.227 34.1684C587.405 34.1512 587.584 34.1749 587.75 34.2376C587.884 34.5042 587.921 34.7026 587.856 34.8328C587.822 34.9 587.813 34.9775 587.832 35.0506C587.851 35.1236 587.896 35.1873 587.958 35.2296V34.8328C588.091 34.8328 588.091 35.0002 587.958 35.3288C587.825 35.6574 587.682 35.9922 587.546 36.3208C587.456 36.5767 587.317 36.8125 587.137 37.0152C587 37.1485 587 37.0152 587.137 36.6184L586.207 37.5112L585.277 38.407C585.08 38.8598 584.909 39.3235 584.765 39.7958C584.622 40.2685 584.452 40.7322 584.254 41.1845C583.967 41.219 583.677 41.1485 583.438 40.9862C583.233 41.5649 582.834 42.0552 582.31 42.3749C581.753 42.7491 581.352 43.315 581.185 43.9652C580.912 43.9652 580.639 44.2969 580.366 44.9572L577.555 47.9114ZM521.704 30.8401C521.485 29.295 520.958 27.8096 520.154 26.4723C519.403 25.282 518.073 25.1497 516.164 26.0756L512.89 29.6497C512.633 30.0316 512.281 30.3394 511.867 30.5425C511.492 30.7184 511.147 30.9529 510.844 31.237C510.526 31.5637 510.251 31.9305 510.026 32.3281C509.716 32.8454 509.374 33.3433 509.003 33.8191L506.139 36.9935C504.544 38.9841 503.075 41.0723 501.74 43.246C500.31 45.5648 499.049 47.7822 497.958 49.8984C497.698 50.5366 497.354 51.1371 496.935 51.684C496.441 52.4039 496.094 53.2139 495.912 54.0678C495.636 53.9376 495.503 53.9686 495.503 54.167C495.503 54.3654 495.432 54.3995 495.295 54.2662C495.08 55.5772 494.592 56.8286 493.863 57.9396C493.136 59.0947 492.779 60.4447 492.84 61.8083C493.931 61.1481 495.094 60.4877 496.318 59.8244C497.439 59.2425 498.473 58.5069 499.39 57.639C503.344 53.9377 507.129 50.0669 510.745 46.0267C514.362 41.9864 517.941 37.8532 521.483 33.627C521.906 33.3497 522.257 32.9756 522.506 32.5358C522.724 32.121 523.089 31.8026 523.529 31.643V31.2462C522.984 30.9071 522.342 30.7608 521.704 30.8308V30.8401Z" fill="white"/>
<path d="M350.005 101.115C363.374 100.985 376.369 105.53 386.742 113.964L372.21 131.051C366.3 125.626 358.577 122.602 350.554 122.573C335.34 122.573 325.606 132.902 325.606 149.062C325.606 165.491 335.064 175.814 350.554 175.814C354.594 175.857 358.602 175.095 362.343 173.572C366.085 172.048 369.486 169.795 372.346 166.942L387.703 182.569C377.211 192.296 363.352 197.567 349.047 197.271C319.437 197.271 299.012 176.611 299.012 149.062C299.012 121.909 320.262 101.115 350.005 101.115Z" fill="white"/>
<path d="M390.301 102.839H416.88V195.548H390.288L390.301 102.839Z" fill="white"/>
<path d="M424.161 102.839H449.246L485.161 155.537V102.839H510.11V195.548H485.161L449.119 143.101V195.548H424.171L424.161 102.839Z" fill="white"/>
<path d="M517.373 102.839H589.747V124.823H543.828V138.996H584.402V158.067H543.828V173.566H590.165V195.554H517.379L517.373 102.839Z" fill="white"/>
<path d="M86.4563 137.397C83.7302 137.397 81.065 136.59 78.7981 135.075C76.5311 133.561 74.7642 131.409 73.7207 128.89C72.6772 126.372 72.4039 123.6 72.9356 120.926C73.4673 118.253 74.78 115.797 76.7077 113.869C78.6353 111.941 81.0914 110.629 83.7652 110.097C86.4389 109.565 89.2103 109.838 91.7288 110.882C94.2473 111.925 96.3998 113.692 97.914 115.959C99.4282 118.226 100.236 120.891 100.235 123.618C100.231 127.271 98.7783 130.773 96.1951 133.356C93.6119 135.94 90.1095 137.393 86.4563 137.397ZM86.4563 116.726C85.0932 116.726 83.7605 117.129 82.6269 117.886C81.4933 118.643 80.6095 119.719 80.0875 120.978C79.5655 122.237 79.4286 123.623 79.6941 124.96C79.9597 126.297 80.6158 127.525 81.5794 128.489C82.543 129.453 83.7708 130.11 85.1076 130.376C86.4445 130.642 87.8302 130.506 89.0895 129.984C90.3489 129.463 91.4254 128.58 92.1827 127.446C92.9401 126.313 93.3443 124.981 93.3443 123.618C93.3418 121.792 92.6154 120.041 91.3241 118.75C90.0329 117.459 88.2824 116.732 86.4563 116.73V116.726Z" fill="#C12A38"/>
<path d="M86.4562 151.179C81.0042 151.18 75.6744 149.563 71.141 146.535C66.6076 143.506 63.0741 139.201 60.9875 134.165C58.9008 129.128 58.3546 123.585 59.4181 118.238C60.4816 112.891 63.1069 107.979 66.962 104.124C70.8172 100.268 75.729 97.6431 81.0763 96.5796C86.4236 95.5161 91.9661 96.0623 97.003 98.149C102.04 100.236 106.345 103.769 109.373 108.302C112.402 112.836 114.018 118.166 114.018 123.618H107.126C107.127 119.529 105.915 115.531 103.644 112.131C101.372 108.731 98.1436 106.081 94.3659 104.515C90.5882 102.95 86.4312 102.541 82.4207 103.338C78.4102 104.136 74.7262 106.105 71.8348 108.996C68.9434 111.888 66.9744 115.572 66.1769 119.582C65.3793 123.593 65.7889 127.75 67.354 131.527C68.9191 135.305 71.5693 138.534 74.9695 140.805C78.3697 143.076 82.3671 144.289 86.4562 144.288V151.179Z" fill="#C12A38"/>
<path d="M134.691 137.397C131.965 137.397 129.3 136.588 127.034 135.074C124.767 133.559 123.001 131.406 121.958 128.888C120.915 126.369 120.642 123.598 121.174 120.925C121.706 118.251 123.019 115.795 124.947 113.868C126.875 111.94 129.331 110.628 132.004 110.097C134.678 109.565 137.449 109.839 139.968 110.882C142.486 111.926 144.638 113.693 146.152 115.96C147.666 118.227 148.474 120.892 148.473 123.618C148.469 127.271 147.016 130.774 144.432 133.357C141.848 135.941 138.345 137.393 134.691 137.397ZM134.691 116.726C133.328 116.726 131.996 117.131 130.863 117.888C129.729 118.645 128.846 119.721 128.325 120.98C127.803 122.24 127.667 123.625 127.932 124.962C128.198 126.299 128.855 127.527 129.818 128.49C130.782 129.454 132.01 130.11 133.347 130.376C134.684 130.642 136.069 130.506 137.328 129.984C138.587 129.463 139.664 128.579 140.421 127.446C141.178 126.313 141.582 124.98 141.582 123.618C141.579 121.791 140.852 120.041 139.56 118.75C138.268 117.458 136.518 116.732 134.691 116.729V116.726Z" fill="#C12A38"/>
<path d="M134.691 151.179C129.239 151.179 123.91 149.562 119.377 146.533C114.844 143.504 111.311 139.199 109.225 134.162C107.138 129.125 106.593 123.583 107.656 118.236C108.72 112.889 111.346 107.977 115.201 104.122C119.056 100.268 123.968 97.6426 129.315 96.5794C134.663 95.5162 140.205 96.0625 145.242 98.1492C150.278 100.236 154.583 103.769 157.612 108.303C160.64 112.836 162.256 118.166 162.256 123.618C162.248 130.926 159.342 137.932 154.174 143.099C149.006 148.267 141.999 151.172 134.691 151.179ZM134.691 102.944C130.602 102.944 126.605 104.157 123.206 106.428C119.806 108.7 117.156 111.929 115.591 115.706C114.027 119.484 113.617 123.641 114.415 127.651C115.213 131.661 117.182 135.345 120.073 138.236C122.964 141.127 126.648 143.096 130.658 143.894C134.668 144.691 138.825 144.282 142.602 142.717C146.38 141.153 149.609 138.503 151.88 135.103C154.152 131.703 155.364 127.706 155.364 123.618C155.359 118.137 153.179 112.882 149.303 109.006C145.427 105.13 140.172 102.95 134.691 102.944Z" fill="#C12A38"/>
<path d="M158.808 226.978H62.3358C60.5089 226.976 58.7576 226.249 57.4658 224.957C56.174 223.665 55.4472 221.914 55.4447 220.087V151.179C55.448 149.352 56.175 147.602 57.4667 146.31C58.7583 145.018 60.5092 144.291 62.3358 144.288H158.808C160.635 144.291 162.386 145.018 163.678 146.31C164.969 147.602 165.696 149.352 165.699 151.179V164.961H158.808V151.179H62.3358V220.087H158.78C158.725 220.065 158.808 219.839 158.808 219.442V185.635H165.699V219.442C165.762 220.394 165.631 221.349 165.315 222.249C165 223.149 164.505 223.976 163.861 224.68C163.217 225.384 162.438 225.95 161.57 226.345C160.701 226.74 159.762 226.956 158.808 226.978Z" fill="#C12A38"/>
<path d="M79.562 206.305H72.6709V213.196H79.562V206.305Z" fill="#C12A38"/>
<path d="M110.571 206.305H86.4534V213.196H110.571V206.305Z" fill="#C12A38"/>
<path d="M196.708 202.861C195.942 202.874 195.18 202.744 194.461 202.479L194.064 202.309L168.31 189.078H58.8826V182.187H169.971L196.807 195.976L196.699 154.626L169.971 168.405H58.8918V161.517H168.319L193.797 148.386C194.714 147.965 195.709 147.743 196.717 147.735C198.544 147.737 200.296 148.464 201.587 149.756C202.879 151.048 203.606 152.799 203.608 154.626V195.97C203.606 197.798 202.878 199.551 201.584 200.843C200.29 202.135 198.537 202.861 196.708 202.861Z" fill="#C12A38"/>
<path d="M172.591 164.961H165.7V185.634H172.591V164.961Z" fill="#C12A38"/>
<path d="M141.582 240.761H86.4562C84.6291 240.759 82.8772 240.032 81.5853 238.74C80.2933 237.448 79.5668 235.697 79.5651 233.869V223.534H86.4562V233.869H141.582V223.534H148.473V233.869C148.471 235.696 147.744 237.448 146.452 238.739C145.16 240.031 143.409 240.758 141.582 240.761Z" fill="#C12A38"/>
<path d="M45.1095 192.526C43.2828 192.522 41.532 191.795 40.2404 190.504C38.9488 189.212 38.2217 187.461 38.2184 185.634V164.961C38.2188 163.826 38.4997 162.708 39.0361 161.707C39.5725 160.706 40.3478 159.853 41.2931 159.224C42.2385 158.595 43.3245 158.209 44.4548 158.101C45.5852 157.993 46.7247 158.165 47.7723 158.603L60.0232 162.856L57.7603 169.366L45.3203 165.026L45.1095 185.622L57.8192 181.484L59.952 188.037L47.2423 192.172C46.5584 192.417 45.8359 192.537 45.1095 192.526Z" fill="#C12A38"/>
<path d="M89.0943 235.978L75.0939 269.355L81.4458 272.02L95.4462 238.642L89.0943 235.978Z" fill="#C12A38"/>
<path d="M106.319 235.98L92.3182 269.357L98.6701 272.021L112.67 238.644L106.319 235.98Z" fill="#C12A38"/>
<path d="M139.264 235.982L132.912 238.646L146.909 272.024L153.261 269.361L139.264 235.982Z" fill="#C12A38"/>
<path d="M122.039 235.982L115.686 238.646L129.684 272.024L136.036 269.361L122.039 235.982Z" fill="#C12A38"/>
<path d="M81.0163 229.619L65.6698 240.517L69.6598 246.136L85.0064 235.237L81.0163 229.619Z" fill="#C12A38"/>
<path d="M48.5567 268.315C46.3895 268.312 44.2782 267.628 42.5211 266.359C40.7639 265.091 39.4497 263.302 38.7644 261.246C38.0791 259.19 38.0573 256.971 38.7019 254.902C39.3465 252.833 40.625 251.019 42.3568 249.716L56.1391 239.381C57.6751 238.231 59.5008 237.531 61.412 237.359C63.3232 237.188 65.2445 237.551 66.9606 238.41C68.6768 239.268 70.1202 240.587 71.1293 242.22C72.1383 243.852 72.6732 245.732 72.674 247.651C72.6698 249.256 72.2941 250.839 71.5761 252.274C70.8581 253.709 69.8174 254.959 68.5357 255.925L54.7535 266.257C52.9682 267.602 50.7916 268.325 48.5567 268.315ZM62.3358 244.195C61.5914 244.195 60.867 244.437 60.2713 244.883L46.489 255.221C46.0589 255.54 45.7099 255.956 45.4703 256.434C45.2306 256.913 45.107 257.442 45.1096 257.977C45.1096 258.891 45.4728 259.768 46.1192 260.415C46.7657 261.061 47.6424 261.424 48.5567 261.424C49.3009 261.429 50.0257 261.187 50.6181 260.736L64.4034 250.401C64.9801 249.966 65.4058 249.361 65.6202 248.672C65.8347 247.982 65.8271 247.243 65.5986 246.558C65.3702 245.873 64.9323 245.277 64.3469 244.854C63.7614 244.431 63.058 244.203 62.3358 244.201V244.195Z" fill="#C12A38"/>
<path d="M168.886 119.334C168.581 116.879 168.012 114.465 167.19 112.132L173.7 109.845C174.686 112.643 175.367 115.54 175.731 118.484L168.886 119.334Z" fill="#C12A38"/>
<path d="M162.227 102.904C159.03 98.6216 154.874 95.148 150.092 92.7616C145.31 90.3752 140.035 89.1423 134.691 89.1621V82.271C141.103 82.2476 147.432 83.7269 153.17 86.5902C158.908 89.4535 163.896 93.6213 167.733 98.7594L162.227 102.904Z" fill="#C12A38"/>
<path d="M193.261 216.643H186.37V233.869H193.261V216.643Z" fill="#C12A38"/>
<path d="M193.261 247.651H186.37V264.878H193.261V247.651Z" fill="#C12A38"/>
<path d="M213.934 237.316H196.708V244.208H213.934V237.316Z" fill="#C12A38"/>
<path d="M182.926 237.316H165.7V244.208H182.926V237.316Z" fill="#C12A38"/>
<path d="M217.759 112.086L214.591 114.423L220.435 122.346L223.603 120.008L217.759 112.086Z" fill="#C12A38"/>
<path d="M228.28 126.342L225.112 128.679L230.957 136.601L234.125 134.264L228.28 126.342Z" fill="#C12A38"/>
<path d="M234.281 114.577L226.359 120.421L228.696 123.589L236.619 117.745L234.281 114.577Z" fill="#C12A38"/>
<path d="M220.023 125.093L212.1 130.938L214.438 134.106L222.36 128.262L220.023 125.093Z" fill="#C12A38"/>
<path d="M557.446 1.0018e-05L554.278 2.33716L560.122 10.2599L563.29 7.92272L557.446 1.0018e-05Z" fill="#C12A38"/>
<path d="M567.967 14.2591L564.798 16.5963L570.643 24.519L573.811 22.1818L567.967 14.2591Z" fill="#C12A38"/>
<path d="M573.968 2.49405L566.046 8.33881L568.383 11.5069L576.306 5.66212L573.968 2.49405Z" fill="#C12A38"/>
<path d="M559.707 13.0127L551.785 18.8575L554.122 22.0255L562.045 16.1808L559.707 13.0127Z" fill="#C12A38"/>
<path d="M5.65879 70.0161L2.49072 72.3532L8.33547 80.2759L11.5035 77.9388L5.65879 70.0161Z" fill="#C12A38"/>
<path d="M16.1801 84.2722L13.0119 86.6094L18.8567 94.5321L22.0248 92.1949L16.1801 84.2722Z" fill="#C12A38"/>
<path d="M22.1818 72.5069L14.2591 78.3516L16.5962 81.5197L24.5189 75.6749L22.1818 72.5069Z" fill="#C12A38"/>
<path d="M7.92271 83.0282L0 88.8729L2.33715 92.041L10.2599 86.1962L7.92271 83.0282Z" fill="#C12A38"/>
</svg>
