<svg xmlns="http://www.w3.org/2000/svg" viewBox="0 0 28.4 28.4"><title>logo_twitter</title><path d="M14.3,0A14.127,14.127,0,0,0,.1,14.2,14.2,14.2,0,1,0,14.3,0Zm5.1,11.5v.3a7.74,7.74,0,0,1-8,7.6,8.214,8.214,0,0,1-4.3-1.2h.7a6.062,6.062,0,0,0,3.5-1.1,3.022,3.022,0,0,1-1.6-.5,2.56,2.56,0,0,1-1-1.3,2.854,2.854,0,0,0,1.3,0,3.192,3.192,0,0,1-1.6-.9,2.716,2.716,0,0,1-.6-1.7h0a2.768,2.768,0,0,0,1.3.3,3.11,3.11,0,0,1-1.2-1.6,2.356,2.356,0,0,1,.3-2,8.6,8.6,0,0,0,2.6,2,7.216,7.216,0,0,0,3.2.8,2.464,2.464,0,0,1,.2-1.7,3.745,3.745,0,0,1,1.2-1.3,2.777,2.777,0,0,1,1.8-.3,3.048,3.048,0,0,1,1.6.8A4.491,4.491,0,0,0,20.6,9a2.555,2.555,0,0,1-1.2,1.5,7.491,7.491,0,0,0,1.6-.4A10.017,10.017,0,0,1,19.4,11.5Z" transform="translate(-0.1 0)"/></svg>