<?xml version="1.0" encoding="utf-8"?>
<!-- Generator: Adobe Illustrator 22.1.0, SVG Export Plug-In . SVG Version: 6.00 Build 0)  -->
<svg version="1.1" id="Layer_2_1_" xmlns="http://www.w3.org/2000/svg" xmlns:xlink="http://www.w3.org/1999/xlink" x="0px" y="0px"
	 viewBox="0 0 1527.5 651.9" style="enable-background:new 0 0 1527.5 651.9;" xml:space="preserve">
<style type="text/css">
	.st0{fill:url(#SVGID_1_);}
	.st1{fill:url(#SVGID_2_);}
	.st2{fill:url(#SVGID_3_);}
	.st3{fill:url(#SVGID_4_);}
	.st4{fill:url(#SVGID_5_);}
	.st5{fill:url(#SVGID_6_);}
</style>
<g>
	<g>
		<linearGradient id="SVGID_1_" gradientUnits="userSpaceOnUse" x1="0" y1="330.3933" x2="1527.4791" y2="330.3933">
			<stop  offset="0" style="stop-color:#F2D272"/>
			<stop  offset="1" style="stop-color:#F2A057"/>
		</linearGradient>
		<path class="st0" d="M62,649.4c-1.5-3.5-2-8-2-12.5c0-55.5,87.5-177.5,128.5-232.5c-27.5,1-57.5,2.5-86.5,2.5c-15,0-30-0.5-44-1.5
			c-31.5-2.5-58-9-58-24v-1c1.5-18.5,43-27.5,73.5-27.5H78c52.5,1,94,11.5,128,28.5c35-45,309-372.5,376.5-372.5c3,0,6,1,8,2.5
			c4,2.5,6,6.5,6,13c0,14.5-9.5,41-27,89c-34.5,96.5-91,231-100,258.5l68.5-6c4.5-0.5,11-1.5,17-1.5c10,0,19,2,19,10
			c0,2.5-1,5-2.5,8.5c-0.5,1.5-2.5,2.5-4.5,2.5h-1.5c-2.5-0.5-4.5-2-4.5-5l0.5-2c1-4,4-4.5,4-5l-0.5-0.5c-2-1-5-1-8.5-1
			c-8,0-19.5,1.5-27,2c-17.5,1.5-38,3-63,6c-31,80.5-61.5,165.5-82.5,243c-1.5,4.5-4.5,6.5-7,6.5s-5-1.5-6-4
			c-42-79.5-73-171-140.5-223l-35,1c-39,52-128.5,178-128.5,231v1.5c0,4,2,8,3,11l0.5,1c0,1.5-2,3-3.5,3.5l-2,0.5
			C63.5,651.9,62.5,650.9,62,649.4z M194,397.4c2-3.5,6.5-9,9-12.5c-33-16-75.5-26-126-26.5h-2.5C53,358.4,9,364.9,7,380.9v0.5
			c0,10,27.5,16,52,18c13,1,26,1.5,39,1.5C130,400.9,161.5,398.4,194,397.4z M221.5,395.4l-13.5-7.5l-6.5,8.5L221.5,395.4z
			 M453,373.4l103-267c16-42,26.5-70,26.5-81c0-2.5-0.5-4-2-4.5l-3-0.5c-47.5,0-332,319-366.5,363.5c6.5,3.5,14,7,19.5,10.5
			C327.5,389.4,396,380.4,453,373.4z M449.5,382.4c-54.5,6.5-118.5,14-209,19.5c66,48.5,131,194,136.5,207.5
			C380.5,589.4,420.5,464.4,449.5,382.4z"/>
		<linearGradient id="SVGID_2_" gradientUnits="userSpaceOnUse" x1="6.515503e-03" y1="442.8933" x2="1527.4855" y2="442.8933">
			<stop  offset="0" style="stop-color:#F2D272"/>
			<stop  offset="1" style="stop-color:#F2A057"/>
		</linearGradient>
		<path class="st1" d="M690,490.4c0-1.5,0-2.5,0.5-4c1-8,5.5-6.5,9-14c10.5-21.5,23.5-57.5,23.5-65c0-1,0-1.5-0.5-1.5
			c-2.5,0-13,14-25.5,27c-16.5,17-48.5,56-71,56h-1c-32-1.5-31-39-31.5-61.5c0-9-1-13-5-13c-3,0-7,2-13,6
			c-22.5,15.5-60.5,62-64.5,70c-1,1.5-2.5,2-4.5,2c-2.5,0-5.5-1.5-5.5-3.5l0.5-1.5c5.5-19,17.5-45.5,27.5-66.5c-2,0-3-1.5-3-3.5
			c0-7.5,14-26.5,20-29l2.5-0.5c3,0,5.5,2.5,5.5,5.5c0,1-0.5,2-1,3c-11.5,19-19,37.5-27.5,57c7-8.5,31-36,50.5-48.5
			c6.5-4,12.5-7,17-7c6,0,10,4.5,10.5,15c1,22.5-3,66,20.5,69.5h2c21.5,0,54.5-40,67-54c11-11.5,19-22,24-28c2.5-3,6.5-4.5,10-4.5
			c3,0,6,1.5,6,6v0.5c-0.5,7-10.5,38.5-20,59.5c6.5-8.5,49.5-63,71-63c6.5,0,11,5,12,18l0.5,19c0,20,0.5,42,17.5,43.5h3
			c27.5,0,62.5-44.5,83-70c1-1,2-1.5,3-1.5c1.5,0,2.5,1,2.5,2.5c0,1-0.5,1.5-1,2.5c-21.5,27-57,72-88,72H813
			c-30.5-3.5-22-48-24.5-67c-0.5-6.5-3.5-9-7-9c-16,0-54.5,52-58,56.5c-10,12.5-14,23-21.5,30c-2.5,1.5-4.5,2.5-6,2.5
			C692,497.9,690,494.4,690,490.4z"/>
		<linearGradient id="SVGID_3_" gradientUnits="userSpaceOnUse" x1="6.515503e-03" y1="435.1433" x2="1527.4855" y2="435.1433">
			<stop  offset="0" style="stop-color:#F2D272"/>
			<stop  offset="1" style="stop-color:#F2A057"/>
		</linearGradient>
		<path class="st2" d="M913,493.4c-24.5-2-33.5-17.5-33.5-36c0-15.5,6.5-33,15.5-45.5c11.5-16.5,29-34,46-35h2.5c8,0,13,4,13,11.5
			c0,2,0,3.5-0.5,5.5c-4,17-38.5,35.5-59.5,36.5c-4,6.5-7.5,18-7.5,29c0,14,6,27.5,25,28.5h3c42,0,105.5-59.5,127.5-78.5
			c1-1,2-1.5,2.5-1.5c1.5,0,2.5,1,2.5,2s-0.5,2-2,3c-24,21.5-86,80.5-130.5,80.5H913z M951,391.9v-2c0-3-2-5-6.5-5H942
			c-13,2-34.5,27-41,38C922,422.9,948.5,403.9,951,391.9z"/>
		<linearGradient id="SVGID_4_" gradientUnits="userSpaceOnUse" x1="6.515503e-03" y1="338.6433" x2="1527.4855" y2="338.6433">
			<stop  offset="0" style="stop-color:#F2D272"/>
			<stop  offset="1" style="stop-color:#F2A057"/>
		</linearGradient>
		<path class="st3" d="M1050.5,523.4c-13-7-19-22-19-44c0-9,1-19,3-30c6.5-37,24-86,51.5-142c23.5-48.5,48-85.5,70-111
			c24-28.5,46.5-46,62-46c4,0,7,1,10,3c3.5,3,5.5,7.5,5.5,13c0,53.5-153,216-177,237c-5.5,17.5-17,53.5-17,81.5c0,16,4,29,14,34.5
			c3.5,2,7.5,3,11.5,3c42.5,0,117.5-89,141.5-113c1-1,2-1.5,3-1.5l1,0.5c0.5,0,0.5,1,0.5,1.5s0,1.5-1,2.5
			c-26,26-101,114.5-146,114.5C1059,526.9,1054.5,525.4,1050.5,523.4z M1229,167.4c0-5-1-8.5-4.5-11c-1.5-1-3.5-1.5-5.5-1.5
			c-18,0-51,38-57.5,46.5c-41,48.5-79.5,127.5-102.5,194C1078.5,375.9,1229,215.4,1229,167.4z"/>
		<linearGradient id="SVGID_5_" gradientUnits="userSpaceOnUse" x1="6.515503e-03" y1="416.8933" x2="1527.4855" y2="416.8933">
			<stop  offset="0" style="stop-color:#F2D272"/>
			<stop  offset="1" style="stop-color:#F2A057"/>
		</linearGradient>
		<path class="st4" d="M1190.5,490.4c-4.5-3.5-6.5-9-6.5-16c0-29.5,31.5-82,34.5-85.5c1.5-2.5,4.5-3.5,6.5-3.5c3.5,0,6.5,2.5,6.5,6
			c0,2-0.5,4.5-3,7.5c-6,7.5-20.5,22.5-31,52.5c-3.5,10.5-6.5,21-6.5,28c0,3.5,1,6,2.5,7c1,1,2.5,1,4,1c21,0,87.5-61.5,104-77.5
			c1.5-1.5,2.5-2,3.5-2l1,1l0.5,1c0,0.5-0.5,1.5-2.5,3c-17.5,16.5-81,79.5-107,79.5C1194.5,492.4,1192,491.9,1190.5,490.4z
			 M1240,352.9c-1.5-2-2-3.5-2-5c0-4.5,5-6.5,9.5-6.5h1c3,0,5.5,1.5,6,4.5c0,4,0,7-2.5,8c-1.5,0.5-4,1-6.5,1
			C1243.5,354.9,1241.5,354.4,1240,352.9z"/>
		<linearGradient id="SVGID_6_" gradientUnits="userSpaceOnUse" x1="6.515503e-03" y1="452.3933" x2="1527.4855" y2="452.3933">
			<stop  offset="0" style="stop-color:#F2D272"/>
			<stop  offset="1" style="stop-color:#F2A057"/>
		</linearGradient>
		<path class="st5" d="M1395,516.9c-5-2.5-6.5-7-6.5-12c0-4.5,1-9,3-12.5c13.5-26.5,43-50,69.5-62.5v-3c0-14-5.5-25-18.5-25l-7,1
			c-30.5,7-72,88.5-129.5,88.5h-1c-17,0-25.5-12.5-25.5-28v-1.5c0-14,6-30,14-42.5s27.5-34,44.5-34l3.5,0.5c6.5,1,10,6,10,11.5
			c0,8.5-8,19-27.5,25c-6,1.5-11.5,2.5-16.5,2.5l-7-0.5c-5,8.5-12.5,27.5-12.5,42c0,11,4,20,17,20h1c58,0,94-88.5,134-91.5h3.5
			c16.5,0,26,12,26,29.5v1.5c17-7,35-13,54-18h1.5c1.5,0,2.5,0.5,2.5,1.5s-0.5,1.5-3,2c-19,5-38.5,12-55,19.5
			c-6.5,43.5-38.5,88.5-64.5,88.5C1401.5,519.4,1398,518.4,1395,516.9z M1344.5,397.9v-0.5c0-3-2-4.5-5.5-4.5
			c-7.5,0-22.5,8.5-34.5,25h1.5C1320,417.9,1343.5,410.4,1344.5,397.9z M1460,434.9c-23,12-52.5,36-64.5,59c-2,4-3,8-3,11.5
			c0,4,1,7,4.5,8.5c2.5,1,4.5,1.5,7,1.5C1428.5,515.4,1455.5,463.9,1460,434.9z"/>
	</g>
</g>
</svg>
