<svg xmlns="http://www.w3.org/2000/svg" viewBox="0 0 28.4 28.4"><title>logo_instagram</title><path d="M14.2,0A14.127,14.127,0,0,0,0,14.2,14.2,14.2,0,1,0,14.2,0Zm5.9,16.6a2.649,2.649,0,0,1-.3,1.4,3.592,3.592,0,0,1-.7,1,6.07,6.07,0,0,1-1,.7c-.4.1-.8.2-1.4.3H11.9a2.649,2.649,0,0,1-1.4-.3,1.834,1.834,0,0,1-1-.7,6.07,6.07,0,0,1-.7-1c-.1-.4-.2-.8-.3-1.4V11.8a2.649,2.649,0,0,1,.3-1.4,1.834,1.834,0,0,1,.7-1,6.07,6.07,0,0,1,1-.7c.4-.1.8-.2,1.4-.3h4.8a2.649,2.649,0,0,1,1.4.3,1.834,1.834,0,0,1,1,.7,6.07,6.07,0,0,1,.7,1c.1.4.2.8.3,1.4v4.8Z" transform="translate(0 0)"/><path d="M18.8,10.7a1.532,1.532,0,0,0-1.1-1.1,2.332,2.332,0,0,0-1.1-.2H11.8a2.332,2.332,0,0,0-1.1.2,1.532,1.532,0,0,0-1.1,1.1,2.332,2.332,0,0,0-.2,1.1v4.8a2.332,2.332,0,0,0,.2,1.1,1.532,1.532,0,0,0,1.1,1.1,2.332,2.332,0,0,0,1.1.2h4.8a2.332,2.332,0,0,0,1.1-.2,1.532,1.532,0,0,0,1.1-1.1,2.332,2.332,0,0,0,.2-1.1V11.8A2.332,2.332,0,0,0,18.8,10.7Zm-2,5.2A3.007,3.007,0,0,1,15.4,17a2.824,2.824,0,0,1-1.8.2,3.048,3.048,0,0,1-1.6-.8,3.465,3.465,0,0,1-.8-1.6,3.722,3.722,0,0,1,.2-1.8,3.6,3.6,0,0,1,1.1-1.4,3.371,3.371,0,0,1,1.7-.5,3.212,3.212,0,0,1,2.2,1,2.723,2.723,0,0,1,.9,2.1A3.371,3.371,0,0,1,16.8,15.9Zm.5-4.2A.7.7,0,1,1,18,11,.684.684,0,0,1,17.3,11.7Z" transform="translate(0 0)"/><path d="M14.9,12.5a1.986,1.986,0,0,0-1.1-.1,1.389,1.389,0,0,0-1,.5,3.128,3.128,0,0,0-.5,1,2.161,2.161,0,0,0,.1,1.1,1.6,1.6,0,0,0,.7.9,2.016,2.016,0,0,0,1.1.3,2.541,2.541,0,0,0,1.3-.5,1.974,1.974,0,0,0,.6-1.4,2.016,2.016,0,0,0-.3-1.1A1.6,1.6,0,0,0,14.9,12.5Z" transform="translate(0 0)"/></svg>