<svg width="29" height="29" viewBox="0 0 29 29" fill="none" xmlns="http://www.w3.org/2000/svg">
<circle cx="14.2727" cy="14.1818" r="14.1818" fill="black"/>
<g >
<path d="M20.8158 10.121C20.3053 10.3382 19.7638 10.4807 19.2092 10.5439C19.7934 10.2083 20.2305 9.68022 20.4391 9.05807C19.8901 9.37095 19.2894 9.59136 18.6629 9.70978C18.2411 9.27936 17.6834 8.99438 17.0759 8.89894C16.4684 8.8035 15.8452 8.9029 15.3025 9.18179C14.7598 9.46067 14.328 9.90348 14.0738 10.4417C13.8196 10.9799 13.7572 11.5836 13.8963 12.1593C12.7841 12.1059 11.696 11.8284 10.7028 11.3451C9.70949 10.8617 8.83321 10.1831 8.13081 9.35345C7.77326 9.94472 7.66374 10.6446 7.82455 11.3106C7.98537 11.9767 8.40442 12.5589 8.99647 12.9388C8.55227 12.9255 8.11783 12.8103 7.72945 12.6029C7.72945 12.6141 7.72945 12.6253 7.72945 12.6367C7.72954 13.2568 7.95301 13.8578 8.36198 14.3378C8.77094 14.8178 9.34022 15.1472 9.97329 15.2701C9.56135 15.3776 9.12929 15.3933 8.71006 15.3161C8.88873 15.8498 9.23665 16.3164 9.70516 16.6508C10.1737 16.9853 10.7393 17.1707 11.323 17.1813C10.3322 17.9279 9.10863 18.3328 7.84909 18.3309C7.6261 18.3309 7.40329 18.3184 7.18182 18.2934C8.46081 19.0825 9.9494 19.5014 11.4697 19.5C16.6148 19.5 19.4283 15.4077 19.4283 11.8588C19.4283 11.7424 19.4256 11.6266 19.4202 11.5114C19.9678 11.1312 20.4404 10.6604 20.8158 10.121Z" fill="white"/>
</g>
</svg>
