<svg width="29" height="29" viewBox="0 0 29 29" fill="none" xmlns="http://www.w3.org/2000/svg">
<circle cx="14.1818" cy="14.1818" r="14.1818" fill="black"/>
<path d="M14.1818 9.33752C15.7596 9.33752 15.9465 9.34352 16.5697 9.37195C17.1458 9.39825 17.4586 9.49451 17.6669 9.57541C17.9236 9.67015 18.1557 9.82119 18.3463 10.0174C18.5426 10.2081 18.6936 10.4402 18.7884 10.6969C18.8693 10.9051 18.9655 11.218 18.9918 11.7941C19.0203 12.4172 19.0263 12.6041 19.0263 14.1819C19.0263 15.7598 19.0203 15.9466 18.9918 16.5698C18.9655 17.1459 18.8693 17.4588 18.7884 17.667C18.6901 17.9219 18.5395 18.1533 18.3463 18.3465C18.1532 18.5396 17.9218 18.6902 17.6669 18.7885C17.4587 18.8694 17.1458 18.9656 16.5697 18.9919C15.9467 19.0204 15.7598 19.0264 14.1818 19.0264C12.6039 19.0264 12.4171 19.0204 11.794 18.9919C11.2179 18.9656 10.905 18.8694 10.6967 18.7885C10.4401 18.6937 10.2079 18.5427 10.0173 18.3465C9.82106 18.1558 9.67001 17.9237 9.57528 17.667C9.49438 17.4588 9.39811 17.1459 9.37182 16.5698C9.34339 15.9467 9.33739 15.7598 9.33739 14.182C9.33739 12.6041 9.34339 12.4173 9.37182 11.7941C9.39811 11.218 9.49438 10.9051 9.57528 10.6969C9.67004 10.4402 9.82111 10.208 10.0174 10.0174C10.208 9.82119 10.4402 9.67015 10.6968 9.57541C10.905 9.49451 11.2179 9.39825 11.794 9.37195C12.4172 9.34352 12.604 9.33752 14.1819 9.33752H14.1818ZM14.1819 8.2728C12.5771 8.2728 12.3758 8.2796 11.7456 8.30836C11.1166 8.33707 10.6871 8.43694 10.3112 8.58303C9.91691 8.7314 9.55973 8.964 9.26458 9.26459C8.96398 9.55975 8.73139 9.91692 8.58301 10.3112C8.43688 10.6871 8.33701 11.1166 8.30841 11.7456C8.27954 12.3758 8.27274 12.5771 8.27274 14.1819C8.27274 15.7867 8.27954 15.988 8.3083 16.6182C8.33701 17.2472 8.43688 17.6767 8.58297 18.0526C8.73134 18.4469 8.96394 18.804 9.26453 19.0992C9.55967 19.3998 9.91685 19.6325 10.3111 19.7809C10.687 19.9269 11.1166 20.0268 11.7455 20.0555C12.3757 20.0842 12.577 20.091 14.1818 20.091C15.7866 20.091 15.9879 20.0842 16.6181 20.0554C17.2471 20.0267 17.6766 19.9268 18.0525 19.7807C18.4451 19.6289 18.8016 19.3968 19.0992 19.0992C19.3968 18.8016 19.629 18.4451 19.7808 18.0526C19.9269 17.6767 20.0268 17.2472 20.0555 16.6182C20.0841 15.988 20.0909 15.7867 20.0909 14.1819C20.0909 12.5771 20.0841 12.3758 20.0554 11.7456C20.0266 11.1166 19.9268 10.6871 19.7807 10.3112C19.6323 9.91692 19.3997 9.55975 19.0991 9.26459C18.804 8.964 18.4468 8.7314 18.0525 8.58303C17.6766 8.43694 17.2471 8.33707 16.6181 8.30847C15.9879 8.2796 15.7866 8.2728 14.1818 8.2728H14.1819Z" fill="white"/>
<path d="M14.1821 11.1475C13.582 11.1475 12.9953 11.3254 12.4963 11.6588C11.9973 11.9923 11.6084 12.4662 11.3787 13.0206C11.1491 13.5751 11.089 14.1852 11.2061 14.7738C11.3231 15.3625 11.6121 15.9031 12.0365 16.3275C12.4609 16.7519 13.0015 17.0409 13.5901 17.158C14.1787 17.275 14.7888 17.215 15.3433 16.9853C15.8977 16.7556 16.3717 16.3667 16.7051 15.8677C17.0385 15.3687 17.2164 14.782 17.2164 14.1819C17.2164 13.3771 16.8968 12.6053 16.3277 12.0362C15.7587 11.4672 14.9869 11.1475 14.1821 11.1475ZM14.1821 16.1515C13.7925 16.1515 13.4117 16.036 13.0878 15.8196C12.7639 15.6032 12.5114 15.2955 12.3624 14.9356C12.2133 14.5757 12.1743 14.1796 12.2503 13.7976C12.3263 13.4155 12.5139 13.0645 12.7893 12.789C13.0648 12.5136 13.4158 12.326 13.7979 12.25C14.1799 12.174 14.576 12.213 14.9359 12.3621C15.2958 12.5112 15.6034 12.7636 15.8198 13.0875C16.0363 13.4115 16.1518 13.7923 16.1518 14.1819C16.1518 14.7043 15.9442 15.2053 15.5749 15.5746C15.2055 15.944 14.7045 16.1515 14.1821 16.1515Z" fill="white"/>
<path d="M17.336 11.7365C17.7276 11.7365 18.045 11.4191 18.045 11.0275C18.045 10.6359 17.7276 10.3184 17.336 10.3184C16.9444 10.3184 16.6269 10.6359 16.6269 11.0275C16.6269 11.4191 16.9444 11.7365 17.336 11.7365Z" fill="white"/>
</svg>
