<svg xmlns="http://www.w3.org/2000/svg" viewBox="0 0 50 54.419"><defs><style>.a{fill:#fff;fill-rule:evenodd;}</style></defs><title>tjms_branco</title><path class="a" d="M40.431,17.548v-.433l-.262-.05c.09.16.177.32.262.483Z"/><path class="a" d="M9.913,17.049V17.4c-.119.224-.234.452-.344.682v-.969l.344-.066Z"/><path class="a" d="M25.392,8.266a17.368,17.368,0,0,1,2.129.163l.11-2.6L25.05.731,22.591,5.747l.095,2.69a17.377,17.377,0,0,1,2.385-.173h-.232l.2-6.582.357,6.585Zm-8.778,2.251a14.253,14.253,0,0,0-4.045.547,7.159,7.159,0,0,0-3.954,3.3c-.294.632-.549,2.268.164,2.782L.1,37.387H0c.7,3.58,4.628,6.334,9.34,6.334a10.361,10.361,0,0,0,7.723-3.18l-.331-.181A10.194,10.194,0,0,1,9.34,43.372c-4.192,0-8.116-2.451-8.742-5.636H13.191c-.119-.114-.237-.231-.353-.349H9.91V33.4A17.285,17.285,0,0,0,22.4,42.33l-.086-.014c-.39-.008-.836-.025-1.294-.061-1.361-.106-2.8-.319-3.6-.452s-1.547-.265-1.841.346.054,1.035.881,1.274a14.41,14.41,0,0,0,2.881.532c1.2.106,1.85.122,1.85.122a1.307,1.307,0,0,0-.569,1.257c.131.4.308.682.8.707.664-.029.9-.584,2.237-.652a2.55,2.55,0,0,0,.1,1.559,1.525,1.525,0,0,0-.181.619,3.125,3.125,0,0,0,.187.8,1.031,1.031,0,0,0-.16.585,2.422,2.422,0,0,0,.16.77.885.885,0,0,0-.16.611,1.164,1.164,0,0,0,.133.637.952.952,0,0,0-.133.345l-.027.186a1.339,1.339,0,0,0-.88-.265c-.48.053-.934.239-1.041.77a.821.821,0,0,0,.4.983,1.94,1.94,0,0,0,1.414.106c.453-.186.827-.319.827-.319a.348.348,0,0,0,.026.4.811.811,0,0,0,.721,1.249.741.741,0,0,0,.521-1.276.725.725,0,0,0,.359-.876,2.6,2.6,0,0,0,1.708.186.936.936,0,0,0,.373-1.328,1.13,1.13,0,0,0-1.174-.451,2.461,2.461,0,0,0-.613.212.316.316,0,0,0,.133-.292l-.027-.186a1.32,1.32,0,0,0,.107-.637,1.264,1.264,0,0,0-.107-.505.818.818,0,0,0,.241-.584,1.4,1.4,0,0,0-.107-.584,2.326,2.326,0,0,0,.133-.744,1.953,1.953,0,0,0-.187-.77,1.39,1.39,0,0,0,.054-1.142c.924-.08,1.314.472,2.081.611.283.145.726-.161.895-.56a1.28,1.28,0,0,0-.762-1.406,25.105,25.105,0,0,0,2.748-.212,8.942,8.942,0,0,0,2.455-.611,1.086,1.086,0,0,0,.694-1.115c-.081-.213-.241-.4-.881-.4s-3.068.425-4.215.505c-.822.057-1.233.087-1.694.089l-.016,0a17.125,17.125,0,0,0,5.292-1.731l-.036.02a10.4,10.4,0,0,0,7.637,3.085c4.712,0,8.636-2.754,9.34-6.334h-.095L41.221,17.144c.713-.514.458-2.15.164-2.782a7.155,7.155,0,0,0-3.954-3.3,13.634,13.634,0,0,0-3.767-.541c.119.068.237.137.354.208A12.643,12.643,0,0,1,36.747,11a8.422,8.422,0,0,1,3.717,2.277,4.066,4.066,0,0,1,1.049,2.638,1.338,1.338,0,0,1-.387,1.009l-.106-.248-.034-.007A.985.985,0,0,0,41.3,15.9c0-.476-.253-.865-.562-.865s-.562.389-.562.865.252.865.562.865h0l.129.3a.77.77,0,0,1-.8-.185c.068.117.135.236.2.356a.893.893,0,0,0,.158.041,1.214,1.214,0,0,0,.534-.007l8.6,20.118H40.439l0-4.136v0a17.014,17.014,0,0,0-.728-16.96.991.991,0,0,1,.456-1.15,7.621,7.621,0,0,0-.815-1.526,3.65,3.65,0,0,0-1.826-1.532,4.19,4.19,0,0,0-1.867-.233c.039.029.077.059.115.089a17.2,17.2,0,0,0-7.862-3.454l.127-2.8L25.021,0l-2.8,5.6.111,2.888a17.286,17.286,0,0,0-11.995,8.162l.049-.081a1.2,1.2,0,0,0-.338-1.488A7.442,7.442,0,0,1,11.18,13.17a3.275,3.275,0,0,1,3.2-1.138c.063-.051.126-.1.19-.15a4.183,4.183,0,0,0-2.095.2,3.65,3.65,0,0,0-1.826,1.532,7.621,7.621,0,0,0-.815,1.526A1.076,1.076,0,0,1,9.4,17.108a.962.962,0,0,1-.273-.044l.129-.3h0c.31,0,.562-.388.562-.865s-.252-.865-.562-.865-.562.389-.562.865a.985.985,0,0,0,.312.774l-.034.007-.106.248a1.338,1.338,0,0,1-.387-1.009,4.066,4.066,0,0,1,1.049-2.638A8.422,8.422,0,0,1,13.253,11a12.945,12.945,0,0,1,2.991-.266c.122-.074.245-.146.37-.217ZM9.043,17.269a1.2,1.2,0,0,0,.534.007.993.993,0,0,0,.6-.353c.043-.075.087-.149.131-.223a17.014,17.014,0,0,0-.744,16.019l0,0,0,4.672H.443l8.6-20.118ZM39.5,15.979a1,1,0,0,1,.449-.894A7.442,7.442,0,0,0,38.82,13.17,3.227,3.227,0,0,0,35.849,12l-.051-.04A17.348,17.348,0,0,1,39.5,15.979Zm-6.36,24.593.157-.083-.157.083Zm.168-.089.047-.025a10.243,10.243,0,0,0,7.3,2.914c4.192,0,8.116-2.451,8.742-5.636H37.076l.046-.045a17.317,17.317,0,0,1-3.81,2.792Zm4.113-3.093,0,0H40.09v-3.5a17.284,17.284,0,0,1-2.666,3.506Zm4.522,3.984s.5-.138,2.5-.971a24.86,24.86,0,0,0,2.826-1.326l.467.259a10.968,10.968,0,0,1-6.018,3.291l.221-1.253Zm-1.526-8.092-.1.188.1-.188Zm-.173.322c-.04.074-.082.148-.124.223.042-.074.083-.149.124-.223ZM10.933,41.631s.51-.113,2.55-.846c1.154-.415,1.927-.74,2.381-.944q.289.186.587.358a10.583,10.583,0,0,1-5.8,2.673l.283-1.241Zm16.8.722c-.124.019-.249.036-.374.052.125-.016.25-.033.374-.052Zm-.43.059c-.123.016-.247.03-.371.043.124-.013.248-.027.371-.043Zm-.44.05c-.131.013-.262.025-.393.035.131-.01.262-.022.393-.035Zm-.417.037c-.136.01-.273.018-.409.026.136-.008.273-.016.409-.026ZM26,42.526c-.137.007-.275.012-.413.016.138,0,.276-.009.413-.016Zm-.435.016c-.144,0-.289.006-.434.006s-.287,0-.43-.006c.143,0,.287.006.43.006s.29,0,.434-.006Zm-.889,0c-.133,0-.266-.009-.4-.015.132.006.265.011.4.015Zm-.462-.019c-.12-.006-.24-.014-.359-.022.119.008.239.016.359.022Zm-.456-.03c-.1-.008-.206-.017-.308-.027.1.01.2.019.308.027Zm-.477-.045-.233-.026.233.026Zm-.454-.055-.187-.026.187.026Zm-.841,9.867c-.016-.416.251-.732.819-.665.712.054.6.821,1.587.618a5.944,5.944,0,0,0,1.319-.761,2.6,2.6,0,0,1,1.432-.467.7.7,0,0,1,.706.621c.017.416-.25.732-.818.665-.5-.054-.706-.424-1.665-.283-.235.065-.73.334-1.226.542-.635.266-.734.395-1.385.312a.713.713,0,0,1-.769-.582Zm2.606.4a1.306,1.306,0,0,1,.535-.3c.317-.084.484-.117.484-.117l-.276.693a.731.731,0,0,0-.663.04l-.08-.317Zm.418.532a.466.466,0,1,1-.451.465.459.459,0,0,1,.451-.465Zm-1.043-1.24a.43.43,0,0,1,.07-.491l.344.366-.414.125Zm.82-.3.5-.349-1.308-1.322a.662.662,0,0,0-.082.4.687.687,0,0,0,.082.369l.8.9Zm.824-.513.412-.225-2.018-2.245a.629.629,0,0,0-.093.369,1.109,1.109,0,0,0,.124.431l1.575,1.67Zm.309-1.055a.5.5,0,0,0,.134-.318,1.581,1.581,0,0,0-.062-.39l-1.967-2.091a.588.588,0,0,0-.092.349.782.782,0,0,0,.082.41l1.905,2.04Zm.031-1.333s.113-.061.113-.3a1.248,1.248,0,0,0-.041-.359l-1.987-2.163a.746.746,0,0,0-.083.369.536.536,0,0,0,.083.369l1.915,2.081Zm-.031-1.363a.213.213,0,0,0,.175-.215,1.248,1.248,0,0,0-.051-.38l-1.267-1.424a1.036,1.036,0,0,0-.422-.031,1.2,1.2,0,0,0-.34.082s1.905,1.958,1.905,1.968Zm.113-1.281a1.487,1.487,0,0,0,.083-.441.843.843,0,0,0-.041-.308s-.3-.03-.546-.03h-.247l.751.779ZM21,45.413c-.134-.267-.01-.615.35-.974a6.355,6.355,0,0,1,3.656-.912c1.956.02,3.264.5,3.882,1.158a.768.768,0,0,1,.051.922c-.165.2-.412.134-.834-.082a7.17,7.17,0,0,0-3.089-.512,7.137,7.137,0,0,0-3.419.625.383.383,0,0,1-.6-.225Zm-3.854-3.395c5.109,1.152,10.951.742,16.09.039,1.024-.126,1.124.727.326,1.011a20.13,20.13,0,0,1-5.32.756A7.034,7.034,0,0,0,25,43.22a7.905,7.905,0,0,0-3.256.639,26.492,26.492,0,0,1-5.478-.835c-.755-.411-.344-1.339.877-1.006ZM25.133,8.766A16.64,16.64,0,1,1,8.418,25.405,16.71,16.71,0,0,1,25.133,8.766Z"/><path class="a" d="M23.605,27.083c-.2,0-.294.067-.475.067s-.181-.135-.181-.135-.068-.113.113-.248.249-.09.475-.067a.806.806,0,0,0,.476-.023.69.69,0,0,1,.272-.068.767.767,0,0,0,.272-.18s.158-.2.317-.068.158.091.2.293.023.181.136.271.182.18-.113.225a1.5,1.5,0,0,1-.43.023c-.181,0-.2.09-.363.09s-.181-.045-.407-.045a.314.314,0,0,1-.295-.135Z"/><path class="a" d="M21.318,27.15l.2-.112-.249-.226-.136-.338-.453.045-.023-.113.113-.112-.181-.113-.136-.158h-.249V25.8l.159-.406h-.2l.181-.293a3.577,3.577,0,0,0-.249-.316,4.237,4.237,0,0,0-.34-.338l.159-.225s.181-.113.181-.226-.136-.2-.136-.2h-.272l.091-.135-.2-.158.091-.225.317-.068.158-.113a.341.341,0,0,0-.045-.225c-.068-.113-.159-.226-.023-.383a.681.681,0,0,1,.317-.2l.068-.158-.158-.09-.363-.113-.181-.2.249-.09.2-.113-.022-.293-.385-.067-.2-.181s0-.135.113-.158a4.483,4.483,0,0,1,.543-.022h.476l-.43-.429-.2-.27-.272-.226-.181-.293.272-.09.294.135s-.09-.247.113-.247a1.588,1.588,0,0,1,.589.27l-.045-.338s-.159-.316-.068-.474.408.181.408.181l.2.18-.271-.631a.578.578,0,0,1,0-.541c.158-.248.362.158.362.158l.294.315.2.09.023-.225s.34-.18.43,0a2.1,2.1,0,0,0,.3.609,1.663,1.663,0,0,1,.271.676s.227.316.408.519.408.248.521.45,0,.542.113.7.272.609.385.789a1.808,1.808,0,0,1,.2.587c.023.135.476.2.476.315s-.046.248.068.338a.539.539,0,0,0,.294.091,1.015,1.015,0,0,1-.023-.226c0-.135-.181-.564.091-.473a.956.956,0,0,1,.544.541,2.476,2.476,0,0,0,.045.563c.045.136.2.316.2.474a2.249,2.249,0,0,0,.249.631c.09.2-.249.609-.249.609s-.181.09-.34.18-.249.383-.023.451.408-.135.838.09.68.451,1,.429a1.9,1.9,0,0,1,1.721.045,15.882,15.882,0,0,0,2.084.7c.611.18.792.428.52.541s-.588,0-1.743-.068a7.236,7.236,0,0,0-1.767-.068c-.249.091-.249.271-.679.519a1.262,1.262,0,0,1-1.087.09,3.484,3.484,0,0,1-.544-.2,1.768,1.768,0,0,1-.611-.09,3.768,3.768,0,0,1-.521-.18s-.317.248-.5.18-.045-.158-.294-.135-.566.045-.838.067a1.948,1.948,0,0,1-.589-.067l-.543-.045a4.738,4.738,0,0,0-.567-.068c-.181,0-.362.113-.634.113a8.282,8.282,0,0,0-1.4.225,1.839,1.839,0,0,0-.43.293,1.012,1.012,0,0,1-.408.474c-.272.135-.294.135-.407.2s-.227.248-.363.248-.181.045-.2-.091.408-.473.567-.608.226-.316.385-.361.362-.113.362-.113l.272-.248.113-.112-.159-.158.091-.271-.272-.2h.295l.022-.225.272-.113.476-.113s-.046.023.181.045a3.308,3.308,0,0,0,.385.046,1.333,1.333,0,0,1,.385.09l-.068.112Zm4.911-.627a.581.581,0,0,1,.336.332.965.965,0,0,1,0,.706c-.159.338-.154.356-.358.356-.055.015-.257-.072-.2-.172a1.3,1.3,0,0,0,.071-.5c.01-.2.022-.345-.074-.414-.183-.154.042-.392.218-.313Zm-6.157,1.236s-.136-.2,0-.293.227-.2.34-.225.159-.158.453,0a.723.723,0,0,0,.611.09,1.4,1.4,0,0,0,.317-.271l.5-.158a.914.914,0,0,0,.317-.157c.136-.113.272-.158.317-.271a.959.959,0,0,1,.181-.248.728.728,0,0,0,.3.09c.135,0,.226-.2.226-.2s-.023-.022.181-.18a1.933,1.933,0,0,1,.5-.338c.182-.068.136-.181.363-.181a3.5,3.5,0,0,0,.5,0c.113-.022.294-.247.294-.247s-.158-.316-.294-.361a2.475,2.475,0,0,1-.362-.181l-.114-.225s-.045-.2.136-.18.272-.023.385.2.091.2.272.315a.6.6,0,0,0,.249.113s-.09-.135-.226-.316a.739.739,0,0,1-.181-.361,1.651,1.651,0,0,0-.159-.338s.045-.248.2-.112a.7.7,0,0,1,.2.338l.113.27.181.181s.113-.248.159-.113,0,.158.09.338.249.271.181.406a1.241,1.241,0,0,1-.453.361,1,1,0,0,0-.385.36,1.914,1.914,0,0,0-.158.541.487.487,0,0,0,.068.361l.272.023s.249-.068.249.18-.023.676-.136.767a.742.742,0,0,1-.544.045,1.7,1.7,0,0,0-.453-.068c-.136,0-.181-.068-.385-.045s-.521.113-.7.135-.475.136-.589.023-.249-.271-.249-.271a.31.31,0,0,1-.271,0c-.159-.067-.114-.112-.272-.112a1.161,1.161,0,0,0-.34.067s.045-.225-.159-.113-.135.136-.317.136-.226-.045-.339.022a2.73,2.73,0,0,1-.385.158.747.747,0,0,0-.476.045c-.2.113-.2,0-.2,0Zm1.4-9.153.816.9a1.939,1.939,0,0,0,.317.2c.113.045.09.09.136.2s.158.09.226.225.023.113.136.225.34.361.34.361l.068.271v.112l-.227.068h-.5c-.136,0-.068.09-.34.113s-.339.09-.339.09l.52.158s.363.022.521.045.612.09.612.09l.226.18s.114.339.182.474.2.338.2.338v.767c0,.135.046.27.046.4s.022.384.022.384l-.271-.158-.182.18v.226l-.158.225a1.87,1.87,0,0,0,.34.113,3.2,3.2,0,0,1,.407.18c.136.045.068.135.068.135l-.5-.022a.367.367,0,0,1-.317.225c-.227,0-.272-.18-.521.023a1.031,1.031,0,0,1-.612.248c-.181.022-.068-.2-.249.022a2.453,2.453,0,0,1-.43.5,1.541,1.541,0,0,0-.408.339.135.135,0,0,1-.2.045s.159-.384,0-.5-.135-.023-.271-.023-.34-.045-.272-.158a1.15,1.15,0,0,1,.272-.248l-.2-.158s-.227-.135-.159-.247.182-.271.046-.384-.159-.112-.2-.248.045,0,0-.2-.113-.225.09-.338.363-.09.5-.18.158-.09.158-.226-.249-.067-.43,0a4.575,4.575,0,0,1-.5.136l.385-.429s.158-.022.158-.135-.158-.045-.158-.18.113-.023.271-.181l.159-.158s-.091-.112.158-.112a5.8,5.8,0,0,0,.68-.068s.158-.068.158-.18-.362-.158-.52-.113a.858.858,0,0,1-.544.045c-.226-.067-.272.023-.249-.09a1.126,1.126,0,0,0,.045-.293v-.361s-.09-.045-.2-.113-.339-.135-.045-.18a2.059,2.059,0,0,1,.566.023h.431s.045-.248-.136-.339a4.151,4.151,0,0,1-.385-.225l.113-.293s-.023.022-.294-.18l-.272-.2a.9.9,0,0,0,.226.045c.181.022.181-.09.43.045a.749.749,0,0,0,.453.135c.136,0,.136-.248.068-.451s-.181-.18-.226-.36-.045-.2-.068-.316a4.649,4.649,0,0,0-.159-.451Z"/><path class="a" d="M11.024,30.512l.116.315-.249.091L10.553,30l.249-.091.115.312,1-.366.107.289-1,.366Zm-.571-.791-.152-.6a.5.5,0,0,1-.006-.253.353.353,0,0,1,.108-.178.42.42,0,0,1,.177-.093.4.4,0,0,1,.226.006.267.267,0,0,1,.161.125l.513-.381.084.333L11.105,29l.055.218.509-.127.077.3-1.293.324Zm.158-.36.324-.081-.063-.251a.177.177,0,0,0-.081-.118.17.17,0,0,0-.129-.016.166.166,0,0,0-.1.07.159.159,0,0,0-.017.13l.068.266Zm-.531-1.3,1.317-.211.049.306-1.316.211-.05-.306Zm-.055-.325-.067-.623a.546.546,0,0,1,.021-.245.33.33,0,0,1,.108-.157.312.312,0,0,1,.16-.064.32.32,0,0,1,.134.014.3.3,0,0,1,.115.071.326.326,0,0,1,.075.123.34.34,0,0,1,.046-.157.3.3,0,0,1,.1-.105.336.336,0,0,1,.143-.047.355.355,0,0,1,.181.027.344.344,0,0,1,.15.119.392.392,0,0,1,.075.2l.076.7-1.322.142Zm.2-.334.288-.031-.029-.272a.156.156,0,0,0-.054-.111.141.141,0,0,0-.2.025.179.179,0,0,0-.029.132l.028.257Zm.522-.056.32-.034-.031-.288a.155.155,0,0,0-.063-.115.166.166,0,0,0-.117-.033.149.149,0,0,0-.107.059.177.177,0,0,0-.031.139l.029.272Zm-.9-1.795v-.264l.929,0a.437.437,0,0,1,.191.039.351.351,0,0,1,.131.11.507.507,0,0,1,.075.159.8.8,0,0,1,.028.192.705.705,0,0,1-.1.4.378.378,0,0,1-.337.153l-.913,0v-.336l.884,0c.146,0,.219-.077.218-.23a.237.237,0,0,0-.052-.17.213.213,0,0,0-.162-.055l-.889,0Zm.014-.567.016-.333.8-.4v0L9.9,24.2l.012-.24,1.327.066-.013.264-.918.464v.006l.892.044-.012.241-1.327-.066Zm1-1.883-.484.065.441.213.043-.278Zm.538-.073-.284.04-.066.426.257.123-.041.267-1.252-.626.055-.352L11.45,22.7l-.051.328Zm-1.216-.8.078-.294,1.032.272.136-.512.254.066-.216.807-1.284-.339Zm.453-1.611.154-.424a.675.675,0,0,1,.146-.242.553.553,0,0,1,.207-.139.633.633,0,0,1,.241-.04.76.76,0,0,1,.247.046.789.789,0,0,1,.218.121.679.679,0,0,1,.164.183.548.548,0,0,1,.076.233.592.592,0,0,1-.035.263l-.164.45-1.254-.451Zm.335-.211.791.284.055-.152a.22.22,0,0,0,.009-.129.283.283,0,0,0-.057-.12.517.517,0,0,0-.108-.1.684.684,0,0,0-.143-.072.611.611,0,0,0-.2-.037.359.359,0,0,0-.18.045.249.249,0,0,0-.111.138l-.052.142Zm.177-1.105.414-.85.236.114-.279.573.242.116.219-.449.225.108-.219.45.265.128.279-.573.232.112-.414.85-1.2-.579Zm.96-1.8.158-.265.8.478a.528.528,0,0,1,.187.167.267.267,0,0,1,.04.183.589.589,0,0,1-.082.21c-.021.034-.062.092-.124.175l-.225-.133.043-.056c.018-.023.032-.042.044-.059a.216.216,0,0,0,.033-.126.136.136,0,0,0-.079-.1l-.8-.475Zm.836-1.205.159-.211.743.554a.427.427,0,0,1,.129.146.339.339,0,0,1,.038.166.492.492,0,0,1-.036.173.811.811,0,0,1-.093.17.718.718,0,0,1-.324.26.376.376,0,0,1-.362-.08l-.73-.545.2-.269.707.528a.2.2,0,0,0,.313-.052.24.24,0,0,0,.061-.168.209.209,0,0,0-.1-.141l-.711-.531Zm1.1-.737a.184.184,0,0,0-.143-.014.281.281,0,0,0-.128.085.246.246,0,0,0-.063.112.1.1,0,0,0,.035.1.1.1,0,0,0,.074.028.22.22,0,0,0,.085-.027.864.864,0,0,0,.1-.065l.107-.084a.522.522,0,0,1,.281-.1.359.359,0,0,1,.25.1l.042.043a.371.371,0,0,1,.1.222.457.457,0,0,1-.041.227.786.786,0,0,1-.134.2.5.5,0,0,1-.637.159l.138-.26a.262.262,0,0,0,.326-.074.3.3,0,0,0,.071-.137.113.113,0,0,0-.029-.114.108.108,0,0,0-.076-.029.275.275,0,0,0-.142.058l-.19.129a.529.529,0,0,1-.21.086.31.31,0,0,1-.215-.057.367.367,0,0,0-.057-.04.49.49,0,0,1-.115-.166.375.375,0,0,1-.017-.215.558.558,0,0,1,.13-.248.484.484,0,0,1,.576-.17l-.113.254Zm.468-.646-.238.238-.188-.186.692-.692.188.186-.235.236.756.75-.218.218-.757-.75Zm.723-1.038.841,1.03-.241.2-.842-1.03.242-.2Zm1.376,0,.253-.166a.6.6,0,0,1,.082.207.453.453,0,0,1,0,.191.508.508,0,0,1-.075.166.683.683,0,0,1-.128.136l.015.058a.221.221,0,0,1,.135-.052.117.117,0,0,1,.1.046.137.137,0,0,1,.022.127.217.217,0,0,1-.08.116.41.41,0,0,1-.195.072l-.022-.083a.273.273,0,0,0,.134-.047.1.1,0,0,0,.036-.045.048.048,0,0,0-.006-.041c-.027-.035-.074-.03-.14.015a.126.126,0,0,1-.033.03l-.045-.14a.562.562,0,0,1-.314.075.587.587,0,0,1-.284-.1.985.985,0,0,1-.234-.223.733.733,0,0,1-.153-.341.551.551,0,0,1,.038-.307.584.584,0,0,1,.176-.228.638.638,0,0,1,.217-.113.444.444,0,0,1,.2-.013.493.493,0,0,1,.179.067.745.745,0,0,1,.157.133l-.245.214a.371.371,0,0,0-.116-.1.23.23,0,0,0-.122-.032.179.179,0,0,0-.107.038.185.185,0,0,0-.081.146.382.382,0,0,0,.038.175.928.928,0,0,0,.1.164.951.951,0,0,0,.163.173.3.3,0,0,0,.158.071.22.22,0,0,0,.158-.052.231.231,0,0,0,.077-.131.314.314,0,0,0-.05-.2Zm.934-.671-.362-.328.12.473.242-.145Zm.4.362-.213-.19-.37.223.07.276-.232.139-.323-1.356.307-.185,1.046.922-.285.171Zm.4-1.753.417-.178a.681.681,0,0,1,.277-.059.56.56,0,0,1,.243.056.622.622,0,0,1,.194.148.751.751,0,0,1,.135.212.769.769,0,0,1,.06.241.688.688,0,0,1-.023.244.558.558,0,0,1-.119.215.612.612,0,0,1-.218.153l-.442.188-.524-1.22Zm.384.1.33.769.15-.063a.226.226,0,0,0,.1-.082.3.3,0,0,0,.049-.123.449.449,0,0,0,0-.146.578.578,0,0,0-.044-.153.584.584,0,0,0-.112-.174.36.36,0,0,0-.155-.1.257.257,0,0,0-.178.013l-.139.059Zm1.787-.379a.383.383,0,0,0-.08-.136.246.246,0,0,0-.107-.07.2.2,0,0,0-.114,0,.2.2,0,0,0-.124.112.378.378,0,0,0-.021.223q0,.025.015.063c.006.025.011.045.014.059.011.03.02.057.029.082l.017.054a.422.422,0,0,0,.088.15.283.283,0,0,0,.116.079.2.2,0,0,0,.119.006.189.189,0,0,0,.123-.112.336.336,0,0,0,.02-.171,1.082,1.082,0,0,0-.041-.19,1.229,1.229,0,0,0-.054-.149Zm-.724.359a.756.756,0,0,1-.03-.382.542.542,0,0,1,.14-.277.58.58,0,0,1,.242-.149.5.5,0,0,1,.247-.015.531.531,0,0,1,.216.1.736.736,0,0,1,.168.183.929.929,0,0,1,.11.234.9.9,0,0,1,.035.371.5.5,0,0,1-.121.272.569.569,0,0,1-.26.158.688.688,0,0,1-.243.027.474.474,0,0,1-.27-.125.877.877,0,0,1-.234-.4Zm1.752-1.211.928-.2.055.255-.625.133.056.262.491-.105.053.243-.491.106.062.286.625-.134.054.251-.928.2-.28-1.3Zm1.954.065a.182.182,0,0,0-.1-.106.288.288,0,0,0-.153-.022.248.248,0,0,0-.121.041.1.1,0,0,0-.039.1.094.094,0,0,0,.036.069.2.2,0,0,0,.081.037.722.722,0,0,0,.116.016l.135.01a.514.514,0,0,1,.277.112.354.354,0,0,1,.12.239q0,.016,0,.06a.381.381,0,0,1-.077.23.468.468,0,0,1-.183.142.806.806,0,0,1-.235.061.5.5,0,0,1-.581-.307l.277-.1a.263.263,0,0,0,.293.163.294.294,0,0,0,.144-.055.113.113,0,0,0,.055-.1.106.106,0,0,0-.037-.072.277.277,0,0,0-.144-.052l-.228-.03a.526.526,0,0,1-.214-.076.312.312,0,0,1-.122-.186.343.343,0,0,0-.015-.068.482.482,0,0,1,.026-.2.39.39,0,0,1,.132-.172.568.568,0,0,1,.263-.1.481.481,0,0,1,.542.257l-.254.114Zm.766-.175-.337.018-.015-.263.98-.054.014.264-.333.018.058,1.061-.309.017-.058-1.061Zm1.313.524-.124-.471-.159.461.283.01Zm.138.522-.074-.275-.433-.014-.091.269-.272-.008.472-1.313.358.012.373,1.339-.333-.01Zm.66-1.29.449.062a.68.68,0,0,1,.268.091.56.56,0,0,1,.179.173.61.61,0,0,1,.09.226.753.753,0,0,1,.006.251.786.786,0,0,1-.073.237.665.665,0,0,1-.146.2.554.554,0,0,1-.213.124.6.6,0,0,1-.266.02l-.476-.066.182-1.315Zm.278.282-.115.829.161.023a.237.237,0,0,0,.129-.018.316.316,0,0,0,.105-.081.489.489,0,0,0,.075-.126.634.634,0,0,0,.041-.154.59.59,0,0,0-.006-.206.347.347,0,0,0-.082-.166.254.254,0,0,0-.158-.08l-.15-.021Zm1.7.56a.37.37,0,0,0-.006-.157.239.239,0,0,0-.062-.112.191.191,0,0,0-.1-.053.2.2,0,0,0-.162.041.376.376,0,0,0-.124.186c0,.017-.01.038-.016.063s-.011.045-.015.059c0,.031-.009.059-.014.085l-.01.056a.428.428,0,0,0,.007.173.277.277,0,0,0,.066.125.2.2,0,0,0,.1.061.192.192,0,0,0,.162-.041.345.345,0,0,0,.1-.142,1.045,1.045,0,0,0,.054-.187,1.158,1.158,0,0,0,.022-.157Zm-.808-.021A.765.765,0,0,1,27.7,10.8a.539.539,0,0,1,.255-.178.562.562,0,0,1,.284-.019.491.491,0,0,1,.224.1.523.523,0,0,1,.144.188.746.746,0,0,1,.063.24.93.93,0,0,1-.157.6.508.508,0,0,1-.236.184.568.568,0,0,1-.3.018.693.693,0,0,1-.228-.089.474.474,0,0,1-.179-.238.863.863,0,0,1-.02-.458Zm2.169-.134.429.146a.669.669,0,0,1,.246.14.566.566,0,0,1,.143.2.646.646,0,0,1,.045.239.788.788,0,0,1-.043.247.771.771,0,0,1-.117.219.649.649,0,0,1-.181.166.555.555,0,0,1-.233.081.6.6,0,0,1-.265-.032l-.455-.154.431-1.256Zm.219.329-.272.792.154.053a.24.24,0,0,0,.13.007.3.3,0,0,0,.119-.06.49.49,0,0,0,.1-.109.633.633,0,0,0,.07-.143.611.611,0,0,0,.034-.2.358.358,0,0,0-.049-.178.254.254,0,0,0-.14-.109l-.143-.049Zm1.105.159.861.4-.11.237-.58-.268-.114.243.456.21-.105.226-.456-.21-.123.265.58.268-.109.233-.861-.4.561-1.2Zm1.693.844.409.263-.233.794.635-.535.412.26-.723,1.115-.262-.169.6-.927-.887.744-.179-.115.322-1.093-.595.917-.222-.142.721-1.112Zm1.491,2.025.185-.451L34,14.2l.221.177Zm-.206.5.107-.264-.337-.271-.236.16-.211-.169,1.17-.766.279.224-.512,1.294-.26-.208Zm1.169-.4-.244-.232.184-.191.707.677-.184.19-.24-.23-.74.766-.223-.213.74-.767ZM36.1,15.8a.391.391,0,0,0,.089-.131.238.238,0,0,0,.015-.127.189.189,0,0,0-.05-.1A.2.2,0,0,0,36,15.375a.375.375,0,0,0-.21.078c-.015.011-.031.024-.051.041l-.047.039c-.022.023-.042.043-.061.061l-.041.04a.412.412,0,0,0-.1.144.292.292,0,0,0-.021.139.2.2,0,0,0,.046.108.193.193,0,0,0,.156.062.363.363,0,0,0,.163-.057,1.091,1.091,0,0,0,.154-.12,1.154,1.154,0,0,0,.11-.114Zm-.641-.49a.765.765,0,0,1,.332-.195.537.537,0,0,1,.311,0,.563.563,0,0,1,.241.151.479.479,0,0,1,.121.213.527.527,0,0,1,.006.237.735.735,0,0,1-.092.231.893.893,0,0,1-.163.2.909.909,0,0,1-.319.194.512.512,0,0,1-.3.011.566.566,0,0,1-.256-.163.666.666,0,0,1-.131-.206.463.463,0,0,1-.006-.3.871.871,0,0,1,.255-.382Zm1.614,1.91.316.448-.581.408-.082-.115.1-.126a.447.447,0,0,1-.351-.193.485.485,0,0,1-.084-.445.847.847,0,0,1,.322-.393.822.822,0,0,1,.361-.154.544.544,0,0,1,.312.041.552.552,0,0,1,.223.185.58.58,0,0,1,.1.217.455.455,0,0,1-.013.239.548.548,0,0,1-.157.232l-.2-.219a.276.276,0,0,0,.1-.156.2.2,0,0,0-.031-.17.2.2,0,0,0-.145-.088.371.371,0,0,0-.177.027.916.916,0,0,0-.395.314.2.2,0,0,0,.011.247.232.232,0,0,0,.141.1.218.218,0,0,0,.178-.046l-.149-.209.2-.142Zm1.033.408.3.544a.493.493,0,0,1,.071.242.361.361,0,0,1-.058.2.426.426,0,0,1-.147.136.4.4,0,0,1-.22.052.265.265,0,0,1-.188-.08l-.4.5-.168-.3.36-.432-.111-.2-.459.255-.153-.275,1.164-.646Zm-.058.388-.292.162.126.226a.178.178,0,0,0,.109.093.177.177,0,0,0,.209-.112.162.162,0,0,0-.018-.13l-.134-.239Zm.528,1.732a.4.4,0,0,0,.126-.1.246.246,0,0,0,.057-.114.2.2,0,0,0-.014-.113.2.2,0,0,0-.127-.109.378.378,0,0,0-.225.006c-.016,0-.037.013-.061.023l-.057.021L38.2,19.4l-.051.024a.414.414,0,0,0-.139.105.28.28,0,0,0-.065.125.185.185,0,0,0,.134.226.366.366,0,0,0,.174,0,1.122,1.122,0,0,0,.184-.064,1.3,1.3,0,0,0,.142-.071Zm-.446-.672A.777.777,0,0,1,38.512,19a.545.545,0,0,1,.292.106.565.565,0,0,1,.179.22.5.5,0,0,1,.045.242.52.52,0,0,1-.073.225.727.727,0,0,1-.162.189.917.917,0,0,1-.585.217.5.5,0,0,1-.286-.087.564.564,0,0,1-.189-.237.665.665,0,0,1-.057-.236.471.471,0,0,1,.092-.283.874.874,0,0,1,.366-.279Zm1.048,1.818a.179.179,0,0,0,.084-.116.278.278,0,0,0-.01-.153.257.257,0,0,0-.066-.11.1.1,0,0,0-.1-.018.1.1,0,0,0-.06.049.207.207,0,0,0-.019.087.828.828,0,0,0,.008.116c.006.043.012.088.019.134a.515.515,0,0,1-.053.293.351.351,0,0,1-.21.166l-.058.016a.384.384,0,0,1-.242-.027.463.463,0,0,1-.177-.149.792.792,0,0,1-.11-.217.491.491,0,0,1,.181-.629l.157.249a.262.262,0,0,0-.1.319.285.285,0,0,0,.084.129.117.117,0,0,0,.114.032.11.11,0,0,0,.063-.051.275.275,0,0,0,.021-.151q-.009-.1-.018-.228a.53.53,0,0,1,.03-.225.315.315,0,0,1,.157-.157.4.4,0,0,0,.064-.028.472.472,0,0,1,.2-.016.374.374,0,0,1,.2.093.543.543,0,0,1,.15.235.477.477,0,0,1-.139.581l-.165-.224Zm.326,1.164a.182.182,0,0,0,.09-.112.285.285,0,0,0,0-.153.249.249,0,0,0-.06-.113.1.1,0,0,0-.1-.024.1.1,0,0,0-.063.047.182.182,0,0,0-.024.086.766.766,0,0,0,0,.116l.012.135a.513.513,0,0,1-.068.289.357.357,0,0,1-.219.156l-.058.012a.384.384,0,0,1-.241-.039.46.46,0,0,1-.169-.159.772.772,0,0,1-.1-.221.492.492,0,0,1,.213-.619l.145.257a.257.257,0,0,0-.116.312.281.281,0,0,0,.077.134.116.116,0,0,0,.112.038.11.11,0,0,0,.065-.048.268.268,0,0,0,.029-.15c0-.067,0-.143,0-.229a.482.482,0,0,1,.042-.222.31.31,0,0,1,.164-.149.467.467,0,0,0,.066-.025.486.486,0,0,1,.2-.006.382.382,0,0,1,.191.1.556.556,0,0,1,.138.243.478.478,0,0,1-.17.573l-.153-.233Zm.1,1.313a.391.391,0,0,0,.146-.062.239.239,0,0,0,.083-.1.2.2,0,0,0,.014-.112.2.2,0,0,0-.1-.136.379.379,0,0,0-.219-.048l-.065.006-.061.008-.085.018-.056.011a.417.417,0,0,0-.16.068.285.285,0,0,0-.093.105.2.2,0,0,0-.021.117.188.188,0,0,0,.1.135.348.348,0,0,0,.168.041,1.015,1.015,0,0,0,.194-.018.976.976,0,0,0,.155-.035Zm-.269-.759a.775.775,0,0,1,.385.017.545.545,0,0,1,.258.173.558.558,0,0,1,.12.257.5.5,0,0,1-.015.245.518.518,0,0,1-.126.2.72.72,0,0,1-.2.144.949.949,0,0,1-.248.081.915.915,0,0,1-.373-.011.493.493,0,0,1-.256-.153.56.56,0,0,1-.127-.276.664.664,0,0,1,0-.243.471.471,0,0,1,.158-.252.878.878,0,0,1,.423-.183Zm.921,1.985.009.451a.659.659,0,0,1-.049.277.549.549,0,0,1-.143.2.655.655,0,0,1-.21.124.805.805,0,0,1-.495.01.671.671,0,0,1-.219-.113.543.543,0,0,1-.155-.19.592.592,0,0,1-.062-.259l-.009-.478,1.333-.026Zm-.237.317-.84.017,0,.161a.232.232,0,0,0,.038.124.292.292,0,0,0,.1.091.472.472,0,0,0,.136.054.641.641,0,0,0,.159.016.592.592,0,0,0,.2-.038.351.351,0,0,0,.152-.106.251.251,0,0,0,.054-.168l0-.151ZM39.7,26.7a.4.4,0,0,0,.157-.023.242.242,0,0,0,.1-.073A.191.191,0,0,0,40,26.5a.2.2,0,0,0-.058-.156.38.38,0,0,0-.2-.1l-.065-.01-.06-.008-.087,0-.057-.005a.442.442,0,0,0-.172.025.29.29,0,0,0-.118.078.2.2,0,0,0-.05.107.19.19,0,0,0,.058.156.355.355,0,0,0,.152.082,1.038,1.038,0,0,0,.192.034,1.236,1.236,0,0,0,.159.006Zm-.063-.8a.77.77,0,0,1,.368.115.544.544,0,0,1,.2.233.559.559,0,0,1,.049.279.5.5,0,0,1-.078.234.541.541,0,0,1-.174.162.758.758,0,0,1-.233.087.937.937,0,0,1-.26.014.921.921,0,0,1-.358-.107.5.5,0,0,1-.207-.214.563.563,0,0,1-.051-.3.694.694,0,0,1,.066-.234.472.472,0,0,1,.218-.2.877.877,0,0,1,.456-.067Z"/><path class="a" d="M39.565,28.576a.183.183,0,0,0,.13-.062.279.279,0,0,0,.066-.138.247.247,0,0,0,0-.128A.108.108,0,0,0,39.6,28.2a.2.2,0,0,0-.059.066.755.755,0,0,0-.049.106c-.016.04-.032.082-.049.126a.515.515,0,0,1-.189.231.355.355,0,0,1-.264.044c-.012,0-.031-.007-.059-.015a.381.381,0,0,1-.2-.14.46.46,0,0,1-.082-.216.79.79,0,0,1,.01-.242.493.493,0,0,1,.464-.463l.016.294a.259.259,0,0,0-.241.23.286.286,0,0,0,.01.154.115.115,0,0,0,.084.083.107.107,0,0,0,.08-.015.271.271,0,0,0,.092-.122c.027-.061.059-.13.1-.208a.519.519,0,0,1,.135-.182.319.319,0,0,1,.214-.061.46.46,0,0,0,.069.006.459.459,0,0,1,.184.083.378.378,0,0,1,.127.176.549.549,0,0,1,.016.279.478.478,0,0,1-.405.44l-.035-.275Zm0,1.405-.073.254-.893-.253a.426.426,0,0,1-.172-.09.336.336,0,0,1-.1-.141.5.5,0,0,1-.028-.174.758.758,0,0,1,.026-.192.709.709,0,0,1,.208-.359.377.377,0,0,1,.367-.054l.878.248-.092.323-.85-.24a.2.2,0,0,0-.274.161.237.237,0,0,0,0,.178.211.211,0,0,0,.14.1l.855.242Zm-.194.587-.114.283-.991-.4-.2.492-.243-.1.312-.775,1.234.493Z"/><path class="a" d="M25.134,12.832A12.574,12.574,0,1,1,12.5,25.405,12.627,12.627,0,0,1,25.134,12.832ZM33.3,28.479h0v.159L33.027,29l-.2.316-.249.248-.091.2-.294.315-.249.361-.3.338v.248l-.317.338h-.249l-.249.045-.294.339-.182.383-.226.18-.34.023-.068.248-.2.338.175.325a1.627,1.627,0,0,1,.556-.076,3.332,3.332,0,0,1,.575.044.422.422,0,0,1-.058-.512.459.459,0,0,1,.223-.2.822.822,0,0,1,.239-.43,1.563,1.563,0,0,1,.848-.514,2.811,2.811,0,0,1,.751-.12,2.069,2.069,0,0,0-.425.373c-.238.262-.189.271-.214.347l-.024.076a1.061,1.061,0,0,1,.576.016c.37.153.241.273.73.353l.181.029s.074.094-.067.249a.53.53,0,0,1-.277.2l-.173.084a2.362,2.362,0,0,0,.138.2l.093.123s-.125-.033-.494.174a1.33,1.33,0,0,1-.8.271.778.778,0,0,1-.458-.147,1.717,1.717,0,0,1-.189-.12.343.343,0,0,1-.587-.354,2.453,2.453,0,0,0-.341.183c-.3.19-.255.212-.3.279l-.044.066a1.057,1.057,0,0,1,.551.169c.316.245.159.327.61.532l.167.077s.045.11-.132.222a.535.535,0,0,1-.322.124L30.836,35a2.247,2.247,0,0,0,.08.232l.056.143s-.111-.065-.522.037a1.334,1.334,0,0,1-.844.049.774.774,0,0,1-.4-.263,1.689,1.689,0,0,1-.15-.166.393.393,0,0,1-.282.082h0l-.252.329-.2.052c-.034-.065-.045-.122-.076-.2a.808.808,0,0,0,.321.471l.14.119s.013.118-.188.178a.529.529,0,0,1-.343.032l-.191-.018A2.265,2.265,0,0,0,28,36.33l.015.154s-.089-.094-.513-.106a1.336,1.336,0,0,1-.826-.181.965.965,0,0,1-.194-.167l-.313.274H25.8l-.453-.023-.475-.27-.159-.361-.013-.043h-.023a.231.231,0,0,1-.2-.179c-.418.879-.827,1.252-1.74,1.065a1.658,1.658,0,0,1,.492-.929,1.464,1.464,0,0,1-.694-.4l0,.009a.23.23,0,0,1-.445-.089c-.617.754-1.1,1.019-1.946.62a1.672,1.672,0,0,1,.7-.785,1.563,1.563,0,0,1-.645-.667.23.23,0,1,1-.449-.084c-.8.564-1.336.69-2.042.083a1.674,1.674,0,0,1,.886-.571,1.519,1.519,0,0,1-.428-.754.212.212,0,0,1-.057.063.229.229,0,0,1-.332-.307c-.922.32-1.476.292-1.984-.487a1.68,1.68,0,0,1,1.011-.3,1.486,1.486,0,0,1-.2-.823l.011,0a.248.248,0,0,1-.071-.024.23.23,0,1,1-.382-.206c-.973.08-1.5-.085-1.8-.966a1.681,1.681,0,0,1,1.055-.041,1.423,1.423,0,0,1-.006-.767l-.013,0a.229.229,0,0,1-.182-.413c-.975-.072-1.471-.317-1.626-1.233a1.675,1.675,0,0,1,1.048.123,1.463,1.463,0,0,1,.133-.8l-.031,0a.229.229,0,0,1-.076-.445c-.928-.3-1.35-.662-1.277-1.588a1.681,1.681,0,0,1,.987.371,1.66,1.66,0,0,1,.474-.931,1.328,1.328,0,0,1,.5.91,1.85,1.85,0,0,1,.855-.339c.011.072.018.142.022.208l.351-.123.226-.158-.2-.18-.158-.091-.249-.2-.023-.293.09-.36.068-.316.227-.248.09-.451V22.1l.272-.315.2-.271h.159l-.136-.2-.114-.157V20.7l.136-.271.023-.316.136-.27.136-.293a1.518,1.518,0,0,0,.045-.406,1.341,1.341,0,0,0-.272-.361l-.339-.27-.227-.361-.023-.27-.181-.113-.068-.248-.294-.181-.035-.069a12.075,12.075,0,0,0-3.149,8.131,12.206,12.206,0,1,0,3.843-8.837l.269.054.182.271-.023.36.089.31.364.141.272.068.339-.271.589-.135.046-.316.294-.293.226-.315v-.271l.408-.022.34-.158.249-.068.317-.158.3-.112.294-.248h.249l.272.112.475.023.25.225.362.248.272.136.271.18.34-.023.227.068.068.158.317.068.385-.158L25.1,16.4h.249l.159-.316.521-.045.271.2.182.135.068.18.271-.045.068-.428.3-.045.362-.428.2-.2.158-.293.272.09.068.451.068.924-.249.361-.272.518.7-.09.725.113.272-.113h.385l.181.383.2.226.113.248.362.022.317-.09.2.383v.226l-.362.09-.181.158.2.293.135.248.159-.113.34.135.453.091.181.27h.294A1.52,1.52,0,0,0,32.71,20c.113.022.317.09.317.09a1.184,1.184,0,0,1,.317.135.965.965,0,0,0,.362.113l.227.022.226.181.544.045.045.27.272.181.385.045.385.045.113.451.181.473-.2.248-.09.271.136.473s.045.406.045.564a.663.663,0,0,1-.227.428,1.379,1.379,0,0,1-.452.2l-.272.316-.078.1.005.061c.032.351.072.322.112.391l.039.07a1.052,1.052,0,0,1,.4-.41c.364-.167.365.01.756-.294l.145-.112s.119.01.137.218a.531.531,0,0,1-.037.342l-.056.182a2.128,2.128,0,0,0,.243.037l.154.016s-.11.068-.208.478a1.32,1.32,0,0,1-.344.77.774.774,0,0,1-.419.234,1.725,1.725,0,0,1-.217.056.36.36,0,0,1-.224.416.369.369,0,0,1-.446-.252,2.437,2.437,0,0,0-.106.352c-.079.344-.032.329-.016.407l.016.078a1.057,1.057,0,0,1,.51-.266c.4-.046.344.122.81-.047l.173-.062s.11.046.063.25a.523.523,0,0,1-.142.313l-.11.156a2.3,2.3,0,0,0,.221.11l.141.062s-.126.032-.346.392-.346.532-.566.626a.776.776,0,0,1-.471.094,1.684,1.684,0,0,1-.224-.014.344.344,0,0,1-.687-.024,2.565,2.565,0,0,0-.207.326c-.168.311-.119.309-.124.388l-.006.08a1.05,1.05,0,0,1,.563-.121c.4.061.3.208.793.169l.184-.014s.093.074-.006.258a.534.534,0,0,1-.221.264l-.147.121a2.055,2.055,0,0,0,.182.164l.12.1s-.13,0-.438.286-.475.421-.713.453a.784.784,0,0,1-.479-.034,1.674,1.674,0,0,1-.213-.073.36.36,0,0,1-.416.224.364.364,0,0,1-.231-.461.278.278,0,0,1,.012-.038.411.411,0,0,1-.235-.51.459.459,0,0,1,.168-.248.816.816,0,0,1,.13-.474,1.554,1.554,0,0,1,.7-.7,3.357,3.357,0,0,1,.523-.241.422.422,0,0,1-.3-.419.463.463,0,0,1,.1-.284.818.818,0,0,1,0-.491,1.556,1.556,0,0,1,.487-.861,3.4,3.4,0,0,1,.378-.325.437.437,0,0,1-.355-.306.456.456,0,0,1,0-.3.564.564,0,0,1-.043-.065v.113l-.431.406-.136.361v.36l-.158.316-.091.293-.339.023v.449ZM18.433,32.706a1.159,1.159,0,0,1,.727.175,1.822,1.822,0,0,1,.232-.887A1.313,1.313,0,0,1,20.1,33.7a.229.229,0,0,1,.268.341A1.2,1.2,0,0,1,21.177,34a1.84,1.84,0,0,1-.013-.916c.838.187,1.091.632,1.14,1.461a.232.232,0,0,1,.213-.025.228.228,0,0,1,.143.256l0-.009a1.14,1.14,0,0,1,.672-.172,1.812,1.812,0,0,1-.233-.886,1.284,1.284,0,0,1,1.422,1.038c-.032-.094-.066-.181-.1-.262v-.391l-.2-.383V33.35l-.091-.27-.136-.338v-.361l-.181-.271-.068-.158v-.293s-.045-.18-.158-.18-.091,0-.317-.158-.227-.067-.227-.067h-.2l-.09-.136h-.431l-.385-.135-.249-.18-.022.135-.317.158-.3.27-.181.158-.272-.022-.34-.091-.181-.09-.339.113-.385-.113h-.2l-.181-.135-.182.18h-.259a1.8,1.8,0,0,1-.278.966.232.232,0,0,1,.194.09.227.227,0,0,1,0,.284Zm.089-1.34H18.51l-.5.068-.217-.014a1.138,1.138,0,0,0,.234.825,1.354,1.354,0,0,0,.246-.847l.248-.032ZM17.19,31l-.107-.175.068-.36.022-.429.136-.2-.079-.248a1.6,1.6,0,0,1-.529,1.033A.228.228,0,0,1,16.82,31a.22.22,0,0,0,.057-.1,1.535,1.535,0,0,1,.313.1Zm-.371,0a.168.168,0,0,1-.029.024A.231.231,0,0,0,16.819,31Zm-.137.066h0Zm-.02,0a.054.054,0,0,1-.018,0,.054.054,0,0,0,.018,0ZM17.9,32.705a.126.126,0,1,1,.154.2.128.128,0,0,1-.178-.024.125.125,0,0,1,.024-.176Zm0-.277a.126.126,0,0,1,.177.024.125.125,0,0,1-.023.176.126.126,0,1,1-.154-.2Zm.284.033a.126.126,0,1,1-.024.177.127.127,0,0,1,.024-.177ZM16.885,31.2c.5.047.754.482.82,1.035a1,1,0,0,1-.82-1.035Zm-.66,1.071a1.015,1.015,0,0,0,1.3.246,1,1,0,0,0-1.3-.246Zm.892-3.2-.012-.208v-.429l.091-.27v-.383l.045-.248-.022-.451-.114-.361a1.457,1.457,0,0,1-.226-.293A2.64,2.64,0,0,1,16.743,26a.638.638,0,0,1-.249-.226,1.43,1.43,0,0,0-.317-.314,1.5,1.5,0,0,1-.928.841.229.229,0,0,1-.081.413,1.13,1.13,0,0,1,.419.573,1.834,1.834,0,0,1,.747-.535,1.313,1.313,0,0,1-.55,1.767.228.228,0,0,1,.033.413,1.132,1.132,0,0,1,.5.5,1.836,1.836,0,0,1,.654-.645,2.312,2.312,0,0,1,.149.285Zm-1.661-.161.019-.062a.137.137,0,0,0,0-.034.127.127,0,1,0-.092.153.124.124,0,0,0,.077-.057Zm.815,1.981a.126.126,0,1,1-.067.165.126.126,0,0,1,.067-.165Zm.335-.166a.126.126,0,1,1-.067.165.125.125,0,0,1,.067-.165Zm-.267-.1a.127.127,0,1,1-.067.166.127.127,0,0,1,.067-.166Zm.517-1.417c.26.427.063.89-.342,1.274a1,1,0,0,1,.342-1.274Zm-1.186-.021c.471.171.608.655.534,1.207a1,1,0,0,1-.534-1.207Zm-.909.873c.159.473.642.623,1.2.563a1,1,0,0,0-1.2-.563Zm.082-3.463.027-.055a.109.109,0,0,0,0-.026.127.127,0,1,0-.03.081Zm1.315.554c.19.462-.077.889-.537,1.2a1,1,0,0,1,.537-1.2Zm-1.169-.2c.439.242.5.741.339,1.275a1,1,0,0,1-.339-1.275Zm-1.034.722c.084.492.537.714,1.1.741a1,1,0,0,0-1.1-.741Zm1.471.8a.126.126,0,1,1,.061.245.126.126,0,0,1-.061-.245Zm.247.143a.126.126,0,1,1-.092.153.127.127,0,0,1,.092-.153Zm-1.991-3.578c-.039.5.347.822.882.983a1,1,0,0,0-.882-.983Zm1.178-.451a1,1,0,0,1,.019,1.318,1,1,0,0,1-.019-1.318Zm1.085.479c.072.495-.291.844-.814,1.041a1,1,0,0,1,.814-1.041Zm-.826,1.3a.126.126,0,1,1-.127.126.127.127,0,0,1,.127-.126Zm-.206-.2a.126.126,0,1,1-.126.126.127.127,0,0,1,.126-.126Zm4.959,7.991a.126.126,0,1,1,.027.176.125.125,0,0,1-.027-.176Zm.2-.313a.127.127,0,0,1,.177-.027.126.126,0,1,1-.177.027Zm-.281.048a.126.126,0,1,1,.027.176.124.124,0,0,1-.027-.176ZM18.479,33c.493-.093.86.254,1.078.766A1,1,0,0,1,18.479,33Zm-.333,1.212a1.016,1.016,0,0,0,1.318-.124,1,1,0,0,0-1.318.124Zm1.364-1.8c.443.235.511.733.359,1.269a1,1,0,0,1-.359-1.269Zm3.038,2.722,0-.028,0,.028Zm0-.056,0-.026,0,.026Zm0-.03-.006-.024.006.024Zm-.345,0a.127.127,0,1,1,.073.163.127.127,0,0,1-.073-.163Zm-.147-.235a.127.127,0,1,1,.073.163.127.127,0,0,1-.073-.163Zm.259-.12a.128.128,0,0,1,.164-.073.126.126,0,1,1-.164.073Zm-.926-1.233c.489.109.687.571.684,1.128a1,1,0,0,1-.684-1.128Zm-.838.836c.45-.22.9.018,1.243.454a1,1,0,0,1-1.243-.454Zm0,1.257c.453.214.9-.028,1.239-.469a1,1,0,0,0-1.239.469Zm4.37-.416.041.044.091.654.5.158.544-.023.224-.2a1.352,1.352,0,0,1-.062-.134.344.344,0,1,1-.29-.623.3.3,0,0,1,.036-.018.412.412,0,0,1,.2-.527.459.459,0,0,1,.294-.057.842.842,0,0,1,.429-.244,1.575,1.575,0,0,1,.992,0,3.021,3.021,0,0,1,.678.269.421.421,0,0,1,.085-.5.454.454,0,0,1,.268-.135.821.821,0,0,1,.3-.326h0l.04-.049-.091-.293-.045-.338.34-.474.022-.27h.453l.227-.113.022-.316.544-.473h.385l.2-.181.023-.293.113-.18.362-.361.43-.451.363-.541L33,28.5v-.7l.453-.135.181-.361.023-.541.294-.248.068-.315v-.248l.249-.271-.068-.473.136-.158.227-.406.068-.338.272-.158.226-.2.272-.09.339-.2V23.25l-.271-.428v-.451l.181-.271-.023-.27-.113-.383-.159-.046-.407-.045-.317-.2-.181-.248-.3-.046-.34-.157H33.3l-.2-.181-.431-.225-.5-.068-.589-.18-.339-.293-.136.135-.363-.09-.226-.451-.227-.18.068-.384.34-.067v-.181l-.249.068-.317.18-.159-.135.046-.338-.182-.2-.113-.383H29.2L28.86,17.7l-.476.045L28,17.682l-.408-.023-.158-.225.317-.5L28,16.509V15.63l-.226.248-.386.338-.271.135v.271l-.227.18-.5-.022-.068-.158-.317-.248h-.249l-.227.293-.407-.022-.5.112-.362.2-.294-.113-.091-.157h-.158l-.159.09-.272-.113-.339-.361-.318-.067-.249-.158-.294-.226H21.68l-.226-.112-.091.18-.2.2-.362.023-.317.09-.2.2-.521.067v.2l-.158.226-.431.338.068.225-.022.226-.838.022-.249.226-.272.2-.3.045L17.332,18l-.362-.27-.023-.181-.091-.112-.022-.406-.227.022-.181.113.068.226.272.157.022.226.182.135.045.248.226.271.317.135.182.338.2.406-.181.428-.226.338V20.3l-.068.293-.045.541.566.361-.046.406h-.475l-.091-.113-.09.135-.363.519v.541l-.362.563-.045.384.294.157.43.271.068.2-.158.27-.272.068-.385.2v.225l.226.113v.225l.2.136.227.315.2.361.113.361.113.338v1.014l-.113.271.022.406-.067.383.181.338v.181l.181.36-.272.158-.045.519.249.27.362.068.521-.113.363-.225.271.225.521.113.408-.2.09.2.295.067.317-.112.249-.226.272-.112V30.6l.181-.181.249.046.453.383H22.9l.272.158.227.022.2.271h.272l.227.18L24.013,32l.294.36-.022.361.113.316.181.338-.022.293.113.2.045.338.113.428-.061.146a.23.23,0,0,1,.192.255.228.228,0,0,1-.036.1Zm-.318-.14a.128.128,0,0,1,.141-.11.126.126,0,1,1-.141.11Zm-.223.178a.127.127,0,1,1,.11.141.127.127,0,0,1-.11-.141Zm.2.193a.128.128,0,0,1,.142-.11.126.126,0,1,1-.142.11ZM22.8,35.027a1.015,1.015,0,0,1,1.316.144,1,1,0,0,1-1.316-.144Zm.3,1.219c.492.1.863-.24,1.09-.749a1,1,0,0,0-1.09.749Zm.309-2.231c.5-.011.8.391.936.933a1,1,0,0,1-.936-.933ZM28.244,35.3l-.017-.039.017.039Zm-.018-.04-.02-.039.02.039Zm-.021-.04.27-.25.022-.088a.386.386,0,0,1,.076-.335l.021-.1a2.231,2.231,0,0,0-.531.1c-.339.1-.3.135-.363.187l-.06.052a1.051,1.051,0,0,1,.484.311,1.114,1.114,0,0,1,.081.126Zm-1.885-.006a.192.192,0,0,1-.087.256.182.182,0,1,1,.087-.256Zm.247-.517a.192.192,0,0,1-.087.256.194.194,0,0,1-.266-.057.2.2,0,0,1,.353-.2Zm1.159-.269c-.279.092-.572.662-.793.575-.187-.075-.3-.118-.223-.36.227-.369.61-.376,1.016-.215Zm-.324.651a2.9,2.9,0,0,1,1.105.861c-.5,0-.584.063-.812-.188a4.844,4.844,0,0,0-.7-.606.441.441,0,0,0,.405-.067Zm.131-.055a.381.381,0,0,1,.468.14c.226.268.118.3.118.3a2.242,2.242,0,0,0-.586-.442Zm-.811.242c-.1.215-.068.192-.217.239a.9.9,0,0,0,.3.5c.218.129.4.045.633.11l.364.1a2.1,2.1,0,0,0-.447-.593,1.464,1.464,0,0,0-.638-.359Zm2.678-.71c-.039.234-.013.2-.143.289a.887.887,0,0,0,.431.4c.244.065.394-.063.638-.065l.378,0a2.1,2.1,0,0,0-.592-.45,1.466,1.466,0,0,0-.712-.173ZM30,34.2a2.918,2.918,0,0,1,1.3.53c-.481.132-.545.218-.833.038a4.873,4.873,0,0,0-.838-.393A.441.441,0,0,0,30,34.2Zm.111-.089a.382.382,0,0,1,.489.009c.29.2.2.259.2.259a2.277,2.277,0,0,0-.685-.268Zm.024-.625c-.244.164-.37.792-.607.768-.2-.021-.322-.032-.313-.286.118-.417.484-.527.92-.482Zm-1.043.572a.191.191,0,0,1-.014.27.182.182,0,1,1,.014-.27Zm-.1.565a.191.191,0,0,1-.014.27.193.193,0,0,1-.271.017.191.191,0,0,1,.014-.27A.193.193,0,0,1,29,34.618Zm2.258-1.335a.191.191,0,0,1,.059.264.181.181,0,1,1-.059-.264Zm-.058-.57a.191.191,0,0,1,.059.264.181.181,0,1,1-.059-.264Zm.852-.827c-.191.222-.145.861-.379.9-.2.033-.319.056-.378-.192,0-.433.326-.636.757-.708Zm.062.724a2.91,2.91,0,0,1,1.393.166c-.428.255-.467.355-.793.258a4.912,4.912,0,0,0-.912-.158.439.439,0,0,0,.312-.266Zm.082-.115a.384.384,0,0,1,.474-.122c.333.113.258.2.258.2a2.272,2.272,0,0,0-.732-.076Zm-.567.625c.025.237.042.2-.061.316a.9.9,0,0,0,.523.273c.253,0,.363-.165.6-.232l.364-.1a2.1,2.1,0,0,0-.691-.277,1.475,1.475,0,0,0-.733.022Zm2.095-3.347c-.132.261.065.871-.153.964-.185.079-.3.13-.413-.1-.1-.421.164-.7.566-.867Zm-.629,1a.2.2,0,1,1-.229.147.2.2,0,0,1,.229-.147Zm.193.54a.2.2,0,0,1-.108.39.2.2,0,0,1,.108-.39Zm.321-.246c.08.223.088.184.016.321a.9.9,0,0,0,.573.142c.245-.063.313-.247.526-.367l.328-.186a2.092,2.092,0,0,0-.737-.105,1.463,1.463,0,0,0-.706.2Zm.348-.611a2.907,2.907,0,0,1,1.393-.168c-.355.349-.369.455-.708.438a4.879,4.879,0,0,0-.924.063.437.437,0,0,0,.239-.333Zm.053-.131a.382.382,0,0,1,.431-.231c.35.032.3.131.3.131a2.264,2.264,0,0,0-.729.1Zm.595-1.274a.2.2,0,1,1-.181.2.193.193,0,0,1,.181-.2Zm-.331-.469a.2.2,0,1,1-.18.2.192.192,0,0,1,.18-.2Zm.574.147c.138.194.135.154.1.3a.9.9,0,0,0,.59-.016c.22-.125.236-.32.409-.493l.267-.266a2.115,2.115,0,0,0-.739.094,1.458,1.458,0,0,0-.629.376Zm.173-.681a2.915,2.915,0,0,1,1.3-.532c-.249.431-.233.537-.565.61a4.862,4.862,0,0,0-.874.306.436.436,0,0,0,.142-.384Zm.016-.141a.38.38,0,0,1,.354-.336c.345-.063.322.047.322.047a2.256,2.256,0,0,0-.676.289Zm-.425-.461c-.057.287.3.822.111.97-.158.125-.252.2-.425.016-.21-.38-.027-.714.314-.986Zm.646-.895a.2.2,0,1,1-.11.248.193.193,0,0,1,.11-.248Zm-.46-.345a.2.2,0,1,1-.109.248.192.192,0,0,1,.109-.248Zm-.031-1.184c.034.291.536.691.406.889-.111.167-.176.271-.4.145-.318-.3-.247-.67-.007-1.034Zm.622,1.148c.191.142.176.105.192.259a.9.9,0,0,0,.556-.2c.171-.187.125-.378.236-.595l.171-.335a2.115,2.115,0,0,0-.673.316,1.461,1.461,0,0,0-.482.551Zm-.047-.7a2.9,2.9,0,0,1,1.069-.9c-.1.486-.055.582-.348.754a4.78,4.78,0,0,0-.736.559.437.437,0,0,0,.015-.409Zm-.028-.138a.379.379,0,0,1,.232-.429c.309-.166.321-.055.321-.055a2.254,2.254,0,0,0-.553.484Z"/></svg>